<?xml version="1.0" standalone="no"?>
<!DOCTYPE svg PUBLIC "-//W3C//DTD SVG 20010904//EN"
 "http://www.w3.org/TR/2001/REC-SVG-20010904/DTD/svg10.dtd">
<svg version="1.0" xmlns="http://www.w3.org/2000/svg"
 width="500.000000pt" height="500.000000pt" viewBox="0 0 500.000000 500.000000"
 preserveAspectRatio="xMidYMid meet">
<metadata>
Created by potrace 1.14, written by Peter Selinger 2001-2017
</metadata>
<g transform="translate(0.000000,500.000000) scale(0.100000,-0.100000)"
fill="#000000" stroke="none">
<path d="M1892 3570 l-53 -5 -24 -58 c-29 -73 -43 -133 -50 -222 -9 -102 -14
-134 -25 -156 -6 -10 -9 -19 -6 -19 3 0 0 -15 -5 -32 -5 -18 -12 -69 -14 -113
-6 -86 -14 -167 -21 -200 -9 -43 0 -407 11 -455 3 -14 8 -34 10 -45 16 -89 72
-233 112 -289 l32 -45 554 1 554 0 43 32 c132 96 235 247 276 406 18 71 24
215 11 295 -4 28 -10 65 -13 83 -3 19 -12 53 -20 75 -8 23 -24 76 -35 117 -11
41 -41 113 -67 160 -26 47 -51 94 -55 105 -9 22 -116 198 -162 265 -16 25 -37
57 -44 73 -14 27 -15 27 -120 28 -58 0 -270 1 -471 2 -201 1 -389 0 -418 -3z"/>
</g>
</svg>
