<svg xmlns="http://www.w3.org/2000/svg" xmlns:xlink="http://www.w3.org/1999/xlink" width="500" zoomAndPan="magnify" viewBox="0 0 375 374.999991" height="500" preserveAspectRatio="xMidYMid meet" version="1.0"><path fill="#c5815c" d="M 300.558594 70.511719 C 302.699219 74.875 307.476562 77.347656 309.945312 81.464844 C 311.265625 83.605469 311.839844 86.160156 312.089844 88.714844 C 312.253906 90.195312 312.253906 91.761719 311.511719 93.078125 C 310.769531 94.394531 309.289062 95.386719 307.886719 94.972656 C 300.066406 96.289062 292.324219 91.265625 284.417969 91.84375 C 279.148438 92.253906 274.289062 94.972656 269.265625 96.621094 C 260.453125 99.503906 250.984375 98.84375 241.757812 98.183594 C 238.960938 98.019531 236.078125 97.773438 233.523438 96.539062 C 230.722656 95.136719 228.664062 92.75 226.6875 90.359375 C 220.101562 82.535156 213.511719 74.546875 208.488281 65.652344 C 207.335938 63.59375 206.183594 61.289062 204.703125 59.394531 C 203.136719 57.417969 201.242188 55.605469 199.761719 53.546875 C 197.535156 50.414062 196.382812 46.628906 195.890625 42.839844 C 195.394531 39.050781 195.476562 35.179688 195.558594 31.308594 C 195.644531 27.273438 194.160156 23.402344 193.667969 19.367188 C 193.335938 16.730469 192.511719 14.257812 191.359375 11.871094 C 190.535156 10.304688 191.03125 8.246094 191.691406 6.597656 C 191.855469 6.1875 192.019531 5.859375 192.101562 5.445312 C 192.183594 5.035156 192.019531 4.621094 191.691406 4.375 C 191.359375 4.210938 190.949219 4.210938 190.621094 4.046875 C 190.125 3.800781 190.042969 3.140625 190.125 2.5625 C 190.207031 1.988281 190.371094 1.410156 190.125 0.917969 C 189.796875 0.175781 188.644531 0.09375 187.984375 0.503906 C 187.324219 0.917969 186.914062 1.738281 186.667969 2.5625 C 185.429688 6.515625 186.089844 10.800781 186.832031 14.835938 C 187.570312 18.871094 188.476562 23.070312 187.570312 27.191406 C 186.832031 30.648438 184.9375 33.859375 185.183594 37.402344 C 185.429688 40.53125 184.441406 43.578125 184.113281 46.628906 C 183.949219 48.191406 183.703125 49.757812 184.113281 51.320312 C 184.523438 52.886719 185.597656 54.285156 186.5 55.6875 C 188.230469 58.488281 189.382812 61.617188 190.453125 64.664062 C 192.019531 69.195312 193.667969 73.804688 195.230469 78.335938 C 198.523438 87.808594 203.546875 96.621094 208.40625 105.351562 C 210.21875 108.644531 212.113281 111.9375 214.914062 114.492188 C 218.617188 117.953125 223.558594 119.761719 228.417969 121.246094 C 236.984375 123.71875 245.960938 125.199219 254.9375 124.707031 C 265.3125 124.210938 275.605469 124.046875 285.984375 123.550781 C 288.535156 123.46875 291.253906 123.304688 293.558594 124.457031 C 294.875 125.117188 296.03125 126.1875 297.347656 126.847656 C 299.734375 128.082031 302.699219 128.246094 305.171875 127.175781 C 310.605469 124.871094 316.699219 124.210938 321.886719 121.410156 C 331.6875 116.222656 338.769531 107.164062 347.417969 100.242188 C 347.910156 99.832031 348.40625 99.421875 348.734375 98.925781 C 349.144531 98.265625 349.3125 97.527344 349.476562 96.785156 C 349.804688 95.054688 350.21875 93.40625 350.050781 91.679688 C 349.886719 89.949219 349.230469 88.21875 347.828125 87.148438 C 346.839844 86.40625 345.6875 86.160156 344.617188 85.582031 C 343.546875 85.007812 342.558594 84.019531 342.558594 82.867188 C 342.722656 76.277344 344.945312 69.851562 344.371094 63.265625 C 344.207031 61.121094 343.710938 58.816406 341.980469 57.582031 C 340.417969 56.429688 338.277344 56.59375 336.382812 57.085938 C 330.617188 58.40625 325.429688 61.617188 319.828125 63.429688 C 316.535156 64.5 313.078125 65.074219 309.699219 65.980469 C 306.324219 66.886719 303.277344 68.289062 300.558594 70.511719 Z M 300.558594 70.511719 " fill-opacity="1" fill-rule="nonzero"/><path stroke-linecap="butt" transform="matrix(0.823518, 0, 0, 0.823611, 0.221931, -46.605803)" fill-opacity="1" fill="#c5815c" fill-rule="nonzero" stroke-linejoin="miter" d="M 379.598687 80.102104 C 371.098565 84.901851 364.998589 93.799404 363.499683 103.498497 C 363.10124 105.89837 363.001629 108.502185 361.602334 110.598517 C 360.701094 111.997653 359.202188 112.99839 357.897761 113.999128 C 356.598077 114.999865 355.198783 116.199802 354.501507 117.698537 C 353.799488 119.202015 353.99871 121.298347 355.398004 122.299085 C 356.199634 122.901424 357.200486 123.001024 358.101726 123.399422 C 358.998223 123.79782 359.899464 124.499759 359.799853 125.500497 C 359.799853 126.098093 359.40141 126.700433 359.202188 127.29803 C 358.898613 128.801508 360.701094 130.300243 360.198296 131.798978 C 359.899464 132.899315 358.400559 133.501655 358.400559 134.701592 C 358.400559 135.398788 358.998223 136.100727 359.202188 136.797924 C 359.799853 138.6002 358.002115 140.098935 357.100875 141.801612 C 356.100023 143.599145 356.199634 145.70022 357.100875 147.497754 C 358.101726 149.399629 359.501021 149.698428 361.49798 150.201168 C 365.99944 151.401105 370.799732 151.301505 375.201581 150.101569 C 379.100633 149.001232 382.800463 146.900157 386.301071 144.799082 C 393.999563 140.198534 401.299612 135.00039 408.201218 129.299505 C 410.700975 127.29803 413.101121 125.102099 414.799248 122.398684 C 416.502118 119.700012 417.199394 116.199802 415.999321 113.202332 C 414.799248 110.200119 411.901048 108.099044 408.798883 106.998707 C 405.701461 105.89837 402.499685 105.300773 399.402263 104.200436 C 394.801193 102.497759 390.598566 99.400689 387.700366 95.502081 C 385.200609 92.20107 384.199757 88.09852 383.497738 84.000712 C 383.298517 82.800776 383.099295 81.600839 382.402019 80.699701 C 381.799611 79.599364 380.599538 79.499764 379.598687 80.102104 Z M 379.598687 80.102104 " stroke="#ffffff" stroke-width="0.75" stroke-opacity="1" stroke-miterlimit="10"/><path fill="#221b1b" d="M 311.347656 38.71875 C 309.207031 36.578125 306.078125 35.179688 303.03125 35.835938 C 302.207031 36.003906 300.804688 36.660156 301.21875 37.730469 C 301.628906 38.71875 303.195312 38.144531 303.933594 37.980469 C 306.40625 37.730469 308.957031 37.980469 311.347656 38.71875 Z M 311.347656 38.71875 " fill-opacity="1" fill-rule="nonzero"/><path fill="#221b1b" d="M 307.476562 23.402344 C 308.546875 29.332031 312.335938 34.683594 317.523438 37.8125 C 319.003906 38.71875 320.734375 39.542969 321.476562 41.109375 C 322.136719 42.507812 321.804688 44.15625 321.722656 45.722656 C 321.640625 47.285156 321.886719 49.015625 323.207031 49.921875 C 324.605469 50.828125 326.417969 50.25 327.816406 49.34375 C 329.300781 48.4375 330.617188 47.285156 332.183594 46.460938 C 333.746094 45.636719 335.558594 45.144531 337.207031 45.636719 C 339.429688 46.378906 340.664062 48.851562 340.582031 51.15625 C 340.5 53.464844 339.347656 55.605469 338.027344 57.5 C 335.230469 61.289062 335.0625 66.476562 334.652344 71.171875 C 334.488281 72.984375 334.488281 74.792969 334.980469 76.523438 C 335.476562 78.253906 336.464844 79.902344 338.027344 80.808594 C 339.59375 81.710938 341.734375 81.710938 343.050781 80.476562 C 343.875 79.820312 344.371094 78.832031 345.277344 78.335938 C 346.097656 77.84375 347.253906 77.925781 348.074219 78.417969 C 348.898438 78.914062 349.394531 79.902344 349.476562 80.808594 C 349.558594 81.796875 349.144531 82.699219 348.816406 83.605469 C 348.488281 84.511719 348.242188 85.582031 348.652344 86.488281 C 352.441406 95.960938 361.664062 102.136719 369.40625 108.726562 C 368.335938 105.269531 367.347656 101.808594 366.277344 98.433594 C 365.453125 95.796875 364.710938 93.242188 363.804688 90.691406 C 362.324219 86.570312 360.429688 82.535156 358.289062 78.746094 C 357.546875 77.511719 356.804688 76.277344 356.558594 74.875 C 356.144531 72.816406 356.722656 70.675781 357.382812 68.617188 C 358.121094 66.230469 358.699219 63.921875 359.605469 61.617188 C 363.804688 51.15625 364.546875 39.296875 361.746094 28.425781 C 359.605469 20.105469 352.523438 13.269531 344.121094 11.542969 C 339.097656 10.46875 333.828125 11.128906 328.722656 12.035156 C 320.652344 13.519531 312.582031 15.660156 305.746094 20.1875 C 305.089844 20.683594 304.347656 21.507812 304.757812 22.164062 C 305.171875 23.070312 307.3125 22.25 307.476562 23.402344 Z M 307.476562 23.402344 " fill-opacity="1" fill-rule="nonzero"/><path fill="#5f3629" d="M 349.0625 78.832031 C 348.816406 78.996094 348.570312 79.242188 348.40625 79.488281 C 348.242188 79.734375 348.242188 80.148438 348.40625 80.394531 C 348.652344 80.808594 349.230469 80.722656 349.722656 80.640625 C 352.277344 80.066406 354.992188 79.40625 356.804688 77.511719 C 357.300781 76.9375 357.464844 76.03125 356.558594 75.863281 C 355.816406 75.78125 354.664062 76.277344 354.003906 76.441406 C 352.191406 77.019531 350.546875 77.84375 349.0625 78.832031 Z M 349.0625 78.832031 " fill-opacity="1" fill-rule="nonzero"/><path fill="#c5815c" d="M 304.921875 305.324219 C 302.945312 309.195312 300.722656 313.394531 301.300781 317.761719 C 309.289062 316.769531 317.359375 315.78125 325.347656 314.792969 C 331.933594 313.972656 338.605469 313.148438 345.277344 312.816406 C 356.722656 312.160156 368.417969 312.652344 379.453125 309.6875 C 380.605469 309.359375 381.839844 308.945312 382.664062 308.042969 C 383.652344 306.886719 383.652344 305.160156 382.992188 303.757812 C 382.417969 302.359375 381.261719 301.289062 380.191406 300.21875 C 376.816406 297.167969 373.109375 294.535156 369.40625 291.898438 C 367.511719 290.582031 365.453125 289.179688 363.144531 288.933594 C 361.335938 288.6875 359.523438 289.179688 357.710938 289.675781 C 349.640625 291.734375 341.324219 293.132812 333.003906 293.792969 C 328.804688 294.121094 324.605469 294.285156 320.40625 294.285156 C 318.265625 294.285156 316.207031 294.203125 314.066406 294.121094 C 313.078125 294.039062 312.003906 294.039062 311.015625 293.957031 C 310.359375 293.875 309.453125 293.710938 308.792969 294.039062 C 308.054688 294.371094 308.054688 295.027344 308.054688 295.769531 C 308.054688 296.921875 307.804688 297.992188 307.558594 299.0625 C 306.980469 301.207031 305.992188 303.265625 304.921875 305.324219 Z M 304.921875 305.324219 " fill-opacity="1" fill-rule="nonzero"/><path fill="#5f3629" d="M 370.558594 296.261719 C 373.191406 297.828125 375.664062 299.558594 377.96875 301.535156 C 379.285156 302.6875 380.6875 304.085938 380.769531 305.816406 C 380.769531 306.722656 380.523438 307.710938 381.097656 308.371094 C 381.839844 309.277344 383.238281 308.78125 384.308594 308.289062 C 388.179688 306.3125 392.546875 304.664062 396.828125 305.40625 C 398.722656 305.734375 400.535156 306.476562 402.34375 307.136719 C 404.15625 307.792969 406.132812 308.207031 408.027344 307.792969 C 409.921875 307.382812 411.734375 306.066406 412.0625 304.171875 C 412.476562 301.945312 410.910156 299.886719 409.261719 298.40625 C 406.378906 295.769531 403.085938 293.710938 399.710938 291.816406 C 396.085938 289.757812 392.050781 287.78125 388.015625 288.6875 C 386.371094 289.015625 384.558594 289.839844 383.238281 288.851562 C 382.25 288.109375 382.085938 286.792969 381.347656 285.886719 C 380.273438 284.402344 378.214844 283.992188 376.40625 284.15625 C 373.109375 284.402344 370.144531 285.886719 367.429688 287.617188 C 366.769531 288.027344 366.027344 288.523438 365.371094 288.933594 C 364.792969 289.261719 363.886719 289.757812 363.804688 290.5 C 363.722656 291.15625 364.464844 291.652344 364.792969 292.144531 C 365.289062 292.722656 365.78125 293.296875 366.359375 293.710938 C 367.59375 294.617188 369.074219 295.359375 370.558594 296.261719 Z M 370.558594 296.261719 " fill-opacity="1" fill-rule="nonzero"/><path fill="#e6ceb8" d="M 313.980469 223.867188 C 301.875 224.03125 289.933594 226.914062 278.652344 231.363281 C 267.371094 235.808594 256.828125 241.824219 246.617188 248.328125 C 242.007812 251.292969 237.3125 254.507812 234.019531 258.953125 C 230.722656 263.402344 229.078125 269.414062 231.054688 274.519531 C 232.207031 277.648438 234.101562 280.367188 235.007812 283.578125 C 235.664062 285.886719 235.089844 288.273438 235.007812 290.582031 C 234.84375 297.664062 239.699219 304.003906 245.300781 308.371094 C 248.101562 310.59375 251.230469 312.40625 254.523438 313.640625 C 258.230469 315.042969 262.265625 315.617188 266.21875 316.113281 C 277.996094 317.761719 290.019531 319.40625 301.710938 317.347656 C 305.910156 310.925781 308.546875 303.511719 308.875 295.851562 C 317.359375 295.359375 325.921875 295.273438 334.40625 295.523438 C 343.957031 295.851562 353.347656 294.945312 362.488281 292.0625 C 371.628906 289.179688 380.273438 285.144531 388.921875 281.027344 C 394.109375 278.554688 396.332031 272.214844 399.050781 267.109375 C 401.769531 262 403.5 256.320312 402.921875 250.554688 C 402.34375 245.28125 399.957031 240.421875 397.320312 235.808594 C 394.769531 231.28125 391.722656 226.667969 387.027344 224.28125 C 382.828125 222.136719 377.804688 222.222656 373.109375 222.550781 C 353.265625 223.949219 333.828125 223.621094 313.980469 223.867188 Z M 313.980469 223.867188 " fill-opacity="1" fill-rule="nonzero"/><path fill="#5f3629" d="M 311.347656 89.703125 C 311.183594 89.621094 311.101562 89.621094 310.933594 89.703125 C 310.359375 89.785156 310.027344 90.441406 309.535156 90.691406 C 308.546875 91.265625 307.558594 91.761719 306.488281 92.089844 C 304.839844 92.585938 303.195312 92.667969 301.628906 93.242188 C 300.230469 93.738281 299.078125 94.726562 298.007812 95.714844 C 294.546875 99.007812 292.160156 103.457031 291.335938 108.152344 C 290.511719 112.597656 291.007812 117.703125 293.066406 121.824219 C 295.207031 126.023438 295.863281 130.46875 295.945312 135.164062 C 296.03125 139.613281 295.617188 144.058594 296.03125 148.507812 C 296.769531 156.085938 299.898438 163.167969 302.945312 170.167969 C 304.839844 174.535156 306.488281 179.0625 308.21875 183.511719 C 309.039062 185.488281 309.78125 187.546875 310.441406 189.605469 C 312.335938 196.03125 312.417969 202.949219 315.382812 208.960938 C 319.335938 216.867188 318.511719 226.503906 316.945312 235.152344 C 316.699219 236.386719 316.453125 237.621094 316.699219 238.859375 C 316.945312 240.09375 317.769531 241.246094 319.003906 241.492188 C 319.992188 241.65625 320.898438 241.246094 321.804688 240.835938 C 325.347656 239.433594 329.300781 239.351562 333.003906 239.929688 C 336.792969 240.503906 340.335938 241.824219 343.875 243.140625 C 345.441406 243.71875 347.085938 244.292969 348.652344 243.800781 C 350.546875 243.140625 351.453125 241.082031 352.933594 239.765625 C 355.734375 237.292969 359.933594 237.621094 363.640625 237.210938 C 369.734375 236.550781 375.582031 233.503906 379.535156 228.808594 C 380.523438 227.65625 382.746094 227.984375 384.0625 228.890625 C 385.382812 229.796875 386.203125 231.199219 386.945312 232.515625 C 388.839844 235.976562 390.570312 239.597656 391.558594 243.46875 C 392.050781 245.527344 392.382812 247.671875 393.285156 249.566406 C 394.359375 251.871094 396.167969 253.683594 397.816406 255.578125 C 399.382812 257.554688 400.78125 259.859375 400.699219 262.414062 C 400.617188 264.390625 399.628906 266.203125 399.132812 268.097656 C 398.640625 269.992188 398.640625 272.296875 400.121094 273.53125 C 401.851562 275.015625 404.816406 274.109375 406.132812 272.214844 C 407.453125 270.320312 407.617188 267.847656 407.617188 265.542969 C 407.617188 263.15625 407.453125 260.765625 407.285156 258.460938 C 406.875 251.953125 406.378906 245.527344 405.0625 239.1875 C 403.746094 232.84375 401.441406 226.585938 397.734375 221.316406 C 395.921875 218.679688 393.203125 216.703125 390.816406 214.5625 C 389.335938 213.242188 388.097656 211.679688 387.191406 209.949219 C 383.652344 203.441406 384.640625 195.453125 382.085938 188.535156 C 381.511719 186.886719 380.6875 185.40625 380.109375 183.757812 C 379.535156 182.109375 379.203125 180.382812 379.535156 178.652344 C 382.003906 166.296875 378.792969 153.613281 377.3125 141.09375 C 376.816406 136.648438 377.0625 132.117188 377.0625 127.671875 C 377.0625 125.28125 377.0625 122.8125 376.074219 120.667969 C 375.167969 118.691406 373.605469 117.128906 372.535156 115.316406 C 371.214844 113.175781 370.476562 110.703125 369.324219 108.398438 C 366.027344 101.808594 359.605469 97.445312 355.074219 91.679688 C 353.757812 89.949219 352.027344 88.464844 350.300781 87.230469 C 349.394531 86.570312 348.488281 85.996094 347.582031 85.335938 C 346.59375 84.675781 345.277344 83.523438 344.121094 84.429688 C 343.957031 84.59375 343.792969 84.761719 343.792969 85.007812 C 343.792969 85.253906 343.957031 85.417969 344.207031 85.582031 C 344.617188 85.832031 344.945312 85.75 345.109375 86.242188 C 345.277344 86.65625 345.195312 87.066406 345.027344 87.394531 C 344.863281 87.890625 344.453125 88.300781 344.121094 88.714844 C 343.464844 89.453125 342.96875 90.277344 342.230469 90.9375 C 341.324219 91.84375 340.5 92.667969 339.59375 93.574219 C 332.839844 100.328125 326.003906 107.078125 318.015625 112.1875 C 316.617188 113.09375 314.640625 113.914062 313.324219 112.925781 C 312.5 112.351562 312.171875 111.199219 312.003906 110.128906 C 311.511719 107.164062 311.59375 104.113281 312.253906 101.148438 C 312.5 99.996094 313.078125 99.171875 313.160156 97.9375 C 313.242188 96.457031 312.992188 94.972656 312.746094 93.492188 C 312.582031 92.503906 312.828125 91.429688 312.417969 90.441406 C 312.003906 90.195312 311.675781 89.867188 311.347656 89.703125 Z M 311.347656 89.703125 " fill-opacity="1" fill-rule="nonzero"/><path fill="#c5815c" d="M 354.5 108.316406 C 347.417969 109.960938 340.417969 113.585938 336.792969 119.847656 C 335.394531 122.316406 334.488281 125.035156 333.664062 127.753906 C 332.183594 132.613281 330.78125 137.554688 330.289062 142.660156 C 330.207031 143.894531 330.125 145.214844 330.125 146.449219 C 330.125 147.601562 330.371094 148.835938 330.289062 149.988281 C 330.125 152.378906 329.875 154.847656 329.628906 157.238281 C 329.050781 162.261719 328.230469 167.203125 327.074219 172.144531 C 326.5 174.617188 325.839844 177.085938 325.101562 179.476562 C 324.441406 181.699219 323.863281 184.253906 322.710938 186.3125 C 322.050781 187.546875 321.886719 188.945312 321.558594 190.347656 C 321.230469 191.828125 320.816406 193.3125 320.324219 194.792969 C 319.417969 197.757812 318.183594 200.640625 316.453125 203.195312 C 314.394531 206.242188 311.757812 208.714844 309.042969 211.183594 C 301.875 217.855469 294.710938 224.527344 287.546875 231.199219 C 278.898438 239.1875 269.347656 246.1875 259.382812 252.449219 C 257.242188 253.765625 255.183594 255.082031 253.207031 256.566406 C 249.664062 259.199219 246.535156 262.496094 243.652344 265.871094 C 240.359375 269.742188 237.394531 273.777344 234.59375 277.980469 C 234.019531 278.804688 233.441406 279.792969 233.605469 280.863281 C 233.773438 281.851562 235.253906 282.589844 235.914062 281.851562 C 235.832031 282.839844 237.3125 283.828125 238.300781 283.578125 C 238.878906 283.414062 239.371094 283.003906 239.78125 282.589844 C 244.230469 278.0625 248.59375 273.53125 253.042969 269.085938 C 251.148438 272.871094 249.171875 276.578125 248.019531 280.699219 C 247.769531 281.6875 247.605469 283.003906 248.429688 283.578125 C 249.417969 284.238281 250.734375 283.414062 251.558594 282.507812 C 254.441406 279.132812 255.59375 274.519531 258.476562 271.144531 C 260.699219 268.507812 263.914062 266.859375 266.960938 265.214844 C 271.160156 262.988281 275.359375 260.847656 279.558594 258.625 C 297.511719 249.234375 314.886719 238.527344 331.277344 226.585938 C 336.050781 223.125 340.582031 219.257812 343.792969 214.3125 C 346.015625 210.9375 347.582031 207.148438 349.230469 203.359375 C 352.851562 194.960938 356.394531 186.476562 360.015625 178.074219 C 361.992188 173.378906 363.722656 168.519531 365.371094 163.746094 C 365.78125 162.507812 366.191406 161.273438 366.6875 160.121094 C 367.015625 159.132812 367.265625 157.816406 367.839844 156.910156 C 368.335938 156.085938 369.40625 155.425781 369.980469 154.683594 C 370.640625 153.859375 371.214844 152.957031 371.792969 152.050781 C 372.535156 150.648438 373.109375 149.167969 373.359375 147.601562 C 374.511719 141.917969 373.851562 136.234375 373.851562 130.386719 C 373.851562 127.175781 373.769531 123.964844 372.863281 120.835938 C 371.628906 117.046875 369.074219 113.832031 365.699219 111.609375 C 362.324219 109.386719 358.371094 107.492188 354.5 108.316406 Z M 354.5 108.316406 " fill-opacity="1" fill-rule="nonzero"/><path stroke-linecap="butt" transform="matrix(0.823518, 0, 0, 0.823611, 0.221931, -46.605803)" fill-opacity="1" fill="#c5815c" fill-rule="nonzero" stroke-linejoin="miter" d="M 88.298745 115.298664 C 95.10074 119.097673 100.199864 125.699696 102.101956 133.198114 C 102.799232 136.001128 103.197675 139.197797 105.199378 141.298872 C 106.399451 142.698007 108.102321 143.499546 109.700838 144.400684 C 111.299354 145.301822 112.89787 146.402159 113.6995 148.100093 C 114.50113 149.798027 114.097943 152.098301 112.399816 152.89984 C 111.901762 153.099039 111.398965 153.198638 110.900911 153.50218 C 110.398113 153.800978 109.99967 154.298975 110.198892 154.801716 C 110.398113 155.299713 111.000522 155.498912 111.299354 156.001652 C 111.598186 156.599249 111.598186 157.500387 111.299354 158.097984 C 111.000522 158.799923 110.602078 159.402263 110.298503 159.99986 C 109.99967 160.6022 109.900059 161.498595 110.298503 162.100935 C 110.602078 162.598932 111.100132 162.798131 111.498576 163.201272 C 112.499427 164.097667 112.399816 165.302347 112.200595 166.502283 C 111.901762 168.001018 112.001373 169.101356 113.101835 170.301292 C 113.898722 171.197688 114.899573 171.999226 115.198406 173.199163 C 115.701203 175.200638 113.998332 177.097771 112.200595 178.098509 C 110.398113 179.099246 108.301543 179.601987 106.797894 181.001122 C 104.502102 183.301396 104.397748 187.200004 102.002345 189.301079 C 100.697918 190.501016 98.80057 190.999013 96.998088 191.297812 C 94.000277 191.800552 90.997723 192.09935 87.900301 191.999751 C 86.202174 191.999751 84.399693 191.800552 82.900788 190.999013 C 80.699863 189.799077 79.599401 187.299604 78.69816 184.99933 C 75.301906 176.201376 73.001371 167.000281 70.999668 157.799186 C 70.297649 154.801716 69.699984 151.600304 70.700836 148.69769 C 71.701687 145.70022 74.301055 143.499546 76.800812 141.59767 C 81.197917 137.99786 81.700715 131.50018 82.900788 125.998494 C 83.299231 124.001762 83.697674 122.000286 84.499304 120.09841 C 85.201323 118.002078 86.600618 116.299402 88.298745 115.298664 Z M 88.298745 115.298664 " stroke="#ffffff" stroke-width="0.75" stroke-opacity="1" stroke-miterlimit="10"/><path fill="#221b1b" d="M 74.996094 65.570312 C 75.65625 65.40625 76.148438 64.910156 76.644531 64.5 C 78.125 63.429688 80.019531 62.933594 81.75 63.347656 C 81.832031 63.839844 82.246094 64.828125 81.832031 65.160156 C 81.503906 65.40625 79.9375 65.242188 79.445312 65.242188 C 78.042969 65.324219 76.398438 65.242188 74.996094 65.570312 Z M 74.996094 65.570312 " fill-opacity="1" fill-rule="nonzero"/><path fill="#c5815c" d="M 106.621094 105.433594 C 109.667969 102.796875 113.042969 100.574219 116.667969 99.007812 C 118.644531 98.101562 120.785156 97.363281 122.679688 96.207031 C 125.644531 94.394531 127.949219 91.679688 130.089844 88.960938 C 131.738281 86.902344 133.46875 84.84375 135.113281 82.785156 C 136.679688 80.808594 138.160156 78.664062 140.054688 77.019531 C 144.007812 73.476562 147.960938 69.851562 151.914062 66.3125 C 154.960938 63.59375 157.925781 60.875 160.972656 58.15625 C 164.347656 55.109375 167.808594 51.980469 170.523438 48.355469 C 173.324219 44.734375 175.382812 40.449219 175.878906 35.921875 C 176.125 33.203125 177.359375 30.8125 179.171875 28.753906 C 183.949219 23.152344 182.054688 14.421875 182.382812 7.011719 C 182.382812 6.105469 182.632812 5.035156 183.453125 4.871094 C 184.03125 4.707031 184.523438 5.035156 184.9375 5.445312 C 186.914062 7.421875 186.007812 10.800781 186.996094 13.433594 C 187.40625 14.507812 188.066406 15.414062 188.394531 16.484375 C 188.890625 18.292969 188.3125 20.1875 188.148438 22 C 187.902344 24.554688 188.558594 27.191406 188.3125 29.742188 C 188.066406 32.050781 187.160156 34.273438 186.75 36.578125 C 186.171875 39.460938 186.417969 42.425781 185.925781 45.308594 C 185.429688 48.191406 183.949219 51.238281 181.230469 52.308594 C 178.679688 57.003906 175.878906 61.535156 173.242188 66.230469 C 171.511719 69.359375 169.785156 72.488281 167.972656 75.535156 C 164.84375 80.640625 161.464844 85.5 157.761719 90.277344 C 152.160156 97.445312 145.65625 104.199219 138.492188 109.878906 C 134.785156 112.761719 130.996094 115.398438 127.042969 118.035156 C 118.890625 123.550781 110.492188 128.90625 101.433594 132.53125 C 103.328125 123.550781 104.808594 114.492188 106.621094 105.433594 Z M 106.621094 105.433594 " fill-opacity="1" fill-rule="nonzero"/><path fill="#c5815c" d="M 36.292969 300.710938 C 35.796875 301.699219 35.46875 302.851562 35.714844 303.921875 C 35.878906 304.746094 36.457031 305.488281 36.949219 306.148438 C 37.609375 306.96875 38.269531 307.792969 39.175781 308.289062 C 40.574219 309.113281 42.222656 309.113281 43.867188 309.113281 C 45.433594 309.113281 46.914062 309.113281 48.480469 309.03125 C 49.140625 309.03125 49.960938 308.945312 50.210938 308.289062 C 50.375 307.957031 50.292969 307.628906 50.210938 307.300781 C 49.386719 302.851562 47.820312 298.570312 45.597656 294.617188 C 45.1875 293.957031 44.773438 293.296875 44.03125 293.050781 C 42.960938 292.722656 42.796875 293.628906 42.386719 294.285156 C 41.890625 294.945312 40.65625 295.441406 39.996094 295.933594 C 38.433594 297.335938 37.117188 298.898438 36.292969 300.710938 Z M 36.292969 300.710938 " fill-opacity="1" fill-rule="nonzero"/><path fill="#e6ceb8" d="M 98.386719 238.035156 C 104.066406 237.789062 109.585938 239.515625 114.9375 241.246094 C 119.878906 242.8125 124.820312 244.375 129.761719 245.941406 C 133.878906 247.257812 138.078125 248.578125 141.785156 250.800781 C 145.492188 253.023438 148.785156 256.152344 150.347656 260.1875 C 151.914062 264.308594 151.503906 269.085938 149.195312 272.789062 C 148.371094 274.191406 146.230469 276.332031 146.5625 278.144531 C 146.808594 279.132812 147.550781 280.121094 147.960938 281.027344 C 148.371094 282.097656 148.703125 283.332031 148.867188 284.484375 C 149.527344 289.921875 146.808594 295.109375 144.253906 299.886719 C 142.691406 302.851562 140.960938 305.898438 138.160156 307.875 C 135.527344 309.769531 132.230469 310.347656 129.019531 310.839844 C 116.007812 313.066406 102.832031 315.289062 89.738281 313.394531 C 79.113281 311.914062 68.164062 311.828125 57.539062 312.652344 C 55.152344 312.816406 52.679688 312.984375 50.292969 313.148438 C 49.878906 313.148438 49.46875 313.230469 49.054688 312.984375 C 48.726562 312.734375 48.5625 312.324219 48.480469 311.914062 C 47.902344 310.019531 47.328125 308.042969 46.75 306.148438 C 45.761719 302.851562 44.691406 299.394531 45.019531 295.933594 C 42.960938 295.769531 40.902344 295.605469 38.84375 295.441406 C 38.269531 295.359375 37.609375 295.359375 37.199219 294.945312 C 36.457031 294.285156 36.457031 293.132812 36.621094 292.144531 C 36.949219 289.921875 37.199219 287.617188 37.527344 285.390625 C 39.257812 272.707031 43.539062 260.519531 43.867188 247.753906 C 43.949219 244.128906 47.492188 241.410156 50.785156 239.847656 C 54.078125 238.28125 57.867188 238.035156 61.410156 238.445312 C 65.03125 238.859375 68.492188 239.929688 71.949219 241 C 76.316406 242.316406 80.761719 243.71875 85.125 245.035156 C 85.621094 245.199219 86.195312 245.363281 86.691406 245.28125 C 87.433594 245.199219 88.089844 244.625 88.667969 244.128906 C 90.890625 242.234375 93.03125 240.257812 95.257812 238.363281 C 95.667969 237.953125 96.160156 237.539062 96.738281 237.375 C 97.316406 237.375 97.972656 237.539062 98.386719 238.035156 Z M 98.386719 238.035156 " fill-opacity="1" fill-rule="nonzero"/><path fill="#cd9b8b" d="M 62.316406 110.128906 C 66.019531 111.199219 69.890625 110.621094 73.597656 109.796875 C 77.304688 108.972656 81.007812 107.738281 84.796875 107.574219 C 87.679688 107.410156 90.644531 107.820312 93.527344 107.820312 C 96.410156 107.820312 99.457031 107.328125 101.84375 105.597656 C 102.75 104.9375 103.492188 104.113281 104.398438 103.539062 C 106.125 102.386719 108.265625 102.054688 110.328125 101.808594 C 110.984375 101.726562 111.726562 101.644531 112.21875 102.054688 C 112.796875 102.550781 112.796875 103.457031 112.796875 104.199219 C 112.386719 111.28125 111.890625 118.527344 109.007812 124.953125 C 107.855469 127.589844 106.289062 129.976562 105.304688 132.695312 C 104.316406 135.496094 103.902344 138.542969 102.996094 141.425781 C 102.089844 144.308594 100.28125 147.109375 97.480469 148.179688 C 97.230469 149.660156 97.808594 151.0625 98.550781 152.296875 C 100.28125 155.507812 102.171875 158.71875 103.328125 162.179688 C 104.480469 165.640625 104.808594 169.511719 103.492188 172.96875 C 101.679688 177.664062 97.230469 180.628906 94.269531 184.746094 C 93.773438 185.40625 93.28125 186.230469 93.113281 187.050781 C 92.949219 187.875 93.113281 188.863281 93.773438 189.441406 C 100.113281 194.960938 103.078125 203.277344 104.808594 211.265625 C 106.867188 220.65625 106.375 230.867188 104.890625 240.257812 C 104.148438 244.953125 102.996094 249.566406 101.597656 254.09375 C 101.101562 255.578125 100.527344 257.140625 99.457031 258.296875 C 98.386719 259.449219 96.574219 260.105469 95.089844 259.367188 C 88.503906 256.234375 80.679688 257.390625 73.433594 256.234375 C 72.28125 256.070312 71.042969 255.90625 69.972656 256.402344 C 68.984375 256.894531 68.328125 257.964844 67.914062 259.035156 C 67.503906 260.105469 67.257812 261.261719 66.679688 262.25 C 66.101562 263.238281 65.03125 264.058594 63.878906 263.894531 C 62.644531 263.730469 61.820312 262.578125 61.328125 261.425781 C 60.914062 260.273438 60.75 259.035156 60.175781 257.964844 C 59.515625 256.730469 58.363281 255.90625 57.375 254.917969 C 54.902344 252.53125 53.421875 249.316406 51.199219 246.683594 C 50.703125 246.105469 49.878906 245.445312 49.222656 245.859375 C 48.808594 246.105469 48.726562 246.601562 48.644531 247.09375 C 48.480469 248.578125 48.316406 250.058594 48.316406 251.542969 C 48.316406 257.800781 46.007812 263.894531 45.679688 270.15625 C 45.351562 276.414062 45.105469 282.757812 43.621094 288.851562 C 42.140625 294.945312 39.257812 300.875 34.480469 304.992188 C 30.445312 308.453125 25.09375 310.347656 19.820312 310.265625 C 14.46875 310.183594 9.199219 308.125 5.246094 304.664062 C 3.761719 303.347656 2.445312 301.617188 2.527344 299.722656 C 2.691406 296.675781 6.234375 295.109375 7.796875 292.476562 C 8.953125 290.582031 9.035156 288.273438 8.457031 286.132812 C 7.878906 284.074219 6.398438 282.179688 5.410156 280.285156 C 3.515625 276.167969 1.867188 271.636719 0.964844 267.023438 C 0.222656 263.238281 -0.0234375 259.449219 0.386719 255.578125 C 0.878906 250.554688 2.363281 245.695312 3.761719 240.917969 C 4.667969 237.789062 5.492188 234.90625 6.070312 231.691406 C 6.644531 228.398438 7.878906 225.1875 9.773438 222.386719 C 10.679688 221.066406 11.667969 219.832031 12.988281 219.089844 C 13.5625 218.761719 14.222656 218.515625 14.632812 218.019531 C 15.457031 217.277344 15.621094 216.042969 15.949219 214.972656 C 16.9375 211.679688 19.246094 209.042969 21.46875 206.488281 C 22.703125 205.089844 22.703125 203.03125 23.363281 201.300781 C 25.503906 196.03125 25.421875 190.183594 25.09375 184.582031 C 24.761719 178.898438 24.269531 173.214844 25.585938 167.699219 C 26.328125 164.566406 27.070312 161.683594 27.316406 158.554688 C 27.644531 154.027344 28.550781 149.578125 29.539062 145.214844 C 30.199219 142.25 30.773438 139.285156 32.007812 136.566406 C 34.644531 130.46875 39.75 125.941406 44.691406 121.574219 C 47.820312 118.773438 50.375 115.644531 53.421875 112.679688 C 54.574219 111.527344 55.890625 110.292969 57.457031 109.878906 C 59.101562 109.304688 60.832031 109.714844 62.316406 110.128906 Z M 62.316406 110.128906 " fill-opacity="1" fill-rule="nonzero"/><path fill="#221b1b" d="M 78.125 51.484375 C 78.292969 56.511719 79.113281 61.535156 78.785156 66.558594 C 78.457031 71.582031 76.726562 76.769531 72.9375 79.984375 C 70.550781 81.960938 67.75 83.113281 66.597656 86.160156 C 65.527344 88.878906 65.773438 92.089844 67.339844 94.5625 C 70.46875 99.585938 77.550781 100.820312 80.925781 105.679688 C 81.339844 106.339844 81.75 107.164062 81.503906 107.820312 C 81.257812 108.5625 80.433594 108.890625 79.691406 109.222656 C 78.210938 109.796875 76.808594 110.375 75.328125 110.949219 C 73.679688 111.609375 71.949219 112.269531 70.222656 112.351562 C 67.996094 112.433594 65.855469 111.527344 63.632812 111.527344 C 59.761719 111.527344 56.304688 114 53.503906 116.714844 C 50.703125 119.433594 48.152344 122.5625 44.609375 124.210938 C 43.292969 124.128906 41.972656 124.953125 41.070312 125.941406 C 40.164062 126.929688 39.503906 128.082031 38.84375 129.316406 C 37.527344 131.789062 36.128906 134.257812 34.808594 136.8125 C 33.164062 139.777344 31.597656 142.824219 30.773438 146.121094 C 29.703125 150.648438 30.199219 155.589844 27.890625 159.625 C 27.234375 156.578125 25.175781 153.53125 26.164062 150.566406 C 26.328125 149.988281 26.65625 149.414062 26.820312 148.835938 C 26.984375 148.261719 26.820312 147.519531 26.410156 147.109375 C 25.914062 146.695312 25.257812 146.777344 24.597656 146.859375 C 22.210938 147.109375 19.820312 147.355469 17.515625 147.601562 C 17.84375 146.53125 19 145.871094 20.152344 145.625 C 21.304688 145.378906 22.457031 145.378906 23.527344 145.132812 C 24.597656 144.800781 25.667969 144.058594 25.832031 142.90625 C 25.914062 142.332031 25.75 141.753906 25.996094 141.261719 C 26.492188 140.023438 28.714844 140.105469 29.046875 138.789062 C 29.210938 138.128906 28.714844 137.390625 28.140625 137.058594 C 27.5625 136.730469 26.820312 136.648438 26.164062 136.402344 C 23.117188 135.578125 20.972656 132.777344 20.234375 129.730469 C 19.492188 126.683594 19.988281 123.46875 20.972656 120.503906 C 21.960938 117.539062 23.527344 114.820312 24.761719 111.9375 C 26.164062 108.890625 26.328125 105.433594 26.328125 102.136719 C 26.328125 98.761719 26.082031 95.46875 26.328125 92.171875 C 26.738281 87.394531 27.972656 82.699219 28.140625 77.925781 C 28.304688 73.3125 27.726562 68.699219 28.632812 64.167969 C 28.878906 62.933594 29.210938 61.78125 29.703125 60.710938 C 30.9375 58.074219 32.914062 55.851562 35.058594 53.957031 C 44.9375 45.144531 59.351562 41.769531 72.113281 45.308594 C 73.679688 45.722656 74.914062 46.792969 76.234375 47.78125 C 76.890625 48.273438 77.550781 48.851562 77.960938 49.507812 C 78.125 49.921875 78.125 50.664062 78.125 51.484375 Z M 78.125 51.484375 " fill-opacity="1" fill-rule="nonzero"/></svg>