<svg width="500" height="500" viewBox="0 0 375 375"><g fill="#c5815c"><path d="M300.559 70.512c2.141 4.363 6.918 6.836 9.387 10.953 1.32 2.141 1.895 4.695 2.145 7.25.164 1.48.164 3.047-.578 4.363s-2.223 2.309-3.625 1.895c-7.82 1.316-15.562-3.707-23.469-3.129-5.27.41-10.129 3.129-15.152 4.777-8.812 2.883-18.281 2.223-27.508 1.563-2.797-.164-5.68-.41-8.234-1.645-2.801-1.402-4.859-3.789-6.836-6.18-6.586-7.824-13.176-15.812-18.199-24.707-1.152-2.059-2.305-4.363-3.785-6.258-1.566-1.977-3.461-3.789-4.941-5.848-2.227-3.133-3.379-6.918-3.871-10.707s-.414-7.66-.332-11.531c.086-4.035-1.398-7.906-1.891-11.941-.332-2.637-1.156-5.109-2.309-7.496-.824-1.566-.328-3.625.332-5.273.164-.41.328-.738.41-1.152s-.082-.824-.41-1.07c-.332-.164-.742-.164-1.07-.328-.496-.246-.578-.906-.496-1.484s.246-1.152 0-1.645c-.328-.742-1.48-.824-2.141-.414s-1.07 1.234-1.316 2.059c-1.238 3.953-.578 8.238.164 12.273s1.645 8.234.738 12.355c-.738 3.457-2.633 6.668-2.387 10.211.246 3.129-.742 6.176-1.07 9.227-.164 1.563-.41 3.129 0 4.691s1.484 2.965 2.387 4.367c1.73 2.801 2.883 5.93 3.953 8.977l4.777 13.672c3.293 9.473 8.316 18.285 13.176 27.016 1.813 3.293 3.707 6.586 6.508 9.141 3.703 3.461 8.645 5.27 13.504 6.754 8.566 2.473 17.543 3.953 26.52 3.461l31.047-1.156c2.551-.082 5.27-.246 7.574.906 1.316.66 2.473 1.73 3.789 2.391 2.387 1.234 5.352 1.398 7.824.328 5.434-2.305 11.527-2.965 16.715-5.766 9.801-5.187 16.883-14.246 25.531-21.168.492-.41.988-.82 1.316-1.316.41-.66.578-1.398.742-2.141.328-1.73.742-3.379.574-5.105s-.82-3.461-2.223-4.531c-.988-.742-2.141-.988-3.211-1.566s-2.059-1.562-2.059-2.715c.164-6.59 2.387-13.016 1.813-19.602-.164-2.145-.66-4.449-2.391-5.684-1.562-1.152-3.703-.988-5.598-.496-5.766 1.32-10.953 4.531-16.555 6.344-3.293 1.07-6.75 1.645-10.129 2.551s-6.422 2.309-9.141 4.531zm0 0"/><path stroke="#fff" stroke-miterlimit="10" stroke-width=".618" d="M312.828 19.367c-7 3.953-12.023 11.281-13.258 19.27-.328 1.977-.41 4.121-1.563 5.848-.742 1.152-1.977 1.977-3.051 2.801s-2.223 1.812-2.797 3.047-.414 2.965.738 3.789c.66.496 1.484.578 2.227.906s1.48.906 1.398 1.73c0 .492-.328.988-.492 1.48-.25 1.238 1.234 2.473.82 3.707-.246.906-1.48 1.402-1.48 2.391 0 .574.492 1.152.66 1.727.492 1.484-.988 2.719-1.73 4.121-.824 1.48-.742 3.211 0 4.691.824 1.566 1.977 1.812 3.621 2.227 3.707.988 7.66.906 11.285-.082 3.211-.906 6.258-2.637 9.141-4.367 6.34-3.789 12.352-8.07 18.035-12.766 2.059-1.648 4.035-3.457 5.434-5.684s1.977-5.105.988-7.574-3.375-4.203-5.93-5.109-5.188-1.398-7.738-2.305c-3.789-1.402-7.25-3.953-9.637-7.164-2.059-2.719-2.883-6.098-3.461-9.473-.164-.988-.328-1.977-.902-2.719-.496-.906-1.484-.988-2.309-.492zm0 0"/></g><path fill="#221b1b" d="M311.348 38.719c-2.141-2.141-5.27-3.539-8.316-2.883-.824.168-2.227.824-1.812 1.895.41.988 1.977.414 2.715.25a18.85 18.85 0 0 1 7.414.738zm-3.871-15.317c1.07 5.93 4.859 11.281 10.047 14.41 1.48.906 3.211 1.73 3.953 3.297.66 1.398.328 3.047.246 4.613s.164 3.293 1.484 4.199c1.398.906 3.211.328 4.609-.578 1.484-.906 2.801-2.059 4.367-2.883s3.375-1.316 5.023-.824c2.223.742 3.457 3.215 3.375 5.52s-1.234 4.449-2.555 6.344c-2.797 3.789-2.965 8.977-3.375 13.672-.164 1.813-.164 3.621.328 5.352s1.484 3.379 3.047 4.285 3.707.902 5.023-.332c.824-.656 1.32-1.645 2.227-2.141.82-.492 1.977-.41 2.797.082s1.32 1.484 1.402 2.391c.082.988-.332 1.891-.66 2.797s-.574 1.977-.164 2.883c3.789 9.473 13.012 15.648 20.754 22.238l-3.129-10.293c-.824-2.637-1.566-5.191-2.473-7.742-1.48-4.121-3.375-8.156-5.516-11.945-.742-1.234-1.484-2.469-1.73-3.871-.414-2.059.164-4.199.824-6.258.738-2.387 1.316-4.695 2.223-7 4.199-10.461 4.941-22.32 2.141-33.191-2.141-8.32-9.223-15.156-17.625-16.883-5.023-1.074-10.293-.414-15.398.492-8.07 1.484-16.141 3.625-22.977 8.152-.656.496-1.398 1.32-.988 1.977.414.906 2.555.086 2.719 1.238zm0 0"/><path fill="#5f3629" d="M349.063 78.832c-.246.164-.492.41-.656.656a.9.9 0 0 0 0 .906c.246.414.824.328 1.316.246 2.555-.574 5.27-1.234 7.082-3.129.496-.574.66-1.48-.246-1.648-.742-.082-1.895.414-2.555.578a19.676 19.676 0 0 0-4.941 2.391m0 0"/><path fill="#c5815c" d="M304.922 305.324c-1.977 3.871-4.199 8.07-3.621 12.438l24.047-2.969c6.586-.82 13.258-1.645 19.93-1.977 11.445-.656 23.141-.164 34.176-3.129 1.152-.328 2.387-.742 3.211-1.645.988-1.156.988-2.883.328-4.285-.574-1.398-1.73-2.469-2.801-3.539-3.375-3.051-7.082-5.684-10.785-8.32-1.895-1.316-3.953-2.719-6.262-2.965-1.809-.246-3.621.246-5.434.742a147.43 147.43 0 0 1-24.707 4.117 161.65 161.65 0 0 1-12.598.492c-2.141 0-4.199-.082-6.34-.164-.988-.082-2.062-.082-3.051-.164-.656-.082-1.562-.246-2.223.082-.738.332-.738.988-.738 1.73 0 1.152-.25 2.223-.496 3.293-.578 2.145-1.566 4.203-2.637 6.262zm0 0"/><path fill="#5f3629" d="M370.559 296.262c2.633 1.566 5.105 3.297 7.41 5.273 1.316 1.152 2.719 2.551 2.801 4.281 0 .906-.246 1.895.328 2.555.742.906 2.141.41 3.211-.082 3.871-1.977 8.238-3.625 12.52-2.883 1.895.328 3.707 1.07 5.516 1.73s3.789 1.07 5.684.656 3.707-1.727 4.035-3.621c.414-2.227-1.152-4.285-2.801-5.766-2.883-2.637-6.176-4.695-9.551-6.59-3.625-2.059-7.66-4.035-11.695-3.129-1.645.328-3.457 1.152-4.777.164-.988-.742-1.152-2.059-1.891-2.965-1.074-1.484-3.133-1.895-4.941-1.73-3.297.246-6.262 1.73-8.977 3.461l-2.059 1.316c-.578.328-1.484.824-1.566 1.566-.082.656.66 1.152.988 1.645.496.578.988 1.152 1.566 1.566 1.234.906 2.715 1.648 4.199 2.551zm0 0"/><path fill="#e6ceb8" d="M313.98 223.867c-12.105.164-24.047 3.047-35.328 7.496s-21.824 10.461-32.035 16.965c-4.609 2.965-9.305 6.18-12.598 10.625s-4.941 10.461-2.965 15.566c1.152 3.129 3.047 5.848 3.953 9.059.656 2.309.082 4.695 0 7.004-.164 7.082 4.691 13.422 10.293 17.789 2.801 2.223 5.93 4.035 9.223 5.27 3.707 1.402 7.742 1.977 11.695 2.473 11.777 1.648 23.801 3.293 35.492 1.234 4.199-6.422 6.836-13.836 7.164-21.496 8.484-.492 17.047-.578 25.531-.328 9.551.328 18.941-.578 28.082-3.461s17.785-6.918 26.434-11.035c5.188-2.473 7.41-8.812 10.129-13.918s4.449-10.789 3.871-16.555c-.578-5.273-2.965-10.133-5.602-14.746-2.551-4.527-5.598-9.141-10.293-11.527-4.199-2.145-9.223-2.059-13.918-1.73-19.844 1.398-39.281 1.07-59.129 1.316zm0 0"/><path fill="#5f3629" d="M311.348 89.703c-.164-.082-.246-.082-.414 0-.574.082-.906.738-1.398.988-.988.574-1.977 1.07-3.047 1.398-1.648.496-3.293.578-4.859 1.152-1.398.496-2.551 1.484-3.621 2.473-3.461 3.293-5.848 7.742-6.672 12.438-.824 4.445-.328 9.551 1.73 13.672 2.141 4.199 2.797 8.645 2.879 13.34.086 4.449-.328 8.895.086 13.344.738 7.578 3.867 14.66 6.914 21.66 1.895 4.367 3.543 8.895 5.273 13.344a78.65 78.65 0 0 1 2.223 6.094c1.895 6.426 1.977 13.344 4.941 19.355 3.953 7.906 3.129 17.543 1.563 26.191-.246 1.234-.492 2.469-.246 3.707s1.07 2.387 2.305 2.633c.988.164 1.895-.246 2.801-.656 3.543-1.402 7.496-1.484 11.199-.906 3.789.574 7.332 1.895 10.871 3.211 1.566.578 3.211 1.152 4.777.66 1.895-.66 2.801-2.719 4.281-4.035 2.801-2.473 7-2.145 10.707-2.555 6.094-.66 11.941-3.707 15.895-8.402.988-1.152 3.211-.824 4.527.082s2.141 2.309 2.883 3.625c1.895 3.461 3.625 7.082 4.613 10.953.492 2.059.824 4.203 1.727 6.098 1.074 2.305 2.883 4.117 4.531 6.012 1.566 1.977 2.965 4.281 2.883 6.836-.082 1.977-1.07 3.789-1.566 5.684s-.492 4.199.988 5.434c1.73 1.484 4.695.578 6.012-1.316s1.484-4.367 1.484-6.672c0-2.387-.164-4.777-.332-7.082-.41-6.508-.906-12.934-2.223-19.273s-3.621-12.602-7.328-17.871c-1.812-2.637-4.531-4.613-6.918-6.754a16.414 16.414 0 0 1-3.625-4.613c-3.539-6.508-2.551-14.496-5.105-21.414-.574-1.648-1.398-3.129-1.977-4.777s-.906-3.375-.574-5.105c2.469-12.355-.742-25.039-2.223-37.559-.496-4.445-.25-8.977-.25-13.422 0-2.391 0-4.859-.988-7.004-.906-1.977-2.469-3.539-3.539-5.352-1.32-2.141-2.059-4.613-3.211-6.918-3.297-6.59-9.719-10.953-14.25-16.719-1.316-1.73-3.047-3.215-4.773-4.449-.906-.66-1.812-1.234-2.719-1.895-.988-.66-2.305-1.812-3.461-.906-.164.164-.328.332-.328.578s.164.41.414.574c.41.25.738.168.902.66.168.414.086.824-.082 1.152-.164.496-.574.906-.906 1.32-.656.738-1.152 1.563-1.891 2.223l-2.637 2.637c-6.754 6.754-13.59 13.504-21.578 18.613-1.398.906-3.375 1.727-4.691.738-.824-.574-1.152-1.727-1.32-2.797a23.57 23.57 0 0 1 .25-8.98c.246-1.152.824-1.977.906-3.211.082-1.48-.168-2.965-.414-4.445-.164-.988.082-2.062-.328-3.051-.414-.246-.742-.574-1.07-.738zm0 0"/><g fill="#c5815c"><path d="M354.5 108.316c-7.082 1.645-14.082 5.27-17.707 11.531-1.398 2.469-2.305 5.188-3.129 7.906-1.48 4.859-2.883 9.801-3.375 14.906-.082 1.234-.164 2.555-.164 3.789 0 1.152.246 2.387.164 3.539-.164 2.391-.414 4.859-.66 7.25-.578 5.023-1.398 9.965-2.555 14.906a106.415 106.415 0 0 1-1.973 7.332c-.66 2.223-1.238 4.777-2.391 6.836-.66 1.234-.824 2.633-1.152 4.035a44.91 44.91 0 0 1-1.234 4.445c-.906 2.965-2.141 5.848-3.871 8.402-2.059 3.047-4.695 5.52-7.41 7.988l-21.496 20.016c-8.648 7.988-18.199 14.988-28.164 21.25-2.141 1.316-4.199 2.633-6.176 4.117-3.543 2.633-6.672 5.93-9.555 9.305-3.293 3.871-6.258 7.906-9.059 12.109-.574.824-1.152 1.813-.988 2.883.168.988 1.648 1.727 2.309.988-.082.988 1.398 1.977 2.387 1.727.578-.164 1.07-.574 1.48-.988l13.262-13.504c-1.895 3.785-3.871 7.492-5.023 11.613-.25.988-.414 2.305.41 2.879.988.66 2.305-.164 3.129-1.07 2.883-3.375 4.035-7.988 6.918-11.363 2.223-2.637 5.438-4.285 8.484-5.93l12.598-6.59c17.953-9.391 35.328-20.098 51.719-32.039 4.773-3.461 9.305-7.328 12.516-12.273 2.223-3.375 3.789-7.164 5.438-10.953l10.785-25.285c1.977-4.695 3.707-9.555 5.355-14.328.41-1.238.82-2.473 1.316-3.625.328-.988.578-2.305 1.152-3.211.496-.824 1.566-1.484 2.141-2.227.66-.824 1.234-1.727 1.813-2.633.742-1.402 1.316-2.883 1.566-4.449 1.152-5.684.492-11.367.492-17.215 0-3.211-.082-6.422-.988-9.551-1.234-3.789-3.789-7.004-7.164-9.227s-7.328-4.117-11.199-3.293zm0 0"/><path stroke="#fff" stroke-miterlimit="10" stroke-width=".618" d="M72.938 48.355c5.602 3.129 9.801 8.566 11.367 14.742.574 2.309.902 4.941 2.551 6.672.988 1.152 2.391 1.812 3.707 2.555s2.633 1.648 3.293 3.047.328 3.293-1.07 3.953c-.41.164-.824.246-1.234.496s-.742.656-.578 1.07.66.574.906.988c.246.492.246 1.234 0 1.727-.246.578-.574 1.074-.824 1.566s-.328 1.234 0 1.73c.25.41.66.574.988.906.824.738.742 1.73.578 2.719-.246 1.234-.164 2.141.742 3.129.656.738 1.48 1.398 1.727 2.387.414 1.648-.988 3.211-2.469 4.035s-3.211 1.238-4.449 2.391c-1.891 1.895-1.977 5.105-3.949 6.836-1.074.988-2.637 1.398-4.121 1.645-2.469.414-4.941.66-7.492.578-1.398 0-2.883-.164-4.117-.824-1.813-.988-2.719-3.047-3.461-4.941-2.797-7.246-4.691-14.824-6.34-22.402-.578-2.469-1.07-5.105-.246-7.496.824-2.469 2.965-4.281 5.023-5.848 3.621-2.965 4.035-8.316 5.023-12.848.328-1.645.656-3.293 1.316-4.859.578-1.727 1.73-3.129 3.129-3.953zm0 0"/></g><path fill="#221b1b" d="M74.996 65.57c.66-.164 1.152-.66 1.648-1.07 1.48-1.07 3.375-1.566 5.105-1.152.082.492.496 1.48.082 1.813-.328.246-1.895.082-2.387.082-1.402.082-3.047 0-4.449.328zm0 0"/><path fill="#c5815c" d="M106.621 105.434c3.047-2.637 6.422-4.859 10.047-6.426 1.977-.906 4.117-1.645 6.012-2.801 2.965-1.812 5.27-4.527 7.41-7.246l5.023-6.176c1.566-1.977 3.047-4.121 4.941-5.766l11.859-10.707 9.059-8.156c3.375-3.047 6.836-6.176 9.551-9.801 2.801-3.621 4.859-7.906 5.355-12.434.246-2.719 1.48-5.109 3.293-7.168 4.777-5.602 2.883-14.332 3.211-21.742 0-.906.25-1.977 1.07-2.141.578-.164 1.07.164 1.484.574 1.977 1.977 1.07 5.355 2.059 7.988.41 1.074 1.07 1.98 1.398 3.051.496 1.809-.082 3.703-.246 5.516-.246 2.555.41 5.191.164 7.742-.246 2.309-1.152 4.531-1.562 6.836-.578 2.883-.332 5.848-.824 8.73s-1.977 5.93-4.695 7c-2.551 4.695-5.352 9.227-7.988 13.922l-5.27 9.305a162.881 162.881 0 0 1-10.211 14.742c-5.602 7.168-12.105 13.922-19.27 19.602-3.707 2.883-7.496 5.52-11.449 8.156-8.152 5.516-16.551 10.871-25.609 14.496 1.895-8.98 3.375-18.039 5.188-27.098zM36.293 300.711c-.496.988-.824 2.141-.578 3.211.164.824.742 1.566 1.234 2.227.66.82 1.32 1.645 2.227 2.141 1.398.824 3.047.824 4.691.824l4.613-.082c.66 0 1.48-.086 1.73-.742.164-.332.082-.66 0-.988a41.2 41.2 0 0 0-4.613-12.684c-.41-.66-.824-1.32-1.566-1.566-1.07-.328-1.234.578-1.645 1.234-.496.66-1.73 1.156-2.391 1.648-1.562 1.402-2.879 2.965-3.703 4.777zm0 0"/><path fill="#e6ceb8" d="M98.387 238.035c5.68-.246 11.199 1.48 16.551 3.211l14.824 4.695c4.117 1.316 8.316 2.637 12.023 4.859s7 5.352 8.563 9.387c1.566 4.121 1.156 8.898-1.152 12.602-.824 1.402-2.965 3.543-2.633 5.355.246.988.988 1.977 1.398 2.883.41 1.07.742 2.305.906 3.457.66 5.438-2.059 10.625-4.613 15.402-1.562 2.965-3.293 6.012-6.094 7.988-2.633 1.895-5.93 2.473-9.141 2.965-13.012 2.227-26.187 4.449-39.281 2.555-10.625-1.48-21.574-1.566-32.199-.742l-7.246.496c-.414 0-.824.082-1.238-.164-.328-.25-.492-.66-.574-1.07l-1.73-5.766c-.988-3.297-2.059-6.754-1.73-10.215l-6.176-.492c-.574-.082-1.234-.082-1.645-.496-.742-.66-.742-1.812-.578-2.801l.906-6.754c1.73-12.684 6.012-24.871 6.34-37.637.082-3.625 3.625-6.344 6.918-7.906s7.082-1.812 10.625-1.402c3.621.414 7.082 1.484 10.539 2.555l13.176 4.035c.496.164 1.07.328 1.566.246.742-.082 1.398-.656 1.977-1.152l6.59-5.766c.41-.41.902-.824 1.48-.988.578 0 1.234.164 1.648.66m0 0"/><path fill="#cd9b8b" d="M62.316 110.129c3.703 1.07 7.574.492 11.281-.332s7.41-2.059 11.199-2.223c2.883-.164 5.848.246 8.73.246s5.93-.492 8.316-2.223c.906-.66 1.648-1.484 2.555-2.059 1.727-1.152 3.867-1.484 5.93-1.73.656-.082 1.398-.164 1.891.246.578.496.578 1.402.578 2.145-.41 7.082-.906 14.328-3.789 20.754-1.152 2.637-2.719 5.023-3.703 7.742-.988 2.801-1.402 5.848-2.309 8.73s-2.715 5.684-5.516 6.754c-.25 1.48.328 2.883 1.07 4.117 1.73 3.211 3.621 6.422 4.777 9.883s1.48 7.332.164 10.789c-1.812 4.695-6.262 7.66-9.223 11.777-.496.66-.988 1.484-1.156 2.305s0 1.813.66 2.391c6.34 5.52 9.305 13.836 11.035 21.824 2.059 9.391 1.566 19.602.082 28.992-.742 4.695-1.895 9.309-3.293 13.836-.496 1.484-1.07 3.047-2.141 4.203s-2.883 1.809-4.367 1.07c-6.586-3.133-14.41-1.977-21.656-3.133-1.152-.164-2.391-.328-3.461.168-.988.492-1.645 1.563-2.059 2.633s-.656 2.227-1.234 3.215-1.648 1.809-2.801 1.645c-1.234-.164-2.059-1.316-2.551-2.469-.414-1.152-.578-2.391-1.152-3.461-.66-1.234-1.812-2.059-2.801-3.047-2.473-2.387-3.953-5.602-6.176-8.234-.496-.578-1.32-1.238-1.977-.824-.414.246-.496.742-.578 1.234-.164 1.484-.328 2.965-.328 4.449 0 6.258-2.309 12.352-2.637 18.613s-.574 12.602-2.059 18.695-4.363 12.023-9.141 16.141c-4.035 3.461-9.387 5.355-14.66 5.273-5.352-.082-10.621-2.141-14.574-5.602-1.484-1.316-2.801-3.047-2.719-4.941.164-3.047 3.707-4.613 5.27-7.246 1.156-1.895 1.238-4.203.66-6.344-.578-2.059-2.059-3.953-3.047-5.848-1.895-4.117-3.543-8.648-4.445-13.262-.742-3.785-.988-7.574-.578-11.445.492-5.023 1.977-9.883 3.375-14.66.906-3.129 1.73-6.012 2.309-9.227.574-3.293 1.809-6.504 3.703-9.305.906-1.32 1.895-2.555 3.215-3.297.574-.328 1.234-.574 1.645-1.07.824-.742.988-1.977 1.316-3.047.988-3.293 3.297-5.93 5.52-8.484 1.234-1.398 1.234-3.457 1.895-5.187 2.141-5.27 2.059-11.117 1.73-16.719-.332-5.684-.824-11.367.492-16.883.742-3.133 1.484-6.016 1.73-9.145.328-4.527 1.234-8.977 2.223-13.34.66-2.965 1.234-5.93 2.469-8.648 2.637-6.098 7.742-10.625 12.684-14.992 3.129-2.801 5.684-5.93 8.73-8.895 1.152-1.152 2.469-2.387 4.035-2.801 1.645-.574 3.375-.164 4.859.25zm0 0"/><path fill="#221b1b" d="M78.125 51.484c.168 5.027.988 10.051.66 15.074s-2.059 10.211-5.848 13.426c-2.387 1.977-5.187 3.129-6.34 6.176-1.07 2.719-.824 5.93.742 8.402 3.129 5.023 10.211 6.258 13.586 11.117.414.66.824 1.484.578 2.141-.246.742-1.07 1.07-1.812 1.402l-4.363 1.727c-1.648.66-3.379 1.32-5.105 1.402-2.227.082-4.367-.824-6.59-.824-3.871 0-7.328 2.473-10.129 5.188s-5.352 5.848-8.895 7.496c-1.316-.082-2.637.742-3.539 1.73s-1.566 2.141-2.227 3.375l-4.035 7.496c-1.645 2.965-3.211 6.012-4.035 9.309-1.07 4.527-.574 9.469-2.883 13.504-.656-3.047-2.715-6.094-1.727-9.059.164-.578.492-1.152.656-1.73s0-1.316-.41-1.727c-.496-.414-1.152-.332-1.812-.25l-7.082.742c.328-1.07 1.484-1.73 2.637-1.977s2.305-.246 3.375-.492c1.07-.332 2.141-1.074 2.305-2.227.082-.574-.082-1.152.164-1.645.496-1.238 2.719-1.156 3.051-2.473.164-.66-.332-1.398-.906-1.73s-1.32-.41-1.977-.656c-3.047-.824-5.191-3.625-5.93-6.672s-.246-6.262.738-9.227 2.555-5.684 3.789-8.566c1.402-3.047 1.566-6.504 1.566-9.801 0-3.375-.246-6.668 0-9.965.41-4.777 1.645-9.473 1.813-14.246.164-4.613-.414-9.227.492-13.758.246-1.234.578-2.387 1.07-3.457 1.234-2.637 3.211-4.859 5.355-6.754 9.879-8.812 24.293-12.187 37.055-8.648 1.566.414 2.801 1.484 4.121 2.473.656.492 1.316 1.07 1.727 1.727.164.414.164 1.156.164 1.977zm0 0"/></svg>