<svg xmlns="http://www.w3.org/2000/svg" xmlns:xlink="http://www.w3.org/1999/xlink" width="500" zoomAndPan="magnify" viewBox="0 0 375 374.999991" height="500" preserveAspectRatio="xMidYMid meet" version="1.0"><defs><clipPath id="16bced2503"><path d="M 273 222 L 375 222 L 375 321.75 L 273 321.75 Z M 273 222 " clip-rule="nonzero"/></clipPath></defs><path fill="#c5815c" d="M 308.878906 236.921875 C 308.222656 236.921875 307.644531 236.921875 306.984375 236.921875 C 305.5 236.921875 304.265625 235.601562 303.355469 234.53125 C 302.367188 233.457031 301.542969 232.140625 300.308594 231.316406 C 298.742188 230.242188 296.679688 229.996094 294.785156 229.667969 C 293.796875 229.5 292.804688 229.253906 292.0625 228.675781 C 291.074219 227.933594 290.578125 226.863281 289.921875 225.792969 C 288.519531 223.484375 286.625 221.421875 284.726562 219.445312 C 283.984375 218.703125 283.242188 217.878906 282.253906 217.546875 C 280.769531 216.972656 279.121094 217.464844 277.636719 218.042969 C 270.878906 220.351562 264.117188 213.839844 257.113281 212.765625 C 252.824219 212.109375 248.125 212.601562 244.582031 210.128906 C 238.730469 221.09375 236.832031 233.707031 235.183594 245.988281 C 234.195312 253.65625 233.125 261.402344 232.132812 269.070312 C 231.640625 272.613281 231.558594 276.984375 234.523438 279.042969 C 237.246094 280.859375 240.953125 279.539062 244.003906 278.300781 C 255.464844 273.933594 268.980469 273.273438 279.453125 279.539062 C 282.832031 281.515625 285.964844 284.320312 289.921875 284.980469 C 294.042969 285.640625 298.246094 283.824219 301.707031 281.433594 C 305.171875 279.042969 308.136719 275.996094 311.765625 273.851562 C 314.652344 272.039062 317.949219 270.882812 321.328125 270.386719 C 323.304688 270.058594 325.613281 269.730469 326.4375 267.996094 C 327.179688 266.433594 326.191406 264.617188 325.285156 263.132812 C 319.761719 254.394531 314.734375 245.246094 308.878906 236.921875 Z M 308.878906 236.921875 " fill-opacity="1" fill-rule="nonzero"/><path fill="#cd9b8b" d="M 92.984375 162.648438 C 87.875 170.148438 85.648438 179.464844 86.804688 188.449219 C 87.378906 192.984375 88.78125 197.433594 89.195312 201.96875 C 89.605469 206.667969 89.027344 211.367188 89.851562 215.980469 C 90.429688 219.527344 91.914062 222.988281 92.410156 226.535156 C 92.738281 228.675781 92.65625 230.820312 92.984375 232.882812 C 93.316406 235.023438 94.058594 237.085938 95.707031 238.570312 C 99.828125 242.277344 105.351562 244.585938 110.875 243.925781 C 116.398438 243.269531 121.425781 240.628906 126.371094 238.074219 C 128.679688 236.839844 131.070312 235.601562 132.800781 233.621094 C 134.863281 231.316406 135.933594 228.265625 137.003906 225.378906 C 139.230469 219.363281 141.953125 213.507812 145.742188 208.398438 C 149.617188 203.289062 154.730469 199 160.746094 196.941406 C 161.570312 196.691406 162.3125 196.855469 163.136719 196.773438 C 174.679688 195.949219 185.890625 195.207031 197.429688 194.46875 C 194.132812 186.71875 190.753906 178.96875 187.453125 171.21875 C 186.054688 168.003906 184.570312 164.625 181.519531 162.8125 C 178.964844 161.246094 175.832031 161.164062 172.863281 161.164062 C 146.074219 160.917969 119.695312 161.410156 92.984375 162.648438 Z M 92.984375 162.648438 " fill-opacity="1" fill-rule="nonzero"/><path fill="#e6ceb8" d="M 301.050781 239.96875 C 301.050781 239.96875 301.132812 239.96875 301.132812 239.96875 C 302.285156 240.21875 303.441406 240.21875 304.59375 239.804688 C 305.089844 239.640625 305.582031 239.3125 305.582031 238.816406 C 305.582031 238.488281 305.335938 238.15625 305.089844 237.992188 C 304.757812 237.828125 304.429688 237.746094 304.097656 237.746094 C 302.863281 237.496094 301.707031 237.085938 300.554688 236.589844 C 300.058594 236.34375 299.316406 236.011719 298.90625 235.601562 C 298.492188 235.1875 298.164062 234.695312 297.835938 234.28125 C 295.9375 232.058594 294.042969 229.832031 292.144531 227.605469 C 289.179688 224.144531 286.210938 220.597656 283.242188 217.136719 C 279.945312 213.261719 276.484375 209.304688 272.03125 206.832031 C 267.25 204.195312 261.480469 203.617188 256.203125 204.769531 C 251.589844 205.84375 247.382812 208.152344 242.769531 208.894531 C 236.996094 209.800781 230.734375 207.984375 226.363281 204.113281 C 212.019531 191.417969 190.011719 190.59375 171.214844 194.21875 C 167.339844 194.960938 163.632812 196.28125 159.921875 197.683594 C 158.601562 198.175781 157.203125 198.753906 156.210938 199.742188 C 154.976562 200.898438 154.316406 202.628906 153.738281 204.277344 C 151.679688 210.292969 150.523438 216.640625 150.195312 222.988281 C 150.03125 226.617188 150.113281 230.324219 149.125 233.871094 C 147.472656 239.3125 146.402344 244.917969 144.753906 250.441406 C 143.269531 255.46875 142.859375 260.742188 142.363281 265.9375 C 141.703125 273.519531 141.042969 281.105469 140.386719 288.6875 C 140.304688 289.183594 140.386719 289.761719 140.796875 290.089844 C 141.210938 290.421875 141.785156 290.503906 142.28125 290.503906 C 152.503906 291.492188 162.808594 289.265625 172.78125 286.792969 C 182.757812 284.320312 192.894531 281.683594 203.199219 281.683594 C 207.15625 281.683594 211.113281 281.433594 214.824219 282.671875 C 217.625 283.578125 220.265625 285.0625 223.148438 285.390625 C 227.269531 285.96875 231.722656 283.992188 233.867188 280.445312 C 236.007812 276.902344 235.84375 272.285156 238.480469 269.152344 C 244.828125 261.566406 250.433594 253.40625 258.347656 247.554688 C 260.246094 246.152344 262.304688 244.75 264.695312 244.421875 C 266.921875 244.007812 269.3125 244.585938 271.371094 245.574219 C 273.433594 246.566406 275.246094 248.050781 276.894531 249.613281 C 280.605469 252.996094 283.820312 256.871094 287.035156 260.660156 C 289.671875 263.710938 292.3125 266.925781 293.464844 270.800781 C 294.207031 273.191406 294.535156 275.746094 294.289062 278.300781 C 294.042969 280.859375 293.382812 283.332031 292.804688 285.722656 C 293.710938 285.144531 294.289062 284.074219 294.703125 283.082031 C 296.597656 278.21875 295.773438 272.695312 293.710938 267.914062 C 291.652344 263.132812 288.355469 259.011719 285.140625 254.972656 C 283.410156 252.746094 281.675781 250.605469 279.945312 248.378906 C 278.296875 246.316406 276.238281 244.503906 274.753906 242.277344 C 273.679688 240.546875 273.351562 238.402344 273.433594 236.34375 C 273.597656 234.28125 274.175781 232.304688 274.835938 230.324219 C 275.988281 226.863281 277.308594 223.234375 280.109375 220.847656 C 281.265625 219.855469 282.832031 219.03125 284.234375 219.527344 C 285.304688 219.9375 286.046875 220.929688 286.707031 221.835938 C 288.601562 224.636719 290.582031 227.441406 292.476562 230.324219 C 293.464844 231.726562 294.453125 233.210938 295.445312 234.613281 C 296.351562 235.929688 297.175781 237.496094 298.246094 238.734375 C 298.824219 239.394531 300.140625 239.804688 301.050781 239.96875 Z M 301.050781 239.96875 " fill-opacity="1" fill-rule="nonzero"/><path fill="#c5815c" d="M 291.238281 286.132812 C 282.832031 294.789062 272.28125 301.136719 261.070312 305.671875 C 249.941406 310.285156 238.152344 313.253906 226.363281 315.808594 C 218.121094 317.625 209.710938 319.273438 201.304688 318.695312 C 196.441406 318.367188 190.917969 316.882812 188.773438 312.429688 C 187.785156 310.203125 187.785156 307.730469 187.785156 305.257812 C 188.195312 284.898438 188.609375 264.371094 193.144531 244.503906 C 194.050781 240.710938 194.050781 236.921875 194.542969 233.046875 C 194.625 232.304688 194.710938 231.480469 194.542969 230.738281 C 194.378906 229.996094 193.886719 229.335938 193.636719 228.59375 C 192.894531 226.617188 193.472656 224.390625 193.308594 222.328125 C 193.144531 218.371094 190.585938 214.664062 190.917969 210.707031 C 191.082031 208.398438 190.585938 206.089844 190.835938 203.78125 C 190.917969 203.371094 191 202.792969 191.496094 202.710938 C 191.90625 202.628906 192.234375 203.203125 192.402344 203.617188 C 193.472656 206.503906 194.792969 209.304688 196.441406 211.941406 C 196.605469 212.191406 196.769531 212.4375 196.933594 212.519531 C 197.429688 212.765625 198.007812 212.519531 198.335938 212.023438 C 198.667969 211.53125 198.667969 211.035156 198.75 210.460938 C 199.160156 206.585938 200.316406 202.792969 202.046875 199.332031 C 202.292969 198.753906 202.621094 198.257812 203.035156 197.847656 C 203.445312 197.433594 204.1875 197.1875 204.765625 197.433594 C 205.507812 197.683594 205.835938 198.589844 205.835938 199.332031 C 205.835938 200.15625 205.507812 200.8125 205.261719 201.636719 C 204.847656 203.121094 204.929688 204.605469 205.425781 206.089844 C 206.578125 203.699219 207.734375 201.226562 208.886719 198.835938 C 209.054688 198.421875 209.382812 197.929688 209.792969 197.765625 C 210.289062 197.597656 210.867188 197.929688 211.195312 198.421875 C 212.019531 199.578125 211.855469 201.144531 211.527344 202.464844 C 211.195312 203.863281 210.703125 205.183594 210.949219 206.585938 C 210.949219 206.832031 211.113281 207.078125 211.277344 207.160156 C 211.609375 207.328125 211.9375 206.996094 212.183594 206.75 C 213.175781 205.679688 214.082031 204.6875 215.070312 203.617188 C 215.648438 202.957031 216.222656 202.378906 217.050781 201.96875 C 217.789062 201.640625 218.78125 201.554688 219.4375 202.132812 C 220.015625 202.628906 220.179688 203.453125 220.015625 204.113281 C 219.933594 204.855469 219.605469 205.511719 219.273438 206.171875 C 218.613281 207.574219 217.957031 208.976562 217.625 210.460938 C 217.296875 211.941406 217.214844 213.507812 217.625 214.992188 C 217.789062 215.488281 218.039062 215.980469 218.449219 216.230469 C 218.863281 216.558594 219.523438 216.558594 219.851562 216.148438 C 220.757812 214.992188 221.914062 214.25 223.066406 213.425781 C 224.21875 212.601562 225.539062 211.941406 226.941406 211.695312 C 227.765625 211.53125 228.753906 211.613281 229.25 212.273438 C 229.496094 212.601562 229.578125 213.097656 229.496094 213.589844 C 229.414062 214.085938 229.25 214.414062 229.085938 214.828125 C 227.765625 217.714844 226.117188 220.351562 224.21875 222.90625 C 220.921875 227.277344 217.789062 232.140625 212.515625 233.871094 C 210.785156 236.921875 210.289062 240.464844 210.042969 244.011719 C 209.546875 251.757812 209.628906 259.507812 210.453125 267.171875 C 210.949219 271.789062 212.019531 276.324219 212.925781 280.941406 C 213.585938 284.074219 214.164062 287.207031 213.832031 290.335938 C 213.832031 290.421875 213.832031 290.585938 213.917969 290.667969 C 214 290.75 214.246094 290.667969 214.328125 290.667969 C 222.160156 286.382812 229.992188 282.175781 237.820312 277.890625 C 241.53125 275.910156 244.910156 273.355469 248.457031 271.046875 C 252 268.738281 255.710938 266.597656 259.832031 265.9375 C 263.292969 265.359375 266.839844 265.773438 270.21875 266.679688 C 276.730469 268.410156 282.75 271.789062 287.613281 276.488281 C 288.929688 277.726562 290.085938 279.125 290.828125 280.773438 C 291.570312 282.589844 292.558594 284.898438 291.238281 286.132812 Z M 291.238281 286.132812 " fill-opacity="1" fill-rule="nonzero"/><path fill="#c5815c" d="M 242.851562 206.253906 C 242.355469 205.265625 241.613281 204.523438 240.789062 203.78125 C 238.648438 201.554688 236.421875 199.414062 234.277344 197.1875 C 233.617188 196.527344 232.875 195.867188 232.050781 195.949219 C 231.390625 195.949219 230.898438 196.363281 230.320312 196.527344 C 229.25 196.691406 228.261719 195.949219 227.105469 195.785156 C 225.785156 195.621094 224.550781 196.363281 223.148438 196.445312 C 221.996094 196.527344 220.921875 196.03125 219.851562 195.703125 C 218.53125 195.375 217.214844 195.207031 215.894531 195.042969 C 213.007812 194.714844 210.207031 194.382812 207.320312 194.054688 C 206.910156 193.972656 206.496094 193.972656 206.085938 194.054688 C 205.671875 194.136719 205.34375 194.550781 205.425781 194.960938 C 205.507812 195.539062 206.085938 195.785156 206.578125 195.949219 C 209.136719 196.859375 211.527344 198.507812 214.164062 198.589844 C 213.175781 198.917969 212.925781 200.238281 213.421875 201.144531 C 213.917969 202.050781 214.988281 202.464844 216.058594 202.378906 C 217.050781 202.378906 218.039062 201.96875 219.027344 201.636719 C 220.429688 201.144531 221.828125 200.566406 223.230469 200.074219 C 223.394531 199.988281 223.5625 199.988281 223.726562 199.988281 C 224.21875 200.074219 224.136719 200.980469 223.644531 201.226562 C 223.230469 201.472656 222.65625 201.472656 222.160156 201.722656 C 221.171875 202.296875 221.253906 203.945312 222.242188 204.6875 C 223.148438 205.429688 224.46875 205.347656 225.539062 204.9375 C 226.363281 204.605469 227.269531 204.113281 228.175781 204.359375 C 228.917969 204.523438 229.332031 205.183594 229.828125 205.761719 C 231.308594 207.492188 233.289062 208.726562 235.515625 209.386719 C 237.65625 210.046875 240.046875 210.128906 242.273438 209.632812 C 242.519531 209.550781 242.933594 209.550781 243.097656 209.386719 C 243.261719 209.222656 243.34375 208.726562 243.34375 208.480469 C 243.34375 207.738281 243.179688 206.914062 242.851562 206.253906 Z M 242.851562 206.253906 " fill-opacity="1" fill-rule="nonzero"/><path stroke-linecap="butt" transform="matrix(0.82434, 0, 0, 0.82434, 0.577043, -45.004043)" fill-opacity="1" fill="#c5815c" fill-rule="nonzero" stroke-linejoin="miter" d="M 452.702229 335.798916 C 449.49891 330.799654 444.59916 326.899756 439.102341 324.900051 C 433.501273 322.900347 427.298397 322.701324 421.702067 324.397756 C 418.697772 325.298097 415.598703 326.800245 412.499635 326.402199 C 410.599442 326.098926 408.79876 325.198585 407.201839 324.198733 C 405.60018 323.198881 403.998521 322.000006 402.197839 321.199176 C 400.401896 320.398346 398.297941 320.099812 396.501998 320.801131 C 394.701316 321.49771 393.199168 323.298392 393.497702 325.298097 C 393.601952 326.098926 392.49785 326.700733 391.701759 326.601222 C 390.900929 326.50171 390.199611 325.999415 389.398781 325.700881 C 388.597952 325.402347 387.702349 325.198585 387.001031 325.800392 C 386.399224 326.402199 386.399224 327.501563 385.598395 327.99912 C 384.901815 328.401904 384.001474 327.99912 383.200645 328.098631 C 382.399815 328.198142 381.698497 328.799949 381.20094 329.501267 C 380.698644 330.197847 380.201087 330.899165 379.499769 331.301949 C 378.101871 332.09804 376.400701 331.600483 374.799042 331.799506 C 372.500803 331.998529 370.60061 333.799211 369.79978 335.898427 C 367.700564 341.300473 371.600462 347.49861 374.201973 352.000314 C 377.301042 357.198599 381.001917 362.098349 385.299861 366.30152 C 387.801861 368.69927 390.398634 371.002247 392.298827 373.902293 C 393.900486 376.300043 394.900338 379.100577 396.198725 381.597839 C 397.50185 384.199351 399.297793 386.601839 401.998816 387.900226 C 404.098032 388.900078 406.600032 388.99959 408.898271 388.601544 C 414.300317 387.701203 419.498601 383.900816 420.597965 378.498771 C 421.199772 375.598725 420.597965 372.698679 420.801727 369.699122 C 421.000749 366.799077 422.398647 363.600497 425.199181 362.700156 C 430.601227 360.998985 436.401318 361.40177 441.798626 359.700599 C 447.200671 357.899917 452.398956 354.90036 455.701786 350.199632 C 456.602127 349.000757 457.298706 347.598121 457.398218 346.100712 C 457.497729 342.101302 454.801445 339.101745 452.702229 335.798916 Z M 452.702229 335.798916 " stroke="#ffffff" stroke-width="1" stroke-opacity="1" stroke-miterlimit="10"/><path fill="#c5815c" d="M 107 116.894531 C 106.339844 116.566406 105.679688 116.15625 105.019531 115.824219 C 104.773438 115.742188 104.609375 115.578125 104.363281 115.578125 C 103.949219 115.578125 103.621094 115.988281 103.371094 116.320312 C 103.042969 116.730469 102.628906 117.0625 102.21875 117.390625 C 101.804688 117.722656 101.476562 118.132812 101.148438 118.546875 C 100.488281 119.371094 99.910156 120.195312 99.414062 121.183594 C 98.425781 122.996094 97.847656 125.058594 97.519531 127.117188 C 97.4375 127.613281 97.4375 128.109375 97.4375 128.601562 C 97.4375 128.847656 97.4375 129.097656 97.4375 129.34375 C 97.519531 130.167969 97.765625 130.992188 98.425781 131.488281 C 98.839844 131.816406 99.414062 131.898438 99.992188 131.980469 C 102.054688 132.394531 104.113281 132.722656 106.257812 132.972656 C 106.585938 132.972656 106.917969 133.054688 107.246094 132.972656 C 107.578125 132.886719 107.90625 132.640625 107.988281 132.3125 C 108.070312 131.980469 107.988281 131.570312 107.824219 131.238281 C 107.410156 130.167969 107.328125 128.933594 107.578125 127.859375 C 107.824219 126.789062 108.566406 125.632812 109.058594 124.726562 C 109.554688 123.820312 110.050781 122.914062 110.542969 122.007812 C 110.875 121.429688 111.535156 120.605469 111.449219 119.945312 C 111.367188 119.203125 110.296875 118.792969 109.71875 118.460938 C 108.8125 117.886719 107.90625 117.390625 107 116.894531 Z M 107 116.894531 " fill-opacity="1" fill-rule="nonzero"/><path fill="#c5815c" d="M 192.234375 135.527344 C 190.011719 138.824219 187.703125 142.121094 185.476562 145.417969 C 181.519531 151.269531 177.480469 157.125 172.617188 162.152344 C 170.804688 163.964844 168.824219 165.699219 166.433594 166.523438 C 163.714844 167.429688 160.582031 167.097656 158.109375 165.613281 C 155.636719 164.214844 153.738281 161.742188 152.832031 159.019531 C 152.339844 157.617188 152.253906 155.886719 153.164062 154.816406 C 154.070312 153.746094 155.636719 153.660156 157.035156 153.660156 C 159.675781 153.660156 162.3125 153.910156 164.867188 153.414062 C 168.414062 152.753906 171.546875 150.695312 174.511719 148.632812 C 176.574219 147.230469 178.632812 145.664062 180.199219 143.6875 C 182.261719 141.050781 183.167969 137.585938 183.414062 134.289062 C 183.664062 130.910156 183.25 127.53125 182.839844 124.234375 C 186.21875 122.667969 189.84375 121.675781 193.554688 121.265625 C 194.710938 121.183594 196.027344 121.183594 196.769531 122.171875 C 197.265625 122.832031 197.101562 123.984375 197.101562 124.726562 C 196.851562 127.28125 195.78125 129.671875 194.542969 131.898438 C 193.800781 133.136719 193.058594 134.289062 192.234375 135.527344 Z M 192.234375 135.527344 " fill-opacity="1" fill-rule="nonzero"/><path fill="#e6ceb8" d="M 44.019531 138.496094 C 41.792969 140.058594 39.484375 141.542969 36.929688 142.367188 C 34.375 143.191406 31.40625 143.191406 29.097656 141.710938 C 26.460938 140.058594 25.226562 136.84375 23.988281 133.960938 C 20.609375 125.964844 15.828125 118.628906 9.890625 112.28125 C 6.925781 109.148438 5.605469 104.777344 3.460938 101.070312 C 2.636719 99.585938 1.8125 98.183594 1.238281 96.535156 C 0 92.90625 0.496094 88.953125 1.484375 85.242188 C 2.472656 81.449219 6.59375 79.222656 9.480469 76.585938 C 10.632812 75.515625 12.035156 74.359375 13.683594 74.441406 C 15.003906 74.609375 15.992188 75.515625 16.980469 76.503906 C 18.796875 78.316406 20.691406 80.214844 22.503906 82.027344 C 23.660156 83.179688 24.730469 84.253906 25.800781 85.40625 C 26.792969 86.5625 27.863281 87.632812 28.523438 89.035156 C 29.839844 91.917969 31.40625 94.640625 33.222656 97.277344 C 33.386719 97.523438 33.550781 97.773438 33.796875 98.019531 C 35.28125 100.078125 36.929688 101.976562 38.578125 103.871094 C 41.710938 107.5 44.84375 111.125 47.976562 114.671875 C 44.347656 117.0625 41.628906 120.769531 40.394531 124.976562 C 39.980469 126.542969 39.734375 128.191406 39.898438 129.757812 C 40.0625 131.570312 40.804688 133.300781 41.957031 134.703125 C 42.453125 135.277344 43.03125 135.855469 43.441406 136.433594 C 43.855469 137.011719 44.183594 137.753906 44.019531 138.496094 Z M 44.019531 138.496094 " fill-opacity="1" fill-rule="nonzero"/><g clip-path="url(#16bced2503)"><path fill="#221b1b" d="M 365.429688 223.070312 C 364.359375 222.90625 363.371094 222.824219 362.296875 222.90625 C 362.792969 222.90625 363.371094 223.484375 363.699219 223.730469 C 364.195312 224.144531 364.6875 224.554688 365.101562 224.96875 C 366.007812 225.875 366.832031 226.863281 367.492188 227.933594 C 367.984375 228.757812 368.5625 229.75 368.808594 230.738281 C 369.058594 231.972656 369.058594 233.292969 368.890625 234.53125 C 368.890625 234.859375 368.234375 238.320312 367.902344 238.320312 C 364.441406 237.828125 360.8125 237.496094 357.351562 238.238281 C 353.890625 239.0625 350.59375 241.125 349.109375 244.339844 C 348.203125 246.234375 347.953125 248.460938 346.386719 249.78125 C 344.902344 251.097656 342.761719 251.097656 340.78125 251.015625 C 339.628906 251.015625 338.390625 251.265625 337.402344 252.003906 C 336.496094 252.746094 335.835938 253.738281 335.257812 254.808594 C 334.601562 256.046875 334.105469 257.527344 334.351562 258.847656 C 334.601562 260.332031 335.671875 261.484375 336.414062 262.722656 C 337.402344 264.453125 337.816406 266.433594 337.566406 268.410156 C 337.402344 269.730469 336.742188 271.214844 335.425781 271.542969 C 334.683594 271.707031 333.859375 271.460938 333.117188 271.128906 C 330.5625 269.976562 328.417969 267.914062 325.78125 266.925781 C 322.480469 265.609375 318.609375 266.101562 315.308594 267.503906 C 312.011719 268.90625 309.128906 271.046875 306.324219 273.273438 C 305.089844 274.261719 305.417969 276.324219 304.921875 277.890625 C 304.429688 279.457031 303.6875 280.941406 302.367188 281.765625 C 301.460938 282.339844 300.308594 282.589844 299.234375 282.835938 C 296.351562 283.496094 293.628906 284.730469 291.238281 286.378906 C 290.003906 287.207031 288.765625 288.277344 288.273438 289.679688 C 287.449219 292.234375 289.179688 295.117188 288.023438 297.59375 C 287.199219 299.324219 284.890625 300.066406 283.160156 299.15625 C 282.582031 298.003906 282.007812 296.765625 281.429688 295.613281 C 281.511719 297.675781 280.441406 299.652344 278.957031 301.136719 C 277.554688 302.621094 275.742188 303.773438 274.175781 305.011719 C 273.847656 305.339844 273.433594 305.671875 273.515625 306.164062 C 273.597656 306.660156 274.175781 306.90625 274.671875 306.988281 C 275.824219 307.238281 277.0625 307.320312 278.214844 307.152344 C 278.875 307.070312 279.617188 306.988281 280.195312 307.320312 C 280.851562 307.648438 281.183594 308.472656 281.347656 309.214844 C 281.511719 309.957031 281.511719 310.78125 281.757812 311.441406 C 282.089844 312.101562 282.75 312.761719 283.492188 312.59375 C 283.160156 311.769531 282.75 310.945312 282.667969 310.039062 C 282.582031 309.132812 282.914062 308.144531 283.65625 307.648438 C 284.5625 306.988281 285.800781 307.238281 286.871094 307.484375 C 288.4375 307.894531 290.085938 308.308594 291.652344 308.636719 C 292.476562 308.804688 293.300781 309.050781 293.878906 309.710938 C 294.535156 310.453125 294.621094 311.605469 294.785156 312.59375 C 295.195312 315.398438 296.925781 318.035156 299.316406 319.601562 C 301.707031 321.167969 304.839844 321.582031 307.5625 320.839844 C 307.972656 320.097656 307.230469 319.191406 306.570312 318.613281 C 305.914062 318.035156 305.253906 317.046875 305.746094 316.304688 C 306.160156 315.808594 306.820312 315.890625 307.398438 315.890625 C 310.859375 316.222656 314.320312 316.632812 317.699219 316.964844 C 318.523438 317.046875 319.347656 317.128906 320.175781 317.210938 C 320.832031 317.292969 321.65625 317.046875 322.316406 317.046875 C 323.964844 316.964844 325.613281 317.046875 327.261719 317.375 C 328.085938 317.539062 328.910156 317.707031 329.652344 317.871094 C 331.550781 318.363281 333.363281 318.941406 335.257812 319.105469 C 337.15625 319.273438 339.214844 319.191406 340.863281 318.28125 C 341.277344 318.035156 341.773438 317.707031 342.265625 317.707031 C 342.925781 317.707031 343.503906 318.117188 344.078125 318.363281 C 345.5625 319.105469 347.378906 319.023438 349.109375 318.777344 C 352.40625 318.449219 355.621094 317.871094 358.835938 317.128906 C 361.0625 316.632812 363.371094 316.46875 365.511719 315.5625 C 366.417969 315.148438 367.324219 314.738281 367.902344 313.996094 C 369.058594 312.59375 369.058594 310.535156 368.398438 308.886719 C 367.738281 307.238281 366.5 305.835938 365.347656 304.433594 C 364.851562 303.855469 364.441406 303.28125 364.441406 302.539062 C 364.441406 301.714844 365.183594 301.054688 365.925781 300.558594 C 368.644531 298.5 371.449219 296.4375 374.167969 294.292969 C 375.320312 293.386719 376.3125 292.398438 377.464844 291.492188 C 378.621094 290.667969 379.773438 290.007812 381.011719 289.347656 C 382.578125 288.523438 384.226562 287.699219 385.707031 286.710938 C 386.863281 285.886719 388.015625 284.980469 389.253906 284.238281 C 390.488281 283.496094 391.972656 283 393.375 283.25 C 394.613281 283.414062 395.683594 284.074219 396.835938 284.484375 C 399.308594 285.390625 402.113281 285.0625 404.75 284.816406 C 407.800781 284.484375 409.449219 280.859375 410.933594 278.136719 C 411.675781 276.820312 412.335938 275.335938 412.417969 273.769531 C 412.5 272.449219 412.171875 271.128906 411.757812 269.8125 C 411.347656 268.410156 410.933594 266.925781 410.273438 265.605469 C 408.625 261.980469 405.824219 259.011719 403.019531 256.128906 C 402.773438 254.644531 401.535156 253.40625 400.382812 252.335938 C 399.3125 251.347656 398.074219 250.355469 397.332031 249.039062 C 396.671875 247.882812 396.425781 246.648438 396.011719 245.410156 C 395.105469 242.9375 393.375 240.878906 391.726562 238.898438 C 390.078125 236.921875 388.347656 234.859375 386.367188 233.128906 C 384.390625 231.398438 382.082031 229.996094 379.527344 229.417969 C 378.539062 229.75 377.136719 229.253906 376.394531 228.511719 C 375.980469 228.101562 375.734375 227.605469 375.320312 227.191406 C 374.910156 226.78125 374.496094 226.453125 374.003906 226.121094 C 373.097656 225.542969 372.105469 225.050781 371.117188 224.800781 C 370.128906 224.554688 369.304688 223.976562 368.316406 223.648438 C 367.574219 223.566406 366.585938 223.238281 365.429688 223.070312 Z M 365.429688 223.070312 " fill-opacity="1" fill-rule="nonzero"/></g><path fill="#5f3629" d="M 142.117188 273.027344 C 141.867188 268.410156 142.035156 263.792969 142.609375 259.175781 C 142.777344 257.695312 143.023438 256.210938 143.519531 254.808594 C 144.425781 252.335938 146.238281 250.191406 147.558594 247.882812 C 148.464844 246.316406 149.207031 244.585938 149.699219 242.773438 C 150.03125 241.703125 150.277344 240.628906 150.523438 239.476562 C 151.515625 234.613281 151.679688 229.667969 152.089844 224.800781 C 152.585938 219.855469 153.246094 214.828125 154.234375 209.964844 C 154.730469 207.738281 155.304688 205.429688 155.964844 203.289062 C 156.296875 202.296875 156.542969 200.980469 157.121094 200.15625 C 157.613281 199.496094 158.601562 199.082031 159.34375 198.671875 C 162.640625 197.1875 166.023438 195.949219 169.484375 194.960938 C 174.101562 193.726562 178.800781 192.902344 183.582031 192.570312 C 184.734375 192.488281 185.972656 192.488281 187.125 192.40625 C 187.867188 192.40625 189.269531 192.734375 189.84375 192.160156 C 190.503906 191.582031 190.671875 190.015625 191 189.191406 C 191.410156 188.035156 191.742188 186.800781 192.152344 185.644531 C 195.039062 176.167969 196.769531 166.4375 198.5 156.710938 C 199.242188 152.34375 199.65625 147.972656 199.492188 143.605469 C 199.324219 139.234375 198.667969 134.539062 195.617188 131.488281 C 193.554688 129.425781 190.585938 128.519531 187.785156 127.695312 C 172.863281 123.574219 157.367188 121.675781 141.867188 122.417969 C 132.800781 122.832031 123.734375 121.183594 114.996094 118.628906 C 113.511719 118.214844 111.78125 117.804688 110.625 118.792969 C 110.132812 119.203125 109.882812 119.863281 109.636719 120.441406 C 108.566406 123.242188 107.578125 126.046875 106.835938 128.933594 C 106.585938 129.757812 106.421875 130.664062 106.835938 131.40625 C 107.164062 131.980469 107.742188 132.3125 108.320312 132.640625 C 110.296875 133.714844 112.109375 135.113281 114.253906 135.9375 C 120.355469 138.410156 126.535156 140.800781 132.636719 143.273438 C 135.191406 144.265625 137.746094 145.335938 140.21875 146.65625 C 142.777344 148.054688 145.25 149.707031 147.886719 150.941406 C 153.078125 153.332031 158.933594 153.828125 164.703125 154.238281 C 161.652344 161.824219 159.261719 169.738281 157.367188 177.734375 C 157.695312 172.042969 157.613281 166.355469 156.953125 160.75 C 156.625 157.703125 156.128906 154.570312 154.8125 151.765625 C 153.078125 147.972656 149.949219 144.925781 146.566406 142.535156 C 139.066406 137.257812 129.832031 136.019531 120.929688 134.371094 C 108.8125 132.148438 96.695312 129.921875 85.320312 125.386719 C 75.261719 121.429688 65.039062 117.722656 54.734375 114.339844 C 52.511719 113.597656 50.121094 112.855469 47.8125 113.1875 C 45.421875 113.515625 43.277344 114.835938 41.546875 116.484375 C 38.992188 119.039062 37.179688 122.417969 36.929688 126.046875 C 36.4375 132.0625 41.050781 136.929688 46.246094 140.058594 C 51.605469 143.191406 56.960938 146.40625 62.320312 149.539062 C 64.296875 150.695312 66.195312 151.847656 68.171875 152.921875 C 71.222656 154.652344 74.273438 156.300781 77.40625 157.785156 C 78.890625 158.527344 80.539062 159.101562 82.023438 159.925781 C 83.339844 160.667969 84.496094 161.742188 85.730469 162.484375 C 93.234375 167.179688 101.886719 169.902344 110.707031 170.148438 C 112.523438 170.230469 114.582031 170.3125 115.574219 171.796875 C 116.230469 172.703125 116.230469 173.941406 116.230469 175.09375 C 116.066406 180.125 116.480469 185.648438 114.007812 189.933594 C 109.636719 197.433594 107 205.84375 105.351562 214.332031 C 103.703125 222.824219 102.464844 231.5625 102.21875 240.21875 C 101.972656 248.296875 101.804688 256.621094 104.363281 264.289062 C 106.835938 271.871094 112.027344 278.550781 118.703125 282.917969 C 125.21875 287.289062 132.964844 289.183594 140.796875 288.6875 C 141.210938 284.816406 141.539062 280.941406 141.953125 277.066406 C 142.199219 275.992188 142.199219 274.675781 142.117188 273.027344 Z M 142.117188 273.027344 " fill-opacity="1" fill-rule="nonzero"/><path fill="#e6ceb8" d="M 104.609375 116.320312 C 101.0625 120.027344 98.921875 124.890625 98.507812 130.003906 C 93.890625 129.507812 89.359375 128.273438 85.070312 126.375 C 84.082031 125.964844 83.011719 125.386719 82.433594 124.398438 C 81.691406 123.160156 81.9375 121.675781 81.9375 120.277344 C 82.105469 112.691406 75.507812 106.261719 75.425781 98.679688 C 75.425781 95.792969 74.933594 92.90625 75.425781 90.105469 C 75.675781 88.953125 76.003906 87.714844 76.746094 86.808594 C 77.488281 85.902344 78.722656 85.242188 79.878906 85.488281 C 80.785156 85.738281 81.527344 86.394531 81.9375 87.21875 C 82.433594 88.042969 82.679688 88.953125 82.929688 89.777344 C 84.742188 95.792969 88.203125 101.316406 92.738281 105.683594 C 94.550781 107.417969 95.375 109.890625 97.023438 111.703125 C 97.601562 112.363281 98.179688 112.941406 98.921875 113.515625 C 100.320312 114.507812 101.972656 115 103.621094 115.332031 C 103.949219 115.414062 104.277344 115.496094 104.527344 115.660156 C 104.773438 115.988281 104.855469 116.15625 104.609375 116.320312 Z M 104.609375 116.320312 " fill-opacity="1" fill-rule="nonzero"/><path fill="#c5815c" d="M 151.101562 43.199219 C 149.949219 47.320312 148.050781 51.195312 145.414062 54.578125 C 144.09375 56.390625 142.527344 58.039062 141.457031 59.933594 C 139.394531 63.644531 139.3125 68.09375 139.230469 72.300781 C 139.066406 77.90625 138.984375 83.59375 138.820312 89.199219 C 138.738281 93.320312 140.960938 97.113281 142.363281 101.070312 C 143.519531 104.367188 144.917969 107.664062 146.980469 110.464844 C 149.039062 113.269531 152.007812 115.660156 155.386719 116.320312 C 160.167969 117.308594 165.28125 115 168.578125 111.375 C 171.875 107.746094 173.769531 103.046875 175.089844 98.265625 C 176.574219 93.074219 177.480469 87.714844 177.894531 82.355469 C 178.140625 79.390625 176.984375 76.585938 175.75 73.867188 C 174.429688 71.144531 173.113281 68.261719 173.769531 65.375 C 174.265625 63.3125 175.667969 61.253906 174.925781 59.273438 C 174.347656 57.875 172.863281 57.050781 171.546875 56.390625 C 164.125 52.84375 157.695312 48.394531 151.101562 43.199219 Z M 151.101562 43.199219 " fill-opacity="1" fill-rule="nonzero"/><path stroke-linecap="butt" transform="matrix(0.82434, 0, 0, 0.82434, 0.577043, -45.004043)" fill-opacity="1" fill="#c5815c" fill-rule="nonzero" stroke-linejoin="miter" d="M 196.901144 69.700773 C 192.399439 72.198035 188.599052 75.600376 184.798666 79.102228 C 179.998427 83.599195 175.098676 88.598456 173.899801 95.000354 C 173.297994 98.502207 173.999313 102.501616 176.700336 104.799855 C 177.700188 105.600685 178.998574 106.197753 179.600381 107.401367 C 180.202188 108.50073 180.202188 109.799117 180.401211 111.102242 C 180.998279 114.002287 182.997984 116.300526 185.101938 118.399742 C 188.101495 121.299788 191.300075 124.100322 194.901439 126.100027 C 198.498064 128.099732 202.701235 129.398118 206.899667 129.199095 C 209.700201 129.099584 212.401224 128.298754 214.798974 126.801345 C 217.300975 125.100175 219.300679 122.697686 220.798088 120.001402 C 223.101066 115.897742 224.498964 111.301265 225.498816 106.700048 C 226.59818 101.601275 227.100475 96.298741 227.598032 91.100456 C 228.000816 87.101047 228.398862 83.101638 227.299498 79.301251 C 226.100623 74.899058 222.902043 71.198182 219.002145 68.899944 C 214.798974 66.397943 210.501031 65.701364 205.700792 66.502193 C 202.601724 66.99975 199.602167 68.198625 196.901144 69.700773 Z M 196.901144 69.700773 " stroke="#ffffff" stroke-width="1" stroke-opacity="1" stroke-miterlimit="10"/><path fill="#221b1b" d="M 174.019531 12.121094 C 172.453125 11.710938 170.722656 11.214844 169.238281 11.875 C 167.421875 12.699219 166.679688 14.925781 165.527344 16.574219 C 163.136719 19.953125 158.519531 20.859375 155.304688 23.5 C 152.171875 25.972656 150.441406 30.011719 150.773438 33.96875 C 149.949219 34.214844 149.207031 33.308594 148.875 32.484375 C 148.546875 31.660156 148.214844 30.589844 147.308594 30.503906 C 146.484375 30.421875 145.992188 31.164062 145.660156 31.824219 C 145.332031 32.566406 144.917969 33.390625 144.753906 34.214844 C 144.34375 36.027344 144.589844 38.007812 145.660156 39.492188 C 146.320312 40.398438 147.144531 41.140625 147.886719 41.882812 C 148.628906 42.707031 149.371094 43.53125 149.617188 44.601562 C 149.949219 46.003906 149.535156 47.488281 148.957031 48.804688 C 147.640625 51.9375 145.824219 54.988281 143.351562 57.378906 C 143.847656 55.402344 144.34375 53.503906 144.671875 51.527344 C 144.835938 50.535156 145 49.546875 145.167969 48.558594 C 145.332031 47.652344 145.578125 46.746094 145.496094 45.839844 C 145.414062 44.519531 144.425781 43.367188 143.765625 42.210938 C 141.867188 38.996094 141.867188 35.039062 142.035156 31.246094 C 142.363281 25.148438 143.1875 19.046875 145.742188 13.523438 C 148.300781 8 152.832031 3.136719 158.601562 1.324219 C 162.230469 0.167969 166.269531 0.335938 169.980469 1.242188 C 176.078125 2.726562 181.765625 6.351562 185.3125 11.546875 C 188.855469 16.738281 190.011719 23.582031 188.03125 29.597656 C 188.527344 28.113281 188.195312 26.136719 187.949219 24.652344 C 187.703125 23.003906 187.125 21.4375 186.382812 19.953125 C 184.898438 16.902344 182.507812 14.347656 179.625 12.699219 C 178.632812 12.121094 178.222656 12.039062 177.152344 12.371094 C 176.328125 12.535156 175.171875 12.371094 174.019531 12.121094 Z M 174.019531 12.121094 " fill-opacity="1" fill-rule="nonzero"/><path fill="#221b1b" d="M 168.082031 24.984375 C 167.257812 24.570312 166.351562 24.242188 165.445312 24.074219 C 163.464844 23.828125 161.488281 24.816406 159.425781 24.984375 C 161.074219 23.5 163.21875 22.59375 165.445312 22.425781 C 167.671875 22.179688 169.898438 22.675781 171.875 23.746094 C 172.121094 23.910156 172.371094 24.074219 172.617188 24.242188 C 173.027344 24.734375 172.863281 25.230469 172.535156 25.640625 C 172.289062 25.972656 172.121094 26.464844 171.710938 26.464844 C 171.214844 26.464844 170.472656 25.972656 169.980469 25.722656 C 169.320312 25.476562 168.660156 25.230469 168.082031 24.984375 Z M 168.082031 24.984375 " fill-opacity="1" fill-rule="nonzero"/><path fill="#221b1b" d="M 187.621094 28.691406 C 186.628906 27.867188 186.300781 26.382812 185.148438 25.890625 C 184.652344 25.640625 183.992188 25.640625 183.414062 25.640625 C 182.34375 25.722656 181.355469 25.808594 180.285156 26.054688 C 180.117188 26.136719 179.953125 26.136719 179.789062 26.300781 C 179.707031 26.464844 179.707031 26.632812 179.707031 26.878906 C 179.707031 27.207031 179.707031 28.28125 180.035156 28.363281 C 180.285156 28.445312 180.695312 28.28125 180.941406 28.199219 C 181.273438 28.113281 181.519531 28.113281 181.847656 28.113281 C 183.085938 28.03125 184.324219 28.03125 185.558594 28.28125 C 185.890625 28.363281 186.21875 28.445312 186.546875 28.527344 C 186.960938 28.527344 187.453125 28.527344 187.621094 28.691406 Z M 187.621094 28.691406 " fill-opacity="1" fill-rule="nonzero"/><path fill="#c5815c" d="M 106.585938 58.203125 C 103.785156 56.882812 100.40625 57.214844 97.4375 58.121094 C 94.46875 59.027344 91.667969 60.429688 88.617188 61.171875 C 85.070312 62.078125 81.363281 61.996094 77.734375 62.820312 C 73.367188 63.808594 69.410156 66.117188 65.121094 67.355469 C 62.816406 68.011719 60.425781 68.261719 58.199219 68.917969 C 55.890625 69.578125 53.664062 70.652344 52.179688 72.546875 C 50.53125 74.609375 50.039062 77.328125 49.953125 79.882812 C 49.625 86.148438 51.027344 92.578125 53.996094 98.101562 C 55.066406 100.078125 54.570312 102.46875 54.902344 104.695312 C 55.066406 105.601562 55.148438 106.59375 54.902344 107.417969 C 54.570312 108.570312 53.582031 109.394531 53.003906 110.382812 C 52.179688 111.785156 51.933594 113.433594 51.4375 114.917969 C 50.367188 118.214844 48.222656 120.9375 46.082031 123.738281 C 45.089844 125.058594 44.019531 126.457031 43.441406 128.023438 C 42.867188 129.589844 42.867188 131.40625 43.691406 132.886719 C 44.101562 133.546875 45.175781 133.21875 45.75 132.722656 C 45.914062 132.558594 46.164062 132.394531 46.410156 132.394531 C 46.65625 132.394531 46.738281 132.640625 46.824219 132.886719 C 46.824219 133.136719 46.824219 133.300781 46.738281 133.546875 C 46.574219 134.125 46.574219 134.703125 46.65625 135.195312 C 46.738281 135.773438 47.070312 136.269531 47.566406 136.597656 C 48.140625 137.011719 48.964844 136.929688 49.625 136.597656 C 50.285156 136.269531 50.78125 135.773438 51.273438 135.195312 C 54.984375 131.074219 57.210938 125.71875 61.496094 122.253906 C 59.1875 125.304688 57.292969 128.765625 55.394531 132.0625 C 54.820312 133.054688 54.324219 134.042969 54.078125 135.113281 C 53.828125 136.269531 54.078125 137.667969 55.066406 138.410156 C 55.890625 139.070312 57.042969 139.152344 57.949219 138.578125 C 62.730469 135.527344 64.710938 129.507812 68.007812 124.976562 C 68.503906 124.234375 69.078125 123.492188 69.902344 123.160156 C 70.976562 122.75 72.210938 123.160156 73.285156 123.738281 C 74.355469 124.316406 75.34375 125.058594 76.5 125.140625 C 79.136719 125.386719 81.773438 125.71875 84.082031 126.953125 C 85.15625 127.53125 86.0625 128.355469 87.214844 128.683594 C 88.371094 129.015625 89.605469 129.015625 90.675781 128.4375 C 91.007812 128.273438 91.335938 128.109375 91.5 127.777344 C 91.75 127.28125 91.5 126.625 91.253906 126.128906 C 89.605469 123.160156 86.554688 121.101562 83.175781 120.769531 C 81.445312 120.605469 79.464844 120.769531 78.148438 119.617188 C 77.324219 118.957031 76.828125 117.886719 76.167969 116.980469 C 75.507812 116.15625 74.683594 115.414062 73.941406 114.589844 C 73.285156 113.765625 72.789062 112.609375 73.203125 111.539062 C 74.519531 107.828125 73.117188 103.707031 73.117188 99.832031 C 73.117188 96.863281 73.117188 93.816406 73.859375 90.847656 C 74.109375 90.023438 74.519531 89.28125 75.261719 88.867188 C 76.003906 88.457031 76.910156 88.457031 77.734375 88.375 C 80.949219 88.128906 84.164062 87.796875 87.378906 87.21875 C 89.933594 86.726562 92.410156 86.066406 94.964844 85.738281 C 97.519531 85.40625 100.15625 85.324219 102.628906 85.984375 C 103.621094 86.230469 104.527344 84.996094 105.019531 84.085938 C 105.515625 83.179688 105.761719 82.109375 105.929688 81.121094 C 106.585938 76.914062 106.753906 72.546875 106.175781 68.261719 C 105.761719 65.128906 107.410156 61.582031 106.585938 58.203125 Z M 106.585938 58.203125 " fill-opacity="1" fill-rule="nonzero"/><path fill="#e6ceb8" d="M 143.105469 57.875 C 143.023438 57.792969 143.023438 57.792969 142.941406 57.707031 C 142.691406 57.460938 142.28125 57.296875 141.867188 57.214844 C 140.632812 56.882812 139.476562 56.554688 138.242188 56.226562 C 137.828125 56.140625 137.5 55.894531 137.171875 55.730469 C 136.675781 55.484375 136.097656 55.484375 135.605469 55.402344 C 134.285156 55.152344 132.964844 54.90625 131.730469 55.234375 C 131.070312 55.402344 130.410156 55.730469 129.75 55.976562 C 128.925781 56.226562 128.019531 56.390625 127.113281 56.472656 C 121.753906 57.132812 116.3125 57.214844 110.957031 56.71875 C 106.667969 56.308594 102.300781 56.71875 98.179688 57.625 C 100.652344 59.273438 102.300781 61.996094 103.207031 64.796875 C 104.113281 67.601562 104.445312 70.652344 104.527344 73.617188 C 104.609375 75.433594 104.691406 77.328125 104.277344 79.058594 C 103.867188 80.789062 102.960938 82.605469 101.558594 83.675781 C 101.148438 83.921875 100.734375 84.171875 100.488281 84.5 C 100.15625 84.828125 99.992188 85.324219 100.15625 85.820312 C 100.320312 86.3125 100.898438 86.5625 101.394531 86.808594 C 101.886719 87.054688 102.464844 87.46875 102.382812 88.042969 C 101.394531 96.535156 102.710938 105.109375 102.300781 113.597656 C 101.558594 114.671875 101.886719 116.15625 102.628906 117.226562 C 103.371094 118.214844 104.609375 118.792969 105.761719 119.285156 C 113.757812 122.667969 122.746094 122.417969 131.316406 123.65625 C 138.160156 124.644531 145 126.707031 151.925781 125.964844 C 161.074219 125.058594 170.226562 128.601562 179.292969 127.777344 C 181.4375 127.613281 183.582031 127.28125 185.722656 126.953125 C 189.433594 126.375 193.058594 125.882812 196.769531 125.304688 C 197.347656 125.222656 197.839844 125.140625 198.335938 124.808594 C 199.492188 124.066406 199.574219 122.417969 199.492188 121.019531 C 199.40625 115.742188 200.808594 110.464844 203.363281 105.851562 C 204.683594 103.460938 204.273438 100.410156 204.355469 97.773438 C 204.4375 96.207031 204.355469 94.640625 203.695312 93.238281 C 203.199219 92.25 202.457031 91.425781 201.714844 90.683594 C 199.160156 88.125 196.441406 85.652344 193.636719 83.429688 C 187.207031 78.398438 181.023438 73.042969 174.183594 68.671875 C 173.605469 70.898438 174.347656 73.289062 174.761719 75.515625 C 175.75 80.707031 175.253906 86.066406 174.84375 91.257812 C 174.429688 95.957031 171.792969 100.246094 169.238281 104.121094 C 166.597656 107.992188 162.890625 111.375 158.355469 112.527344 C 156.953125 112.855469 155.46875 113.023438 154.152344 112.363281 C 152.914062 111.785156 152.089844 110.550781 151.347656 109.3125 C 146.734375 101.644531 144.011719 92.824219 143.433594 83.921875 C 143.105469 79.140625 142.941406 74.277344 142.777344 69.496094 C 142.691406 67.765625 142.609375 66.035156 142.691406 64.304688 C 142.777344 63.398438 142.941406 62.574219 143.023438 61.75 C 143.023438 61.007812 143.269531 60.347656 143.433594 59.605469 C 143.351562 59.027344 143.433594 58.367188 143.105469 57.875 Z M 143.105469 57.875 " fill-opacity="1" fill-rule="nonzero"/><path fill="#c5815c" d="M 128.515625 123.820312 C 127.113281 123.902344 125.628906 123.984375 124.476562 123.328125 C 123.898438 122.996094 123.484375 122.5 123.320312 121.925781 C 123.15625 121.265625 123.402344 120.523438 123.898438 120.027344 C 124.394531 119.535156 125.21875 119.453125 125.875 119.617188 C 126.453125 119.78125 126.949219 120.195312 127.609375 120.195312 C 128.183594 120.195312 128.597656 119.863281 129.089844 119.699219 C 130.65625 119.039062 132.140625 119.699219 133.542969 120.277344 C 135.027344 120.9375 136.511719 121.84375 137.746094 122.914062 C 138.078125 123.160156 138.324219 123.492188 138.488281 123.820312 C 138.570312 124.066406 138.652344 124.644531 138.40625 124.808594 C 138.160156 124.976562 137.5 124.726562 137.171875 124.726562 C 136.179688 124.5625 135.273438 124.398438 134.285156 124.234375 C 132.390625 123.984375 130.492188 123.820312 128.515625 123.820312 Z M 128.515625 123.820312 " fill-opacity="1" fill-rule="nonzero"/><path fill="#221b1b" d="M 346.140625 233.871094 C 345.976562 236.179688 345.480469 238.570312 345.480469 240.878906 C 346.882812 238.898438 347.789062 236.507812 347.953125 234.035156 C 348.117188 231.5625 347.707031 229.089844 346.636719 226.863281 C 346.554688 226.78125 346.554688 226.617188 346.386719 226.617188 C 346.058594 226.453125 345.234375 226.945312 345.070312 227.277344 C 344.902344 227.6875 345.316406 228.265625 345.480469 228.59375 C 345.894531 229.667969 346.058594 230.820312 346.140625 231.972656 C 346.222656 232.632812 346.140625 233.210938 346.140625 233.871094 Z M 346.140625 233.871094 " fill-opacity="1" fill-rule="nonzero"/></svg>