<svg xmlns="http://www.w3.org/2000/svg" width="500" height="500" viewBox="0 0 375 375"><defs><clipPath id="a"><path d="M273 222h102v99.75H273zm0 0"/></clipPath></defs><path fill="#c5815c" d="M308.879 236.922h-1.895c-1.484 0-2.719-1.32-3.629-2.391-.988-1.074-1.812-2.391-3.047-3.215-1.566-1.074-3.629-1.32-5.523-1.648-.988-.168-1.98-.414-2.723-.992-.988-.742-1.484-1.812-2.141-2.883-1.402-2.309-3.297-4.371-5.195-6.348-.742-.742-1.484-1.566-2.473-1.898-1.484-.574-3.133-.082-4.617.496-6.758 2.309-13.52-4.203-20.523-5.277-4.289-.656-8.988-.164-12.531-2.637-5.852 10.965-7.75 23.578-9.398 35.859l-3.051 23.082c-.492 3.543-.574 7.914 2.391 9.973 2.723 1.816 6.43.496 9.48-.742 11.461-4.367 24.977-5.027 35.449 1.238 3.379 1.977 6.512 4.781 10.469 5.441 4.121.66 8.324-1.156 11.785-3.547s6.43-5.437 10.059-7.582c2.887-1.812 6.184-2.969 9.563-3.465 1.977-.328 4.285-.656 5.109-2.391.742-1.562-.246-3.379-1.152-4.863-5.523-8.738-10.551-17.887-16.406-26.211zm0 0"/><path fill="#cd9b8b" d="M92.984 162.648c-5.109 7.5-7.336 16.816-6.18 25.801.574 4.535 1.977 8.984 2.391 13.52.41 4.699-.168 9.398.656 14.012.578 3.547 2.063 7.008 2.559 10.555.328 2.141.246 4.285.574 6.348.332 2.141 1.074 4.203 2.723 5.688 4.121 3.707 9.645 6.016 15.168 5.355s10.551-3.297 15.496-5.852c2.309-1.234 4.699-2.473 6.43-4.453 2.063-2.305 3.133-5.355 4.203-8.242 2.227-6.016 4.949-11.871 8.738-16.98 3.875-5.109 8.988-9.398 15.004-11.457.824-.25 1.566-.086 2.391-.168l34.293-2.305-9.977-23.25c-1.398-3.215-2.883-6.594-5.934-8.406-2.555-1.566-5.687-1.648-8.656-1.648-26.789-.246-53.168.246-79.879 1.484zm0 0"/><path fill="#e6ceb8" d="M301.051 239.969h.082c1.152.25 2.309.25 3.461-.164.496-.164.988-.492.988-.988 0-.328-.246-.66-.492-.824a2.215 2.215 0 0 0-.992-.246c-1.234-.25-2.391-.66-3.543-1.156-.496-.246-1.238-.578-1.648-.988s-.742-.906-1.07-1.32l-5.691-6.676-8.902-10.469c-3.297-3.875-6.758-7.832-11.211-10.305-4.781-2.637-10.551-3.215-15.828-2.062-4.613 1.074-8.82 3.383-13.434 4.125-5.773.906-12.035-.91-16.406-4.781-14.344-12.695-36.352-13.52-55.148-9.895-3.875.742-7.582 2.063-11.293 3.465-1.32.492-2.719 1.07-3.711 2.059-1.234 1.156-1.895 2.887-2.473 4.535-2.059 6.016-3.215 12.363-3.543 18.711-.164 3.629-.082 7.336-1.07 10.883-1.652 5.441-2.723 11.047-4.371 16.57-1.484 5.027-1.895 10.301-2.391 15.496l-1.977 22.75c-.082.496 0 1.074.41 1.402s.988.414 1.484.414c10.223.988 20.527-1.238 30.5-3.711s20.113-5.109 30.418-5.109c3.957 0 7.914-.25 11.625.988 2.801.906 5.441 2.391 8.324 2.719 4.121.578 8.574-1.398 10.719-4.945s1.977-8.16 4.613-11.293c6.348-7.586 11.953-15.746 19.867-21.598 1.898-1.402 3.957-2.805 6.348-3.133 2.227-.414 4.617.164 6.676 1.152s3.875 2.477 5.523 4.039c3.711 3.383 6.926 7.258 10.141 11.047 2.637 3.051 5.277 6.266 6.43 10.141.742 2.391 1.07 4.945.824 7.5s-.906 5.031-1.484 7.422c.906-.578 1.484-1.648 1.898-2.641 1.895-4.863 1.07-10.387-.992-15.168s-5.355-8.902-8.57-12.941l-5.195-6.594c-1.648-2.062-3.707-3.875-5.191-6.102-1.074-1.73-1.402-3.875-1.32-5.934.164-2.062.742-4.039 1.402-6.02 1.152-3.461 2.473-7.09 5.273-9.477 1.156-.992 2.723-1.816 4.125-1.32 1.07.41 1.813 1.402 2.473 2.309l5.77 8.488 2.969 4.289c.906 1.316 1.73 2.883 2.801 4.121.578.66 1.895 1.07 2.805 1.234zm0 0"/><g fill="#c5815c"><path d="M291.238 286.133c-8.406 8.656-18.957 15.004-30.168 19.539-11.129 4.613-22.918 7.582-34.707 10.137-8.242 1.816-16.652 3.465-25.059 2.887-4.863-.328-10.387-1.812-12.531-6.266-.988-2.227-.988-4.699-.988-7.172.41-20.359.824-40.887 5.359-60.754.906-3.793.906-7.582 1.398-11.457.082-.742.168-1.566 0-2.309s-.656-1.402-.906-2.145c-.742-1.977-.164-4.203-.328-6.266-.164-3.957-2.723-7.664-2.391-11.621.164-2.309-.332-4.617-.082-6.926.082-.41.164-.988.66-1.07.41-.082.738.492.906.906 1.07 2.887 2.391 5.688 4.039 8.324.164.25.328.496.492.578.496.246 1.074 0 1.402-.496s.332-.988.414-1.562c.41-3.875 1.566-7.668 3.297-11.129.246-.578.574-1.074.988-1.484s1.152-.66 1.73-.414c.742.25 1.07 1.156 1.07 1.898 0 .824-.328 1.48-.574 2.305-.414 1.484-.332 2.969.164 4.453l3.461-7.254c.168-.414.496-.906.906-1.07.496-.168 1.074.164 1.402.656.824 1.156.66 2.723.332 4.043-.332 1.398-.824 2.719-.578 4.121 0 .246.164.492.328.574.332.168.66-.164.906-.41l2.887-3.133c.578-.66 1.152-1.238 1.98-1.648.738-.328 1.73-.414 2.387.164.578.496.742 1.32.578 1.98-.082.742-.41 1.398-.742 2.059-.66 1.402-1.316 2.805-1.648 4.289s-.41 3.047 0 4.531c.164.496.414.988.824 1.238.414.328 1.074.328 1.402-.082.906-1.156 2.063-1.898 3.215-2.723s2.473-1.484 3.875-1.73c.824-.164 1.813-.082 2.309.578.246.328.328.824.246 1.316s-.246.824-.41 1.238c-1.32 2.887-2.969 5.523-4.867 8.078-3.297 4.371-6.43 9.234-11.703 10.965-1.73 3.051-2.227 6.594-2.473 10.141-.496 7.746-.414 15.496.41 23.16.496 4.617 1.566 9.152 2.473 13.77.66 3.133 1.238 6.266.906 9.395 0 .086 0 .25.086.332s.328 0 .41 0l23.492-12.777c3.711-1.98 7.09-4.535 10.637-6.844s7.254-4.449 11.375-5.109c3.461-.578 7.008-.164 10.387.742a39.775 39.775 0 0 1 17.395 9.809c1.316 1.238 2.473 2.637 3.215 4.285.742 1.816 1.73 4.125.41 5.359zm0 0"/><path d="M242.852 206.254c-.496-.988-1.238-1.73-2.062-2.473l-6.512-6.594c-.66-.66-1.402-1.32-2.227-1.238-.66 0-1.152.414-1.73.578-1.07.164-2.059-.578-3.215-.742-1.32-.164-2.555.578-3.957.66-1.152.082-2.227-.414-3.297-.742-1.32-.328-2.637-.496-3.957-.66l-8.574-.988c-.41-.082-.824-.082-1.234 0s-.742.496-.66.906c.082.578.66.824 1.152.988 2.559.91 4.949 2.559 7.586 2.641-.988.328-1.238 1.648-.742 2.555s1.566 1.32 2.637 1.234c.992 0 1.98-.41 2.969-.742l4.203-1.562c.164-.086.332-.086.496-.086.492.086.41.992-.082 1.238-.414.246-.988.246-1.484.496-.988.574-.906 2.223.082 2.965.906.742 2.227.66 3.297.25.824-.332 1.73-.824 2.637-.578.742.164 1.156.824 1.652 1.402 1.48 1.73 3.461 2.965 5.688 3.625 2.141.66 4.531.742 6.758.246.246-.082.66-.082.824-.246s.246-.66.246-.906c0-.742-.164-1.566-.492-2.227zm0 0"/><path stroke="#fff" stroke-miterlimit="10" stroke-width=".824" d="M373.758 231.808c-2.641-4.121-6.68-7.336-11.211-8.984-4.617-1.648-9.73-1.812-14.344-.414-2.477.742-5.031 1.98-7.586 1.652-1.566-.25-3.051-.992-4.367-1.816s-2.641-1.812-4.125-2.473-3.215-.906-4.695-.328-2.723 2.059-2.477 3.707c.086.66-.824 1.156-1.48 1.074s-1.238-.496-1.898-.742-1.398-.414-1.977.082c-.496.496-.496 1.402-1.156 1.812-.574.332-1.316 0-1.977.082s-1.238.578-1.648 1.156-.824 1.152-1.402 1.484c-1.152.656-2.555.246-3.875.41-1.895.164-3.461 1.648-4.121 3.379-1.73 4.453 1.484 9.562 3.629 13.273 2.555 4.285 5.605 8.324 9.148 11.789 2.062 1.977 4.203 3.875 5.77 6.266 1.32 1.977 2.145 4.285 3.215 6.344 1.074 2.145 2.555 4.125 4.781 5.195 1.73.824 3.793.906 5.687.578 4.453-.742 8.738-3.875 9.645-8.328.496-2.391 0-4.781.168-7.254.164-2.391 1.316-5.027 3.625-5.77 4.453-1.402 9.234-1.07 13.684-2.473 4.453-1.484 8.738-3.957 11.461-7.832.742-.988 1.316-2.145 1.398-3.379.082-3.297-2.141-5.77-3.871-8.492zm0 0"/><path d="m107 116.895-1.98-1.07c-.246-.082-.41-.246-.656-.246-.414 0-.742.41-.992.742-.328.41-.742.742-1.152 1.07s-.742.742-1.07 1.156c-.66.824-1.238 1.648-1.734 2.637-.988 1.813-1.566 3.875-1.895 5.934-.082.496-.082.992-.082 1.484v.742c.082.824.328 1.648.988 2.145.414.328.988.41 1.566.492l6.266.992c.328 0 .66.082.988 0s.66-.332.742-.66 0-.742-.164-1.074a5.9 5.9 0 0 1-.246-3.379c.246-1.07.988-2.227 1.48-3.133l1.484-2.719c.332-.578.992-1.402.906-2.062-.082-.742-1.152-1.152-1.73-1.484zm85.234 18.632-6.758 9.891c-3.957 5.852-7.996 11.707-12.859 16.734-1.812 1.813-3.793 3.547-6.184 4.371a10.18 10.18 0 0 1-8.324-.91c-2.473-1.398-4.371-3.871-5.277-6.594-.492-1.402-.578-3.133.332-4.203s2.473-1.156 3.871-1.156c2.641 0 5.277.25 7.832-.246 3.547-.66 6.68-2.719 9.645-4.781 2.063-1.402 4.121-2.969 5.688-4.945 2.063-2.637 2.969-6.102 3.215-9.398.25-3.379-.164-6.758-.574-10.055a34.49 34.49 0 0 1 10.715-2.969c1.156-.082 2.473-.082 3.215.906.496.66.332 1.813.332 2.555-.25 2.555-1.32 4.945-2.559 7.172a89.1 89.1 0 0 1-2.309 3.629zm0 0"/></g><path fill="#e6ceb8" d="M44.02 138.496c-2.227 1.563-4.535 3.047-7.09 3.871s-5.523.824-7.832-.656c-2.637-1.652-3.871-4.867-5.109-7.75a73.812 73.812 0 0 0-14.098-21.68c-2.965-3.133-4.285-7.504-6.43-11.211-.824-1.484-1.648-2.887-2.223-4.535C0 92.906.496 88.953 1.484 85.242c.988-3.793 5.109-6.02 7.996-8.656 1.152-1.07 2.555-2.227 4.203-2.145 1.32.168 2.309 1.074 3.297 2.063l5.523 5.523 3.297 3.379c.992 1.156 2.063 2.227 2.723 3.629a54.048 54.048 0 0 0 4.699 8.242c.164.246.328.496.574.742 1.484 2.059 3.133 3.957 4.781 5.852l9.398 10.801c-3.629 2.391-6.348 6.098-7.582 10.305-.414 1.566-.66 3.215-.496 4.781.164 1.813.906 3.543 2.059 4.945.496.574 1.074 1.152 1.484 1.73s.742 1.32.578 2.063zm0 0"/><g clip-path="url(#a)"><path fill="#221b1b" d="M365.43 223.07c-1.07-.164-2.059-.246-3.133-.164.496 0 1.074.578 1.402.824l1.402 1.238c.906.906 1.73 1.895 2.391 2.965.492.824 1.07 1.816 1.316 2.805.25 1.234.25 2.555.082 3.793 0 .328-.656 3.789-.988 3.789-3.461-.492-7.09-.824-10.551-.082-3.461.824-6.758 2.887-8.242 6.102-.906 1.895-1.156 4.121-2.723 5.441-1.484 1.316-3.625 1.316-5.605 1.234-1.152 0-2.391.25-3.379.988-.906.742-1.566 1.734-2.145 2.805-.656 1.238-1.152 2.719-.906 4.039.25 1.484 1.32 2.637 2.063 3.875a9.13 9.13 0 0 1 1.152 5.688c-.164 1.32-.824 2.805-2.141 3.133-.742.164-1.566-.082-2.309-.414-2.555-1.152-4.699-3.215-7.336-4.203-3.301-1.316-7.172-.824-10.473.578s-6.18 3.543-8.984 5.77c-1.234.988-.906 3.051-1.402 4.617s-1.234 3.051-2.555 3.875c-.906.574-2.059.824-3.133 1.07-2.883.66-5.605 1.895-7.996 3.543-1.234.828-2.473 1.898-2.965 3.301-.824 2.555.906 5.438-.25 7.914-.824 1.73-3.133 2.473-4.863 1.563l-1.73-3.543c.082 2.063-.988 4.039-2.473 5.523-1.402 1.484-3.215 2.637-4.781 3.875-.328.328-.742.66-.66 1.152s.66.742 1.156.824c1.152.25 2.391.332 3.543.164.66-.082 1.402-.164 1.98.168.656.328.988 1.152 1.152 1.895s.164 1.566.41 2.227c.332.66.992 1.32 1.734 1.152-.332-.824-.742-1.648-.824-2.555s.246-1.895.988-2.391c.906-.66 2.145-.41 3.215-.164 1.566.41 3.215.824 4.781 1.152.824.168 1.648.414 2.227 1.074.656.742.742 1.895.906 2.883.41 2.805 2.141 5.441 4.531 7.008s5.523 1.98 8.246 1.238c.41-.742-.332-1.648-.992-2.227s-1.316-1.566-.824-2.309c.414-.496 1.074-.414 1.652-.414l10.301 1.074 2.477.246c.656.082 1.48-.164 2.141-.164 1.648-.082 3.297 0 4.945.328l2.391.496c1.898.492 3.711 1.07 5.605 1.234s3.957.086 5.605-.824c.414-.246.91-.574 1.402-.574.66 0 1.238.41 1.813.656 1.484.742 3.301.66 5.031.414 3.297-.328 6.512-.906 9.727-1.648 2.227-.496 4.535-.66 6.676-1.566.906-.414 1.813-.824 2.391-1.566 1.156-1.402 1.156-3.461.496-5.109s-1.898-3.051-3.051-4.453c-.496-.578-.906-1.152-.906-1.895 0-.824.742-1.484 1.484-1.98l8.242-6.266c1.152-.906 2.145-1.895 3.297-2.801 1.156-.824 2.309-1.484 3.547-2.145 1.566-.824 3.215-1.648 4.695-2.637 1.156-.824 2.309-1.73 3.547-2.473s2.719-1.238 4.121-.988c1.238.164 2.309.824 3.461 1.234 2.473.906 5.277.578 7.914.332 3.051-.332 4.699-3.957 6.184-6.68.742-1.316 1.402-2.801 1.484-4.367.082-1.32-.246-2.641-.66-3.957-.41-1.402-.824-2.887-1.484-4.207-1.648-3.625-4.449-6.594-7.254-9.477-.246-1.484-1.484-2.723-2.637-3.793-1.07-.988-2.309-1.98-3.051-3.297-.66-1.156-.906-2.391-1.32-3.629-.906-2.473-2.637-4.531-4.285-6.512s-3.379-4.039-5.359-5.77-4.285-3.133-6.84-3.711c-.988.332-2.391-.164-3.133-.906-.414-.41-.66-.906-1.074-1.32a8.56 8.56 0 0 0-1.316-1.07c-.906-.578-1.898-1.07-2.887-1.32s-1.812-.824-2.801-1.152c-.742-.082-1.73-.41-2.887-.578zm0 0"/></g><path fill="#5f3629" d="M142.117 273.027a77.925 77.925 0 0 1 .492-13.852c.168-1.48.414-2.965.91-4.367.906-2.473 2.719-4.617 4.039-6.926a21.577 21.577 0 0 0 2.141-5.109c.332-1.07.578-2.145.824-3.297.992-4.863 1.156-9.809 1.566-14.676.496-4.945 1.156-9.973 2.145-14.836.496-2.227 1.07-4.535 1.73-6.676.332-.992.578-2.309 1.156-3.133.492-.66 1.48-1.074 2.223-1.484a74.52 74.52 0 0 1 10.141-3.711c4.617-1.234 9.316-2.059 14.098-2.391 1.152-.082 2.391-.082 3.543-.164.742 0 2.145.328 2.719-.246.66-.578.828-2.145 1.156-2.969.41-1.156.742-2.391 1.152-3.547 2.887-9.477 4.617-19.207 6.348-28.934.742-4.367 1.156-8.738.992-13.105s-.824-9.066-3.875-12.117c-2.062-2.062-5.031-2.969-7.832-3.793-14.922-4.121-30.418-6.02-45.918-5.277-9.066.414-18.133-1.234-26.871-3.789-1.484-.414-3.215-.824-4.371.164-.492.41-.742 1.07-.988 1.648-1.07 2.801-2.059 5.605-2.801 8.492-.25.824-.414 1.73 0 2.473.328.574.906.906 1.484 1.234 1.977 1.074 3.789 2.473 5.934 3.297l18.383 7.336c2.555.992 5.109 2.063 7.582 3.383 2.559 1.398 5.031 3.051 7.668 4.285 5.191 2.391 11.047 2.887 16.816 3.297-3.051 7.586-5.441 15.5-7.336 23.496.328-5.691.246-11.379-.414-16.984-.328-3.047-.824-6.18-2.141-8.984-1.734-3.793-4.863-6.84-8.246-9.23-7.5-5.277-16.734-6.516-25.637-8.164-12.117-2.223-24.234-4.449-35.609-8.984a565.556 565.556 0 0 0-30.586-11.047c-2.223-.742-4.613-1.484-6.922-1.152-2.391.328-4.535 1.648-6.266 3.297-2.555 2.555-4.367 5.934-4.617 9.563-.492 6.016 4.121 10.883 9.316 14.012l16.074 9.48 5.852 3.383c3.051 1.73 6.102 3.379 9.234 4.863 1.484.742 3.133 1.316 4.617 2.141 1.316.742 2.473 1.816 3.707 2.559 7.504 4.695 16.156 7.418 24.977 7.664 1.816.082 3.875.164 4.867 1.648.656.906.656 2.145.656 3.297-.164 5.031.25 10.555-2.223 14.84-4.371 7.5-7.008 15.91-8.656 24.398s-2.887 17.23-3.133 25.887c-.246 8.078-.414 16.402 2.145 24.07 2.473 7.582 7.664 14.262 14.34 18.629 6.516 4.371 14.262 6.266 22.094 5.77l1.156-11.621c.246-1.074.246-2.391.164-4.039zm0 0"/><path fill="#e6ceb8" d="M104.609 116.32c-3.547 3.707-5.687 8.57-6.102 13.684a45.113 45.113 0 0 1-13.437-3.629c-.988-.41-2.059-.988-2.637-1.977-.742-1.238-.496-2.723-.496-4.121.168-7.586-6.43-14.016-6.512-21.598 0-2.887-.492-5.773 0-8.574.25-1.152.578-2.391 1.32-3.297s1.977-1.566 3.133-1.32c.906.25 1.648.906 2.059 1.73.496.824.742 1.734.992 2.559 1.813 6.016 5.273 11.539 9.809 15.906 1.813 1.734 2.637 4.207 4.285 6.02a13.17 13.17 0 0 0 1.898 1.813c1.398.992 3.051 1.484 4.699 1.816.328.082.656.164.906.328.246.328.328.496.082.66zm0 0"/><g fill="#c5815c"><path d="M151.102 43.199c-1.152 4.121-3.051 7.996-5.687 11.379-1.32 1.813-2.887 3.461-3.957 5.355-2.062 3.711-2.145 8.16-2.227 12.367l-.41 16.898c-.082 4.121 2.141 7.914 3.543 11.871 1.156 3.297 2.555 6.594 4.617 9.395s5.027 5.195 8.406 5.855c4.781.988 9.895-1.32 13.191-4.945s5.191-8.328 6.512-13.109c1.484-5.191 2.391-10.551 2.805-15.91.246-2.965-.91-5.77-2.145-8.488-1.32-2.723-2.637-5.605-1.98-8.492.496-2.062 1.898-4.121 1.156-6.102-.578-1.398-2.062-2.223-3.379-2.883-7.422-3.547-13.852-7.996-20.445-13.191m0 0"/><path stroke="#fff" stroke-miterlimit="10" stroke-width=".824" d="M162.891 12.453c-3.711 2.059-6.844 4.863-9.977 7.75-3.957 3.707-7.996 7.828-8.984 13.105-.496 2.887.082 6.184 2.309 8.078.824.66 1.895 1.152 2.391 2.145.496.906.496 1.977.66 3.051.492 2.391 2.141 4.285 3.875 6.016 2.473 2.391 5.109 4.699 8.078 6.348s6.43 2.719 9.891 2.555a13.093 13.093 0 0 0 6.512-1.977c2.062-1.402 3.711-3.383 4.945-5.605 1.898-3.383 3.051-7.172 3.875-10.965.906-4.203 1.32-8.574 1.73-12.859.332-3.297.66-6.594-.246-9.727-.988-3.629-3.625-6.68-6.84-8.574-3.465-2.062-7.008-2.637-10.965-1.977-2.555.41-5.027 1.398-7.254 2.637zm0 0"/></g><path fill="#221b1b" d="M174.02 12.121c-1.566-.41-3.297-.906-4.781-.246-1.816.824-2.559 3.051-3.711 4.699-2.391 3.379-7.008 4.285-10.223 6.926-3.133 2.473-4.863 6.512-4.531 10.469-.824.246-1.566-.66-1.898-1.484s-.66-1.895-1.566-1.98c-.824-.082-1.316.66-1.648 1.32-.328.742-.742 1.566-.906 2.391-.41 1.813-.164 3.793.906 5.277.66.906 1.484 1.648 2.227 2.391.742.824 1.484 1.648 1.73 2.719.332 1.402-.082 2.887-.66 4.203-1.316 3.133-3.133 6.184-5.605 8.574.496-1.977.992-3.875 1.32-5.852l.496-2.969c.164-.906.41-1.812.328-2.719-.082-1.32-1.07-2.473-1.73-3.629-1.898-3.215-1.898-7.172-1.73-10.965.328-6.098 1.152-12.199 3.707-17.723s7.09-10.387 12.859-12.199c3.629-1.156 7.668-.988 11.379-.082 6.098 1.484 11.785 5.109 15.332 10.305s4.699 12.035 2.719 18.051c.496-1.484.164-3.461-.082-4.945-.246-1.648-.824-3.215-1.566-4.699-1.484-3.051-3.875-5.605-6.758-7.254-.992-.578-1.402-.66-2.473-.328-.824.164-1.98 0-3.133-.25zm-5.938 12.863a10.04 10.04 0 0 0-2.637-.91c-1.98-.246-3.957.742-6.02.91a10.19 10.19 0 0 1 6.02-2.559c2.227-.246 4.453.25 6.43 1.32l.742.496c.41.492.246.988-.082 1.398-.246.332-.414.824-.824.824-.496 0-1.238-.492-1.73-.742l-1.898-.738zm19.539 3.707c-.992-.824-1.32-2.309-2.473-2.801-.496-.25-1.156-.25-1.734-.25-1.07.082-2.059.168-3.129.414-.168.082-.332.082-.496.246-.082.164-.082.332-.082.578 0 .328 0 1.402.328 1.484.25.082.66-.082.906-.164.332-.086.578-.086.906-.086 1.238-.082 2.477-.082 3.711.168l.988.246c.414 0 .906 0 1.074.164zm0 0"/><path fill="#c5815c" d="M106.586 58.203c-2.801-1.32-6.18-.988-9.148-.082l-8.82 3.051c-3.547.906-7.254.824-10.883 1.648-4.367.988-8.324 3.297-12.613 4.535-2.305.656-4.695.906-6.922 1.563-2.309.66-4.535 1.734-6.02 3.629-1.648 2.063-2.141 4.781-2.227 7.336-.328 6.266 1.074 12.695 4.043 18.219 1.07 1.977.574 4.367.906 6.594.164.906.246 1.898 0 2.723-.332 1.152-1.32 1.977-1.898 2.965-.824 1.402-1.07 3.051-1.566 4.535-1.07 3.297-3.215 6.02-5.355 8.82-.992 1.32-2.062 2.719-2.641 4.285s-.574 3.383.25 4.863c.41.66 1.484.332 2.059-.164.164-.164.414-.328.66-.328s.328.246.414.492c0 .25 0 .414-.086.66a3.797 3.797 0 0 0-.082 1.648c.082.578.414 1.074.91 1.402.574.414 1.398.332 2.059 0s1.156-.824 1.648-1.402c3.711-4.121 5.938-9.477 10.223-12.941-2.309 3.051-4.203 6.512-6.102 9.809-.574.992-1.07 1.98-1.316 3.051-.25 1.156 0 2.555.988 3.297a2.48 2.48 0 0 0 2.883.168c4.781-3.051 6.762-9.07 10.059-13.602.496-.742 1.07-1.484 1.895-1.816 1.074-.41 2.309 0 3.383.578s2.059 1.32 3.215 1.402c2.637.246 5.273.578 7.582 1.813 1.074.578 1.98 1.402 3.133 1.73s2.391.332 3.461-.246c.332-.164.66-.328.824-.66.25-.496 0-1.152-.246-1.648-1.648-2.969-4.699-5.027-8.078-5.359-1.73-.164-3.711 0-5.027-1.152-.824-.66-1.32-1.73-1.98-2.637-.66-.824-1.484-1.566-2.227-2.391-.656-.824-1.152-1.98-.738-3.051 1.316-3.711-.086-7.832-.086-11.707 0-2.969 0-6.016.742-8.984.25-.824.66-1.566 1.402-1.98s1.648-.41 2.473-.492c3.215-.246 6.43-.578 9.645-1.156 2.555-.492 5.031-1.152 7.586-1.48s5.191-.414 7.664.246c.992.246 1.898-.988 2.391-1.898s.742-1.977.91-2.965c.656-4.207.824-8.574.246-12.859-.414-3.133 1.234-6.68.41-10.059zm0 0"/><path fill="#e6ceb8" d="m143.105 57.875-.164-.168c-.25-.246-.66-.41-1.074-.492l-3.625-.988c-.414-.086-.742-.332-1.07-.496-.496-.246-1.074-.246-1.566-.328-1.32-.25-2.641-.496-3.875-.168-.66.168-1.32.496-1.98.742-.824.25-1.73.414-2.637.496a75.511 75.511 0 0 1-16.156.246c-4.289-.41-8.656 0-12.777.906 2.473 1.648 4.121 4.371 5.027 7.172s1.238 5.855 1.32 8.82c.082 1.816.164 3.711-.25 5.441s-1.316 3.547-2.719 4.617c-.41.246-.824.496-1.07.824a1.28 1.28 0 0 0-.332 1.32c.164.492.742.742 1.238.988s1.07.66.988 1.234c-.988 8.492.328 17.066-.082 25.555-.742 1.074-.414 2.559.328 3.629.742.988 1.98 1.566 3.133 2.059 7.996 3.383 16.984 3.133 25.555 4.371 6.844.988 13.684 3.051 20.609 2.309 9.148-.906 18.301 2.637 27.367 1.813 2.145-.164 4.289-.496 6.43-.824l11.047-1.648c.578-.082 1.07-.164 1.566-.496 1.156-.742 1.238-2.391 1.156-3.789-.086-5.277 1.316-10.555 3.871-15.168 1.32-2.391.91-5.441.992-8.078.082-1.566 0-3.133-.66-4.535-.496-.988-1.238-1.812-1.98-2.555-2.555-2.559-5.273-5.031-8.078-7.254-6.43-5.031-12.613-10.387-19.453-14.758-.578 2.227.164 4.617.578 6.844.988 5.191.492 10.551.082 15.742-.414 4.699-3.051 8.988-5.605 12.863-2.641 3.871-6.348 7.254-10.883 8.406-1.402.328-2.887.496-4.203-.164-1.238-.578-2.062-1.812-2.805-3.051-4.613-7.668-7.336-16.488-7.914-25.391-.328-4.781-.492-9.645-.656-14.426-.086-1.73-.168-3.461-.086-5.191.086-.906.25-1.73.332-2.555 0-.742.246-1.402.41-2.145-.082-.578 0-1.238-.328-1.73zm0 0"/><path fill="#c5815c" d="M128.516 123.82c-1.402.082-2.887.164-4.039-.492-.578-.332-.992-.828-1.156-1.402-.164-.66.082-1.402.578-1.898s1.32-.574 1.977-.41c.578.164 1.074.578 1.734.578.574 0 .988-.332 1.48-.496 1.566-.66 3.051 0 4.453.578 1.484.66 2.969 1.566 4.203 2.637.332.246.578.578.742.906.082.246.164.824-.082.988s-.906-.082-1.234-.082l-2.887-.492c-1.895-.25-3.793-.414-5.77-.414zm0 0"/><path fill="#221b1b" d="m346.141 233.871-.66 7.008c1.402-1.98 2.309-4.371 2.473-6.844s-.246-4.945-1.316-7.172c-.082-.082-.082-.246-.25-.246-.328-.164-1.152.328-1.316.66-.168.41.246.988.41 1.316.414 1.074.578 2.227.66 3.379.082.66 0 1.238 0 1.898zm0 0"/></svg>