<svg xmlns="http://www.w3.org/2000/svg" width="500" height="500" viewBox="0 0 375 375"><style>.B{clip-rule:nonzero}</style><defs><clipPath id="A"><path d="M0 .309h345v76.594H0zm0 0" class="B"/></clipPath><clipPath id="B"><path d="M176.266 256.594c-43.066.547-78.43-33.898-78.977-76.945s33.918-78.379 76.988-78.93 78.434 33.898 78.98 76.945-33.922 78.383-76.992 78.93zM342.348 1.16l-.004-.387-99.094 1.266.379 29.66 49.27-.629-51 56.258c-19.066-13.914-42.637-22.008-68.07-21.684-25.16.32-48.297 8.836-66.906 22.965L98.907 80.8l25.105-25.738-21.641-21.086-25.105 25.742-24.969-24.324 24.027-.309-.387-30.203-74.492.953v.281l-1.258.02.949 74.445 30.223-.383-.301-23.312 25.105 24.457-22.891 23.473 21.641 21.082 22.895-23.473 7.691 7.492c-14.91 19.426-23.645 43.805-23.305 70.18.734 57.473 44.266 104.375 99.918 110.82l.512 40.457-48.25.621.383 30.199 48.258-.617.637 50.172 30.219-.383-.641-50.172 44.355-.566-.383-30.199-44.355.563-.52-40.598c54.961-8.305 96.75-56.062 96.023-113.176a112.47 112.47 0 0 0-24.625-68.98l50.945-56.203.621 48.52 29.676-.379-1.258-99.035zm0 0" class="B"/></clipPath><clipPath id="C"><path d="M0 64h345v80.867H0zm0 0" class="B"/></clipPath><clipPath id="D"><path d="M176.266 256.594c-43.066.547-78.43-33.898-78.977-76.945s33.918-78.379 76.988-78.93 78.434 33.898 78.98 76.945-33.922 78.383-76.992 78.93zM342.348 1.16l-.004-.387-99.094 1.266.379 29.66 49.27-.629-51 56.258c-19.066-13.914-42.637-22.008-68.07-21.684-25.16.32-48.297 8.836-66.906 22.965L98.907 80.8l25.105-25.738-21.641-21.086-25.105 25.742-24.969-24.324 24.027-.309-.387-30.203-74.492.953v.281l-1.258.02.949 74.445 30.223-.383-.301-23.312 25.105 24.457-22.891 23.473 21.641 21.082 22.895-23.473 7.691 7.492c-14.91 19.426-23.645 43.805-23.305 70.18.734 57.473 44.266 104.375 99.918 110.82l.512 40.457-48.25.621.383 30.199 48.258-.617.637 50.172 30.219-.383-.641-50.172 44.355-.566-.383-30.199-44.355.563-.52-40.598c54.961-8.305 96.75-56.062 96.023-113.176a112.47 112.47 0 0 0-24.625-68.98l50.945-56.203.621 48.52 29.676-.379-1.258-99.035zm0 0" class="B"/></clipPath><clipPath id="E"><path d="M0 132h345v80.832H0zm0 0" class="B"/></clipPath><clipPath id="F"><path d="M176.266 256.594c-43.066.547-78.43-33.898-78.977-76.945s33.918-78.379 76.988-78.93 78.434 33.898 78.98 76.945-33.922 78.383-76.992 78.93zM342.348 1.16l-.004-.387-99.094 1.266.379 29.66 49.27-.629-51 56.258c-19.066-13.914-42.637-22.008-68.07-21.684-25.16.32-48.297 8.836-66.906 22.965L98.907 80.8l25.105-25.738-21.641-21.086-25.105 25.742-24.969-24.324 24.027-.309-.387-30.203-74.492.953v.281l-1.258.02.949 74.445 30.223-.383-.301-23.312 25.105 24.457-22.891 23.473 21.641 21.082 22.895-23.473 7.691 7.492c-14.91 19.426-23.645 43.805-23.305 70.18.734 57.473 44.266 104.375 99.918 110.82l.512 40.457-48.25.621.383 30.199 48.258-.617.637 50.172 30.219-.383-.641-50.172 44.355-.566-.383-30.199-44.355.563-.52-40.598c54.961-8.305 96.75-56.062 96.023-113.176a112.47 112.47 0 0 0-24.625-68.98l50.945-56.203.621 48.52 29.676-.379-1.258-99.035zm0 0" class="B"/></clipPath><clipPath id="G"><path d="M0 201h345v80.875H0zm0 0" class="B"/></clipPath><clipPath id="H"><path d="M176.266 256.594c-43.066.547-78.43-33.898-78.977-76.945s33.918-78.379 76.988-78.93 78.434 33.898 78.98 76.945-33.922 78.383-76.992 78.93zM342.348 1.16l-.004-.387-99.094 1.266.379 29.66 49.27-.629-51 56.258c-19.066-13.914-42.637-22.008-68.07-21.684-25.16.32-48.297 8.836-66.906 22.965L98.907 80.8l25.105-25.738-21.641-21.086-25.105 25.742-24.969-24.324 24.027-.309-.387-30.203-74.492.953v.281l-1.258.02.949 74.445 30.223-.383-.301-23.312 25.105 24.457-22.891 23.473 21.641 21.082 22.895-23.473 7.691 7.492c-14.91 19.426-23.645 43.805-23.305 70.18.734 57.473 44.266 104.375 99.918 110.82l.512 40.457-48.25.621.383 30.199 48.258-.617.637 50.172 30.219-.383-.641-50.172 44.355-.566-.383-30.199-44.355.563-.52-40.598c54.961-8.305 96.75-56.062 96.023-113.176a112.47 112.47 0 0 0-24.625-68.98l50.945-56.203.621 48.52 29.676-.379-1.258-99.035zm0 0" class="B"/></clipPath><clipPath id="I"><path d="M0 269h345v79.758H0zm0 0" class="B"/></clipPath><clipPath id="J"><path d="M176.266 256.594c-43.066.547-78.43-33.898-78.977-76.945s33.918-78.379 76.988-78.93 78.434 33.898 78.98 76.945-33.922 78.383-76.992 78.93zM342.348 1.16l-.004-.387-99.094 1.266.379 29.66 49.27-.629-51 56.258c-19.066-13.914-42.637-22.008-68.07-21.684-25.16.32-48.297 8.836-66.906 22.965L98.907 80.8l25.105-25.738-21.641-21.086-25.105 25.742-24.969-24.324 24.027-.309-.387-30.203-74.492.953v.281l-1.258.02.949 74.445 30.223-.383-.301-23.312 25.105 24.457-22.891 23.473 21.641 21.082 22.895-23.473 7.691 7.492c-14.91 19.426-23.645 43.805-23.305 70.18.734 57.473 44.266 104.375 99.918 110.82l.512 40.457-48.25.621.383 30.199 48.258-.617.637 50.172 30.219-.383-.641-50.172 44.355-.566-.383-30.199-44.355.563-.52-40.598c54.961-8.305 96.75-56.062 96.023-113.176a112.47 112.47 0 0 0-24.625-68.98l50.945-56.203.621 48.52 29.676-.379-1.258-99.035zm0 0" class="B"/></clipPath><clipPath id="K"><path d="M0 338h345v37H0zm0 0" class="B"/></clipPath><clipPath id="L"><path d="M176.266 256.594c-43.066.547-78.43-33.898-78.977-76.945s33.918-78.379 76.988-78.93 78.434 33.898 78.98 76.945-33.922 78.383-76.992 78.93zM342.348 1.16l-.004-.387-99.094 1.266.379 29.66 49.27-.629-51 56.258c-19.066-13.914-42.637-22.008-68.07-21.684-25.16.32-48.297 8.836-66.906 22.965L98.907 80.8l25.105-25.738-21.641-21.086-25.105 25.742-24.969-24.324 24.027-.309-.387-30.203-74.492.953v.281l-1.258.02.949 74.445 30.223-.383-.301-23.312 25.105 24.457-22.891 23.473 21.641 21.082 22.895-23.473 7.691 7.492c-14.91 19.426-23.645 43.805-23.305 70.18.734 57.473 44.266 104.375 99.918 110.82l.512 40.457-48.25.621.383 30.199 48.258-.617.637 50.172 30.219-.383-.641-50.172 44.355-.566-.383-30.199-44.355.563-.52-40.598c54.961-8.305 96.75-56.062 96.023-113.176a112.47 112.47 0 0 0-24.625-68.98l50.945-56.203.621 48.52 29.676-.379-1.258-99.035zm0 0" class="B"/></clipPath><clipPath id="M"><path d="M0 0h345v375H0zm0 0" class="B"/></clipPath></defs><g clip-path="url(#A)"><g clip-path="url(#B)"><path fill="#f14949" d="m601.426 66.34-820.309 10.453-.879-69.004L600.543-2.668z"/></g></g><g clip-path="url(#C)"><g clip-path="url(#D)"><path fill="#f67a3e" d="m602.285 133.969-820.301 10.449-.883-69.004L601.41 64.961z"/></g></g><g clip-path="url(#E)"><g clip-path="url(#F)"><path fill="#fbdd31" d="m603.148 201.598-820.305 10.449-.879-69.004 820.305-10.457z"/></g></g><g clip-path="url(#G)"><g clip-path="url(#H)"><path fill="#00a85d" d="m604.031 270.602-820.309 10.453-.879-69.008 820.305-10.449z"/></g></g><g clip-path="url(#I)"><g clip-path="url(#J)"><path fill="#5174b7" d="m604.891 338.227-820.301 10.457-.883-69.008 820.309-10.453z"/></g></g><g clip-path="url(#K)"><g clip-path="url(#L)"><path fill="#7e569c" d="m605.773 407.238-820.309 10.449-.875-69.004 820.301-10.457z"/></g></g><g clip-path="url(#M)"><path fill="none" stroke="#040506" stroke-miterlimit="10" stroke-width=".915" d="M176.266 256.593c-43.067.547-78.43-33.898-78.977-76.945s33.918-78.379 76.989-78.93 78.434 33.898 78.981 76.945-33.922 78.383-76.992 78.93zM342.349 1.159l-.004-.387-99.094 1.266.379 29.66 49.27-.629-51 56.258c-19.066-13.914-42.637-22.008-68.071-21.684-25.16.32-48.297 8.836-66.906 22.965L98.907 80.8l25.106-25.738-21.641-21.086-25.106 25.742-24.969-24.324 24.027-.309-.387-30.203-74.492.953v.281l-1.258.02.949 74.445 30.223-.383-.301-23.313 25.106 24.457-22.891 23.473 21.641 21.082 22.895-23.473 7.691 7.492c-14.91 19.426-23.645 43.805-23.305 70.18.734 57.473 44.266 104.375 99.918 110.821l.512 40.457-48.25.621.383 30.199 48.258-.617.637 50.172 30.219-.383-.641-50.172 44.356-.566-.383-30.199-44.356.563-.52-40.598c54.961-8.305 96.75-56.063 96.024-113.176-.332-26.109-9.504-50.039-24.625-68.981l50.945-56.203.621 48.52 29.676-.379-1.258-99.035zm0 0"/></g></svg>