<svg xmlns="http://www.w3.org/2000/svg" xmlns:xlink="http://www.w3.org/1999/xlink" width="500" zoomAndPan="magnify" viewBox="0 0 375 374.999991" height="500" preserveAspectRatio="xMidYMid meet" version="1.0"><defs><g/><clipPath id="57fc4bd8a4"><path d="M 121.566406 162 L 170 162 L 170 173 L 121.566406 173 Z M 121.566406 162 " clip-rule="nonzero"/></clipPath><clipPath id="fa3c2bce7b"><path d="M 190 166 L 250.25 166 L 250.25 194 L 190 194 Z M 190 166 " clip-rule="nonzero"/></clipPath><clipPath id="ca069d510f"><path d="M 167 151.253906 L 241 151.253906 L 241 172 L 167 172 Z M 167 151.253906 " clip-rule="nonzero"/></clipPath><clipPath id="cb80bab64e"><path d="M 176 175 L 183 175 L 183 195.183594 L 176 195.183594 Z M 176 175 " clip-rule="nonzero"/></clipPath><clipPath id="b4a1343c98"><path d="M 150 57 L 171 57 L 171 69.988281 L 150 69.988281 Z M 150 57 " clip-rule="nonzero"/></clipPath><clipPath id="20ecb8d13f"><path d="M 147 54 L 174 54 L 174 69.988281 L 147 69.988281 Z M 147 54 " clip-rule="nonzero"/></clipPath><clipPath id="be7c664680"><path d="M 145.097656 52.046875 L 176 52.046875 L 176 69.988281 L 145.097656 69.988281 Z M 145.097656 52.046875 " clip-rule="nonzero"/></clipPath><clipPath id="7fbee1a4c2"><path d="M 152 59 L 168 59 L 168 69.988281 L 152 69.988281 Z M 152 59 " clip-rule="nonzero"/></clipPath><clipPath id="0458a3b9b9"><path d="M 150 69.375 L 172 69.375 L 172 82 L 150 82 Z M 150 69.375 " clip-rule="nonzero"/></clipPath><clipPath id="9b2815b3c0"><path d="M 147 69.375 L 175 69.375 L 175 86 L 147 86 Z M 147 69.375 " clip-rule="nonzero"/></clipPath><clipPath id="f3019db936"><path d="M 145.378906 69.375 L 176.3125 69.375 L 176.3125 87 L 145.378906 87 Z M 145.378906 69.375 " clip-rule="nonzero"/></clipPath><clipPath id="cae35856e7"><path d="M 153 69.375 L 169 69.375 L 169 80 L 153 80 Z M 153 69.375 " clip-rule="nonzero"/></clipPath><clipPath id="c6d2ae8f5a"><path d="M 185 64 L 213 64 L 213 80 L 185 80 Z M 185 64 " clip-rule="nonzero"/></clipPath><clipPath id="3cf6a37dcc"><path d="M 218.621094 87.316406 L 178.417969 86.476562 L 178.894531 63.589844 L 219.101562 64.429688 Z M 218.621094 87.316406 " clip-rule="nonzero"/></clipPath><clipPath id="9810841e9b"><path d="M 218.621094 87.316406 L 178.417969 86.476562 L 178.894531 63.589844 L 219.101562 64.429688 Z M 218.621094 87.316406 " clip-rule="nonzero"/></clipPath><clipPath id="b039cf5e4e"><path d="M 218.621094 87.316406 L 178.417969 86.476562 L 178.894531 63.589844 L 219.101562 64.429688 Z M 218.621094 87.316406 " clip-rule="nonzero"/></clipPath><clipPath id="73f4e2f1f7"><path d="M 181 64 L 217 64 L 217 85 L 181 85 Z M 181 64 " clip-rule="nonzero"/></clipPath><clipPath id="87fe722746"><path d="M 218.621094 87.316406 L 178.417969 86.476562 L 178.894531 63.589844 L 219.101562 64.429688 Z M 218.621094 87.316406 " clip-rule="nonzero"/></clipPath><clipPath id="2fdc207a42"><path d="M 218.621094 87.316406 L 178.417969 86.476562 L 178.894531 63.589844 L 219.101562 64.429688 Z M 218.621094 87.316406 " clip-rule="nonzero"/></clipPath><clipPath id="1bc2f81e30"><path d="M 218.621094 87.316406 L 178.417969 86.476562 L 178.894531 63.589844 L 219.101562 64.429688 Z M 218.621094 87.316406 " clip-rule="nonzero"/></clipPath><clipPath id="4580e5a76c"><path d="M 178 64 L 220 64 L 220 87 L 178 87 Z M 178 64 " clip-rule="nonzero"/></clipPath><clipPath id="485ec9f202"><path d="M 218.621094 87.316406 L 178.417969 86.476562 L 178.894531 63.589844 L 219.101562 64.429688 Z M 218.621094 87.316406 " clip-rule="nonzero"/></clipPath><clipPath id="1354713a2e"><path d="M 218.621094 87.316406 L 178.417969 86.476562 L 178.894531 63.589844 L 219.101562 64.429688 Z M 218.621094 87.316406 " clip-rule="nonzero"/></clipPath><clipPath id="9a2c62afd6"><path d="M 218.621094 87.316406 L 178.417969 86.476562 L 178.894531 63.589844 L 219.101562 64.429688 Z M 218.621094 87.316406 " clip-rule="nonzero"/></clipPath><clipPath id="c3dcc04708"><path d="M 189 64 L 210 64 L 210 77 L 189 77 Z M 189 64 " clip-rule="nonzero"/></clipPath><clipPath id="3840a1278a"><path d="M 218.621094 87.316406 L 178.417969 86.476562 L 178.894531 63.589844 L 219.101562 64.429688 Z M 218.621094 87.316406 " clip-rule="nonzero"/></clipPath><clipPath id="1d89361597"><path d="M 218.621094 87.316406 L 178.417969 86.476562 L 178.894531 63.589844 L 219.101562 64.429688 Z M 218.621094 87.316406 " clip-rule="nonzero"/></clipPath><clipPath id="d4808a22a9"><path d="M 218.621094 87.316406 L 178.417969 86.476562 L 178.894531 63.589844 L 219.101562 64.429688 Z M 218.621094 87.316406 " clip-rule="nonzero"/></clipPath></defs><g clip-path="url(#57fc4bd8a4)"><path fill="#634e4e" d="M 161.792969 172.988281 C 161.550781 172.988281 161.351562 172.789062 161.351562 172.546875 C 161.351562 172.347656 161.472656 172.1875 161.652344 172.125 C 161.851562 172.046875 162.03125 171.964844 162.210938 171.867188 C 163.210938 171.363281 165.085938 170.402344 167.703125 170.503906 C 168.164062 170.523438 168.484375 170.203125 168.503906 170.042969 C 168.503906 169.941406 168.324219 169.839844 168.042969 169.800781 C 165.945312 169.417969 163.609375 168.71875 161.132812 167.976562 C 154.34375 165.929688 146.632812 163.625 140.820312 167.253906 C 140.722656 167.316406 140.582031 167.335938 140.460938 167.316406 C 140.34375 167.273438 140.242188 167.195312 140.183594 167.074219 C 139.484375 165.652344 136.449219 164.546875 134.96875 164.265625 C 130.15625 163.363281 126.980469 163.585938 122.066406 164.386719 C 121.828125 164.425781 121.609375 164.246094 121.570312 164.007812 C 121.546875 163.765625 121.6875 163.566406 121.929688 163.503906 C 126.941406 162.683594 130.175781 162.464844 135.128906 163.386719 C 136.25 163.585938 139.484375 164.546875 140.722656 166.253906 C 146.8125 162.722656 154.542969 165.050781 161.371094 167.09375 C 163.828125 167.835938 166.144531 168.519531 168.183594 168.878906 C 169.140625 169.039062 169.421875 169.621094 169.382812 170.101562 C 169.300781 170.824219 168.523438 171.382812 167.664062 171.363281 C 165.265625 171.285156 163.589844 172.125 162.589844 172.628906 C 162.371094 172.746094 162.132812 172.847656 161.910156 172.949219 C 161.890625 172.96875 161.832031 172.988281 161.792969 172.988281 Z M 161.792969 172.988281 " fill-opacity="1" fill-rule="nonzero"/></g><path fill="#634e4e" d="M 129.636719 185.738281 C 127.378906 185.757812 125.125 185.480469 122.925781 184.9375 C 122.6875 184.878906 122.546875 184.636719 122.605469 184.394531 C 122.667969 184.15625 122.90625 184.015625 123.144531 184.074219 C 127.222656 185.117188 131.296875 184.917969 134.011719 184.554688 C 136.96875 184.15625 138.984375 183.515625 139.523438 183.234375 C 139.464844 183.054688 139.363281 182.773438 139.242188 182.511719 C 138.625 180.96875 137.484375 178.121094 138.363281 175.011719 C 138.425781 174.773438 138.644531 174.613281 138.882812 174.671875 C 139.125 174.734375 139.285156 174.953125 139.222656 175.195312 C 139.222656 175.214844 139.222656 175.234375 139.203125 175.253906 C 138.40625 178.0625 139.484375 180.746094 140.042969 182.171875 C 140.34375 182.933594 140.480469 183.273438 140.363281 183.574219 C 140.042969 184.417969 135.886719 185.179688 134.449219 185.378906 C 132.871094 185.597656 131.253906 185.71875 129.636719 185.738281 Z M 129.636719 185.738281 " fill-opacity="1" fill-rule="nonzero"/><path fill="#634e4e" d="M 163.667969 177.238281 C 161.910156 177.238281 160.15625 176.878906 157.9375 176.335938 C 157.699219 176.277344 157.558594 176.035156 157.617188 175.796875 C 157.679688 175.554688 157.917969 175.414062 158.15625 175.472656 C 162.589844 176.558594 165.167969 176.878906 169.660156 174.914062 C 170.140625 174.710938 170.160156 174.453125 170.179688 174.351562 C 170.179688 174.03125 170.0625 173.730469 169.820312 173.53125 C 169.679688 173.46875 169.042969 173.53125 168.460938 173.570312 C 166.207031 173.769531 162.03125 174.132812 156.980469 171.222656 C 156.757812 171.105469 156.699219 170.824219 156.820312 170.621094 C 156.9375 170.421875 157.21875 170.34375 157.417969 170.460938 C 162.230469 173.230469 166.226562 172.886719 168.382812 172.6875 C 169.421875 172.609375 169.980469 172.546875 170.339844 172.828125 C 170.820312 173.230469 171.078125 173.851562 171.039062 174.472656 C 171 174.851562 170.78125 175.394531 170 175.734375 C 167.523438 176.796875 165.605469 177.238281 163.667969 177.238281 Z M 163.667969 177.238281 " fill-opacity="1" fill-rule="nonzero"/><path fill="#634e4e" d="M 163.769531 181.226562 C 162.292969 181.226562 160.734375 180.949219 158.738281 180.285156 C 158.496094 180.207031 158.378906 179.964844 158.457031 179.726562 C 158.535156 179.484375 158.777344 179.363281 159.015625 179.445312 C 163.570312 180.925781 165.6875 180.445312 170.140625 178.824219 C 170.738281 178.601562 171.4375 178.199219 171.359375 177.597656 C 171.277344 177.039062 170.679688 176.597656 170.519531 176.578125 C 169.820312 176.515625 169.121094 176.597656 168.464844 176.835938 C 167.703125 177.058594 166.84375 177.300781 165.167969 177.117188 C 164.929688 177.097656 164.75 176.878906 164.769531 176.617188 C 164.789062 176.375 165.007812 176.195312 165.265625 176.214844 C 166.265625 176.355469 167.265625 176.277344 168.222656 175.976562 C 168.980469 175.714844 169.800781 175.613281 170.601562 175.695312 C 171.238281 175.734375 172.136719 176.558594 172.257812 177.480469 C 172.335938 178.019531 172.199219 179.042969 170.460938 179.664062 C 167.785156 180.648438 165.867188 181.226562 163.769531 181.226562 Z M 163.769531 181.226562 " fill-opacity="1" fill-rule="nonzero"/><path fill="#634e4e" d="M 157.859375 185.960938 C 156.980469 185.960938 156.28125 185.941406 155.921875 185.941406 C 152.605469 185.859375 150.128906 185.359375 147.710938 184.878906 C 146.574219 184.65625 145.496094 184.4375 144.316406 184.253906 C 143.898438 184.195312 143.496094 184.15625 143.117188 184.117188 C 141.761719 183.996094 140.460938 183.875 139.265625 182.570312 C 139.105469 182.371094 139.144531 182.089844 139.324219 181.949219 C 139.503906 181.808594 139.742188 181.828125 139.902344 181.96875 C 140.863281 183.011719 141.839844 183.113281 143.179688 183.234375 C 143.578125 183.273438 143.996094 183.3125 144.4375 183.375 C 145.636719 183.554688 146.773438 183.773438 147.871094 184.015625 C 150.226562 184.496094 152.683594 184.976562 155.921875 185.058594 C 159.796875 185.15625 166.027344 184.9375 167.265625 183.875 C 167.382812 183.773438 167.5625 183.613281 167.722656 183.472656 C 167.625 183.472656 167.503906 183.472656 167.34375 183.472656 C 167.105469 183.453125 166.90625 183.253906 166.925781 182.992188 C 166.945312 182.773438 167.125 182.589844 167.34375 182.570312 C 167.984375 182.550781 168.644531 182.589844 168.824219 183.074219 C 169.003906 183.554688 168.503906 184.015625 167.84375 184.554688 C 166.40625 185.78125 160.972656 185.960938 157.859375 185.960938 Z M 157.859375 185.960938 " fill-opacity="1" fill-rule="nonzero"/><path fill="#634e4e" d="M 162.472656 183.933594 C 161.3125 183.953125 160.15625 183.835938 159.015625 183.574219 C 158.777344 183.492188 158.65625 183.234375 158.738281 183.011719 C 158.816406 182.792969 159.035156 182.671875 159.253906 182.710938 C 162.152344 183.515625 168.503906 182.8125 169.722656 181.550781 C 170.121094 181.128906 170.261719 180.726562 170.082031 180.425781 C 169.882812 180.144531 169.5 180.027344 169.183594 180.125 C 168.941406 180.207031 168.703125 180.066406 168.621094 179.824219 C 168.542969 179.585938 168.683594 179.34375 168.921875 179.261719 C 168.941406 179.261719 168.941406 179.261719 168.960938 179.261719 C 169.679688 179.0625 170.460938 179.34375 170.859375 179.984375 C 171.238281 180.648438 171.058594 181.449219 170.378906 182.171875 C 169.300781 183.292969 165.625 183.933594 162.472656 183.933594 Z M 162.472656 183.933594 " fill-opacity="1" fill-rule="nonzero"/><g clip-path="url(#fa3c2bce7b)"><path fill="#634e4e" d="M 194.347656 193.519531 C 194.148438 193.519531 193.945312 193.496094 193.746094 193.476562 C 192.527344 193.296875 191.53125 192.535156 190.773438 191.234375 C 189.292969 188.667969 192.847656 184.394531 194.785156 182.730469 C 198.5 179.523438 200.796875 176.859375 202.792969 174.492188 C 205.871094 170.882812 208.085938 168.277344 213.339844 166.613281 C 213.578125 166.53125 213.820312 166.671875 213.898438 166.914062 C 213.960938 167.132812 213.839844 167.394531 213.621094 167.453125 C 208.605469 169.058594 206.570312 171.445312 203.472656 175.074219 C 201.535156 177.339844 199.140625 180.144531 195.363281 183.394531 C 193.488281 185.015625 190.433594 188.847656 191.550781 190.769531 C 192.167969 191.855469 192.929688 192.433594 193.886719 192.574219 C 194.046875 192.597656 194.1875 192.617188 194.347656 192.617188 C 197.324219 192.617188 201.375 188.746094 204.371094 185.898438 C 204.8125 185.480469 205.25 185.078125 205.652344 184.695312 C 211.902344 178.863281 213.101562 178.742188 218.09375 178.199219 C 219.410156 178.0625 221.050781 177.878906 223.125 177.539062 C 224.585938 177.300781 227 175.875 229.777344 174.230469 C 235.070312 171.082031 242.339844 166.773438 249.789062 166.554688 C 250.027344 166.554688 250.226562 166.773438 250.226562 167.015625 C 250.226562 167.234375 250.046875 167.433594 249.828125 167.453125 C 242.597656 167.65625 235.449219 171.90625 230.234375 175.011719 C 227.261719 176.777344 224.902344 178.179688 223.265625 178.441406 C 221.167969 178.78125 219.53125 178.960938 218.191406 179.101562 C 213.300781 179.625 212.28125 179.746094 206.25 185.359375 C 205.851562 185.71875 205.429688 186.140625 204.992188 186.5625 C 201.714844 189.667969 197.703125 193.519531 194.347656 193.519531 Z M 194.347656 193.519531 " fill-opacity="1" fill-rule="nonzero"/></g><g clip-path="url(#ca069d510f)"><path fill="#634e4e" d="M 167.445312 171.382812 C 167.203125 171.363281 167.003906 171.164062 167.023438 170.921875 C 167.042969 170.703125 167.203125 170.523438 167.445312 170.503906 C 174.355469 170.28125 180.6875 167.996094 186.816406 165.769531 C 191.570312 164.046875 196.464844 162.261719 201.535156 161.5 C 204.632812 161.039062 207.328125 160.398438 210.183594 159.714844 C 214.617188 158.671875 219.171875 157.589844 225.421875 157.128906 C 230.65625 156.75 234.570312 154.503906 239.503906 151.335938 C 239.703125 151.195312 239.984375 151.253906 240.121094 151.476562 C 240.261719 151.675781 240.203125 151.957031 239.984375 152.097656 C 234.929688 155.324219 230.933594 157.652344 225.484375 158.03125 C 219.3125 158.472656 214.757812 159.554688 210.382812 160.597656 C 207.507812 161.28125 204.792969 161.921875 201.65625 162.402344 C 196.664062 163.144531 191.808594 164.910156 187.097656 166.632812 C 180.90625 168.839844 174.496094 171.164062 167.445312 171.382812 Z M 167.445312 171.382812 " fill-opacity="1" fill-rule="nonzero"/></g><path fill="#634e4e" d="M 182.742188 186.421875 C 182.421875 186.421875 182.105469 186.339844 181.824219 186.179688 C 181.605469 186.082031 181.503906 185.800781 181.625 185.578125 C 181.746094 185.359375 182.003906 185.257812 182.222656 185.378906 C 182.242188 185.378906 182.242188 185.398438 182.261719 185.398438 C 182.5625 185.539062 182.902344 185.558594 183.203125 185.457031 C 183.722656 185.277344 184.160156 184.878906 184.402344 184.375 C 184.960938 183.171875 185.238281 181.027344 185.480469 179.144531 C 185.640625 177.859375 185.796875 176.636719 186.039062 175.835938 C 186.117188 175.59375 186.378906 175.472656 186.597656 175.554688 C 186.816406 175.636719 186.9375 175.855469 186.898438 176.074219 C 186.699219 176.835938 186.539062 178 186.378906 179.261719 C 186.117188 181.226562 185.839844 183.433594 185.21875 184.757812 C 184.878906 185.480469 184.261719 186.039062 183.5 186.300781 C 183.222656 186.378906 182.984375 186.421875 182.742188 186.421875 Z M 182.742188 186.421875 " fill-opacity="1" fill-rule="nonzero"/><path fill="#634e4e" d="M 199.300781 177.359375 C 196.503906 177.359375 193.765625 176.757812 190.8125 175.515625 C 190.59375 175.414062 190.492188 175.132812 190.613281 174.914062 C 190.710938 174.710938 190.953125 174.613281 191.152344 174.691406 C 194.605469 176.136719 197.761719 176.675781 201.039062 176.375 C 201.277344 176.355469 201.496094 176.558594 201.515625 176.796875 C 201.535156 177.039062 201.355469 177.238281 201.117188 177.257812 C 200.496094 177.339844 199.898438 177.359375 199.300781 177.359375 Z M 199.300781 177.359375 " fill-opacity="1" fill-rule="nonzero"/><path fill="#634e4e" d="M 203.734375 174.433594 L 203.671875 174.433594 C 201.476562 174.210938 198.101562 173.308594 195.824219 171.523438 C 195.644531 171.363281 195.625 171.082031 195.785156 170.902344 C 195.925781 170.722656 196.183594 170.703125 196.363281 170.824219 C 198.359375 172.386719 201.515625 173.308594 203.753906 173.550781 C 203.992188 173.589844 204.171875 173.808594 204.132812 174.050781 C 204.132812 174.25 203.933594 174.433594 203.734375 174.433594 Z M 203.734375 174.433594 " fill-opacity="1" fill-rule="nonzero"/><path fill="#634e4e" d="M 171.816406 177.558594 C 171.578125 177.558594 171.378906 177.359375 171.378906 177.097656 C 171.378906 176.878906 171.539062 176.699219 171.757812 176.65625 C 174.375 176.257812 177.050781 176.074219 179.648438 175.914062 C 185.9375 175.496094 191.871094 175.113281 197.421875 171.90625 C 197.640625 171.785156 197.902344 171.886719 198.019531 172.085938 C 198.121094 172.285156 198.0625 172.546875 197.863281 172.667969 C 192.128906 175.957031 185.820312 176.375 179.707031 176.777344 C 177.128906 176.957031 174.472656 177.117188 171.898438 177.519531 Z M 171.816406 177.558594 " fill-opacity="1" fill-rule="nonzero"/><path fill="#634e4e" d="M 169.222656 171.285156 C 169.183594 171.285156 169.160156 171.285156 169.121094 171.265625 C 168.882812 171.203125 168.722656 170.984375 168.78125 170.742188 C 169.300781 168.355469 172.15625 167.835938 174.433594 167.394531 C 174.832031 167.316406 175.195312 167.253906 175.53125 167.175781 C 177.070312 166.832031 178.886719 166.3125 180.984375 165.710938 C 186.078125 164.246094 192.429688 162.441406 199.660156 161.78125 C 199.898438 161.761719 200.117188 161.921875 200.160156 162.164062 C 200.199219 162.402344 200.019531 162.625 199.777344 162.664062 C 199.777344 162.664062 199.757812 162.664062 199.757812 162.664062 C 192.628906 163.304688 186.316406 165.109375 181.265625 166.554688 C 179.148438 167.152344 177.332031 167.675781 175.753906 168.035156 C 175.394531 168.117188 175.035156 168.175781 174.632812 168.257812 C 172.597656 168.636719 170.082031 169.117188 169.679688 170.902344 C 169.601562 171.144531 169.421875 171.285156 169.222656 171.285156 Z M 169.222656 171.285156 " fill-opacity="1" fill-rule="nonzero"/><path fill="#634e4e" d="M 173.117188 194.820312 C 172.777344 194.820312 172.4375 194.78125 172.117188 194.699219 C 171.957031 194.660156 171.839844 194.539062 171.796875 194.378906 C 171.140625 191.855469 170.757812 188.945312 170.398438 186.359375 C 170.199219 184.9375 170.019531 183.59375 169.820312 182.429688 C 169.78125 182.191406 169.941406 181.949219 170.179688 181.910156 C 170.421875 181.871094 170.660156 182.03125 170.699219 182.269531 C 170.917969 183.453125 171.097656 184.796875 171.300781 186.242188 C 171.636719 188.707031 172.019531 191.472656 172.617188 193.878906 C 173.054688 193.9375 174.054688 194 174.855469 193.378906 C 175.734375 192.695312 176.171875 191.394531 176.171875 189.507812 C 176.171875 189.269531 176.191406 188.988281 176.191406 188.6875 C 176.253906 187.203125 176.390625 184.476562 175.292969 177.21875 C 175.273438 176.976562 175.453125 176.757812 175.691406 176.738281 C 175.914062 176.71875 176.132812 176.859375 176.171875 177.097656 C 177.289062 184.4375 177.171875 187.242188 177.089844 188.746094 C 177.070312 189.046875 177.070312 189.308594 177.070312 189.527344 C 177.070312 191.714844 176.511719 193.257812 175.394531 194.121094 C 174.695312 194.582031 173.914062 194.839844 173.117188 194.820312 Z M 173.117188 194.820312 " fill-opacity="1" fill-rule="nonzero"/><g clip-path="url(#cb80bab64e)"><path fill="#634e4e" d="M 177.929688 195.183594 C 177.789062 195.183594 177.648438 195.121094 177.570312 195 C 176.992188 194.238281 176.691406 192.976562 176.433594 191.855469 C 176.332031 191.472656 176.253906 191.113281 176.171875 190.8125 C 176.09375 190.589844 176.191406 190.332031 176.433594 190.230469 C 176.652344 190.148438 176.910156 190.25 177.011719 190.492188 C 177.011719 190.511719 177.03125 190.53125 177.03125 190.550781 C 177.128906 190.871094 177.210938 191.253906 177.308594 191.652344 C 177.53125 192.535156 177.789062 193.617188 178.167969 194.261719 C 179.386719 194.140625 180.226562 193.757812 180.765625 193.136719 C 181.863281 191.835938 181.644531 189.308594 181.363281 186.121094 C 181.125 183.394531 180.824219 180.003906 181.285156 176.316406 C 181.304688 176.074219 181.523438 175.875 181.765625 175.894531 C 182.003906 175.914062 182.203125 176.136719 182.183594 176.375 C 182.183594 176.398438 182.183594 176.417969 182.183594 176.417969 C 181.746094 180.003906 182.023438 183.214844 182.261719 186.039062 C 182.5625 189.429688 182.78125 192.113281 181.445312 193.699219 C 180.726562 194.5625 179.585938 195.023438 177.988281 195.140625 Z M 177.929688 195.183594 " fill-opacity="1" fill-rule="nonzero"/></g><g fill="#634e4e" fill-opacity="1"><g transform="translate(149.465472, 123.396385)"><g><path d="M 7.890625 -7.8125 L 7.296875 -7.140625 C 7.242188 -6.296875 7.21875 -5.265625 7.21875 -4.046875 C 7.21875 -3.273438 7.226562 -2.613281 7.25 -2.0625 C 7.28125 -1.75 7.414062 -1.484375 7.65625 -1.265625 C 7.863281 -1.054688 8.09375 -0.910156 8.34375 -0.828125 C 8.59375 -0.753906 9.171875 -0.691406 10.078125 -0.640625 L 10.078125 0 C 9.066406 -0.0820312 7.691406 -0.125 5.953125 -0.125 C 4.078125 -0.125 2.503906 -0.0820312 1.234375 0 L 1.234375 -0.640625 C 3.160156 -0.742188 4.125 -1.019531 4.125 -1.46875 C 4.207031 -3.925781 4.257812 -7.929688 4.28125 -13.484375 C 4.28125 -18.003906 4.226562 -21.546875 4.125 -24.109375 C 3.8125 -24.585938 2.847656 -24.863281 1.234375 -24.9375 L 1.234375 -25.578125 C 1.285156 -25.578125 1.347656 -25.578125 1.421875 -25.578125 C 2.847656 -25.578125 4.832031 -25.878906 7.375 -26.484375 L 7.25 -8.171875 L 11.265625 -12.734375 C 11.628906 -13.179688 11.8125 -13.601562 11.8125 -14 C 11.8125 -14.445312 11.507812 -14.722656 10.90625 -14.828125 C 10.90625 -14.910156 10.910156 -15.050781 10.921875 -15.25 C 10.941406 -15.445312 10.953125 -15.585938 10.953125 -15.671875 L 17.609375 -15.671875 L 17.609375 -14.90625 C 15.410156 -14.695312 13.875 -14.171875 13 -13.328125 L 9.828125 -9.4375 C 10.703125 -8.539062 11.601562 -7.554688 12.53125 -6.484375 C 13.457031 -5.410156 14.4375 -4.347656 15.46875 -3.296875 C 16.519531 -2.234375 17.359375 -1.492188 17.984375 -1.078125 C 18.609375 -0.671875 19.195312 -0.46875 19.75 -0.46875 C 19.800781 -0.46875 19.867188 -0.46875 19.953125 -0.46875 L 19.953125 0.078125 L 14.46875 0.15625 C 14.15625 -0.445312 13.582031 -1.257812 12.75 -2.28125 C 11.914062 -3.300781 11.085938 -4.257812 10.265625 -5.15625 C 9.453125 -6.050781 8.660156 -6.9375 7.890625 -7.8125 Z M 7.890625 -7.8125 "/></g></g></g><g fill="#634e4e" fill-opacity="1"><g transform="translate(175.635769, 123.396385)"><g><path d="M 17.96875 -3.296875 L 18.5625 -2.9375 C 18.21875 -0.789062 16.945312 0.28125 14.75 0.28125 C 13.851562 0.28125 13.179688 -0.015625 12.734375 -0.609375 C 12.285156 -1.203125 12.019531 -1.910156 11.9375 -2.734375 C 11.40625 -2.128906 11 -1.691406 10.71875 -1.421875 C 10.445312 -1.160156 9.925781 -0.796875 9.15625 -0.328125 C 8.394531 0.128906 7.628906 0.359375 6.859375 0.359375 C 5.535156 0.359375 4.394531 -0.0078125 3.4375 -0.75 C 2.488281 -1.488281 2.015625 -2.664062 2.015625 -4.28125 C 2.015625 -5 2.164062 -5.617188 2.46875 -6.140625 C 2.78125 -6.671875 3.207031 -7.101562 3.75 -7.4375 C 4.289062 -7.769531 4.835938 -8.039062 5.390625 -8.25 C 5.941406 -8.457031 6.585938 -8.609375 7.328125 -8.703125 C 8.078125 -8.796875 8.695312 -8.851562 9.1875 -8.875 C 9.675781 -8.90625 10.21875 -8.925781 10.8125 -8.9375 C 11.40625 -8.957031 11.726562 -8.96875 11.78125 -8.96875 C 11.851562 -8.96875 11.890625 -9.941406 11.890625 -11.890625 C 11.890625 -14.410156 10.742188 -15.671875 8.453125 -15.671875 C 7.648438 -15.671875 7.007812 -15.5 6.53125 -15.15625 C 6.0625 -14.8125 5.773438 -14.398438 5.671875 -13.921875 C 6.441406 -13.921875 6.828125 -13.335938 6.828125 -12.171875 C 6.828125 -11.460938 6.585938 -10.953125 6.109375 -10.640625 C 5.628906 -10.335938 5.164062 -10.1875 4.71875 -10.1875 C 4.21875 -10.1875 3.769531 -10.414062 3.375 -10.875 C 2.976562 -11.34375 2.78125 -11.851562 2.78125 -12.40625 C 2.78125 -13.382812 3.398438 -14.335938 4.640625 -15.265625 C 5.640625 -16.035156 7.023438 -16.421875 8.796875 -16.421875 C 10.460938 -16.421875 11.941406 -15.90625 13.234375 -14.875 C 14.535156 -13.84375 15.1875 -12.441406 15.1875 -10.671875 C 15.1875 -9.796875 15.160156 -8.578125 15.109375 -7.015625 C 15.054688 -5.453125 15.03125 -4.332031 15.03125 -3.65625 C 15.03125 -1.875 15.441406 -1 16.265625 -1.03125 C 16.734375 -1.03125 17.085938 -1.203125 17.328125 -1.546875 C 17.566406 -1.890625 17.78125 -2.472656 17.96875 -3.296875 Z M 11.78125 -3.734375 L 11.78125 -8.40625 C 10.851562 -8.320312 10 -8.234375 9.21875 -8.140625 C 8.4375 -8.054688 7.769531 -7.914062 7.21875 -7.71875 C 6.664062 -7.519531 6.226562 -7.179688 5.90625 -6.703125 C 5.59375 -6.222656 5.4375 -5.5625 5.4375 -4.71875 C 5.4375 -3.582031 5.71875 -2.75 6.28125 -2.21875 C 6.851562 -1.6875 7.578125 -1.421875 8.453125 -1.421875 C 9.828125 -1.421875 10.9375 -2.191406 11.78125 -3.734375 Z M 11.78125 -3.734375 "/></g></g></g><g fill="#634e4e" fill-opacity="1"><g transform="translate(199.189106, 123.396385)"><g><path d="M 7.8125 -11.578125 L 7.453125 -7.453125 L 7.5 -2.65625 C 8.550781 -1.46875 9.976562 -0.875 11.78125 -0.875 C 12.882812 -0.875 13.726562 -1.472656 14.3125 -2.671875 C 14.894531 -3.878906 15.1875 -5.550781 15.1875 -7.6875 C 15.1875 -9.863281 14.90625 -11.578125 14.34375 -12.828125 C 13.789062 -14.085938 13.015625 -14.71875 12.015625 -14.71875 C 10.242188 -14.71875 8.84375 -13.671875 7.8125 -11.578125 Z M 1.234375 -15.78125 C 3.296875 -15.78125 5.273438 -16.03125 7.171875 -16.53125 L 7.734375 -12.890625 C 8.441406 -14.023438 9.191406 -14.910156 9.984375 -15.546875 C 10.785156 -16.179688 11.78125 -16.5 12.96875 -16.5 C 14.6875 -16.5 16.1875 -15.6875 17.46875 -14.0625 C 18.75 -12.4375 19.390625 -10.550781 19.390625 -8.40625 C 19.390625 -6.082031 18.710938 -4.0625 17.359375 -2.34375 C 16.015625 -0.625 14.078125 0.234375 11.546875 0.234375 C 9.984375 0.234375 8.617188 -0.375 7.453125 -1.59375 L 7.5 7.140625 C 7.675781 7.429688 8.148438 7.664062 8.921875 7.84375 C 9.691406 8.03125 10.394531 8.125 11.03125 8.125 L 10.953125 8.6875 C 9.628906 8.601562 7.945312 8.5625 5.90625 8.5625 C 3.875 8.5625 2.34375 8.601562 1.3125 8.6875 L 1.3125 8.125 C 3.15625 8.070312 4.078125 7.742188 4.078125 7.140625 C 4.191406 3.992188 4.257812 -0.234375 4.28125 -5.546875 C 4.28125 -9.253906 4.238281 -12.191406 4.15625 -14.359375 C 3.070312 -14.859375 2.097656 -15.132812 1.234375 -15.1875 Z M 1.234375 -15.78125 "/></g></g></g><g fill="#634e4e" fill-opacity="1"><g transform="translate(224.843941, 123.396385)"><g><path d="M 5.984375 -9.203125 L 13.125 -9.234375 C 13.15625 -9.691406 13.171875 -10.117188 13.171875 -10.515625 C 13.171875 -11.328125 13.101562 -11.984375 12.96875 -12.484375 C 12.757812 -13.335938 12.328125 -14.035156 11.671875 -14.578125 C 11.023438 -15.117188 10.226562 -15.390625 9.28125 -15.390625 C 8.300781 -15.390625 7.53125 -14.832031 6.96875 -13.71875 C 6.414062 -12.613281 6.085938 -11.109375 5.984375 -9.203125 Z M 5.953125 -8.609375 L 5.953125 -7.734375 C 5.953125 -5.828125 6.300781 -4.109375 7 -2.578125 C 7.695312 -1.046875 8.707031 -0.28125 10.03125 -0.28125 C 11.5625 -0.28125 12.773438 -0.726562 13.671875 -1.625 C 14.578125 -2.519531 15.203125 -3.457031 15.546875 -4.4375 L 16.65625 -3.65625 C 16.257812 -2.644531 15.492188 -1.671875 14.359375 -0.734375 C 13.222656 0.203125 11.726562 0.671875 9.875 0.671875 C 7.625 0.671875 5.75 -0.0234375 4.25 -1.421875 C 2.757812 -2.828125 2.015625 -4.863281 2.015625 -7.53125 C 2.015625 -9.09375 2.269531 -10.460938 2.78125 -11.640625 C 3.300781 -12.816406 3.988281 -13.710938 4.84375 -14.328125 C 5.707031 -14.953125 6.578125 -15.410156 7.453125 -15.703125 C 8.328125 -15.992188 9.226562 -16.140625 10.15625 -16.140625 C 11.582031 -16.140625 12.910156 -15.753906 14.140625 -14.984375 C 15.367188 -14.222656 16.164062 -12.984375 16.53125 -11.265625 C 16.644531 -10.734375 16.703125 -10.203125 16.703125 -9.671875 C 16.703125 -9.378906 16.6875 -9.035156 16.65625 -8.640625 Z M 5.953125 -8.609375 "/></g></g></g><g fill="#634e4e" fill-opacity="1"><g transform="translate(247.723212, 123.396385)"><g><path d="M 12.84375 -15.3125 L 8.640625 -15.3125 C 8.640625 -15.3125 8.640625 -11.710938 8.640625 -4.515625 C 8.640625 -3.378906 8.816406 -2.46875 9.171875 -1.78125 C 9.535156 -1.09375 10.019531 -0.75 10.625 -0.75 C 11.3125 -0.75 11.882812 -1.023438 12.34375 -1.578125 C 12.8125 -2.140625 13.242188 -2.972656 13.640625 -4.078125 L 14.515625 -3.65625 C 14.273438 -3.019531 14.0625 -2.53125 13.875 -2.1875 C 13.695312 -1.84375 13.4375 -1.441406 13.09375 -0.984375 C 12.75 -0.535156 12.320312 -0.210938 11.8125 -0.015625 C 11.3125 0.179688 10.707031 0.28125 10 0.28125 C 8.40625 0.28125 7.210938 -0.171875 6.421875 -1.078125 C 6.054688 -1.472656 5.789062 -2.03125 5.625 -2.75 C 5.46875 -3.476562 5.390625 -4.546875 5.390625 -5.953125 L 5.390625 -15.3125 L 2.0625 -15.3125 L 2.0625 -15.828125 C 2.695312 -15.828125 3.46875 -16.003906 4.375 -16.359375 C 5.289062 -16.710938 5.921875 -17.101562 6.265625 -17.53125 C 6.609375 -17.976562 6.953125 -18.617188 7.296875 -19.453125 C 7.640625 -20.285156 7.8125 -21.113281 7.8125 -21.9375 L 8.71875 -21.9375 C 8.613281 -21.082031 8.5625 -19.785156 8.5625 -18.046875 C 8.5625 -17.859375 8.5625 -17.566406 8.5625 -17.171875 C 8.5625 -16.773438 8.5625 -16.472656 8.5625 -16.265625 L 13.09375 -16.34375 Z M 12.84375 -15.3125 "/></g></g></g><g fill="#634e4e" fill-opacity="1"><g transform="translate(268.104476, 123.396385)"><g><path d="M 5.03125 -5.1875 C 5.71875 -5.1875 6.34375 -4.96875 6.90625 -4.53125 C 7.476562 -4.101562 7.765625 -3.453125 7.765625 -2.578125 C 7.765625 -1.628906 7.503906 -0.9375 6.984375 -0.5 C 6.472656 -0.0625 5.820312 0.15625 5.03125 0.15625 C 4.375 0.15625 3.773438 -0.117188 3.234375 -0.671875 C 2.691406 -1.222656 2.421875 -1.859375 2.421875 -2.578125 C 2.421875 -3.398438 2.695312 -4.039062 3.25 -4.5 C 3.800781 -4.957031 4.394531 -5.1875 5.03125 -5.1875 Z M 5.03125 -5.1875 "/></g></g></g><g clip-path="url(#b4a1343c98)"><path fill="#e88b22" d="M 170.636719 69.636719 C 170.332031 69.644531 170.027344 69.648438 169.726562 69.652344 C 169.296875 67.484375 168.640625 65.351562 167.515625 63.453125 C 165.433594 59.9375 161.410156 56.949219 157.402344 58.867188 C 153.371094 60.796875 151.867188 65.792969 151.199219 69.949219 C 150.898438 69.953125 150.597656 69.957031 150.292969 69.960938 C 150.722656 67.199219 151.25 64.382812 152.691406 61.96875 C 153.800781 60.113281 155.4375 58.523438 157.496094 57.863281 C 159.597656 57.191406 161.894531 57.59375 163.828125 58.601562 C 167.902344 60.726562 169.785156 65.246094 170.636719 69.636719 Z M 170.636719 69.636719 " fill-opacity="1" fill-rule="nonzero"/></g><g clip-path="url(#20ecb8d13f)"><path fill="#c55428" d="M 173.800781 69.59375 C 173.285156 69.601562 172.765625 69.605469 172.253906 69.613281 C 172.007812 66.617188 171.15625 63.65625 169.484375 61.164062 C 166.546875 56.785156 160.875 54.195312 155.917969 56.5625 C 150.945312 58.9375 149.65625 64.878906 148.859375 69.972656 C 148.269531 69.980469 147.675781 69.980469 147.085938 69.984375 C 147.597656 66.65625 148.210938 63.269531 149.910156 60.339844 C 151.296875 57.953125 153.890625 55.574219 156.511719 54.757812 C 159.152344 53.9375 163.085938 54.328125 165.574219 55.519531 C 170.746094 58.003906 173.34375 63.945312 173.800781 69.59375 Z M 173.800781 69.59375 " fill-opacity="1" fill-rule="nonzero"/></g><g clip-path="url(#be7c664680)"><path fill="#174441" d="M 175.980469 69.578125 C 175.679688 69.578125 174.957031 69.582031 174.660156 69.585938 C 174.632812 66.191406 173.609375 62.871094 171.777344 60.023438 C 167.964844 54.097656 161.101562 52.050781 155.042969 54.472656 C 152.097656 55.648438 149.640625 57.886719 148.203125 60.777344 C 146.792969 63.621094 146.339844 66.835938 146.046875 69.988281 C 145.75 69.988281 145.449219 69.992188 145.148438 69.992188 C 145.5 66.171875 146.097656 62.234375 148.183594 58.976562 C 149.984375 56.164062 152.8125 54.128906 155.945312 53.183594 C 159.144531 52.222656 162.578125 52.496094 165.640625 53.8125 C 171.800781 56.464844 175.929688 62.859375 175.980469 69.578125 Z M 175.980469 69.578125 " fill-opacity="1" fill-rule="nonzero"/></g><g clip-path="url(#7fbee1a4c2)"><path fill="#fab7a4" d="M 167.964844 69.652344 C 167.65625 69.660156 166.902344 69.664062 166.59375 69.671875 C 166.277344 67.753906 165.804688 65.839844 164.835938 64.195312 C 164.015625 62.800781 163.429688 62.007812 161.96875 61.523438 C 160.503906 61.035156 159.054688 61.34375 157.738281 62.152344 C 155.046875 63.804688 154.136719 66.679688 153.941406 69.917969 C 153.632812 69.921875 152.789062 69.925781 152.480469 69.929688 C 152.582031 67.964844 152.996094 66.003906 153.882812 64.28125 C 155.550781 61.050781 159.195312 58.859375 162.515625 60.316406 C 165.980469 61.835938 167.351562 65.898438 167.964844 69.652344 Z M 167.964844 69.652344 " fill-opacity="1" fill-rule="nonzero"/></g><g clip-path="url(#0458a3b9b9)"><path fill="#e88b22" d="M 150.773438 69.726562 C 151.078125 69.722656 151.382812 69.71875 151.683594 69.714844 C 152.113281 71.882812 152.769531 74.015625 153.894531 75.910156 C 155.976562 79.429688 160 82.417969 164.007812 80.5 C 168.039062 78.570312 169.542969 73.570312 170.210938 69.417969 C 170.511719 69.414062 170.8125 69.410156 171.117188 69.40625 C 170.6875 72.167969 170.160156 74.984375 168.71875 77.394531 C 167.609375 79.253906 165.972656 80.84375 163.914062 81.503906 C 161.8125 82.175781 159.515625 81.769531 157.582031 80.761719 C 153.507812 78.640625 151.625 74.117188 150.773438 69.726562 Z M 150.773438 69.726562 " fill-opacity="1" fill-rule="nonzero"/></g><g clip-path="url(#9b2815b3c0)"><path fill="#c55428" d="M 147.609375 69.769531 C 148.125 69.765625 148.644531 69.757812 149.15625 69.753906 C 149.402344 72.75 150.253906 75.707031 151.925781 78.203125 C 154.863281 82.582031 160.535156 85.171875 165.492188 82.800781 C 170.464844 80.425781 171.753906 74.484375 172.550781 69.390625 C 173.140625 69.386719 173.734375 69.386719 174.324219 69.382812 C 173.8125 72.710938 173.199219 76.097656 171.5 79.027344 C 170.113281 81.414062 167.519531 83.792969 164.898438 84.605469 C 162.257812 85.425781 158.324219 85.039062 155.835938 83.84375 C 150.664062 81.363281 148.066406 75.421875 147.609375 69.769531 Z M 147.609375 69.769531 " fill-opacity="1" fill-rule="nonzero"/></g><g clip-path="url(#f3019db936)"><path fill="#174441" d="M 145.429688 69.789062 C 145.730469 69.785156 146.453125 69.78125 146.75 69.78125 C 146.777344 73.171875 147.800781 76.492188 149.632812 79.339844 C 153.445312 85.269531 160.308594 87.316406 166.367188 84.894531 C 169.3125 83.714844 171.769531 81.480469 173.207031 78.585938 C 174.617188 75.746094 175.074219 72.527344 175.363281 69.378906 C 175.660156 69.375 175.960938 69.375 176.261719 69.375 C 175.910156 73.195312 175.3125 77.132812 173.226562 80.390625 C 171.425781 83.199219 168.597656 85.238281 165.464844 86.179688 C 162.265625 87.140625 158.832031 86.871094 155.769531 85.550781 C 149.609375 82.902344 145.480469 76.507812 145.429688 69.789062 Z M 145.429688 69.789062 " fill-opacity="1" fill-rule="nonzero"/></g><g clip-path="url(#cae35856e7)"><path fill="#fab7a4" d="M 153.445312 69.710938 C 153.753906 69.707031 154.507812 69.699219 154.816406 69.695312 C 155.132812 71.613281 155.605469 73.523438 156.574219 75.171875 C 157.394531 76.566406 157.980469 77.355469 159.441406 77.84375 C 160.90625 78.332031 162.355469 78.019531 163.671875 77.210938 C 166.363281 75.558594 167.273438 72.683594 167.46875 69.449219 C 167.777344 69.445312 168.621094 69.4375 168.929688 69.433594 C 168.828125 71.402344 168.414062 73.363281 167.527344 75.082031 C 165.859375 78.316406 162.214844 80.503906 158.894531 79.046875 C 155.429688 77.53125 154.058594 73.46875 153.445312 69.710938 Z M 153.445312 69.710938 " fill-opacity="1" fill-rule="nonzero"/></g><g clip-path="url(#c6d2ae8f5a)"><g clip-path="url(#3cf6a37dcc)"><g clip-path="url(#9810841e9b)"><g clip-path="url(#b039cf5e4e)"><path fill="#e88b22" d="M 185.898438 64.183594 C 186.292969 64.1875 186.6875 64.1875 187.082031 64.191406 C 187.582031 66.96875 188.378906 69.707031 189.785156 72.160156 C 192.398438 76.703125 197.550781 80.625 202.808594 78.285156 C 208.101562 75.929688 210.191406 69.597656 211.167969 64.316406 C 211.5625 64.320312 211.953125 64.324219 212.347656 64.328125 C 211.714844 67.835938 210.957031 71.417969 209.019531 74.453125 C 207.527344 76.792969 205.355469 78.773438 202.664062 79.5625 C 199.914062 80.363281 196.941406 79.785156 194.453125 78.445312 C 189.214844 75.628906 186.886719 69.808594 185.898438 64.183594 Z M 185.898438 64.183594 " fill-opacity="1" fill-rule="nonzero"/></g></g></g></g><g clip-path="url(#73f4e2f1f7)"><g clip-path="url(#87fe722746)"><g clip-path="url(#2fdc207a42)"><g clip-path="url(#1bc2f81e30)"><path fill="#c55428" d="M 181.785156 64.152344 C 182.453125 64.160156 183.125 64.167969 183.792969 64.171875 C 184.03125 68.003906 185.058594 71.800781 187.167969 75.023438 C 190.871094 80.691406 198.171875 84.148438 204.679688 81.261719 C 211.207031 78.367188 213.042969 70.824219 214.214844 64.347656 C 214.980469 64.355469 215.75 64.371094 216.515625 64.382812 C 215.765625 68.613281 214.878906 72.917969 212.589844 76.609375 C 210.722656 79.617188 207.289062 82.578125 203.863281 83.546875 C 200.402344 84.523438 195.304688 83.921875 192.101562 82.328125 C 185.445312 79.023438 182.222656 71.371094 181.785156 64.152344 Z M 181.785156 64.152344 " fill-opacity="1" fill-rule="nonzero"/></g></g></g></g><g clip-path="url(#4580e5a76c)"><g clip-path="url(#485ec9f202)"><g clip-path="url(#1354713a2e)"><g clip-path="url(#9a2c62afd6)"><path fill="#174441" d="M 178.949219 64.121094 C 179.339844 64.125 180.277344 64.140625 180.667969 64.144531 C 180.609375 68.472656 181.855469 72.734375 184.160156 76.417969 C 188.957031 84.082031 197.820312 86.878906 205.761719 83.953125 C 209.621094 82.53125 212.875 79.746094 214.820312 76.09375 C 216.730469 72.507812 217.40625 68.417969 217.867188 64.40625 C 218.253906 64.414062 218.644531 64.417969 219.035156 64.425781 C 218.476562 69.289062 217.597656 74.296875 214.796875 78.394531 C 212.382812 81.929688 208.652344 84.453125 204.554688 85.570312 C 200.371094 86.710938 195.914062 86.269531 191.96875 84.503906 C 184.035156 80.957031 178.835938 72.691406 178.949219 64.121094 Z M 178.949219 64.121094 " fill-opacity="1" fill-rule="nonzero"/></g></g></g></g><g clip-path="url(#c3dcc04708)"><g clip-path="url(#3840a1278a)"><g clip-path="url(#1d89361597)"><g clip-path="url(#d4808a22a9)"><path fill="#fab7a4" d="M 189.371094 64.238281 C 189.773438 64.238281 190.753906 64.253906 191.152344 64.253906 C 191.511719 66.707031 192.074219 69.160156 193.289062 71.289062 C 194.320312 73.089844 195.058594 74.109375 196.949219 74.773438 C 198.839844 75.433594 200.726562 75.078125 202.464844 74.082031 C 206.003906 72.046875 207.265625 68.40625 207.605469 64.28125 C 208.003906 64.285156 209.105469 64.300781 209.507812 64.304688 C 209.320312 66.8125 208.730469 69.300781 207.53125 71.472656 C 205.277344 75.550781 200.480469 78.242188 196.203125 76.292969 C 191.742188 74.261719 190.066406 69.042969 189.371094 64.238281 Z M 189.371094 64.238281 " fill-opacity="1" fill-rule="nonzero"/></g></g></g></g><g fill="#634e4e" fill-opacity="1"><g transform="translate(105.549358, 85.134926)"><g><path d="M 35.765625 -16.671875 C 35.765625 -14.640625 35.394531 -12.65625 34.65625 -10.71875 C 33.925781 -8.789062 32.847656 -6.988281 31.421875 -5.3125 C 29.992188 -3.644531 28.078125 -2.3125 25.671875 -1.3125 C 23.273438 -0.320312 20.535156 0.171875 17.453125 0.171875 C 17.191406 0.171875 16.429688 0.160156 15.171875 0.140625 C 13.921875 0.117188 12.1875 0.0976562 9.96875 0.078125 C 7.75 0.0664062 5.347656 0.0625 2.765625 0.0625 L 2.765625 -0.84375 C 5.804688 -1.101562 7.457031 -1.96875 7.71875 -3.4375 L 7.71875 -31.828125 C 7.675781 -32.304688 7.539062 -32.722656 7.3125 -33.078125 C 7.09375 -33.441406 6.707031 -33.707031 6.15625 -33.875 C 5.613281 -34.039062 5.222656 -34.148438 4.984375 -34.203125 C 4.742188 -34.265625 4.242188 -34.332031 3.484375 -34.40625 L 3.484375 -35.421875 C 5.703125 -35.421875 8.59375 -35.4375 12.15625 -35.46875 C 15.726562 -35.507812 17.984375 -35.53125 18.921875 -35.53125 C 20.765625 -35.53125 22.601562 -35.203125 24.4375 -34.546875 C 26.28125 -33.890625 28.082031 -32.875 29.84375 -31.5 C 31.613281 -30.132812 33.039062 -28.164062 34.125 -25.59375 C 35.21875 -23.019531 35.765625 -20.046875 35.765625 -16.671875 Z M 29.625 -16.328125 C 29.625 -16.441406 29.625 -16.554688 29.625 -16.671875 C 29.625 -19.640625 29.441406 -22.117188 29.078125 -24.109375 C 28.722656 -26.097656 28.078125 -27.867188 27.140625 -29.421875 C 26.203125 -30.984375 24.878906 -32.128906 23.171875 -32.859375 C 21.460938 -33.597656 19.316406 -33.96875 16.734375 -33.96875 C 15.597656 -33.96875 14.410156 -33.910156 13.171875 -33.796875 C 13.171875 -32.816406 13.171875 -31.125 13.171875 -28.71875 C 13.171875 -26.65625 13.171875 -23.125 13.171875 -18.125 C 13.171875 -13.132812 13.171875 -9.757812 13.171875 -8 C 13.171875 -5.820312 13.171875 -4.429688 13.171875 -3.828125 C 13.171875 -3.117188 13.460938 -2.472656 14.046875 -1.890625 C 14.628906 -1.304688 15.375 -1.015625 16.28125 -1.015625 C 19.019531 -1.015625 21.257812 -1.296875 23 -1.859375 C 24.75 -2.421875 26.101562 -3.367188 27.0625 -4.703125 C 28.019531 -6.035156 28.675781 -7.59375 29.03125 -9.375 C 29.382812 -11.15625 29.582031 -13.472656 29.625 -16.328125 Z M 29.625 -16.328125 "/></g></g></g><g fill="#634e4e" fill-opacity="1"><g transform="translate(217.479043, 84.568121)"><g><path d="M 11.75 -39.5625 C 11.582031 -35.707031 11.476562 -31.375 11.4375 -26.5625 C 11.4375 -24.632812 11.46875 -21.03125 11.53125 -15.75 C 11.59375 -10.46875 11.625 -5.960938 11.625 -2.234375 C 11.707031 -1.828125 12.25 -1.523438 13.25 -1.328125 C 14.25 -1.128906 15.09375 -1.007812 15.78125 -0.96875 L 15.78125 0 C 14.007812 -0.195312 11.898438 -0.296875 9.453125 -0.296875 C 6.597656 -0.296875 4.269531 -0.195312 2.46875 0 L 2.46875 -0.96875 C 5.113281 -1.082031 6.476562 -1.503906 6.5625 -2.234375 C 6.6875 -6.046875 6.75 -11.320312 6.75 -18.0625 C 6.75 -25.25 6.6875 -31.234375 6.5625 -36.015625 C 5.5625 -36.816406 4.195312 -37.21875 2.46875 -37.21875 L 2.46875 -38.25 C 4.59375 -38.363281 7.6875 -38.800781 11.75 -39.5625 Z M 11.75 -39.5625 "/></g></g></g><g fill="#634e4e" fill-opacity="1"><g transform="translate(241.507423, 84.568121)"><g><path d="M 27.28125 -5 L 28.1875 -4.453125 C 27.664062 -1.203125 25.738281 0.421875 22.40625 0.421875 C 21.039062 0.421875 20.015625 -0.0234375 19.328125 -0.921875 C 18.648438 -1.828125 18.25 -2.90625 18.125 -4.15625 C 17.320312 -3.226562 16.707031 -2.5625 16.28125 -2.15625 C 15.863281 -1.757812 15.070312 -1.207031 13.90625 -0.5 C 12.75 0.195312 11.585938 0.546875 10.421875 0.546875 C 8.410156 0.546875 6.679688 -0.015625 5.234375 -1.140625 C 3.796875 -2.265625 3.078125 -4.050781 3.078125 -6.5 C 3.078125 -7.582031 3.304688 -8.523438 3.765625 -9.328125 C 4.222656 -10.140625 4.863281 -10.796875 5.6875 -11.296875 C 6.507812 -11.796875 7.34375 -12.207031 8.1875 -12.53125 C 9.03125 -12.851562 10.015625 -13.082031 11.140625 -13.21875 C 12.265625 -13.363281 13.195312 -13.453125 13.9375 -13.484375 C 14.6875 -13.523438 15.507812 -13.554688 16.40625 -13.578125 C 17.3125 -13.597656 17.804688 -13.609375 17.890625 -13.609375 C 18.003906 -13.609375 18.0625 -15.09375 18.0625 -18.0625 C 18.0625 -21.882812 16.316406 -23.796875 12.828125 -23.796875 C 11.617188 -23.796875 10.65625 -23.53125 9.9375 -23 C 9.21875 -22.476562 8.773438 -21.859375 8.609375 -21.140625 C 9.773438 -21.140625 10.359375 -20.253906 10.359375 -18.484375 C 10.359375 -17.398438 9.992188 -16.628906 9.265625 -16.171875 C 8.546875 -15.710938 7.847656 -15.484375 7.171875 -15.484375 C 6.398438 -15.484375 5.710938 -15.832031 5.109375 -16.53125 C 4.515625 -17.238281 4.21875 -18.007812 4.21875 -18.84375 C 4.21875 -20.332031 5.160156 -21.78125 7.046875 -23.1875 C 8.566406 -24.351562 10.675781 -24.9375 13.375 -24.9375 C 15.90625 -24.9375 18.148438 -24.148438 20.109375 -22.578125 C 22.078125 -21.015625 23.0625 -18.890625 23.0625 -16.203125 C 23.0625 -14.878906 23.019531 -13.03125 22.9375 -10.65625 C 22.863281 -8.289062 22.828125 -6.585938 22.828125 -5.546875 C 22.828125 -2.847656 23.445312 -1.519531 24.6875 -1.5625 C 25.414062 -1.5625 25.957031 -1.820312 26.3125 -2.34375 C 26.675781 -2.863281 27 -3.75 27.28125 -5 Z M 17.890625 -5.65625 L 17.890625 -12.765625 C 16.484375 -12.648438 15.1875 -12.519531 14 -12.375 C 12.8125 -12.238281 11.796875 -12.019531 10.953125 -11.71875 C 10.117188 -11.414062 9.457031 -10.898438 8.96875 -10.171875 C 8.488281 -9.453125 8.25 -8.453125 8.25 -7.171875 C 8.25 -5.441406 8.679688 -4.175781 9.546875 -3.375 C 10.410156 -2.570312 11.503906 -2.171875 12.828125 -2.171875 C 14.910156 -2.171875 16.597656 -3.332031 17.890625 -5.65625 Z M 17.890625 -5.65625 "/></g></g></g><g fill="#634e4e" fill-opacity="1"><g transform="translate(109.112796, 128.147305)"><g><path d="M 18.171875 -39.421875 C 21.273438 -39.421875 23.910156 -38.273438 26.078125 -35.984375 C 27.085938 -36.109375 27.894531 -36.953125 28.5 -38.515625 L 29.34375 -38.515625 L 29.15625 -26.8125 C 29.15625 -26.8125 28.773438 -26.8125 28.015625 -26.8125 C 27.890625 -28.21875 27.726562 -29.550781 27.53125 -30.8125 C 27.332031 -32.082031 26.890625 -33.179688 26.203125 -34.109375 C 24.304688 -36.890625 21.585938 -38.28125 18.046875 -38.28125 C 16.160156 -38.28125 14.550781 -37.546875 13.21875 -36.078125 C 11.894531 -34.609375 11.234375 -33.085938 11.234375 -31.515625 C 11.234375 -29.828125 12.035156 -28.238281 13.640625 -26.75 C 15.253906 -25.257812 17.390625 -24.03125 20.046875 -23.0625 C 23.710938 -21.695312 26.660156 -19.945312 28.890625 -17.8125 C 31.128906 -15.675781 32.25 -13.28125 32.25 -10.625 C 32.25 -7.207031 31.117188 -4.429688 28.859375 -2.296875 C 26.609375 -0.160156 22.863281 0.90625 17.625 0.90625 C 16.5 0.90625 15.410156 0.785156 14.359375 0.546875 C 13.316406 0.304688 12.460938 0.00390625 11.796875 -0.359375 C 11.140625 -0.722656 10.5 -1.09375 9.875 -1.46875 C 9.25 -1.851562 8.796875 -2.171875 8.515625 -2.421875 C 7.710938 -2.054688 6.96875 -1.226562 6.28125 0.0625 L 5.015625 0.0625 L 5.125 -10.921875 L 6.34375 -10.921875 C 7.019531 -7.628906 8.191406 -5.078125 9.859375 -3.265625 C 11.535156 -1.453125 14.046875 -0.546875 17.390625 -0.546875 C 23.023438 -0.546875 25.84375 -3.257812 25.84375 -8.6875 C 25.84375 -12.238281 22.863281 -15.054688 16.90625 -17.140625 C 13.6875 -18.273438 11.148438 -19.878906 9.296875 -21.953125 C 7.441406 -24.023438 6.515625 -26.226562 6.515625 -28.5625 C 6.472656 -35.800781 10.359375 -39.421875 18.171875 -39.421875 Z M 18.171875 -39.421875 "/></g></g></g><g fill="#634e4e" fill-opacity="1"><g transform="translate(86.789122, 150.119905)"><g><path d="M 3.734375 -0.59375 C 3.960938 -0.894531 4.078125 -1.203125 4.078125 -1.515625 L 4.09375 -9.734375 C 2.976562 -9.742188 2.414062 -9.75 2.40625 -9.75 C 2.15625 -9.75 1.925781 -9.648438 1.71875 -9.453125 C 1.519531 -9.265625 1.363281 -9.023438 1.25 -8.734375 C 1.144531 -8.453125 1.054688 -8.175781 0.984375 -7.90625 C 0.921875 -7.632812 0.882812 -7.375 0.875 -7.125 L 0.5625 -7.125 L 0.625 -10.109375 C 1.820312 -10.078125 3.347656 -10.0625 5.203125 -10.0625 C 6.953125 -10.0625 8.300781 -10.078125 9.25 -10.109375 L 9.296875 -7.125 L 8.96875 -7.125 C 8.875 -8.84375 8.429688 -9.707031 7.640625 -9.71875 L 5.75 -9.734375 L 5.78125 -1.515625 C 5.78125 -1.140625 5.878906 -0.832031 6.078125 -0.59375 C 6.242188 -0.40625 6.679688 -0.304688 7.390625 -0.296875 L 7.390625 0.015625 L 2.453125 0.015625 L 2.453125 -0.296875 C 2.484375 -0.296875 2.519531 -0.296875 2.5625 -0.296875 C 2.601562 -0.296875 2.632812 -0.296875 2.65625 -0.296875 C 3.21875 -0.304688 3.578125 -0.40625 3.734375 -0.59375 Z M 3.734375 -0.59375 "/></g></g></g><g fill="#634e4e" fill-opacity="1"><g transform="translate(98.479883, 150.119905)"><g><path d="M 10.125 0.03125 L 7.21875 -0.015625 C 7.21875 -0.0546875 7.21875 -0.0976562 7.21875 -0.140625 C 7.21875 -0.535156 7.070312 -1.273438 6.78125 -2.359375 C 6.289062 -4.160156 5.640625 -5.066406 4.828125 -5.078125 L 3.75 -5.09375 L 3.765625 -1.109375 C 3.765625 -0.953125 3.773438 -0.820312 3.796875 -0.71875 C 3.816406 -0.613281 3.867188 -0.519531 3.953125 -0.4375 C 4.035156 -0.351562 4.160156 -0.3125 4.328125 -0.3125 C 4.796875 -0.300781 5.03125 -0.285156 5.03125 -0.265625 L 5.015625 0.03125 C 4.421875 -0.0078125 3.625 -0.03125 2.625 -0.03125 C 1.832031 -0.03125 1.21875 -0.015625 0.78125 0.015625 L 0.78125 -0.25 C 1.625 -0.25 2.066406 -0.375 2.109375 -0.625 C 2.148438 -0.800781 2.171875 -0.988281 2.171875 -1.1875 C 2.210938 -2.269531 2.234375 -3.640625 2.234375 -5.296875 C 2.234375 -7.742188 2.210938 -9.097656 2.171875 -9.359375 C 2.148438 -9.472656 1.953125 -9.578125 1.578125 -9.671875 L 1 -9.796875 L 1 -10.078125 C 1.632812 -10.054688 2.382812 -10.046875 3.25 -10.046875 C 3.601562 -10.046875 4.046875 -10.046875 4.578125 -10.046875 C 5.117188 -10.054688 5.460938 -10.0625 5.609375 -10.0625 C 6.015625 -10.0625 6.421875 -9.96875 6.828125 -9.78125 C 7.242188 -9.59375 7.597656 -9.300781 7.890625 -8.90625 C 8.179688 -8.507812 8.328125 -8.0625 8.328125 -7.5625 C 8.328125 -7.007812 8.0625 -6.507812 7.53125 -6.0625 C 7.007812 -5.625 6.390625 -5.394531 5.671875 -5.375 C 6.003906 -5.34375 6.3125 -5.25 6.59375 -5.09375 C 6.875 -4.9375 7.097656 -4.769531 7.265625 -4.59375 C 7.441406 -4.425781 7.617188 -4.179688 7.796875 -3.859375 C 7.972656 -3.535156 8.09375 -3.273438 8.15625 -3.078125 C 8.226562 -2.890625 8.332031 -2.609375 8.46875 -2.234375 C 8.800781 -1.359375 9.019531 -0.851562 9.125 -0.71875 C 9.351562 -0.382812 9.6875 -0.207031 10.125 -0.1875 Z M 5.53125 -9.65625 C 5.289062 -9.707031 4.992188 -9.734375 4.640625 -9.734375 C 4.328125 -9.734375 4.035156 -9.71875 3.765625 -9.6875 L 3.765625 -5.484375 C 4.492188 -5.472656 4.863281 -5.46875 4.875 -5.46875 C 5.476562 -5.46875 5.9375 -5.675781 6.25 -6.09375 C 6.5625 -6.507812 6.71875 -7.007812 6.71875 -7.59375 C 6.71875 -8.082031 6.609375 -8.523438 6.390625 -8.921875 C 6.179688 -9.316406 5.894531 -9.5625 5.53125 -9.65625 Z M 5.53125 -9.65625 "/></g></g></g><g fill="#634e4e" fill-opacity="1"><g transform="translate(110.749574, 150.119905)"><g><path d="M 4.59375 -3.96875 C 3.863281 -5.675781 2.945312 -7.296875 1.84375 -8.828125 C 1.601562 -9.171875 1.363281 -9.398438 1.125 -9.515625 C 0.851562 -9.648438 0.546875 -9.753906 0.203125 -9.828125 L 0.203125 -10.0625 C 0.710938 -10.019531 1.457031 -10 2.4375 -10 C 3.488281 -10 4.253906 -10.019531 4.734375 -10.0625 L 4.734375 -9.75 C 4.128906 -9.695312 3.785156 -9.601562 3.703125 -9.46875 C 3.648438 -9.363281 3.613281 -9.238281 3.59375 -9.09375 L 3.546875 -8.890625 C 4.273438 -7.472656 5.023438 -6.125 5.796875 -4.84375 C 7.347656 -7.613281 8.128906 -9.078125 8.140625 -9.234375 C 8.140625 -9.378906 8.015625 -9.488281 7.765625 -9.5625 L 6.796875 -9.828125 L 6.796875 -10.0625 C 7.304688 -10.019531 7.867188 -10 8.484375 -10 C 9.117188 -10 9.679688 -10.019531 10.171875 -10.0625 L 10.171875 -9.75 C 9.722656 -9.726562 9.363281 -9.632812 9.09375 -9.46875 C 8.988281 -9.40625 8.859375 -9.289062 8.703125 -9.125 L 8.453125 -8.859375 C 7.191406 -6.671875 6.414062 -5.265625 6.125 -4.640625 C 6.125 -4.234375 6.144531 -2.875 6.1875 -0.5625 C 6.1875 -0.289062 6.628906 -0.15625 7.515625 -0.15625 L 7.515625 0.140625 L 3.140625 0.140625 L 3.140625 -0.109375 C 3.171875 -0.109375 3.226562 -0.109375 3.3125 -0.109375 C 4.101562 -0.109375 4.503906 -0.234375 4.515625 -0.484375 C 4.535156 -1.734375 4.5625 -2.894531 4.59375 -3.96875 Z M 4.59375 -3.96875 "/></g></g></g><g fill="#634e4e" fill-opacity="1"><g transform="translate(123.163997, 150.119905)"><g><path d="M 6.46875 -10.328125 C 6.863281 -10.328125 7.265625 -10.242188 7.671875 -10.078125 C 8.085938 -9.921875 8.40625 -9.757812 8.625 -9.59375 C 8.851562 -9.4375 9.0625 -9.300781 9.25 -9.1875 C 9.394531 -9.25 9.523438 -9.382812 9.640625 -9.59375 C 9.765625 -9.8125 9.835938 -10.035156 9.859375 -10.265625 L 10.28125 -10.265625 L 10.234375 -6.9375 L 9.734375 -6.9375 C 9.421875 -8.882812 8.316406 -9.859375 6.421875 -9.859375 C 5.304688 -9.859375 4.441406 -9.46875 3.828125 -8.6875 C 3.222656 -7.90625 2.921875 -6.59375 2.921875 -4.75 C 2.921875 -3.925781 3.03125 -3.179688 3.25 -2.515625 C 3.476562 -1.847656 3.84375 -1.285156 4.34375 -0.828125 C 4.851562 -0.378906 5.472656 -0.15625 6.203125 -0.15625 C 6.734375 -0.15625 7.242188 -0.269531 7.734375 -0.5 C 8.234375 -0.738281 8.617188 -1.046875 8.890625 -1.421875 C 8.921875 -1.835938 8.9375 -2.269531 8.9375 -2.71875 C 8.9375 -3.113281 8.921875 -3.425781 8.890625 -3.65625 C 8.472656 -3.894531 7.96875 -4.03125 7.375 -4.0625 L 7.375 -4.421875 L 11.671875 -4.421875 L 11.671875 -4.0625 C 11.085938 -4 10.707031 -3.863281 10.53125 -3.65625 C 10.488281 -3.5625 10.46875 -3.085938 10.46875 -2.234375 C 10.46875 -1.523438 10.476562 -0.765625 10.5 0.046875 L 10.234375 0.046875 L 10.140625 -0.1875 C 10.097656 -0.363281 9.984375 -0.539062 9.796875 -0.71875 C 9.617188 -0.894531 9.40625 -0.984375 9.15625 -0.984375 C 8.914062 -0.628906 8.507812 -0.3125 7.9375 -0.03125 C 7.363281 0.238281 6.78125 0.375 6.1875 0.375 C 4.613281 0.375 3.320312 -0.0859375 2.3125 -1.015625 C 1.3125 -1.953125 0.8125 -3.203125 0.8125 -4.765625 C 0.8125 -5.585938 0.929688 -6.328125 1.171875 -6.984375 C 1.410156 -7.648438 1.71875 -8.179688 2.09375 -8.578125 C 2.476562 -8.984375 2.921875 -9.320312 3.421875 -9.59375 C 3.929688 -9.863281 4.429688 -10.050781 4.921875 -10.15625 C 5.421875 -10.269531 5.9375 -10.328125 6.46875 -10.328125 Z M 6.46875 -10.328125 "/></g></g></g><g fill="#634e4e" fill-opacity="1"><g transform="translate(137.218718, 150.119905)"><g><path d="M 6.46875 -10.328125 C 6.863281 -10.328125 7.265625 -10.242188 7.671875 -10.078125 C 8.085938 -9.921875 8.40625 -9.757812 8.625 -9.59375 C 8.851562 -9.4375 9.0625 -9.300781 9.25 -9.1875 C 9.394531 -9.25 9.523438 -9.382812 9.640625 -9.59375 C 9.765625 -9.8125 9.835938 -10.035156 9.859375 -10.265625 L 10.28125 -10.265625 L 10.234375 -6.9375 L 9.734375 -6.9375 C 9.421875 -8.882812 8.316406 -9.859375 6.421875 -9.859375 C 5.304688 -9.859375 4.441406 -9.46875 3.828125 -8.6875 C 3.222656 -7.90625 2.921875 -6.59375 2.921875 -4.75 C 2.921875 -3.925781 3.03125 -3.179688 3.25 -2.515625 C 3.476562 -1.847656 3.84375 -1.285156 4.34375 -0.828125 C 4.851562 -0.378906 5.472656 -0.15625 6.203125 -0.15625 C 6.734375 -0.15625 7.242188 -0.269531 7.734375 -0.5 C 8.234375 -0.738281 8.617188 -1.046875 8.890625 -1.421875 C 8.921875 -1.835938 8.9375 -2.269531 8.9375 -2.71875 C 8.9375 -3.113281 8.921875 -3.425781 8.890625 -3.65625 C 8.472656 -3.894531 7.96875 -4.03125 7.375 -4.0625 L 7.375 -4.421875 L 11.671875 -4.421875 L 11.671875 -4.0625 C 11.085938 -4 10.707031 -3.863281 10.53125 -3.65625 C 10.488281 -3.5625 10.46875 -3.085938 10.46875 -2.234375 C 10.46875 -1.523438 10.476562 -0.765625 10.5 0.046875 L 10.234375 0.046875 L 10.140625 -0.1875 C 10.097656 -0.363281 9.984375 -0.539062 9.796875 -0.71875 C 9.617188 -0.894531 9.40625 -0.984375 9.15625 -0.984375 C 8.914062 -0.628906 8.507812 -0.3125 7.9375 -0.03125 C 7.363281 0.238281 6.78125 0.375 6.1875 0.375 C 4.613281 0.375 3.320312 -0.0859375 2.3125 -1.015625 C 1.3125 -1.953125 0.8125 -3.203125 0.8125 -4.765625 C 0.8125 -5.585938 0.929688 -6.328125 1.171875 -6.984375 C 1.410156 -7.648438 1.71875 -8.179688 2.09375 -8.578125 C 2.476562 -8.984375 2.921875 -9.320312 3.421875 -9.59375 C 3.929688 -9.863281 4.429688 -10.050781 4.921875 -10.15625 C 5.421875 -10.269531 5.9375 -10.328125 6.46875 -10.328125 Z M 6.46875 -10.328125 "/></g></g></g><g fill="#634e4e" fill-opacity="1"><g transform="translate(151.27344, 150.119905)"><g/></g></g><g fill="#634e4e" fill-opacity="1"><g transform="translate(156.595983, 150.119905)"><g><path d="M 5.09375 0.0625 C 4.5625 0.0195312 3.878906 0 3.046875 0 C 2.222656 0 1.46875 0.0195312 0.78125 0.0625 L 0.78125 -0.1875 C 1.050781 -0.1875 1.335938 -0.21875 1.640625 -0.28125 C 1.941406 -0.34375 2.097656 -0.4375 2.109375 -0.5625 C 2.128906 -0.820312 2.15625 -1.695312 2.1875 -3.1875 C 2.21875 -4.6875 2.234375 -6 2.234375 -7.125 C 2.234375 -8.46875 2.21875 -9.226562 2.1875 -9.40625 C 2.164062 -9.519531 1.960938 -9.625 1.578125 -9.71875 L 1 -9.828125 L 1 -10.109375 C 2.113281 -10.066406 3.375 -10.046875 4.78125 -10.046875 C 6.195312 -10.046875 7.34375 -10.066406 8.21875 -10.109375 L 8.265625 -7.78125 L 7.96875 -7.78125 C 7.90625 -8.050781 7.820312 -8.3125 7.71875 -8.5625 C 7.613281 -8.8125 7.429688 -9.0625 7.171875 -9.3125 C 6.910156 -9.570312 6.613281 -9.703125 6.28125 -9.703125 L 3.765625 -9.703125 L 3.765625 -5.328125 L 5.984375 -5.328125 C 6.472656 -5.328125 6.738281 -5.75 6.78125 -6.59375 L 7.15625 -6.59375 L 7.15625 -3.703125 L 6.84375 -3.703125 C 6.789062 -4.535156 6.488281 -4.953125 5.9375 -4.953125 L 3.765625 -4.953125 L 3.765625 -1.046875 C 3.765625 -0.566406 3.953125 -0.296875 4.328125 -0.234375 C 4.410156 -0.222656 4.53125 -0.21875 4.6875 -0.21875 L 5.09375 -0.234375 C 5.09375 -0.234375 5.09375 -0.207031 5.09375 -0.15625 C 5.09375 -0.101562 5.09375 -0.0625 5.09375 -0.03125 C 5.09375 0.0078125 5.09375 0.0390625 5.09375 0.0625 Z M 5.09375 0.0625 "/></g></g></g><g fill="#634e4e" fill-opacity="1"><g transform="translate(167.691735, 150.119905)"><g><path d="M 4.875 -11.234375 C 4.875 -11.398438 4.921875 -11.535156 5.015625 -11.640625 C 5.117188 -11.742188 5.238281 -11.796875 5.375 -11.796875 C 5.507812 -11.796875 5.628906 -11.742188 5.734375 -11.640625 C 5.847656 -11.546875 5.90625 -11.414062 5.90625 -11.25 C 5.90625 -11.09375 5.851562 -10.957031 5.75 -10.84375 C 5.644531 -10.738281 5.53125 -10.6875 5.40625 -10.6875 C 5.257812 -10.6875 5.132812 -10.738281 5.03125 -10.84375 C 4.925781 -10.957031 4.875 -11.085938 4.875 -11.234375 Z M 7.328125 -11.234375 C 7.328125 -11.398438 7.375 -11.535156 7.46875 -11.640625 C 7.570312 -11.742188 7.691406 -11.796875 7.828125 -11.796875 C 7.972656 -11.796875 8.09375 -11.742188 8.1875 -11.640625 C 8.28125 -11.546875 8.328125 -11.414062 8.328125 -11.25 C 8.328125 -11.09375 8.28125 -10.957031 8.1875 -10.84375 C 8.09375 -10.738281 7.976562 -10.6875 7.84375 -10.6875 C 7.707031 -10.6875 7.585938 -10.738281 7.484375 -10.84375 C 7.378906 -10.957031 7.328125 -11.085938 7.328125 -11.234375 Z M 6.6875 -0.125 C 7.695312 -0.125 8.519531 -0.582031 9.15625 -1.5 C 9.789062 -2.414062 10.109375 -3.585938 10.109375 -5.015625 C 10.109375 -6.710938 9.796875 -8 9.171875 -8.875 C 8.554688 -9.757812 7.6875 -10.203125 6.5625 -10.203125 C 6.019531 -10.203125 5.535156 -10.125 5.109375 -9.96875 C 4.691406 -9.820312 4.289062 -9.570312 3.90625 -9.21875 C 3.519531 -8.863281 3.222656 -8.328125 3.015625 -7.609375 C 2.804688 -6.898438 2.703125 -6.03125 2.703125 -5 C 2.703125 -4.613281 2.734375 -4.21875 2.796875 -3.8125 C 2.867188 -3.414062 3 -2.988281 3.1875 -2.53125 C 3.382812 -2.082031 3.625 -1.679688 3.90625 -1.328125 C 4.195312 -0.984375 4.582031 -0.695312 5.0625 -0.46875 C 5.550781 -0.238281 6.09375 -0.125 6.6875 -0.125 Z M 6.6875 -10.46875 C 7.070312 -10.46875 7.472656 -10.425781 7.890625 -10.34375 C 8.316406 -10.257812 8.78125 -10.085938 9.28125 -9.828125 C 9.78125 -9.578125 10.21875 -9.257812 10.59375 -8.875 C 10.976562 -8.488281 11.300781 -7.957031 11.5625 -7.28125 C 11.820312 -6.613281 11.953125 -5.859375 11.953125 -5.015625 C 11.953125 -4.191406 11.785156 -3.441406 11.453125 -2.765625 C 11.128906 -2.085938 10.703125 -1.535156 10.171875 -1.109375 C 9.648438 -0.691406 9.082031 -0.367188 8.46875 -0.140625 C 7.863281 0.078125 7.257812 0.1875 6.65625 0.1875 C 5.039062 0.1875 3.65625 -0.273438 2.5 -1.203125 C 1.351562 -2.128906 0.78125 -3.359375 0.78125 -4.890625 C 0.78125 -5.765625 0.90625 -6.539062 1.15625 -7.21875 C 1.414062 -7.894531 1.742188 -8.429688 2.140625 -8.828125 C 2.535156 -9.234375 3.003906 -9.5625 3.546875 -9.8125 C 4.085938 -10.070312 4.613281 -10.242188 5.125 -10.328125 C 5.632812 -10.421875 6.15625 -10.46875 6.6875 -10.46875 Z M 6.6875 -10.46875 "/></g></g></g><g fill="#634e4e" fill-opacity="1"><g transform="translate(182.470117, 150.119905)"><g><path d="M 10.125 0.03125 L 7.21875 -0.015625 C 7.21875 -0.0546875 7.21875 -0.0976562 7.21875 -0.140625 C 7.21875 -0.535156 7.070312 -1.273438 6.78125 -2.359375 C 6.289062 -4.160156 5.640625 -5.066406 4.828125 -5.078125 L 3.75 -5.09375 L 3.765625 -1.109375 C 3.765625 -0.953125 3.773438 -0.820312 3.796875 -0.71875 C 3.816406 -0.613281 3.867188 -0.519531 3.953125 -0.4375 C 4.035156 -0.351562 4.160156 -0.3125 4.328125 -0.3125 C 4.796875 -0.300781 5.03125 -0.285156 5.03125 -0.265625 L 5.015625 0.03125 C 4.421875 -0.0078125 3.625 -0.03125 2.625 -0.03125 C 1.832031 -0.03125 1.21875 -0.015625 0.78125 0.015625 L 0.78125 -0.25 C 1.625 -0.25 2.066406 -0.375 2.109375 -0.625 C 2.148438 -0.800781 2.171875 -0.988281 2.171875 -1.1875 C 2.210938 -2.269531 2.234375 -3.640625 2.234375 -5.296875 C 2.234375 -7.742188 2.210938 -9.097656 2.171875 -9.359375 C 2.148438 -9.472656 1.953125 -9.578125 1.578125 -9.671875 L 1 -9.796875 L 1 -10.078125 C 1.632812 -10.054688 2.382812 -10.046875 3.25 -10.046875 C 3.601562 -10.046875 4.046875 -10.046875 4.578125 -10.046875 C 5.117188 -10.054688 5.460938 -10.0625 5.609375 -10.0625 C 6.015625 -10.0625 6.421875 -9.96875 6.828125 -9.78125 C 7.242188 -9.59375 7.597656 -9.300781 7.890625 -8.90625 C 8.179688 -8.507812 8.328125 -8.0625 8.328125 -7.5625 C 8.328125 -7.007812 8.0625 -6.507812 7.53125 -6.0625 C 7.007812 -5.625 6.390625 -5.394531 5.671875 -5.375 C 6.003906 -5.34375 6.3125 -5.25 6.59375 -5.09375 C 6.875 -4.9375 7.097656 -4.769531 7.265625 -4.59375 C 7.441406 -4.425781 7.617188 -4.179688 7.796875 -3.859375 C 7.972656 -3.535156 8.09375 -3.273438 8.15625 -3.078125 C 8.226562 -2.890625 8.332031 -2.609375 8.46875 -2.234375 C 8.800781 -1.359375 9.019531 -0.851562 9.125 -0.71875 C 9.351562 -0.382812 9.6875 -0.207031 10.125 -0.1875 Z M 5.53125 -9.65625 C 5.289062 -9.707031 4.992188 -9.734375 4.640625 -9.734375 C 4.328125 -9.734375 4.035156 -9.71875 3.765625 -9.6875 L 3.765625 -5.484375 C 4.492188 -5.472656 4.863281 -5.46875 4.875 -5.46875 C 5.476562 -5.46875 5.9375 -5.675781 6.25 -6.09375 C 6.5625 -6.507812 6.71875 -7.007812 6.71875 -7.59375 C 6.71875 -8.082031 6.609375 -8.523438 6.390625 -8.921875 C 6.179688 -9.316406 5.894531 -9.5625 5.53125 -9.65625 Z M 5.53125 -9.65625 "/></g></g></g><g fill="#634e4e" fill-opacity="1"><g transform="translate(194.739808, 150.119905)"><g><path d="M 3.9375 -1.09375 C 3.9375 -0.613281 4.128906 -0.375 4.515625 -0.375 C 4.515625 -0.375 5.207031 -0.367188 6.59375 -0.359375 C 6.96875 -0.359375 7.296875 -0.566406 7.578125 -0.984375 C 7.867188 -1.398438 8.046875 -1.882812 8.109375 -2.4375 L 8.453125 -2.4375 L 8.203125 0.046875 L 0.78125 0.046875 L 0.78125 -0.203125 L 1.15625 -0.21875 C 1.414062 -0.238281 1.664062 -0.285156 1.90625 -0.359375 C 2.15625 -0.441406 2.285156 -0.539062 2.296875 -0.65625 C 2.347656 -1.238281 2.375 -3.085938 2.375 -6.203125 C 2.375 -7.972656 2.363281 -9.039062 2.34375 -9.40625 C 2.332031 -9.550781 2.109375 -9.65625 1.671875 -9.71875 L 1 -9.828125 L 1 -10.109375 L 5.125 -10.125 L 5.125 -9.875 C 4.375 -9.832031 3.988281 -9.675781 3.96875 -9.40625 C 3.9375 -6.84375 3.921875 -5.300781 3.921875 -4.78125 C 3.921875 -4.507812 3.921875 -3.992188 3.921875 -3.234375 C 3.929688 -2.472656 3.9375 -1.757812 3.9375 -1.09375 Z M 3.9375 -1.09375 "/></g></g></g><g fill="#634e4e" fill-opacity="1"><g transform="translate(206.221512, 150.119905)"><g><path d="M 6.6875 -0.125 C 7.695312 -0.125 8.519531 -0.582031 9.15625 -1.5 C 9.789062 -2.414062 10.109375 -3.585938 10.109375 -5.015625 C 10.109375 -6.710938 9.796875 -8 9.171875 -8.875 C 8.554688 -9.757812 7.6875 -10.203125 6.5625 -10.203125 C 6.019531 -10.203125 5.535156 -10.125 5.109375 -9.96875 C 4.691406 -9.820312 4.289062 -9.570312 3.90625 -9.21875 C 3.519531 -8.863281 3.222656 -8.328125 3.015625 -7.609375 C 2.804688 -6.898438 2.703125 -6.03125 2.703125 -5 C 2.703125 -4.613281 2.734375 -4.21875 2.796875 -3.8125 C 2.867188 -3.414062 3 -2.988281 3.1875 -2.53125 C 3.382812 -2.082031 3.625 -1.679688 3.90625 -1.328125 C 4.195312 -0.984375 4.582031 -0.695312 5.0625 -0.46875 C 5.550781 -0.238281 6.09375 -0.125 6.6875 -0.125 Z M 6.6875 -10.46875 C 7.070312 -10.46875 7.472656 -10.425781 7.890625 -10.34375 C 8.316406 -10.257812 8.78125 -10.085938 9.28125 -9.828125 C 9.78125 -9.578125 10.21875 -9.257812 10.59375 -8.875 C 10.976562 -8.488281 11.300781 -7.957031 11.5625 -7.28125 C 11.820312 -6.613281 11.953125 -5.859375 11.953125 -5.015625 C 11.953125 -4.191406 11.785156 -3.441406 11.453125 -2.765625 C 11.128906 -2.085938 10.703125 -1.535156 10.171875 -1.109375 C 9.648438 -0.691406 9.082031 -0.367188 8.46875 -0.140625 C 7.863281 0.078125 7.257812 0.1875 6.65625 0.1875 C 5.039062 0.1875 3.65625 -0.273438 2.5 -1.203125 C 1.351562 -2.128906 0.78125 -3.359375 0.78125 -4.890625 C 0.78125 -5.765625 0.90625 -6.539062 1.15625 -7.21875 C 1.414062 -7.894531 1.742188 -8.429688 2.140625 -8.828125 C 2.535156 -9.234375 3.003906 -9.5625 3.546875 -9.8125 C 4.085938 -10.070312 4.613281 -10.242188 5.125 -10.328125 C 5.632812 -10.421875 6.15625 -10.46875 6.6875 -10.46875 Z M 6.6875 -10.46875 "/></g></g></g><g fill="#634e4e" fill-opacity="1"><g transform="translate(220.999895, 150.119905)"><g><path d="M 4.84375 -10.5 C 5.664062 -10.5 6.367188 -10.191406 6.953125 -9.578125 C 7.210938 -9.617188 7.425781 -9.847656 7.59375 -10.265625 L 7.8125 -10.265625 L 7.765625 -7.140625 C 7.765625 -7.140625 7.664062 -7.140625 7.46875 -7.140625 C 7.4375 -7.515625 7.390625 -7.867188 7.328125 -8.203125 C 7.273438 -8.546875 7.160156 -8.84375 6.984375 -9.09375 C 6.472656 -9.832031 5.75 -10.203125 4.8125 -10.203125 C 4.300781 -10.203125 3.867188 -10.003906 3.515625 -9.609375 C 3.160156 -9.210938 2.984375 -8.804688 2.984375 -8.390625 C 2.984375 -7.941406 3.195312 -7.519531 3.625 -7.125 C 4.0625 -6.726562 4.632812 -6.398438 5.34375 -6.140625 C 6.3125 -5.773438 7.09375 -5.304688 7.6875 -4.734375 C 8.289062 -4.171875 8.59375 -3.535156 8.59375 -2.828125 C 8.59375 -1.921875 8.289062 -1.179688 7.6875 -0.609375 C 7.082031 -0.046875 6.085938 0.234375 4.703125 0.234375 C 4.398438 0.234375 4.109375 0.203125 3.828125 0.140625 C 3.546875 0.078125 3.316406 0 3.140625 -0.09375 C 2.960938 -0.1875 2.789062 -0.285156 2.625 -0.390625 C 2.457031 -0.492188 2.335938 -0.578125 2.265625 -0.640625 C 2.054688 -0.546875 1.859375 -0.328125 1.671875 0.015625 L 1.328125 0.015625 L 1.359375 -2.90625 L 1.6875 -2.90625 C 1.875 -2.03125 2.1875 -1.347656 2.625 -0.859375 C 3.070312 -0.378906 3.738281 -0.140625 4.625 -0.140625 C 6.132812 -0.140625 6.890625 -0.863281 6.890625 -2.3125 C 6.890625 -3.257812 6.09375 -4.007812 4.5 -4.5625 C 3.644531 -4.863281 2.96875 -5.289062 2.46875 -5.84375 C 1.976562 -6.394531 1.734375 -6.984375 1.734375 -7.609375 C 1.722656 -9.535156 2.757812 -10.5 4.84375 -10.5 Z M 4.84375 -10.5 "/></g></g></g><g fill="#634e4e" fill-opacity="1"><g transform="translate(232.481598, 150.119905)"><g><path d="M 4.84375 -10.5 C 5.664062 -10.5 6.367188 -10.191406 6.953125 -9.578125 C 7.210938 -9.617188 7.425781 -9.847656 7.59375 -10.265625 L 7.8125 -10.265625 L 7.765625 -7.140625 C 7.765625 -7.140625 7.664062 -7.140625 7.46875 -7.140625 C 7.4375 -7.515625 7.390625 -7.867188 7.328125 -8.203125 C 7.273438 -8.546875 7.160156 -8.84375 6.984375 -9.09375 C 6.472656 -9.832031 5.75 -10.203125 4.8125 -10.203125 C 4.300781 -10.203125 3.867188 -10.003906 3.515625 -9.609375 C 3.160156 -9.210938 2.984375 -8.804688 2.984375 -8.390625 C 2.984375 -7.941406 3.195312 -7.519531 3.625 -7.125 C 4.0625 -6.726562 4.632812 -6.398438 5.34375 -6.140625 C 6.3125 -5.773438 7.09375 -5.304688 7.6875 -4.734375 C 8.289062 -4.171875 8.59375 -3.535156 8.59375 -2.828125 C 8.59375 -1.921875 8.289062 -1.179688 7.6875 -0.609375 C 7.082031 -0.046875 6.085938 0.234375 4.703125 0.234375 C 4.398438 0.234375 4.109375 0.203125 3.828125 0.140625 C 3.546875 0.078125 3.316406 0 3.140625 -0.09375 C 2.960938 -0.1875 2.789062 -0.285156 2.625 -0.390625 C 2.457031 -0.492188 2.335938 -0.578125 2.265625 -0.640625 C 2.054688 -0.546875 1.859375 -0.328125 1.671875 0.015625 L 1.328125 0.015625 L 1.359375 -2.90625 L 1.6875 -2.90625 C 1.875 -2.03125 2.1875 -1.347656 2.625 -0.859375 C 3.070312 -0.378906 3.738281 -0.140625 4.625 -0.140625 C 6.132812 -0.140625 6.890625 -0.863281 6.890625 -2.3125 C 6.890625 -3.257812 6.09375 -4.007812 4.5 -4.5625 C 3.644531 -4.863281 2.96875 -5.289062 2.46875 -5.84375 C 1.976562 -6.394531 1.734375 -6.984375 1.734375 -7.609375 C 1.722656 -9.535156 2.757812 -10.5 4.84375 -10.5 Z M 4.84375 -10.5 "/></g></g></g><g fill="#634e4e" fill-opacity="1"><g transform="translate(243.963294, 150.119905)"><g><path d="M 10.734375 -9.71875 C 10.578125 -9.707031 10.40625 -9.6875 10.21875 -9.65625 C 10.03125 -9.632812 9.828125 -9.582031 9.609375 -9.5 C 9.398438 -9.425781 9.296875 -9.332031 9.296875 -9.21875 C 9.273438 -8.863281 9.257812 -7.875 9.25 -6.25 L 9.296875 0.171875 L 8.734375 0.171875 L 5.65625 -4.015625 C 3.625 -6.816406 2.546875 -8.273438 2.421875 -8.390625 C 2.410156 -7.484375 2.40625 -6.738281 2.40625 -6.15625 C 2.40625 -5.425781 2.421875 -4.726562 2.453125 -4.0625 C 2.484375 -3.40625 2.5 -2.582031 2.5 -1.59375 C 2.5 -1.394531 2.5 -1.179688 2.5 -0.953125 C 2.5 -0.515625 2.6875 -0.296875 3.0625 -0.296875 C 3.664062 -0.296875 3.972656 -0.28125 3.984375 -0.25 L 3.984375 0.03125 C 3.460938 0 2.867188 -0.015625 2.203125 -0.015625 C 1.460938 -0.015625 0.835938 0.00390625 0.328125 0.046875 L 0.328125 -0.203125 C 0.328125 -0.203125 0.359375 -0.203125 0.421875 -0.203125 C 1.296875 -0.203125 1.757812 -0.328125 1.8125 -0.578125 C 1.863281 -3.773438 1.890625 -5.644531 1.890625 -6.1875 C 1.890625 -7.019531 1.878906 -7.972656 1.859375 -9.046875 C 1.835938 -9.171875 1.585938 -9.332031 1.109375 -9.53125 L 0.390625 -9.828125 L 0.390625 -10.109375 L 3.359375 -10.09375 C 3.992188 -9.21875 5.035156 -7.835938 6.484375 -5.953125 L 8.6875 -3.125 L 8.703125 -9.21875 C 8.691406 -9.363281 8.554688 -9.484375 8.296875 -9.578125 C 8.035156 -9.671875 7.726562 -9.71875 7.375 -9.71875 C 7.300781 -9.71875 7.222656 -9.71875 7.140625 -9.71875 L 7.109375 -10.078125 C 7.554688 -10.023438 8.113281 -10 8.78125 -10 C 9.394531 -10 10.046875 -10.019531 10.734375 -10.0625 Z M 10.734375 -9.71875 "/></g></g></g><g fill="#634e4e" fill-opacity="1"><g transform="translate(257.053125, 150.119905)"><g><path d="M 3.9375 -9.375 C 3.9375 -9.363281 3.929688 -9.0625 3.921875 -8.46875 C 3.921875 -7.882812 3.914062 -7.148438 3.90625 -6.265625 C 3.90625 -5.378906 3.90625 -4.570312 3.90625 -3.84375 C 3.90625 -2.382812 3.914062 -1.34375 3.9375 -0.71875 C 3.945312 -0.40625 4.351562 -0.25 5.15625 -0.25 L 5.171875 0 C 4.828125 -0.0078125 4.40625 -0.015625 3.90625 -0.015625 C 2.75 -0.015625 1.765625 0.00390625 0.953125 0.046875 L 0.953125 -0.203125 C 0.953125 -0.203125 0.972656 -0.203125 1.015625 -0.203125 C 1.804688 -0.203125 2.222656 -0.328125 2.265625 -0.578125 C 2.316406 -0.898438 2.34375 -3.84375 2.34375 -9.40625 C 2.34375 -9.519531 2.148438 -9.625 1.765625 -9.71875 L 1.171875 -9.828125 L 1.171875 -10.0625 C 1.679688 -10.019531 2.332031 -10 3.125 -10 C 3.945312 -10 4.585938 -10.019531 5.046875 -10.0625 L 5.046875 -9.75 C 4.304688 -9.695312 3.9375 -9.570312 3.9375 -9.375 Z M 3.9375 -9.375 "/></g></g></g><g fill="#634e4e" fill-opacity="1"><g transform="translate(265.141653, 150.119905)"><g><path d="M 10.734375 -9.71875 C 10.578125 -9.707031 10.40625 -9.6875 10.21875 -9.65625 C 10.03125 -9.632812 9.828125 -9.582031 9.609375 -9.5 C 9.398438 -9.425781 9.296875 -9.332031 9.296875 -9.21875 C 9.273438 -8.863281 9.257812 -7.875 9.25 -6.25 L 9.296875 0.171875 L 8.734375 0.171875 L 5.65625 -4.015625 C 3.625 -6.816406 2.546875 -8.273438 2.421875 -8.390625 C 2.410156 -7.484375 2.40625 -6.738281 2.40625 -6.15625 C 2.40625 -5.425781 2.421875 -4.726562 2.453125 -4.0625 C 2.484375 -3.40625 2.5 -2.582031 2.5 -1.59375 C 2.5 -1.394531 2.5 -1.179688 2.5 -0.953125 C 2.5 -0.515625 2.6875 -0.296875 3.0625 -0.296875 C 3.664062 -0.296875 3.972656 -0.28125 3.984375 -0.25 L 3.984375 0.03125 C 3.460938 0 2.867188 -0.015625 2.203125 -0.015625 C 1.460938 -0.015625 0.835938 0.00390625 0.328125 0.046875 L 0.328125 -0.203125 C 0.328125 -0.203125 0.359375 -0.203125 0.421875 -0.203125 C 1.296875 -0.203125 1.757812 -0.328125 1.8125 -0.578125 C 1.863281 -3.773438 1.890625 -5.644531 1.890625 -6.1875 C 1.890625 -7.019531 1.878906 -7.972656 1.859375 -9.046875 C 1.835938 -9.171875 1.585938 -9.332031 1.109375 -9.53125 L 0.390625 -9.828125 L 0.390625 -10.109375 L 3.359375 -10.09375 C 3.992188 -9.21875 5.035156 -7.835938 6.484375 -5.953125 L 8.6875 -3.125 L 8.703125 -9.21875 C 8.691406 -9.363281 8.554688 -9.484375 8.296875 -9.578125 C 8.035156 -9.671875 7.726562 -9.71875 7.375 -9.71875 C 7.300781 -9.71875 7.222656 -9.71875 7.140625 -9.71875 L 7.109375 -10.078125 C 7.554688 -10.023438 8.113281 -10 8.78125 -10 C 9.394531 -10 10.046875 -10.019531 10.734375 -10.0625 Z M 10.734375 -9.71875 "/></g></g></g><g fill="#634e4e" fill-opacity="1"><g transform="translate(278.231484, 150.119905)"><g><path d="M 6.46875 -10.328125 C 6.863281 -10.328125 7.265625 -10.242188 7.671875 -10.078125 C 8.085938 -9.921875 8.40625 -9.757812 8.625 -9.59375 C 8.851562 -9.4375 9.0625 -9.300781 9.25 -9.1875 C 9.394531 -9.25 9.523438 -9.382812 9.640625 -9.59375 C 9.765625 -9.8125 9.835938 -10.035156 9.859375 -10.265625 L 10.28125 -10.265625 L 10.234375 -6.9375 L 9.734375 -6.9375 C 9.421875 -8.882812 8.316406 -9.859375 6.421875 -9.859375 C 5.304688 -9.859375 4.441406 -9.46875 3.828125 -8.6875 C 3.222656 -7.90625 2.921875 -6.59375 2.921875 -4.75 C 2.921875 -3.925781 3.03125 -3.179688 3.25 -2.515625 C 3.476562 -1.847656 3.84375 -1.285156 4.34375 -0.828125 C 4.851562 -0.378906 5.472656 -0.15625 6.203125 -0.15625 C 6.734375 -0.15625 7.242188 -0.269531 7.734375 -0.5 C 8.234375 -0.738281 8.617188 -1.046875 8.890625 -1.421875 C 8.921875 -1.835938 8.9375 -2.269531 8.9375 -2.71875 C 8.9375 -3.113281 8.921875 -3.425781 8.890625 -3.65625 C 8.472656 -3.894531 7.96875 -4.03125 7.375 -4.0625 L 7.375 -4.421875 L 11.671875 -4.421875 L 11.671875 -4.0625 C 11.085938 -4 10.707031 -3.863281 10.53125 -3.65625 C 10.488281 -3.5625 10.46875 -3.085938 10.46875 -2.234375 C 10.46875 -1.523438 10.476562 -0.765625 10.5 0.046875 L 10.234375 0.046875 L 10.140625 -0.1875 C 10.097656 -0.363281 9.984375 -0.539062 9.796875 -0.71875 C 9.617188 -0.894531 9.40625 -0.984375 9.15625 -0.984375 C 8.914062 -0.628906 8.507812 -0.3125 7.9375 -0.03125 C 7.363281 0.238281 6.78125 0.375 6.1875 0.375 C 4.613281 0.375 3.320312 -0.0859375 2.3125 -1.015625 C 1.3125 -1.953125 0.8125 -3.203125 0.8125 -4.765625 C 0.8125 -5.585938 0.929688 -6.328125 1.171875 -6.984375 C 1.410156 -7.648438 1.71875 -8.179688 2.09375 -8.578125 C 2.476562 -8.984375 2.921875 -9.320312 3.421875 -9.59375 C 3.929688 -9.863281 4.429688 -10.050781 4.921875 -10.15625 C 5.421875 -10.269531 5.9375 -10.328125 6.46875 -10.328125 Z M 6.46875 -10.328125 "/></g></g></g><g fill="#634e4e" fill-opacity="1"><g transform="translate(292.290509, 150.119905)"><g/></g></g></svg>