<svg xmlns="http://www.w3.org/2000/svg" xmlns:xlink="http://www.w3.org/1999/xlink" width="334" height="238" viewBox="0 0 250.5 178.5"><style>.B{clip-rule:nonzero}.C{fill:#634e4e}.D{fill:#e88b22}.E{fill:#c55428}.F{fill:#174441}.G{fill:#fab7a4}</style><defs><clipPath id="A"><path d="M.102 0h249.801v178H.102zm0 0" class="B"/></clipPath><clipPath id="B"><path d="M55.512 145H104v11H55.512zm0 0" class="B"/></clipPath><clipPath id="C"><path d="M124 148h59.836v28H124zm0 0" class="B"/></clipPath><clipPath id="D"><path d="M100 133.633h74V154h-74zm0 0" class="B"/></clipPath><clipPath id="E"><path d="M103 159h8v18.434h-8zm0 0" class="B"/></clipPath><clipPath id="F"><path d="M109 158h8v19.434h-8zm0 0" class="B"/></clipPath><clipPath id="G"><path d="M84 40h21v12.594H84zm0 0" class="B"/></clipPath><clipPath id="H"><path d="M80 36h28v16.594H80zm0 0" class="B"/></clipPath><clipPath id="I"><path d="M79 35h30.824v17.594H79zm0 0" class="B"/></clipPath><clipPath id="J"><path d="M86 42h16v10.594H86zm0 0" class="B"/></clipPath><clipPath id="K"><path d="M81 51.98h28V68H81zm0 0" class="B"/></clipPath><clipPath id="L"><path d="M79.258 51.98h30.848v17.891H79.258zm0 0" class="B"/></clipPath><clipPath id="M"><path d="M119 46h28v17h-28zm0 0" class="B"/></clipPath><clipPath id="N"><path d="m152.297 69.871-40.094-.836.477-22.824 40.094.836zm0 0" class="B"/></clipPath><clipPath id="O"><path d="m152.297 69.871-40.094-.836.477-22.824 40.094.836zm0 0" class="B"/></clipPath><clipPath id="P"><path d="m152.297 69.871-40.094-.836.477-22.824 40.094.836zm0 0" class="B"/></clipPath><clipPath id="Q"><path d="M115 46h36v21h-36zm0 0" class="B"/></clipPath><clipPath id="R"><path d="m152.297 69.871-40.094-.836.477-22.824 40.094.836zm0 0" class="B"/></clipPath><clipPath id="S"><path d="m152.297 69.871-40.094-.836.477-22.824 40.094.836zm0 0" class="B"/></clipPath><clipPath id="T"><path d="m152.297 69.871-40.094-.836.477-22.824 40.094.836zm0 0" class="B"/></clipPath><clipPath id="U"><path d="M112 46h41v23h-41zm0 0" class="B"/></clipPath><clipPath id="V"><path d="m152.297 69.871-40.094-.836.477-22.824 40.094.836zm0 0" class="B"/></clipPath><clipPath id="W"><path d="m152.297 69.871-40.094-.836.477-22.824 40.094.836zm0 0" class="B"/></clipPath><clipPath id="X"><path d="m152.297 69.871-40.094-.836.477-22.824 40.094.836zm0 0" class="B"/></clipPath><clipPath id="Y"><path d="M123 46h21v14h-21zm0 0" class="B"/></clipPath><clipPath id="Z"><path d="m152.297 69.871-40.094-.836.477-22.824 40.094.836zm0 0" class="B"/></clipPath><clipPath id="a"><path d="m152.297 69.871-40.094-.836.477-22.824 40.094.836zm0 0" class="B"/></clipPath><clipPath id="b"><path d="m152.297 69.871-40.094-.836.477-22.824 40.094.836zm0 0" class="B"/></clipPath><path id="c" d="m42.599 132.53-2.906-.047v-.125c0-.395-.148-1.133-.437-2.219-.492-1.789-1.141-2.691-1.953-2.703l-1.078-.016.016 3.969c0 .168.008.305.031.406a.51.51 0 0 0 .156.266.532.532 0 0 0 .375.125l.703.047-.016.297-2.391-.062-1.828.047v-.266c.832 0 1.27-.125 1.313-.375a1.9 1.9 0 0 0 .078-.562l.063-4.094-.062-4.047c-.023-.125-.219-.227-.594-.312l-.578-.125v-.297l2.234.047 1.328-.016 1.031-.016c.406 0 .813.094 1.219.281s.754.48 1.047.875a2.2 2.2 0 0 1 .453 1.359c0 .543-.266 1.039-.797 1.484-.523.438-1.141.668-1.859.688a2.22 2.22 0 0 1 .906.281c.281.156.504.324.672.5.176.168.352.414.531.734a6.01 6.01 0 0 1 .375.766l.313.844.641 1.516c.238.336.578.512 1.016.531zm-4.594-9.656a4.28 4.28 0 0 0-.875-.078 7.77 7.77 0 0 0-.891.047v4.188l1.109.016c.594 0 1.047-.207 1.359-.625.32-.414.484-.91.484-1.484 0-.5-.109-.945-.328-1.344-.211-.395-.496-.633-.859-.719zm0 0"/><path id="d" d="M63.558 122.202c.395 0 .797.086 1.203.25.414.156.734.32.953.484l.609.406c.156-.062.289-.195.406-.406a1.85 1.85 0 0 0 .203-.672h.422l-.047 3.328h-.5c-.312-1.945-1.414-2.922-3.297-2.922-1.117 0-1.977.391-2.578 1.172s-.906 2.09-.906 3.922c0 .813.109 1.559.328 2.234a3.76 3.76 0 0 0 1.078 1.672c.508.449 1.129.672 1.859.672.52 0 1.031-.113 1.531-.344s.883-.531 1.156-.906l.047-1.297a7.36 7.36 0 0 0-.047-.937c-.418-.25-.922-.391-1.516-.422v-.344h4.281v.344c-.586.063-.965.203-1.141.422-.043.086-.062.555-.062 1.406l.031 2.281h-.266l-.078-.234c-.043-.176-.156-.352-.344-.531a.904.904 0 0 0-.656-.266c-.242.355-.648.672-1.219.953a3.966 3.966 0 0 1-1.734.406c-1.574 0-2.859-.461-3.859-1.391-1-.937-1.5-2.18-1.5-3.734 0-.82.117-1.562.359-2.219s.547-1.18.922-1.578a5.09 5.09 0 0 1 1.313-1.016 5.765 5.765 0 0 1 1.5-.562 6.98 6.98 0 0 1 1.547-.172zm0 0"/><path id="e" d="M159.495 122.03a2.79 2.79 0 0 1 2.094.906c.27-.031.484-.254.641-.672h.234l-.047 3.109h-.312l-.125-1.062a1.974 1.974 0 0 0-.359-.875c-.5-.738-1.219-1.109-2.156-1.109-.5 0-.93.199-1.281.594-.355.387-.531.789-.531 1.203 0 .449.211.871.641 1.266s.992.727 1.703.984c.969.367 1.75.836 2.344 1.406.594.563.891 1.195.891 1.891 0 .918-.305 1.656-.906 2.219-.594.563-1.586.844-2.969.844a3.97 3.97 0 0 1-.875-.094 2.75 2.75 0 0 1-.672-.234l-.516-.297a2.58 2.58 0 0 1-.359-.25c-.219.094-.418.313-.594.656h-.344l.031-2.922h.328c.176.875.484 1.559.922 2.047.445.48 1.117.719 2.016.719 1.488 0 2.234-.723 2.234-2.172 0-.937-.793-1.68-2.375-2.234-.855-.301-1.527-.727-2.016-1.281s-.734-1.133-.734-1.75c-.012-1.926 1.02-2.891 3.094-2.891zm0 0"/><path id="f" d="m188.27 122.812-.516.063a2.665 2.665 0 0 0-.609.156c-.211.074-.312.168-.312.281-.023.355-.039 1.34-.047 2.953l.047 6.406h-.562l-3.062-4.187-3.219-4.359-.016 2.234.031 2.094.047 2.453v.641c0 .449.188.672.563.672l.938.031v.281l-1.781-.047-1.875.063v-.25h.094c.875 0 1.336-.125 1.391-.375l.078-5.594-.031-2.859c-.023-.113-.273-.273-.75-.484l-.719-.281v-.297l2.969.016 3.109 4.141 2.188 2.828.016-6.078c-.012-.145-.148-.266-.406-.359a2.593 2.593 0 0 0-.906-.141h-.234l-.031-.375c.445.063 1 .094 1.656.094l1.953-.078zm0 0"/></defs><g clip-path="url(#A)"><path fill="#fff" d="M.102 0h249.801v178H.102zm0 0"/></g><g class="C" clip-path="url(#B)"><path d="M95.625 155.305a.445.445 0 0 1-.437-.441c0-.199.117-.359.297-.418l.559-.262c.996-.5 2.867-1.461 5.477-1.359.457.02.777-.301.797-.461 0-.098-.18-.199-.457-.238-2.09-.379-4.422-1.078-6.891-1.82-6.773-2.039-14.461-4.336-20.254-.719a.57.57 0 0 1-.359.059.47.47 0 0 1-.281-.238c-.695-1.422-3.723-2.52-5.195-2.801-4.801-.898-7.969-.68-12.867.121-.238.039-.457-.141-.496-.379a.45.45 0 0 1 .355-.5c5-.82 8.227-1.039 13.164-.121 1.117.199 4.344 1.16 5.578 2.859 6.074-3.52 13.781-1.199 20.594.84 2.449.738 4.762 1.418 6.793 1.777.953.16 1.234.742 1.195 1.223-.082.719-.859 1.277-1.715 1.258-2.391-.078-4.062.762-5.059 1.262-.219.117-.457.219-.676.316-.02.023-.082.043-.121.043zm0 0"/></g><g class="C"><path d="M63.559 168.02c-2.25.02-4.5-.262-6.691-.801a.437.437 0 0 1-.316-.539.44.44 0 0 1 .535-.32c4.063 1.039 8.129.84 10.836.48 2.949-.402 4.961-1.039 5.496-1.32a7.53 7.53 0 0 0-.277-.719c-.617-1.539-1.754-4.379-.879-7.477.063-.242.281-.402.52-.34s.398.277.34.52c0 .02 0 .039-.02.059-.797 2.801.277 5.477.836 6.898.297.758.438 1.098.316 1.398-.316.84-4.461 1.598-5.895 1.801-1.574.219-3.187.34-4.801.359zm33.937-8.477c-1.75 0-3.504-.359-5.715-.902a.44.44 0 0 1-.32-.539.445.445 0 0 1 .539-.32c4.422 1.082 6.992 1.402 11.473-.559.477-.199.496-.461.516-.559 0-.32-.117-.621-.355-.82-.141-.059-.777 0-1.355.039-2.25.199-6.414.559-11.453-2.34a.43.43 0 0 1-.156-.598c.117-.199.395-.281.594-.16 4.801 2.758 8.785 2.418 10.938 2.219 1.035-.082 1.59-.141 1.949.141a1.98 1.98 0 0 1 .699 1.637c-.043.383-.262.922-1.035 1.262-2.473 1.059-4.383 1.5-6.316 1.5zm0 0"/><path d="M97.598 163.52c-1.473 0-3.027-.277-5.02-.937-.238-.082-.359-.32-.277-.562s.316-.359.555-.277c4.543 1.477 6.652 1 11.094-.621.598-.219 1.297-.621 1.215-1.219-.078-.559-.676-1-.836-1.02a4.765 4.765 0 0 0-2.051.258c-.758.223-1.613.461-3.285.281-.238-.02-.418-.238-.398-.5a.45.45 0 0 1 .496-.398 6.67 6.67 0 0 0 2.949-.242 5.614 5.614 0 0 1 2.371-.277c.637.039 1.531.859 1.652 1.777.078.539-.062 1.559-1.793 2.18-2.668.98-4.582 1.559-6.672 1.559zm-5.895 4.718c-.879 0-1.574-.02-1.934-.02-3.305-.082-5.773-.578-8.184-1.059l-3.387-.621-1.195-.141c-1.355-.121-2.648-.238-3.844-1.539-.16-.199-.121-.48.059-.621s.418-.117.578.023c.957 1.039 1.934 1.137 3.266 1.258l1.254.141 3.426.641c2.352.477 4.801.957 8.027 1.039 3.863.098 10.078-.121 11.313-1.18a20.21 20.21 0 0 0 .457-.402h-.379a.449.449 0 0 1-.418-.477.467.467 0 0 1 .418-.422c.641-.02 1.297.02 1.477.5s-.32.941-.977 1.48c-1.434 1.219-6.852 1.398-9.957 1.398zm0 0"/><path d="M96.301 166.219a14.27 14.27 0 0 1-3.445-.359.44.44 0 0 1-.277-.559.458.458 0 0 1 .52-.301c2.887.801 9.219.102 10.434-1.16.398-.418.539-.82.359-1.121a.82.82 0 0 0-.895-.297c-.242.078-.48-.062-.559-.301s.059-.48.297-.559h.039a1.686 1.686 0 0 1 1.895.719c.379.66.199 1.457-.48 2.18-1.074 1.117-4.738 1.758-7.887 1.758zm0 0"/></g><g class="C" clip-path="url(#C)"><path d="M128.09 175.777c-.199 0-.398-.023-.598-.043-1.215-.18-2.211-.937-2.969-2.238-1.473-2.559 2.07-6.816 4.004-8.477 3.703-3.199 5.996-5.859 7.984-8.215 3.07-3.602 5.277-6.199 10.516-7.859a.44.44 0 0 1 .559.301c.059.219-.059.48-.277.539-5 1.602-7.031 3.98-10.117 7.598-1.934 2.258-4.324 5.059-8.086 8.297-1.875 1.621-4.922 5.438-3.805 7.355.617 1.082 1.375 1.66 2.328 1.801.16.02.301.039.461.039 2.965 0 7.008-3.859 9.996-6.695l1.273-1.199c6.234-5.82 7.43-5.937 12.41-6.48a82.722 82.722 0 0 0 5.02-.66c1.453-.238 3.863-1.656 6.633-3.297 5.277-3.141 12.527-7.437 19.953-7.656a.46.46 0 0 1 .438.457.447.447 0 0 1-.398.441c-7.207.199-14.336 4.438-19.535 7.539-2.969 1.758-5.32 3.156-6.953 3.418a85 85 0 0 1-5.059.66c-4.879.52-5.895.637-11.91 6.238-.398.359-.816.777-1.254 1.199-3.266 3.098-7.27 6.938-10.613 6.938zm0 0"/></g><g class="C" clip-path="url(#D)"><path d="M101.262 153.703c-.238-.02-.437-.219-.418-.457a.45.45 0 0 1 .418-.422c6.891-.219 13.203-2.5 19.32-4.719 4.738-1.719 9.617-3.5 14.676-4.258 3.086-.461 5.777-1.098 8.625-1.781 4.422-1.039 8.961-2.117 15.195-2.578 5.219-.379 9.121-2.617 14.043-5.777.199-.141.477-.078.617.141a.443.443 0 0 1-.141.621c-5.039 3.219-9.023 5.535-14.461 5.918-6.152.438-10.695 1.52-15.055 2.559-2.867.68-5.578 1.316-8.703 1.797-4.98.742-9.82 2.5-14.52 4.219-6.176 2.199-12.566 4.52-19.598 4.738zm0 0"/></g><g class="C"><path d="M116.516 168.699a1.84 1.84 0 0 1-.914-.242c-.219-.098-.32-.379-.199-.598s.379-.32.598-.199c.02 0 .02.02.039.02.301.141.637.16.938.059a2.13 2.13 0 0 0 1.195-1.078c.555-1.199.836-3.34 1.074-5.219l.559-3.301a.433.433 0 0 1 .555-.277.46.46 0 0 1 .301.52c-.199.758-.359 1.918-.52 3.18-.258 1.957-.535 4.156-1.152 5.477a2.96 2.96 0 0 1-1.715 1.539 2.61 2.61 0 0 1-.758.121zm16.511-9.039c-2.789 0-5.516-.598-8.465-1.836a.443.443 0 0 1-.199-.602c.102-.199.34-.301.539-.219 3.445 1.438 6.594 1.977 9.859 1.68a.46.46 0 0 1 .477.418.427.427 0 0 1-.398.461c-.617.078-1.215.098-1.812.098zm4.422-2.918h-.059c-2.191-.219-5.559-1.117-7.828-2.898a.443.443 0 0 1-.039-.621c.137-.18.398-.199.578-.078 1.992 1.559 5.137 2.48 7.367 2.719.238.039.418.262.379.5 0 .199-.199.379-.398.379zm0 0"/><path d="M105.625 159.863a.45.45 0 0 1-.441-.461c0-.219.16-.398.379-.441 2.609-.398 5.277-.578 7.867-.738 6.273-.422 12.188-.801 17.727-4 .219-.117.477-.02.598.18a.452.452 0 0 1-.16.582c-5.715 3.277-12.008 3.699-18.105 4.098-2.566.18-5.215.34-7.785.738zm-2.59-6.258c-.039 0-.062 0-.102-.02-.238-.062-.398-.281-.336-.523.516-2.379 3.363-2.898 5.633-3.336l1.098-.223 5.438-1.457c5.078-1.461 11.41-3.258 18.621-3.918.238-.02.457.137.496.379s-.137.461-.375.5h-.023c-7.109.641-13.402 2.438-18.441 3.879l-5.496 1.48c-.359.078-.719.137-1.117.219-2.031.379-4.539.859-4.937 2.637-.078.242-.258.383-.457.383zm0 0"/></g><g class="C" clip-path="url(#E)"><path d="M106.918 177.074c-.34 0-.676-.039-.996-.117a.444.444 0 0 1-.32-.32c-.656-2.52-1.035-5.418-1.391-8l-.578-3.918c-.043-.238.117-.48.355-.52s.48.121.52.359l.598 3.961 1.313 7.617c.441.059 1.438.117 2.234-.5.875-.68 1.313-1.98 1.313-3.859l.02-.82c.059-1.48.199-4.199-.895-11.434a.441.441 0 0 1 .398-.48.434.434 0 0 1 .477.359c1.117 7.316.996 10.117.918 11.613-.023.301-.023.563-.023.781 0 2.18-.555 3.719-1.672 4.578-.695.461-1.473.719-2.27.699zm0 0"/></g><g class="C" clip-path="url(#F)"><path d="M111.719 177.434a.42.42 0 0 1-.359-.18c-.578-.758-.875-2.02-1.137-3.137l-.258-1.039a.463.463 0 0 1 .258-.582c.219-.078.48.02.578.262 0 .02.02.039.02.059.102.32.18.699.281 1.102.219.879.477 1.957.855 2.598 1.215-.121 2.051-.5 2.59-1.121 1.094-1.297.875-3.816.598-6.996-.242-2.719-.539-6.098-.082-9.777.02-.238.238-.437.48-.418s.438.238.418.48v.039c-.437 3.578-.16 6.777.078 9.598.301 3.375.52 6.055-.816 7.637-.719.859-1.852 1.316-3.445 1.438zm0 0"/></g><path d="m91.208 98.053-.594.672-.078 3.094.031 1.969a1.15 1.15 0 0 0 .406.797c.207.211.438.355.688.438.25.074.82.137 1.719.188v.641c-1-.082-2.371-.125-4.109-.125l-4.719.125v-.641c1.926-.102 2.891-.379 2.891-.828.082-2.445.133-6.441.156-11.984 0-4.5-.055-8.031-.156-10.594-.312-.477-1.277-.754-2.891-.828v-.641h.203c1.426 0 3.406-.301 5.938-.906l-.125 18.281 4-4.562c.363-.445.547-.867.547-1.266 0-.445-.305-.723-.906-.828a7.51 7.51 0 0 1 .016-.406c.02-.195.031-.336.031-.422h6.641v.75c-2.187.211-3.719.734-4.594 1.578l-3.156 3.891a70.66 70.66 0 0 1 2.672 2.953 72.53 72.53 0 0 0 2.938 3.172c1.051 1.055 1.883 1.789 2.5 2.203.625.406 1.219.609 1.781.609h.188v.547l-5.453.078c-.312-.602-.887-1.41-1.719-2.422a71.11 71.11 0 0 0-2.484-2.875l-2.359-2.656zm36.144 4.516.594.359c-.344 2.137-1.609 3.203-3.797 3.203-.898 0-1.57-.297-2.016-.891s-.715-1.301-.797-2.125l-1.219 1.313c-.273.262-.793.625-1.562 1.094-.762.457-1.523.688-2.281.688-1.324 0-2.461-.367-3.406-1.109s-1.422-1.91-1.422-3.516c0-.719.148-1.336.453-1.859a3.46 3.46 0 0 1 1.266-1.281 9.616 9.616 0 0 1 1.641-.812c.551-.219 1.195-.367 1.938-.453l1.844-.187 1.625-.062.969-.016c.07 0 .109-.973.109-2.922 0-2.508-1.148-3.766-3.437-3.766-.793 0-1.43.172-1.906.516-.469.344-.758.758-.859 1.234.758 0 1.141.578 1.141 1.734 0 .711-.242 1.215-.719 1.516-.469.305-.93.453-1.375.453-.5 0-.949-.227-1.344-.687s-.594-.961-.594-1.516c0-.977.617-1.93 1.859-2.859 1-.758 2.383-1.141 4.156-1.141 1.656 0 3.129.516 4.422 1.547 1.289 1.023 1.938 2.418 1.938 4.188l-.078 3.641-.078 3.359c0 1.773.41 2.641 1.234 2.609.469 0 .82-.172 1.063-.516s.453-.922.641-1.734zm-6.172-.437V97.46l-2.562.266c-.773.094-1.434.242-1.984.438s-.992.539-1.312 1.016c-.312.469-.469 1.125-.469 1.969 0 1.137.281 1.969.844 2.5.57.523 1.289.781 2.156.781 1.375 0 2.484-.766 3.328-2.297zm19.535-7.829-.359 4.109.031 4.781c1.063 1.188 2.488 1.781 4.281 1.781 1.102 0 1.941-.598 2.516-1.797.582-1.195.875-2.863.875-5 0-2.164-.277-3.875-.828-5.125s-1.328-1.875-2.328-1.875c-1.773 0-3.168 1.043-4.187 3.125zm-6.578-4.187a22.7 22.7 0 0 0 5.938-.766l.563 3.641c.707-1.133 1.457-2.016 2.25-2.641.789-.633 1.781-.953 2.969-.953 1.707 0 3.203.813 4.484 2.438 1.281 1.617 1.922 3.492 1.922 5.625 0 2.324-.672 4.344-2.016 6.063-1.344 1.711-3.281 2.563-5.812 2.563-1.562 0-2.922-.602-4.078-1.812l.031 8.703c.188.281.66.516 1.422.703.77.188 1.473.281 2.109.281l-.078.547-5.031-.109-4.578.109v-.547c1.844-.055 2.766-.383 2.766-.984.102-3.148.164-7.363.188-12.656l-.109-8.781c-1.086-.5-2.062-.773-2.937-.828zm30.333 6.562 7.125-.047.031-1.266c0-.812-.062-1.469-.187-1.969a3.94 3.94 0 0 0-1.297-2.078c-.648-.539-1.445-.812-2.391-.812-.969 0-1.734.555-2.297 1.656-.555 1.105-.883 2.609-.984 4.516m-.031.594v.859c0 1.906.348 3.625 1.047 5.156.695 1.523 1.703 2.281 3.016 2.281 1.531 0 2.742-.445 3.641-1.344s1.516-1.832 1.859-2.812l1.109.797c-.398 1-1.164 1.969-2.297 2.906s-2.625 1.406-4.469 1.406c-2.242 0-4.105-.695-5.594-2.094s-2.234-3.426-2.234-6.094c0-1.551.254-2.914.766-4.094.52-1.176 1.207-2.07 2.063-2.687.852-.625 1.711-1.078 2.578-1.359a8.553 8.553 0 0 1 2.703-.437c1.426 0 2.75.387 3.969 1.156 1.227.762 2.031 1.996 2.406 3.703.102.531.156 1.059.156 1.578l-.047 1.031zm29.69-6.688h-4.187v10.75c0 1.137.176 2.047.531 2.734s.832 1.031 1.438 1.031c.688 0 1.258-.273 1.719-.828.469-.551.898-1.383 1.297-2.5l.859.438c-.23.637-.437 1.125-.625 1.469s-.453.742-.797 1.188a2.91 2.91 0 0 1-1.266.969c-.5.195-1.105.297-1.812.297-1.586 0-2.773-.445-3.562-1.344-.367-.395-.633-.957-.797-1.687-.156-.727-.234-1.789-.234-3.187v-9.328h-3.312v-.516c.625 0 1.391-.176 2.297-.531.914-.352 1.547-.742 1.891-1.172.344-.445.688-1.082 1.031-1.906a6.46 6.46 0 0 0 .516-2.484h.906c-.105.844-.156 2.137-.156 3.875V89.633l4.5-.078zm12.527 10.079a2.98 2.98 0 0 1 1.875.656c.57.438.859 1.09.859 1.953 0 .961-.262 1.656-.781 2.094-.512.43-1.164.641-1.953.641-.656 0-1.258-.273-1.797-.828s-.812-1.187-.812-1.906c0-.812.273-1.445.828-1.906.563-.469 1.156-.703 1.781-.703zm0 0" class="C"/><g class="D" clip-path="url(#G)"><path d="m104.445 52.242-.91.016c-.43-2.164-1.082-4.289-2.203-6.184-2.074-3.508-6.086-6.488-10.082-4.574-4.023 1.926-5.52 6.91-6.187 11.051l-.902.012c.43-2.754.949-5.562 2.387-7.969 1.109-1.852 2.742-3.437 4.793-4.094 2.098-.672 4.387-.27 6.316.738 4.063 2.117 5.938 6.625 6.789 11.004zm0 0"/></g><g class="E" clip-path="url(#H)"><path d="m107.598 52.199-1.539.02c-.246-2.992-1.094-5.941-2.762-8.426-2.93-4.367-8.586-6.949-13.527-4.59-4.961 2.371-6.246 8.293-7.043 13.375l-1.766.008c.508-3.316 1.121-6.695 2.816-9.617 1.383-2.379 3.969-4.75 6.582-5.562 2.637-.82 6.555-.434 9.035.758 5.16 2.477 7.75 8.402 8.203 14.035zm0 0"/></g><g class="F" clip-path="url(#I)"><path d="m109.773 52.18-1.316.012c-.027-3.387-1.051-6.695-2.875-9.535-3.805-5.914-10.645-7.953-16.687-5.539a13.05 13.05 0 0 0-6.82 6.289c-1.406 2.832-1.859 6.043-2.148 9.184l-.895.004c.348-3.809.941-7.734 3.023-10.984 1.797-2.805 4.617-4.836 7.742-5.773 3.188-.961 6.613-.687 9.668.625 6.141 2.645 10.258 9.02 10.309 15.719zm0 0"/></g><g class="G" clip-path="url(#J)"><path d="m101.777 52.258-1.363.016c-.316-1.91-.785-3.816-1.754-5.461-.816-1.391-1.398-2.18-2.859-2.664s-2.902-.176-4.219.629c-2.684 1.648-3.594 4.516-3.785 7.742l-1.457.016c.102-1.965.512-3.918 1.398-5.637 1.664-3.223 5.297-5.402 8.609-3.953 3.453 1.516 4.82 5.566 5.43 9.313zm0 0"/></g><path d="m84.637 52.332.91-.016c.43 2.16 1.082 4.289 2.203 6.184 2.074 3.508 6.086 6.484 10.082 4.574 4.023-1.926 5.523-6.91 6.188-11.055l.906-.008c-.43 2.754-.953 5.563-2.391 7.965-1.109 1.852-2.742 3.438-4.793 4.098-2.098.672-4.387.266-6.316-.738-4.059-2.117-5.937-6.625-6.789-11.004m0 0" class="D"/><g class="E" clip-path="url(#K)"><path d="m81.484 52.375 1.543-.02c.242 2.988 1.09 5.938 2.758 8.426 2.93 4.367 8.586 6.949 13.527 4.59 4.961-2.371 6.246-8.293 7.043-13.375l1.766-.008c-.508 3.316-1.121 6.695-2.816 9.617-1.383 2.379-3.969 4.75-6.582 5.563-2.637.82-6.555.434-9.035-.758-5.16-2.477-7.75-8.402-8.203-14.035zm0 0"/></g><g class="F" clip-path="url(#L)"><path d="m79.309 52.395 1.316-.012c.027 3.383 1.051 6.695 2.875 9.535 3.805 5.91 10.645 7.953 16.688 5.535a13.03 13.03 0 0 0 6.82-6.285c1.406-2.836 1.859-6.043 2.148-9.187l.895-.004c-.348 3.813-.941 7.738-3.023 10.984-1.797 2.805-4.617 4.836-7.742 5.777-3.187.957-6.613.688-9.668-.629-6.141-2.641-10.258-9.016-10.309-15.715zm0 0"/></g><path d="m87.305 52.316 1.367-.02c.313 1.914.781 3.82 1.75 5.465.816 1.391 1.402 2.176 2.859 2.664s2.902.176 4.219-.633c2.684-1.645 3.594-4.512 3.785-7.742l1.461-.012c-.105 1.961-.516 3.918-1.402 5.633-1.664 3.223-5.297 5.406-8.609 3.953-3.453-1.516-4.82-5.566-5.43-9.309zm0 0" class="G"/><g class="D" clip-path="url(#M)"><g clip-path="url(#N)"><g clip-path="url(#O)"><g clip-path="url(#P)"><path d="m119.664 46.805 1.18.008c.5 2.766 1.293 5.496 2.699 7.941 2.605 4.531 7.742 8.441 12.984 6.109 5.277-2.348 7.359-8.664 8.336-13.93l1.176.012c-.633 3.5-1.387 7.07-3.316 10.098-1.492 2.332-3.656 4.309-6.34 5.094-2.742.801-5.707.223-8.187-1.113-5.223-2.809-7.543-8.609-8.531-14.219zm0 0"/></g></g></g></g><g class="E" clip-path="url(#Q)"><g clip-path="url(#R)"><g clip-path="url(#S)"><g clip-path="url(#T)"><path d="m115.563 46.773 2.004.02c.234 3.816 1.262 7.605 3.363 10.82 3.695 5.648 10.977 9.098 17.461 6.219 6.512-2.887 8.34-10.406 9.508-16.867l2.297.035c-.75 4.219-1.633 8.512-3.914 12.191-1.863 3-5.285 5.953-8.703 6.922-3.449.973-8.535.371-11.727-1.215-6.641-3.297-9.852-10.926-10.289-18.125m0 0"/></g></g></g></g><g class="F" clip-path="url(#U)"><g clip-path="url(#V)"><g clip-path="url(#W)"><g clip-path="url(#X)"><path d="m112.734 46.738 1.711.023c-.055 4.316 1.188 8.566 3.484 12.238 4.785 7.645 13.621 10.434 21.543 7.516 3.848-1.418 7.094-4.195 9.031-7.836 1.902-3.574 2.582-7.656 3.039-11.656l1.164.02c-.559 4.848-1.434 9.844-4.223 13.93-2.41 3.527-6.133 6.043-10.219 7.156-4.168 1.137-8.613.699-12.547-1.062-7.914-3.539-13.098-11.781-12.984-20.328zm0 0"/></g></g></g></g><g class="G" clip-path="url(#Y)"><g clip-path="url(#Z)"><g clip-path="url(#a)"><g clip-path="url(#b)"><path d="m123.129 46.855 1.777.016c.355 2.449.918 4.895 2.129 7.016 1.027 1.797 1.766 2.816 3.648 3.477s3.77.305 5.5-.691c3.531-2.027 4.789-5.66 5.125-9.773l1.898.023c-.187 2.5-.773 4.98-1.973 7.148-2.246 4.066-7.027 6.754-11.293 4.809-4.449-2.023-6.121-7.23-6.812-12.023zm0 0"/></g></g></g></g><g class="C"><path d="M75.211 51.07a16.41 16.41 0 0 1-1.109 5.922c-.73 1.93-1.809 3.727-3.234 5.391-1.418 1.668-3.324 3-5.719 4-2.398.992-5.133 1.484-8.203 1.484-.262 0-1.023-.012-2.281-.031l-5.187-.062-7.187-.016v-.906c3.031-.258 4.676-1.117 4.938-2.578V35.961a2.626 2.626 0 0 0-.391-1.266c-.219-.352-.605-.613-1.156-.781l-1.172-.328c-.242-.062-.734-.129-1.484-.203v-1.016l8.641-.047 6.75-.062c1.832 0 3.664.328 5.5.984s3.629 1.668 5.391 3.031 3.18 3.328 4.266 5.891c1.094 2.563 1.641 5.531 1.641 8.906zm-6.125.344v-.344c0-2.957-.18-5.426-.531-7.406-.355-1.988-1-3.758-1.937-5.312s-2.262-2.691-3.969-3.422c-1.699-.738-3.84-1.109-6.422-1.109l-3.547.172v29.891c0 .711.289 1.355.875 1.938.582.574 1.32.859 2.219.859 2.727 0 4.961-.281 6.703-.844 1.75-.562 3.098-1.504 4.047-2.828.957-1.332 1.613-2.883 1.969-4.656.352-1.781.551-4.094.594-6.937zm93.789-23.737a368.02 368.02 0 0 0-.312 12.969l.094 10.781.094 13.484c.082.398.625.699 1.625.906 1 .199 1.836.313 2.516.344v.969c-1.762-.195-3.867-.297-6.312-.297l-6.953.297v-.969c2.633-.113 3.992-.531 4.078-1.25.125-3.801.188-9.066.188-15.797l-.187-17.906c-1-.789-2.359-1.187-4.078-1.187V28.99c2.113-.113 5.195-.551 9.25-1.312zm39.446 34.469.906.547c-.523 3.242-2.445 4.859-5.766 4.859-1.367 0-2.387-.445-3.062-1.344-.68-.906-1.078-1.977-1.203-3.219l-1.844 1.984c-.418.398-1.211.949-2.375 1.656-1.156.695-2.312 1.047-3.469 1.047-2 0-3.727-.562-5.172-1.687-1.437-1.125-2.156-2.906-2.156-5.344 0-1.082.227-2.023.688-2.828s1.098-1.453 1.922-1.953 1.648-.906 2.484-1.219c.844-.32 1.828-.551 2.953-.687l2.797-.281 2.453-.094 1.484-.031c.113 0 .172-1.477.172-4.437 0-3.801-1.742-5.703-5.219-5.703-1.211 0-2.172.262-2.891.781s-1.156 1.141-1.312 1.859c1.156 0 1.734.883 1.734 2.641 0 1.086-.359 1.855-1.078 2.313s-1.422.688-2.109.688c-.762 0-1.445-.348-2.047-1.047-.594-.695-.891-1.469-.891-2.312 0-1.477.941-2.922 2.828-4.328 1.52-1.156 3.617-1.734 6.297-1.734a10.48 10.48 0 0 1 6.719 2.344c1.969 1.555 2.953 3.672 2.953 6.359l-.125 5.531-.109 5.094c0 2.688.617 4.012 1.859 3.969.719 0 1.254-.258 1.609-.781.363-.52.688-1.398.969-2.641zm-9.359-.656v-7.094l-3.891.406c-1.18.137-2.187.355-3.031.656a3.794 3.794 0 0 0-1.969 1.531c-.48.719-.719 1.719-.719 3 0 1.719.426 2.98 1.281 3.781.863.805 1.957 1.203 3.281 1.203 2.082 0 3.766-1.16 5.047-3.484zM61.218 71.276c3.094 0 5.723 1.141 7.891 3.422 1-.113 1.801-.957 2.406-2.531h.844l-.187 11.688h-1.141l-.484-4c-.199-1.27-.641-2.363-1.328-3.281-1.887-2.77-4.594-4.156-8.125-4.156-1.887 0-3.492.734-4.812 2.203-1.324 1.461-1.984 2.969-1.984 4.531 0 1.688.801 3.277 2.406 4.766 1.602 1.48 3.727 2.703 6.375 3.672 3.656 1.367 6.598 3.109 8.828 5.234s3.344 4.516 3.344 7.172c0 3.406-1.125 6.18-3.375 8.313-2.25 2.125-5.984 3.188-11.203 3.188a14.53 14.53 0 0 1-3.25-.359c-1.039-.238-1.898-.543-2.562-.906a63.69 63.69 0 0 1-1.922-1.109c-.625-.383-1.078-.695-1.359-.937-.805.367-1.543 1.188-2.219 2.469h-1.266l.125-10.953h1.203c.676 3.293 1.848 5.84 3.516 7.641s4.164 2.703 7.5 2.703c5.613 0 8.422-2.707 8.422-8.125 0-3.531-2.969-6.336-8.906-8.422-3.211-1.125-5.742-2.719-7.594-4.781-1.844-2.07-2.766-4.273-2.766-6.609-.043-7.219 3.832-10.828 11.625-10.828zm-36.667 60.629c.238-.301.359-.602.359-.906l.016-8.203-1.687-.016c-.262 0-.496.102-.703.297a1.78 1.78 0 0 0-.453.703 8.055 8.055 0 0 0-.266.844 3.37 3.37 0 0 0-.125.766h-.297l.063-2.984 4.578.047 4.016-.047.047 2.984h-.312c-.105-1.707-.547-2.566-1.328-2.578l-1.891-.016.016 8.203c0 .367.102.668.313.906.156.188.594.293 1.313.313v.297h-4.922v-.297h.188c.57-.02.93-.125 1.078-.312zm0 0"/><use xlink:href="#c"/><path d="M49.319 128.53a25.33 25.33 0 0 0-2.75-4.828c-.25-.344-.492-.578-.719-.703a4.48 4.48 0 0 0-.922-.297v-.25c.508.055 1.254.078 2.234.078l2.281-.078v.328c-.605.055-.949.141-1.031.266-.055.117-.09.246-.109.391l-.031.188 2.219 4.047 2.344-4.375c0-.156-.121-.27-.359-.344l-.969-.25v-.25c.5.055 1.063.078 1.688.078l1.672-.078v.328c-.437.023-.797.109-1.078.266a4.95 4.95 0 0 0-.391.359l-.234.25-2.328 4.203.063 4.078c0 .273.438.406 1.313.406v.297H47.85v-.25h.172c.789 0 1.191-.125 1.203-.375l.094-3.484zm0 0"/><use xlink:href="#d"/><use xlink:href="#d" x="14.015"/><path d="M95.521 132.562a26.28 26.28 0 0 0-2.031-.062l-2.266.063v-.25a4.01 4.01 0 0 0 .844-.094c.301-.062.457-.156.469-.281.031-.258.063-1.133.094-2.625l.047-3.922-.047-2.266c-.023-.125-.227-.227-.609-.312l-.578-.109v-.297l3.766.078 3.422-.078.063 2.328h-.312a3.73 3.73 0 0 0-.25-.766 2.301 2.301 0 0 0-.547-.766 1.2 1.2 0 0 0-.875-.375h-2.516v4.359h2.219c.488 0 .754-.422.797-1.266h.375v2.891h-.312c-.055-.832-.355-1.25-.906-1.25h-2.172v3.891c0 .48.188.75.563.813.082.012.203.016.359.016l.406-.016V132.563zm10.846-11.282c0-.156.047-.285.141-.391a.46.46 0 0 1 .344-.172c.145 0 .27.055.375.156s.156.242.156.406a.54.54 0 0 1-.156.391.446.446 0 0 1-.344.156.49.49 0 0 1-.359-.156.52.52 0 0 1-.156-.391zm2.453 0c0-.156.047-.285.141-.391a.43.43 0 0 1 .344-.172.47.47 0 0 1 .359.156.59.59 0 0 1 .141.406.56.56 0 0 1-.141.391.457.457 0 0 1-.344.156.49.49 0 0 1-.359-.156.557.557 0 0 1-.141-.391zm-.641 11.094c1 0 1.816-.457 2.453-1.375.645-.914.969-2.082.969-3.5 0-1.687-.312-2.969-.937-3.844-.617-.883-1.484-1.328-2.609-1.328a4.2 4.2 0 0 0-1.453.234c-.418.148-.82.398-1.203.75s-.684.887-.891 1.594-.312 1.578-.312 2.609c0 .387.035.781.109 1.188.07.398.203.82.391 1.266.195.449.438.852.719 1.203.281.344.66.633 1.141.859s1.02.344 1.625.344zm0-10.312c.383 0 .785.043 1.203.125s.875.25 1.375.5a4.88 4.88 0 0 1 1.313.953c.383.387.707.918.969 1.594.258.668.391 1.422.391 2.266 0 .824-.168 1.574-.5 2.25a4.685 4.685 0 0 1-1.281 1.641 6.11 6.11 0 0 1-1.703.969 5.248 5.248 0 0 1-1.797.328c-1.617 0-2.996-.457-4.141-1.375-1.148-.926-1.719-2.156-1.719-3.687 0-.875.125-1.648.375-2.328.258-.676.582-1.211.969-1.609a4.82 4.82 0 0 1 1.406-.969 5.946 5.946 0 0 1 1.578-.516 8.61 8.61 0 0 1 1.563-.141zm0 0"/><use xlink:href="#c" x="83.755"/><path d="M132.403 131.405c0 .48.191.719.578.719l2.078.016c.375 0 .703-.207.984-.625s.453-.898.516-1.453h.359l-.266 2.484h-7.391v-.25l.375-.016a3.44 3.44 0 0 0 .75-.141c.25-.082.379-.18.391-.297.051-.582.078-2.426.078-5.531l-.031-3.187c-.012-.145-.234-.25-.672-.312l-.672-.109v-.297l4.109-.016v.266c-.742.043-1.121.199-1.141.469l-.062 4.609v1.547l.016 2.125zm14.199.969c1 0 1.816-.457 2.453-1.375.645-.914.969-2.082.969-3.5 0-1.687-.312-2.969-.937-3.844-.617-.883-1.484-1.328-2.609-1.328a4.2 4.2 0 0 0-1.453.234c-.418.148-.82.398-1.203.75s-.684.887-.891 1.594-.312 1.578-.312 2.609c0 .387.035.781.109 1.188.07.398.203.82.391 1.266.195.449.438.852.719 1.203.281.344.66.633 1.141.859s1.02.344 1.625.344zm0-10.312c.383 0 .785.043 1.203.125s.875.25 1.375.5a4.88 4.88 0 0 1 1.313.953c.383.387.707.918.969 1.594.258.668.391 1.422.391 2.266 0 .824-.168 1.574-.5 2.25a4.685 4.685 0 0 1-1.281 1.641 6.11 6.11 0 0 1-1.703.969 5.248 5.248 0 0 1-1.797.328c-1.617 0-2.996-.457-4.141-1.375-1.148-.926-1.719-2.156-1.719-3.687 0-.875.125-1.648.375-2.328.258-.676.582-1.211.969-1.609a4.82 4.82 0 0 1 1.406-.969 5.946 5.946 0 0 1 1.578-.516 8.61 8.61 0 0 1 1.563-.141zm0 0"/><use xlink:href="#e"/><use xlink:href="#e" x="11.45"/><use xlink:href="#f"/><path d="m194.542 123.155-.016.906-.016 2.203v2.406l.031 3.109c.008.313.414.469 1.219.469l.016.25-1.266-.016-2.937.063v-.25h.063c.789 0 1.207-.125 1.25-.375.051-.32.078-3.254.078-8.797 0-.125-.195-.227-.578-.312l-.594-.109v-.25c.5.055 1.145.078 1.938.078l1.922-.078v.328c-.742.055-1.109.18-1.109.375zm0 0"/><use xlink:href="#f" x="21.119"/><use xlink:href="#d" x="154.634"/></g></svg>