<svg xmlns="http://www.w3.org/2000/svg" width="413" height="303" version="1.0" viewBox="0 0 309.75 227.25"><defs><clipPath id="a"><path d="M89.117 158H137v11H89.117Zm0 0"/></clipPath><clipPath id="b"><path d="M157 162h60.691v27H157Zm0 0"/></clipPath><clipPath id="c"><path d="M134 146.914h74V167h-74Zm0 0"/></clipPath><clipPath id="d"><path d="M143 171h7v19.27h-7Zm0 0"/></clipPath><clipPath id="e"><path d="M117 53h22v12.973h-22Zm0 0"/></clipPath><clipPath id="f"><path d="M114 50h28v15.973h-28Zm0 0"/></clipPath><clipPath id="g"><path d="M112.57 48.031h31.399v17.942H112.57Zm0 0"/></clipPath><clipPath id="h"><path d="M120 55h16v10.973h-16Zm0 0"/></clipPath><clipPath id="i"><path d="M117 65.25h22V78h-22Zm0 0"/></clipPath><clipPath id="j"><path d="M114 65.25h28V81h-28Zm0 0"/></clipPath><clipPath id="k"><path d="M112.277 65.25h31.399V83h-31.399Zm0 0"/></clipPath><clipPath id="l"><path d="M120 65.25h17V76h-17Zm0 0"/></clipPath><clipPath id="m"><path d="M153 60h27v16h-27Zm0 0"/></clipPath><clipPath id="n"><path d="m185.855 83.191-40.359-.843.469-22.422 40.355.844Zm0 0"/></clipPath><clipPath id="o"><path d="m185.855 83.191-40.359-.843.469-22.422 40.355.844Zm0 0"/></clipPath><clipPath id="p"><path d="M148 60h36v20h-36Zm0 0"/></clipPath><clipPath id="q"><path d="m185.855 83.191-40.359-.843.469-22.422 40.355.844Zm0 0"/></clipPath><clipPath id="r"><path d="m185.855 83.191-40.359-.843.469-22.422 40.355.844Zm0 0"/></clipPath><clipPath id="s"><path d="M146 60h41v23h-41Zm0 0"/></clipPath><clipPath id="t"><path d="m185.855 83.191-40.359-.843.469-22.422 40.355.844Zm0 0"/></clipPath><clipPath id="u"><path d="m185.855 83.191-40.359-.843.469-22.422 40.355.844Zm0 0"/></clipPath><clipPath id="v"><path d="M156 60h21v13h-21Zm0 0"/></clipPath><clipPath id="w"><path d="m185.855 83.191-40.359-.843.469-22.422 40.355.844Zm0 0"/></clipPath><clipPath id="x"><path d="m185.855 83.191-40.359-.843.469-22.422 40.355.844Zm0 0"/></clipPath><clipPath id="y"><path d="M268 110h.93v2H268Zm0 0"/></clipPath><clipPath id="z"><path d="M48.406.742H268V222H48.406Zm0 0"/></clipPath><clipPath id="A"><path d="M268 115h.93v3H268Zm0 0"/></clipPath><clipPath id="B"><path d="M268 111h.93v3H268Zm0 0"/></clipPath></defs><g clip-path="url(#a)"><path fill="#634e4e" d="M129.309 168.363a.438.438 0 0 1-.438-.433c0-.2.121-.356.3-.418.2-.078.38-.157.56-.254.996-.496 2.87-1.446 5.484-1.348.46.02.781-.297.8-.453 0-.102-.18-.2-.46-.238-2.094-.375-4.43-1.07-6.903-1.801-6.785-2.02-14.488-4.297-20.293-.715a.539.539 0 0 1-.359.063.478.478 0 0 1-.277-.239c-.7-1.406-3.735-2.492-5.211-2.77-4.809-.89-7.98-.675-12.887.118a.443.443 0 0 1-.5-.375.457.457 0 0 1 .36-.496c5.007-.813 8.238-1.027 13.187-.117 1.117.195 4.351 1.148 5.59 2.828 6.082-3.48 13.804-1.188 20.629.832 2.453.73 4.77 1.406 6.804 1.762.957.156 1.239.73 1.196 1.207-.078.71-.856 1.265-1.715 1.246-2.395-.078-4.07.75-5.067 1.246-.218.117-.46.219-.68.316a.212.212 0 0 1-.12.04m0 0"/></g><path fill="#634e4e" d="M97.188 180.95a27.53 27.53 0 0 1-6.708-.79.435.435 0 0 1-.316-.535.433.433 0 0 1 .535-.316c4.074 1.027 8.145.828 10.856.472 2.953-.394 4.968-1.027 5.507-1.304a6.98 6.98 0 0 0-.277-.711c-.62-1.528-1.758-4.336-.879-7.403.059-.238.278-.394.52-.336.238.059.398.278.336.516 0 .02 0 .039-.02.059-.797 2.77.281 5.421.84 6.824.297.754.438 1.09.32 1.387-.32.832-4.472 1.582-5.906 1.78a38.541 38.541 0 0 1-4.808.356M131.188 172.559c-1.758 0-3.512-.356-5.727-.891a.436.436 0 0 1-.32-.535.442.442 0 0 1 .539-.317c4.43 1.07 7.004 1.387 11.492-.55.48-.2.5-.457.52-.555 0-.316-.122-.613-.36-.813-.14-.058-.777 0-1.36.04-2.253.199-6.421.554-11.472-2.317a.425.425 0 0 1-.156-.594.454.454 0 0 1 .597-.156c4.809 2.73 8.797 2.395 10.954 2.195 1.039-.078 1.597-.136 1.957.141.476.395.738 1.008.695 1.621-.04.375-.258.91-1.035 1.246-2.477 1.051-4.39 1.485-6.324 1.485m0 0"/><path fill="#634e4e" d="M131.285 176.496c-1.476 0-3.031-.277-5.027-.93a.43.43 0 0 1-.281-.554.437.437 0 0 1 .558-.278c4.55 1.465 6.664.993 11.117-.613.598-.215 1.297-.613 1.215-1.207-.078-.55-.68-.988-.836-1.008-.699-.058-1.398.02-2.058.258-.758.219-1.614.453-3.29.277a.445.445 0 0 1-.398-.496c.02-.238.238-.414.496-.394 1 .137 1.996.058 2.953-.238a5.699 5.699 0 0 1 2.375-.278c.637.04 1.536.852 1.657 1.762.078.535-.059 1.543-1.797 2.156-2.672.969-4.59 1.543-6.684 1.543M125.379 181.168c-.879 0-1.574-.02-1.934-.02-3.312-.078-5.789-.574-8.203-1.05-1.137-.215-2.215-.434-3.39-.614-.418-.058-.817-.097-1.2-.136-1.355-.121-2.652-.239-3.847-1.524a.432.432 0 0 1 .058-.613.449.449 0 0 1 .578.02c.957 1.027 1.938 1.128 3.274 1.246.398.039.816.078 1.258.136a56.7 56.7 0 0 1 3.43.633c2.355.477 4.808.953 8.042 1.031 3.871.098 10.094-.117 11.332-1.168.121-.097.301-.257.457-.394h-.379a.447.447 0 0 1-.417-.477c.019-.218.199-.394.417-.414.641-.02 1.297.02 1.477.492.18.477-.316.93-.977 1.465-1.437 1.207-6.863 1.387-9.976 1.387m0 0"/><path fill="#634e4e" d="M129.988 179.168a14.528 14.528 0 0 1-3.453-.356.432.432 0 0 1-.277-.554.462.462 0 0 1 .52-.297c2.89.793 9.238.101 10.452-1.149.399-.414.54-.808.36-1.105a.825.825 0 0 0-.899-.297c-.238.078-.476-.058-.558-.297-.078-.238.062-.476.3-.554h.04c.718-.2 1.496.078 1.894.71.38.653.203 1.446-.476 2.157-1.078 1.11-4.75 1.742-7.903 1.742m0 0"/><g clip-path="url(#b)"><path fill="#634e4e" d="M161.832 188.629c-.2 0-.398-.02-.598-.04-1.214-.179-2.214-.933-2.972-2.218-1.477-2.531 2.074-6.746 4.011-8.39 3.711-3.165 6.004-5.797 8-8.133 3.075-3.563 5.29-6.133 10.536-7.778a.443.443 0 0 1 .558.297c.059.219-.058.477-.277.535-5.008 1.582-7.043 3.938-10.137 7.52-1.937 2.238-4.332 5.008-8.101 8.21-1.875 1.606-4.93 5.384-3.813 7.286.621 1.066 1.379 1.64 2.336 1.781.16.02.3.04.457.04 2.977 0 7.023-3.821 10.02-6.63.437-.418.875-.812 1.277-1.187 6.242-5.758 7.441-5.879 12.43-6.414a84.513 84.513 0 0 0 5.027-.653c1.457-.238 3.871-1.64 6.644-3.265 5.29-3.106 12.551-7.36 19.993-7.578.238 0 .441.218.441.457a.45.45 0 0 1-.402.433c-7.223.2-14.364 4.395-19.574 7.461-2.973 1.742-5.325 3.125-6.961 3.383-2.098.336-3.73.516-5.07.652-4.887.516-5.907.633-11.93 6.176-.399.356-.82.77-1.258 1.188-3.274 3.066-7.281 6.867-10.637 6.867m0 0"/></g><g clip-path="url(#c)"><path fill="#634e4e" d="M134.957 166.781c-.238-.02-.437-.219-.418-.457a.449.449 0 0 1 .418-.414c6.902-.219 13.23-2.472 19.356-4.668 4.746-1.703 9.636-3.465 14.703-4.219 3.093-.453 5.789-1.085 8.64-1.757 4.43-1.032 8.98-2.098 15.223-2.555 5.23-.375 9.14-2.59 14.07-5.719a.439.439 0 0 1 .617.14c.141.196.079.473-.14.614-5.047 3.184-9.04 5.48-14.485 5.856-6.168.437-10.714 1.503-15.086 2.535-2.87.672-5.585 1.304-8.718 1.777-4.989.734-9.836 2.477-14.547 4.176-6.184 2.18-12.59 4.472-19.633 4.691m0 0"/></g><path fill="#634e4e" d="M150.242 181.621c-.32 0-.64-.078-.918-.234a.432.432 0 0 1-.199-.594c.117-.219.379-.316.598-.2.02 0 .02.02.039.02.3.14.64.16.937.059a2.12 2.12 0 0 0 1.2-1.067c.558-1.187.835-3.304 1.074-5.167.16-1.266.32-2.473.562-3.262a.435.435 0 0 1 .559-.278.455.455 0 0 1 .297.512c-.2.754-.36 1.903-.52 3.149-.258 1.937-.539 4.117-1.156 5.421a2.961 2.961 0 0 1-1.715 1.524 2.78 2.78 0 0 1-.758.117M166.781 172.68c-2.793 0-5.527-.594-8.48-1.82a.435.435 0 0 1-.2-.594.44.44 0 0 1 .54-.22c3.453 1.427 6.605 1.958 9.879 1.661a.46.46 0 0 1 .476.418.422.422 0 0 1-.398.453c-.618.082-1.22.102-1.817.102M171.21 169.79h-.058c-2.195-.22-5.566-1.11-7.843-2.872a.433.433 0 0 1-.04-.613c.141-.176.399-.196.579-.078 1.996 1.543 5.148 2.453 7.382 2.691.243.039.422.258.38.496 0 .195-.2.375-.4.375m0 0"/><path fill="#634e4e" d="M139.328 172.875a.444.444 0 0 1-.441-.453c0-.219.16-.399.379-.438 2.613-.394 5.289-.574 7.882-.73 6.286-.418 12.211-.793 17.758-3.957.219-.121.48-.02.598.176.101.199.043.457-.16.574-5.727 3.246-12.031 3.66-18.137 4.058-2.574.176-5.227.336-7.8.73ZM136.734 166.684c-.043 0-.062 0-.101-.02-.238-.062-.399-.277-.34-.516.52-2.355 3.371-2.87 5.648-3.304.399-.078.758-.14 1.098-.219 1.535-.336 3.352-.852 5.445-1.445 5.09-1.442 11.434-3.223 18.657-3.88.238-.019.46.141.5.38.039.234-.141.453-.38.492h-.019c-7.125.633-13.43 2.414-18.476 3.84-2.118.593-3.934 1.11-5.508 1.465-.36.078-.719.136-1.117.218-2.036.375-4.551.852-4.95 2.61-.078.238-.257.379-.457.379m0 0"/><path fill="#634e4e" d="M140.625 189.914c-.34 0-.68-.039-1-.117a.434.434 0 0 1-.316-.317c-.66-2.496-1.04-5.363-1.399-7.917-.2-1.403-.379-2.731-.578-3.88a.443.443 0 0 1 .36-.511.45.45 0 0 1 .519.355c.219 1.168.398 2.493.598 3.918.34 2.434.718 5.164 1.316 7.54.438.058 1.438.117 2.234-.497.88-.672 1.317-1.957 1.317-3.816 0-.238.02-.516.02-.813.062-1.464.199-4.156-.9-11.32a.44.44 0 0 1 .403-.473.434.434 0 0 1 .477.356c1.117 7.242 1 10.012.918 11.496-.02.297-.02.555-.02.773 0 2.157-.558 3.68-1.676 4.532-.699.453-1.476.71-2.273.691m0 0"/><g clip-path="url(#d)"><path fill="#634e4e" d="M145.434 190.27a.427.427 0 0 1-.36-.176c-.578-.754-.879-2-1.137-3.11-.101-.375-.18-.73-.261-1.027a.452.452 0 0 1 .262-.574.46.46 0 0 1 .578.258c0 .02.02.039.02.058.097.317.179.692.276 1.09.223.867.481 1.938.86 2.57 1.219-.117 2.055-.492 2.594-1.109 1.097-1.285.879-3.777.597-6.926-.238-2.691-.539-6.035-.078-9.676a.456.456 0 0 1 .477-.414c.242.02.441.239.422.473v.043c-.442 3.54-.16 6.707.078 9.496.3 3.344.52 5.996-.817 7.559-.718.851-1.855 1.308-3.453 1.425Zm0 0"/></g><path fill="#634e4e" d="m124.799 111.364-.594.672a49.095 49.095 0 0 0-.078 3.078c0 .762.008 1.418.031 1.97.031.323.16.589.39.796.22.21.454.355.704.437.25.075.82.141 1.719.204v.625c-1-.082-2.372-.125-4.11-.125-1.875 0-3.449.043-4.719.125v-.625c1.926-.114 2.891-.395 2.891-.844.082-2.445.133-6.438.156-11.969 0-4.508-.054-8.039-.156-10.594-.312-.476-1.277-.757-2.89-.843v-.625h.203c1.425 0 3.406-.301 5.937-.907l-.125 18.266 4-4.547c.363-.445.547-.867.547-1.266 0-.445-.305-.722-.906-.828 0-.082.004-.222.015-.422.008-.195.016-.332.016-.406h6.64v.75c-2.187.211-3.714.735-4.578 1.578l-3.156 3.875a70.66 70.66 0 0 1 2.672 2.953 73.004 73.004 0 0 0 2.938 3.172c1.05 1.055 1.882 1.79 2.5 2.203.625.407 1.21.61 1.765.61h.203v.547l-5.453.078c-.324-.602-.902-1.41-1.734-2.422a63.038 63.038 0 0 0-2.469-2.875 185.23 185.23 0 0 1-2.36-2.64M160.914 115.864l.594.36c-.344 2.136-1.61 3.203-3.797 3.203-.898 0-1.57-.297-2.016-.89-.449-.595-.71-1.302-.78-2.126-.532.617-.938 1.055-1.22 1.313-.273.261-.793.625-1.562 1.093-.762.457-1.524.688-2.281.688-1.325 0-2.461-.367-3.407-1.11-.949-.738-1.421-1.91-1.421-3.515 0-.719.148-1.336.453-1.86.3-.53.722-.956 1.265-1.28a9.697 9.697 0 0 1 1.64-.813c.552-.219 1.196-.367 1.938-.453a23.99 23.99 0 0 1 1.844-.172 37.03 37.03 0 0 1 1.61-.063c.593-.02.914-.03.968-.03.082 0 .125-.974.125-2.923 0-2.5-1.148-3.75-3.437-3.75-.793 0-1.43.172-1.906.516-.47.336-.758.742-.86 1.219.758 0 1.14.578 1.14 1.734 0 .719-.241 1.23-.718 1.531-.469.305-.93.453-1.375.453-.5 0-.95-.226-1.344-.687-.398-.469-.593-.977-.593-1.531 0-.977.617-1.926 1.859-2.844 1-.77 2.383-1.156 4.156-1.156 1.656 0 3.13.515 4.422 1.546 1.29 1.032 1.938 2.43 1.938 4.188 0 .875-.028 2.09-.079 3.64a104.972 104.972 0 0 0-.078 3.36c0 1.773.407 2.64 1.22 2.61.476 0 .835-.173 1.077-.516.238-.344.445-.922.625-1.735m-6.172-.437v-4.656c-.918.074-1.765.156-2.547.25a9.666 9.666 0 0 0-2 .437c-.554.2-.984.54-1.296 1.016-.313.468-.47 1.125-.47 1.968 0 1.137.282 1.97.845 2.5.562.524 1.28.782 2.156.782 1.375 0 2.476-.766 3.312-2.297M174.265 107.599l-.344 4.11.032 4.78c1.05 1.188 2.472 1.782 4.265 1.782 1.113 0 1.957-.598 2.531-1.797.582-1.196.875-2.864.875-5 0-2.157-.277-3.86-.828-5.11-.554-1.257-1.328-1.89-2.328-1.89-1.773 0-3.172 1.043-4.203 3.125m-6.562-4.188c2.062 0 4.039-.25 5.937-.75l.547 3.64c.719-1.132 1.473-2.019 2.266-2.655.789-.633 1.773-.954 2.953-.954 1.718 0 3.21.813 4.484 2.438 1.281 1.625 1.922 3.508 1.922 5.64 0 2.313-.672 4.329-2.016 6.047-1.343 1.711-3.281 2.563-5.812 2.563-1.555 0-2.906-.602-4.063-1.813l.032 8.688c.187.289.66.531 1.421.719.77.187 1.47.281 2.094.281l-.078.547c-1.312-.074-2.984-.11-5.016-.11-2.03 0-3.562.036-4.593.11v-.547c1.851-.055 2.78-.387 2.78-1 .102-3.137.165-7.348.188-12.64 0-3.688-.039-6.614-.109-8.782-1.086-.5-2.062-.773-2.937-.828ZM198.023 109.974l7.125-.047c.02-.445.031-.867.031-1.266 0-.812-.07-1.469-.203-1.969a3.869 3.869 0 0 0-1.281-2.078c-.649-.539-1.445-.812-2.39-.812-.981 0-1.747.558-2.298 1.672-.554 1.105-.882 2.605-.984 4.5m-.031.593v.875c0 1.899.347 3.61 1.047 5.141.695 1.524 1.703 2.281 3.015 2.281 1.531 0 2.742-.445 3.64-1.343.895-.895 1.516-1.829 1.86-2.797l1.11.781c-.399 1-1.164 1.969-2.297 2.906-1.137.938-2.625 1.406-4.469 1.406-2.242 0-4.105-.695-5.594-2.093-1.492-1.395-2.234-3.426-2.234-6.094 0-1.55.254-2.91.765-4.078.52-1.176 1.208-2.07 2.063-2.688.852-.625 1.71-1.082 2.578-1.375a8.554 8.554 0 0 1 2.703-.437c1.414 0 2.739.387 3.969 1.156 1.227.762 2.023 1.996 2.39 3.703.102.531.157 1.063.157 1.594 0 .281-.012.621-.031 1.016ZM227.67 103.88h-4.187v10.766c0 1.125.176 2.03.531 2.718.352.688.833 1.032 1.438 1.032.687 0 1.258-.274 1.719-.829.457-.55.883-1.382 1.281-2.5l.875.438c-.242.637-.453 1.125-.64 1.469-.18.343-.438.742-.782 1.187a2.91 2.91 0 0 1-1.266.969c-.5.195-1.105.297-1.812.297-1.586 0-2.773-.445-3.563-1.344-.375-.394-.64-.953-.796-1.672-.157-.726-.235-1.797-.235-3.203v-9.328h-3.312v-.516c.625 0 1.39-.175 2.297-.53.914-.352 1.546-.74 1.89-1.157.344-.445.68-1.086 1.016-1.922.344-.832.515-1.656.515-2.469h.922c-.105.844-.156 2.137-.156 3.875V102.942l4.5-.078ZM240.188 113.974a2.98 2.98 0 0 1 1.875.656c.57.43.86 1.078.86 1.953 0 .95-.262 1.64-.782 2.078-.512.43-1.164.64-1.953.64-.656 0-1.258-.273-1.797-.827-.543-.551-.812-1.18-.812-1.89 0-.821.273-1.462.828-1.923.562-.457 1.156-.687 1.781-.687m0 0"/><g clip-path="url(#e)"><path fill="#e88b22" d="M138.496 65.621c-.309.004-.617.008-.926.016-.437-2.168-1.101-4.301-2.242-6.2-2.113-3.519-6.2-6.507-10.27-4.585-4.093 1.93-5.62 6.925-6.3 11.082-.305 0-.613.004-.918.007.437-2.761.969-5.578 2.433-7.988 1.13-1.855 2.79-3.445 4.88-4.105 2.136-.676 4.464-.27 6.429.738 4.137 2.121 6.047 6.644 6.914 11.035m0 0"/></g><g clip-path="url(#f)"><path fill="#c55428" d="M141.707 65.578c-.523.008-1.047.012-1.57.02-.246-3-1.114-5.957-2.813-8.45-2.98-4.378-8.738-6.968-13.773-4.601-5.051 2.375-6.36 8.316-7.168 13.41-.598.004-1.2.008-1.801.008.52-3.324 1.14-6.715 2.867-9.64 1.41-2.388 4.043-4.766 6.703-5.583 2.684-.82 6.676-.433 9.203.762 5.25 2.484 7.891 8.426 8.352 14.074m0 0"/></g><g clip-path="url(#g)"><path fill="#174441" d="M143.922 65.559c-.305.004-1.04.007-1.34.011-.027-3.394-1.07-6.715-2.93-9.562-3.87-5.926-10.836-7.973-16.988-5.551a13.175 13.175 0 0 0-6.945 6.305c-1.434 2.84-1.899 6.058-2.192 9.21h-.91c.356-3.816.961-7.753 3.078-11.011 1.832-2.813 4.703-4.852 7.883-5.793 3.246-.961 6.734-.688 9.844.629 6.254 2.652 10.45 9.043 10.5 15.762m0 0"/></g><g clip-path="url(#h)"><path fill="#fab7a4" d="m135.781 65.637-1.39.015c-.32-1.914-.801-3.828-1.786-5.476-.832-1.395-1.425-2.184-2.914-2.672-1.484-.488-2.953-.176-4.293.633-2.734 1.652-3.656 4.527-3.855 7.765-.313.004-1.172.008-1.484.012.101-1.969.523-3.926 1.425-5.648 1.696-3.23 5.395-5.422 8.766-3.965 3.516 1.52 4.91 5.582 5.531 9.336m0 0"/></g><g clip-path="url(#i)"><path fill="#e88b22" d="M117.75 65.602c.309-.004.617-.012.926-.016.437 2.168 1.101 4.3 2.242 6.2 2.113 3.515 6.2 6.503 10.27 4.585 4.093-1.93 5.62-6.926 6.296-11.082.309-.004.614-.008.922-.008-.437 2.758-.969 5.574-2.433 7.989-1.13 1.855-2.79 3.445-4.88 4.105-2.136.672-4.464.27-6.429-.738-4.137-2.125-6.047-6.645-6.914-11.035m0 0"/></g><g clip-path="url(#j)"><path fill="#c55428" d="M114.54 65.645c.522-.008 1.046-.012 1.57-.02.245 2.996 1.113 5.957 2.812 8.45 2.98 4.378 8.738 6.968 13.773 4.6 5.051-2.374 6.36-8.316 7.168-13.41l1.801-.011c-.52 3.328-1.14 6.715-2.867 9.644-1.41 2.387-4.043 4.766-6.703 5.582-2.684.82-6.676.43-9.203-.761-5.254-2.485-7.891-8.426-8.352-14.074m0 0"/></g><g clip-path="url(#k)"><path fill="#174441" d="M112.324 65.664c.305-.004 1.035-.008 1.34-.012.027 3.395 1.07 6.715 2.93 9.563 3.87 5.926 10.836 7.972 16.988 5.55a13.175 13.175 0 0 0 6.945-6.304c1.434-2.844 1.895-6.059 2.192-9.211.3 0 .605-.004.91-.004-.356 3.82-.961 7.758-3.078 11.016-1.832 2.812-4.703 4.847-7.883 5.793-3.246.96-6.734.687-9.848-.633-6.25-2.649-10.445-9.043-10.496-15.758m0 0"/></g><g clip-path="url(#l)"><path fill="#fab7a4" d="M120.465 65.586c.312-.008 1.078-.012 1.39-.02.32 1.918.801 3.832 1.786 5.477.832 1.394 1.425 2.187 2.914 2.676 1.484.484 2.953.176 4.293-.633 2.73-1.652 3.656-4.527 3.855-7.766.313-.004 1.172-.007 1.484-.011-.105 1.968-.523 3.925-1.425 5.648-1.696 3.23-5.395 5.422-8.766 3.965-3.52-1.52-4.91-5.582-5.531-9.336m0 0"/></g><g clip-path="url(#m)"><g clip-path="url(#n)"><g clip-path="url(#o)"><path fill="#e88b22" d="M153.063 60.184c.398 0 .792.004 1.187.004.504 2.761 1.3 5.488 2.71 7.925 2.622 4.52 7.782 8.418 13.056 6.094 5.3-2.34 7.39-8.64 8.37-13.89l1.184.011c-.636 3.492-1.394 7.05-3.336 10.07-1.496 2.325-3.668 4.297-6.367 5.079-2.758.796-5.734.218-8.226-1.11-5.25-2.805-7.582-8.59-8.578-14.183m0 0"/></g></g></g><g clip-path="url(#p)"><g clip-path="url(#q)"><g clip-path="url(#r)"><path fill="#725b5b" d="M148.941 60.152c.672.004 1.348.012 2.016.016.238 3.812 1.27 7.586 3.383 10.793 3.71 5.637 11.027 9.078 17.547 6.207 6.539-2.879 8.379-10.379 9.55-16.82l2.31.035c-.755 4.207-1.642 8.488-3.935 12.156-1.87 2.992-5.308 5.938-8.746 6.902-3.46.97-8.574.371-11.78-1.214-6.673-3.29-9.903-10.899-10.345-18.075m0 0"/></g></g></g><g clip-path="url(#s)"><g clip-path="url(#t)"><g clip-path="url(#u)"><path fill="#174441" d="M146.102 60.117c.39.004 1.332.02 1.722.024-.058 4.304 1.192 8.543 3.5 12.207 4.809 7.62 13.692 10.402 21.649 7.496 3.863-1.414 7.125-4.184 9.074-7.813 1.914-3.566 2.59-7.636 3.05-11.625.391.008.782.012 1.173.02-.56 4.836-1.442 9.816-4.243 13.89-2.422 3.52-6.16 6.028-10.265 7.137-4.188 1.133-8.657.692-12.61-1.062-7.953-3.528-13.164-11.75-13.05-20.274m0 0"/></g></g></g><g clip-path="url(#v)"><g clip-path="url(#w)"><g clip-path="url(#x)"><path fill="#fab7a4" d="M156.547 60.234c.402.004 1.383.016 1.785.016.36 2.441.922 4.879 2.14 6.996 1.032 1.793 1.774 2.809 3.669 3.469 1.894.656 3.785.305 5.527-.688 3.547-2.023 4.809-5.644 5.148-9.746.403.004 1.504.02 1.907.024-.188 2.492-.778 4.968-1.98 7.129-2.259 4.054-7.063 6.73-11.348 4.793-4.473-2.02-6.153-7.211-6.848-11.993m0 0"/></g></g></g><path fill="#634e4e" d="M108.793 65.767c0 2.024-.368 3.996-1.094 5.922-.73 1.93-1.809 3.727-3.234 5.39-1.418 1.657-3.325 2.985-5.72 3.985-2.398.992-5.124 1.485-8.187 1.485-.261 0-1.023-.012-2.28-.032-1.25-.023-2.981-.043-5.188-.062-2.211-.012-4.606-.016-7.188-.016v-.906c3.031-.258 4.676-1.117 4.938-2.578V50.658a2.628 2.628 0 0 0-.391-1.266c-.219-.351-.606-.613-1.156-.78a20.466 20.466 0 0 0-1.172-.33c-.242-.062-.735-.128-1.485-.202v-1.016c2.207 0 5.086-.015 8.641-.047 3.55-.039 5.797-.062 6.734-.062 1.832 0 3.664.328 5.5.984 1.832.656 3.63 1.668 5.391 3.031 1.758 1.368 3.18 3.329 4.266 5.891 1.082 2.563 1.625 5.531 1.625 8.906m-6.11.328v-.328c0-2.957-.18-5.425-.53-7.406-.356-1.988-1-3.758-1.938-5.312-.938-1.551-2.262-2.692-3.97-3.422-1.698-.727-3.839-1.094-6.421-1.094-1.125 0-2.305.055-3.531.156v29.875c0 .711.285 1.356.86 1.938.581.574 1.32.86 2.218.86 2.738 0 4.976-.274 6.719-.83 1.738-.562 3.082-1.507 4.03-2.843.958-1.332 1.614-2.883 1.97-4.656.351-1.781.55-4.094.593-6.938M196.417 41.008a402.167 402.167 0 0 0-.297 12.968c0 1.918.023 5.512.078 10.782.062 5.261.094 9.75.094 13.468.082.399.625.7 1.625.907 1 .199 1.843.32 2.53.359v.953c-1.76-.195-3.866-.297-6.312-.297-2.843 0-5.164.102-6.953.297v-.953c2.633-.125 3.992-.547 4.078-1.266.114-3.8.172-9.066.172-15.797 0-7.156-.058-13.113-.172-17.875-1-.8-2.359-1.203-4.078-1.203V42.32c2.114-.113 5.192-.55 9.235-1.312M235.85 75.46l.907.548c-.524 3.242-2.446 4.859-5.766 4.859-1.355 0-2.375-.445-3.063-1.344-.68-.906-1.078-1.976-1.203-3.219-.793.918-1.402 1.579-1.828 1.985-.418.398-1.21.949-2.375 1.656-1.156.695-2.312 1.047-3.469 1.047-2 0-3.726-.563-5.171-1.688-1.438-1.125-2.157-2.906-2.157-5.343 0-1.082.227-2.02.688-2.813a5.383 5.383 0 0 1 1.922-1.953c.82-.5 1.648-.91 2.484-1.234.844-.32 1.82-.551 2.938-.688 1.125-.144 2.054-.234 2.796-.265.739-.04 1.555-.07 2.454-.094.906-.02 1.398-.031 1.484-.031.125 0 .187-1.485.187-4.454 0-3.8-1.746-5.703-5.234-5.703-1.2 0-2.156.262-2.875.782-.719.523-1.164 1.148-1.328 1.875 1.164 0 1.75.882 1.75 2.64 0 1.074-.367 1.844-1.094 2.313-.719.46-1.418.687-2.094.687-.761 0-1.445-.347-2.046-1.047-.594-.707-.891-1.476-.891-2.312 0-1.488.937-2.93 2.812-4.328 1.52-1.164 3.625-1.75 6.313-1.75 2.52 0 4.758.78 6.719 2.343 1.957 1.563 2.937 3.688 2.937 6.375 0 1.313-.043 3.153-.125 5.516-.074 2.367-.11 4.07-.11 5.11 0 2.68.618 3.996 1.86 3.953.719 0 1.254-.258 1.61-.782.363-.52.687-1.398.968-2.64m-9.359-.656v-7.078a104.39 104.39 0 0 0-3.875.39c-1.18.138-2.188.356-3.031.657a3.978 3.978 0 0 0-1.985 1.531c-.48.72-.718 1.72-.718 3 0 1.72.43 2.98 1.296 3.782.864.804 1.954 1.203 3.266 1.203 2.082 0 3.766-1.16 5.047-3.485M94.813 84.584c3.094 0 5.723 1.14 7.89 3.422 1-.113 1.802-.953 2.407-2.516h.844l-.188 11.672h-1.14a50.77 50.77 0 0 0-.485-4c-.199-1.27-.636-2.363-1.312-3.281-1.887-2.77-4.594-4.156-8.125-4.156-1.887 0-3.496.734-4.828 2.203-1.325 1.46-1.985 2.969-1.985 4.531 0 1.688.801 3.277 2.407 4.766 1.613 1.48 3.742 2.703 6.39 3.672 3.645 1.367 6.582 3.109 8.813 5.234 2.226 2.125 3.343 4.512 3.343 7.156 0 3.418-1.125 6.188-3.375 8.313-2.25 2.125-5.98 3.187-11.187 3.187-1.125 0-2.211-.121-3.25-.36-1.043-.241-1.899-.542-2.563-.905a52.712 52.712 0 0 1-1.937-1.11c-.617-.383-1.063-.695-1.344-.937-.805.367-1.543 1.187-2.219 2.468h-1.265l.11-10.953h1.202c.688 3.293 1.864 5.84 3.532 7.64 1.664 1.806 4.16 2.704 7.484 2.704 5.613 0 8.422-2.707 8.422-8.125 0-3.531-2.969-6.336-8.906-8.422-3.211-1.125-5.735-2.719-7.579-4.781-1.843-2.063-2.765-4.258-2.765-6.594-.043-7.219 3.828-10.828 11.61-10.828m0 0"/><g clip-path="url(#y)"><path fill="#174441" d="M268.586 110.7c0 1.027.266.655.316.812-.101-1.723-.39-.766-.316-.813m0 0"/></g><path fill="#174441" d="m266.57 93.957.164.273-.703-2.39ZM262.988 78.652c-.047 1.559 1.711 5.438 2.106 8.235v.472l.652 1.153c-.215-.825-.445-1.715-.676-2.621-.25-.895-.465-1.82-.761-2.692-.559-1.738-1.036-3.379-1.32-4.547M261.086 70.39c.023.551-.813-1.644.668 1.86-.047-.187-.059-.242-.09-.352-.125-.32-.293-.761-.578-1.507m0 0"/><path fill="#174441" d="M261.664 71.898c.629 1.555-.262-1.074 0 0M258.563 64.832l1.054 1.938c-.094-.461-.879-2.262-.508-1.63-1.015-2.023-.918-1.546-.546-.308M257.375 63.098c.191.324.383.656.559.996-.047-.203-.153-.489-.559-.996M259.059 66.223l-1.125-2.137c.062.324-.059.414.5.988-.207-.117.109.258.625 1.149M259.55 67.5c.216.578.462 1.238.509 1.52.043.277-.036.14-.547-.825.84 1.914 1.226 2.727 1.254 2.547.007-.086-.079-.418-.274-.969-.199-.546-.472-1.328-.941-2.273M262.273 78.04c.13.526.266 1.054.364 1.593l.535 1.312c-.133-.324-.32-1.09-.48-1.754-.184-.664-.372-1.222-.419-1.152M252.227 52.672c-.157-.063.175.762.156.969.332.43.629.882.93 1.332-.333-.774-1.153-2.125-1.086-2.301m0 0"/><path fill="#174441" d="m252.383 53.64-1.45-1.949c1.149 1.832 1.43 2.125 1.45 1.95M256.73 62.973l.532.847.488.864.98 1.734c-.757-1.39-1.5-2.785-2.351-4.121ZM246.992 44.984c.34.317.656.657.988.989l-.851-.907-.895-.863ZM243.113 40.188c.813.648-.675-1.27.125-.528a37.054 37.054 0 0 0-3.16-3.094c.98.961 1.91 2.102 3.035 3.621M238.426 35.148c.508.465 1.054.926 1.652 1.426a23 23 0 0 0-1.652-1.426M248.672 48.234c-.059-.187-.145-.574-.879-1.722l.324.941c.168.242.36.508.555.781M248.133 47.484l-.016-.03c-.59-.845-1.008-1.438-1.183-1.688.156.218.515.738 1.199 1.718M248.809 48.434a1.602 1.602 0 0 1-.137-.196c.031.086.05.137.137.196M253.98 57.27c-.843-1.16-2.457-3.63-1.234-1.036.668.786-.031-.703 1.234 1.036M249.21 49.594c.481.707.895 1.453 1.352 2.183.032-.086-.125-.535.317.02-.563-.734-1.09-1.488-1.668-2.203M248.402 48.617l.809.977-.535-.79ZM241.223 38.59c-.41-.387-.82-.8-1.235-1.25-.43-.442-.886-.903-1.37-1.39.48.558 1 1.093 1.472 1.671.48.563.965 1.129 1.43 1.684.21.09.75.472-.297-.715M244.672 42.84c-.05-.059-.117-.13-.16-.184.078.137.14.235.16.184M228.793 26.66c.047.067.086.117.133.184.023 0 .039-.008.07-.008Zm0 0"/><path fill="#174441" d="M241.652 39.52c.68.867 1.168 1.324 1.645 1.746a84.823 84.823 0 0 1-1.77-1.97c-.086-.038-.117-.038.125.224M235.691 32.54c.383.433.82.925 1.254 1.46-.32-.48-1.054-1.379-1.254-1.46M244.34 42.313c.039.039.074.078.113.124-.183-.328-.176-.269-.113-.124M244.34 42.313c-.383-.422-.715-.735-1.04-1.047.438.515.848.988 1.212 1.39a2.34 2.34 0 0 1-.172-.343M224.5 25.52c.156-.047.832.328 1.695.933.43.305.918.656 1.383 1.059.461.418.926.867 1.348 1.328 1.969 1.45 1.332-.223 0-2.004-.137.047-.172.078-2.27-1.356.656.61 4.09 3.86 2.328 2.645-1.293-1.059-1.828-1.484-2.164-1.812-.332-.333-.48-.567-1.082-1.122.446.555-.465-.011-1.441-.609-.969-.617-2.078-1.164-1.918-.773.84.5 1.621 1.078 2.418 1.632.008.082-.895-.476-.297.079M232.566 30.043l.778.695a135.608 135.608 0 0 1-2.461-2.687c-1.406-1.043-1.738-1.207-1.887-1.219 1.281 1.14 2.606 2.242 3.848 3.426ZM236.719 34.012c-.742-.422-2.672-2.02-1.762-.758 1.125 1.031 1.496 1.422 1.82 1.637.313.226.532.332 1.207.953-3.457-3.528 1.094.926-1.261-1.774.71.672 1.32 1.293 1.898 1.887a96.851 96.851 0 0 1-1.676-1.945c.028.039.047.066.067.097l.02.016h-.009c.125.18.157.246.008.055-.015-.004-.058-.051-.078-.07a1.118 1.118 0 0 1-.234-.098c-.95-1.078-.106-.215.234.086.02 0 .059.02.07.011l-.011-.011c-.578-.594-1.2-1.145-1.82-1.696l-1.852-1.66c.726.762 1.715 1.625 3.379 3.27M250.887 54.297c-.059-.14-.04-.14-.032-.168-.195-.246-.289-.34.032.168M249.938 52.504c.226.281.48.469 1.085 1.46.473.891-.117.067-.168.165.446.547 1.461 1.976.422.039l-.222-.273c-.989-1.715-2.075-4.055-1.852-3.79.106.63.234 1.157.734 2.399M243.68 42.879c-.86-1.066-1.813-2.055-2.743-3.063l1.18 1.735.047-.176c1.441 1.836 1.234 1.352 1.516 1.504M228.527 26.246l.606.129c-.684-.43-1.422-.785-2.125-1.176ZM224.277 22.945l.313-.086c-.403-.246-.832-.472-1.25-.707ZM65.781 166.195l.656.985c-.304-.473-.5-.774-.656-.985M61.727 158.668l-.211-.133c.242.328.363.445.21.133M100.008 17.543c-1.621.746-3.496 1.516-3.16 1.637l.617-.059a24.425 24.425 0 0 1 2.543-1.578M51.441 90.102c.059-.153.118-.325.176-.485v-1.203c-.05.508-.148 1.078-.176 1.688M52.371 91.527l-.578 2.211c.148-.496.34-1.203.578-2.21M97.621 199.79c.43.187.852.378 1.293.534-1.781-1.199-1.07-.562-1.293-.535M173.86 2.219a64.54 64.54 0 0 0-3.762-.653c1.812.399 3.25.82 3.761.653M61.484 164.723c.414.62.625.867.668.82-.422-.645-.687-.992-.668-.82M165.7 1.203c.265.047.523.086.796.129 1.117.055 2.25.055 3.602.242a17.329 17.329 0 0 0-4.399-.37M247.078 171.504c.078-.098.168-.215.234-.305-.011-.047-.105.098-.234.305M267.254 126.184c-.047.492-.152 1.304-.242 2.066.066-.363.144-.988.242-2.066M205.832 11.64c1.04.481.184.047 0 0M210.25 15.145c-.227-.086-.406-.13-.465-.086.117-.02.278.015.465.086M154.395 2.762h-.098c.332.054.281.039.098 0M207.313 12.531c-.364-.226-.793-.48-1.258-.742.199.125.578.352 1.257.742M207.164 12.305l.879.48c.148.02.05-.066-.879-.48M204.375 11.004c.598.266 1.145.527 1.672.785-.195-.11-.274-.16-.215-.148-.305-.13-.734-.325-1.457-.637M172.32 218.578c.07 0 .164 0 .243-.004 1.097-.254.609-.176-.243.004M79.3 38.355c.032-.039.044-.066.079-.105-.04.031-.086.078-.125.11Zm0 0"/><path fill="#174441" d="M76.809 41.469c.851-1.504 1.488-2.242 2.453-3.11-.5.137-1.016.27-1.508.418Zm0 0"/><g clip-path="url(#z)"><path fill="#174441" d="m77.902 182.648-1.636-2.273c2.507 2.281 4.004 4.18 2.554 1.984-.23.07-.789-.398-1.515-1.14-.723-.746-1.645-1.742-2.465-2.813-.844-1.054-1.688-2.113-2.38-2.89-.655-.809-1.167-1.336-1.401-1.282l-.918-1.605c.3.434.39.473.683.902-1.734-3.144-2.054-1.812-4.465-5.777-.785-1.41-1.21-2.465-.578-1.559l-1.976-3.004c-.496-.921-.242-.77.261.141-.918-1.578-1.722-3.215-2.59-4.82l.04.023c-.489-.629-1.383-2.168-1.832-2.918-.461-1.324.379.598.324.23-.473-.898-.98-1.78-1.43-2.69-.121-.626.098-.364.45.284.378.637.898 1.672 1.312 2.633-.18-1.469-.492-2.015-1.008-2.918-.46-.922-1.156-2.219-2-5.156.352.887.758 1.75 1.129 2.621-.09-.95-.43-1.906-.754-3.047-.324-1.144-.727-2.437-1.098-4.004.086.754 1.32 6.356.067 3.32-.23-.902-.614-2.062-1.32-3.699.292-.109-.247-1.75-.86-3.828l.441.032c-.386-1.106-.582-1.606-.757-1.993-.184-.386-.344-.652-.594-1.3-.543-2.555-.363-3.149-.188-3.805-.668-4.113 0 2.937-.941-1.914-.11-.867-.234-1.66-.371-2.434-.106-.773-.207-1.527-.34-2.3-.246-1.547-.598-3.165-.844-5.239-.039-2.441.285.403.34-.472l-.496-2.133c-.031-.528.086-.364.145-.282-.227-1.812-.438-.12-.633-2.996-.219-.382-.14-1.863.039-3.683.105-.91.21-1.906.254-2.89.058-.99.027-1.977-.012-2.868.184-.867.223.434.402.176.012-2.438.02-3.485.028-4.422.011-.934.023-1.766.058-3.781.227-1.118.453-2.239.766-3.336-.746 2.418-.55-.785-.352-3.637-.304.848-.57 1.582-.718 2.078l.285-2.23c.09-.754.254-1.489.375-2.235.191-.52.23-.039.23.715.032-.305.063-.598.09-.832.512-1.539.559-.668.527.508-.21.512-.417 1.027-.617 1.527.051 1.149.14 2.215.422 2.035.004-.293.063-.859.149-1.472.02.3.046.496.109.37.078-.136.039-.62.113-1.355l.68-.89-.121-.282.797-2.812c.254-.945.613-1.856.91-2.777.164-1.04.32-2.047.48-3.082.215-1.02.43-2.067.657-3.184.132-.559.261-1.137.398-1.742.148-.598.352-1.207.547-1.86.2-.64.422-1.316.66-2.03.242-.716.488-1.466.828-2.231-.37 1.648.363.539.696.785-.575.742-.977 1.976-1.45 3.394-.23.715-.488 1.461-.73 2.254a33.95 33.95 0 0 1-.778 2.418c.618-1.691.668-1.246.59-.793.489-1.988 1.184-3.914 1.801-5.875.129.13.305-.148.54-.644.241-.489.577-1.168.968-1.871-.547.422-.176-.664.441-2.157.157-.37.325-.77.5-1.18.196-.394.39-.796.586-1.195.383-.785.742-1.539.98-2.117.266-.039.188.598-1.245 3.29 1.988-2.75 1.242-4.259 3.293-6.919-.368.653-.598.985-.649 1.297.352-.8 1.09-2.113 1.695-3.094.618-.984 1.157-1.601.961-1.14l-.394.633a293.905 293.905 0 0 0 2.426-3.73c.914-1.38 1.941-2.798 2.84-4.141.914-1.333 1.824-2.516 2.449-3.465.629-.942 1.027-1.617 1.054-1.84.082.008.082.918 0 1.23 1.41-2.633 2.864-5.304 4.516-7.86-.195.892 2.676-.48.047 2.665.426-.402.91-.852 1.48-1.437.57-.583 1.215-1.333 2.067-2.227-.63.492-1.922.902-1.168.102 1.277-.856 1.707-1.165 2.187-1.54.243-.187.5-.39.887-.687.383-.3.883-.695 1.668-1.211-.973.707-.469-.715 1-1.957-.148.281.602.457.125.969l1.555-1.825c.52-.613 1.086-1.171 1.625-1.761-.852.836.226.61 1.183.12-.234.099.563-.53 1.547-1.284 1-.735 2.207-1.54 2.703-1.946l-1.73 1.024c2.215-1.488 3.113-2.512 4.094-3.422.48-.465.964-.934 1.605-1.469.652-.523 1.438-1.148 2.613-1.785-.488.453-.894 1.586 1.485.324.218-.234.578-.617 1.039-1.113.469-.484 1.039-1.098 1.754-1.687 1.418-1.196 3.21-2.692 5.347-3.766l.926-.18c1.078-.574 2.149-1.172 3.27-1.672-.977.645-2.766 1.977-4.68 3.297-.969.645-1.914 1.41-2.824 2.067-.907.656-1.754 1.273-2.453 1.789 1.843-.774.609-.035 3.254-1.418 1.027-.301-1.305 1.011-2.079 1.422l3.114-1.52.777-.379.793-.344 1.594-.683c-.235-.133.93-.778 2.105-1.422 1.195-.59 2.41-1.164 2.223-1.285-2.313 1.011-4.516 2.261-6.746 3.418-.235-.137.625-.864 2.125-1.809.754-.46 1.644-1.027 2.68-1.508a44.928 44.928 0 0 1 3.32-1.402c1.234-.3-.606 1.07-.45 1.168.274-.176 1.32-.715 2.399-1.11 1.074-.402 2.137-.773 2.371-.792l-1.902.89c1.324-.363 2.34-.86 3.43-1.347 1.101-.48 2.3-.872 3.94-1.13.552-.128 1.395-.261 2.138-.312.742-.066 1.351-.129 1.417-.281-1.917-.07-2.68-1.473-1.535-2.125.203-.024 1.715-.246 3.34-.48.41-.051.82-.118 1.223-.16.402-.036.8-.06 1.164-.094.726-.051 1.332-.082 1.664-.082 1.93.05-2.625 1.414-.98 1.46.042-.128 1.039-.453 1.46-.578 1.196-.11-.421.453 2.125-.058.364-.5 5.266-.63 1.172-.532a25 25 0 0 1 2.672-.347c.735-.059 1.52-.117 3.016-.235-.488-.101.156-.402 1.254-.707 1.097-.293 2.644-.668 3.93-.734-.149.117.437.246.722.305 1.32-.012 2.484-.024 3.563-.032 1.085.032 2.078.106 3.066.149.988.059 1.965.094 2.996.164 1.035.098 2.125.195 3.348.285.441.129 2.781.469 1.761.567.704.003 1.364-.06 2.86.117 2.847.746-3.34-.364-1.188.37.215-.21 3.91.071 6.051.364-.293-.234-1.508-.527-2.937-.656-1.43-.133-3.043-.215-4.121-.274.023-.273.98-.437 2.585-.476.801-.012 1.77-.031 2.852.055a72.71 72.71 0 0 1 3.57.39c2.04.27 2.446.531 2.45.61 0 .097-.415.109-.06.148 1.872.457 3.227.723 4.29.887 1.063.21 1.84.324 2.582.425.742.106 1.441.211 2.34.422.898.211 1.96.621 3.457 1.22 2.3 1.148-.121.694.332 1.108-1.598-.468-2.79-.94-3.86-1.359-1.081-.375-2.027-.738-3.12-1.039l2.632.918c-1.054-.176-3.21-.703-4.355-1.133.488.223 1.515.559 2.86.965.675.2 1.425.422 2.237.66.797.274 1.641.567 2.52.867.879.305 1.79.598 2.691.934l2.657 1.074c.867.363 1.73.68 2.504 1.067.78.375 1.515.734 2.171 1.07 1 .324 2.711.96 1.989.48l-1.73-.726c-1.454-.969 3.386 1.105 1.273.008 1.21.402 2.433.953 3.793 1.53.675.302 1.37.626 2.09.981.703.399 1.437.828 2.19 1.309l.384.676c-.004-.137-1.899-1.371-2.828-1.754.691.285 1.808 1.086 2.957 1.851.574.383 1.164.754 1.703 1.067.527.332 1.023.578 1.43.687-.657-.52-1.294-1.07-1.973-1.554 1.16.535 2.41 1.218 3.75 1.918.656.363 1.351.722 2 1.152.652.433 1.3.89 1.93 1.379-.954-1.16-.61-.399-2.208-2.07 1.336 1.527-6.851-4.399-4.511-2.204-.86-.812-1.703-1.355-2.625-1.941a91.282 91.282 0 0 1-3.18-2.102c.027.164.84.715-1.508-.562a4.56 4.56 0 0 1-.57-.164c-.074-.04-.098-.059-.156-.09.043.031.078.05.12.078-.109-.035-.12-.039.048.031.539.344.968.637 1.117.801-.664-.156-1.918-.754-3.203-1.3-1.301-.528-2.602-1.079-3.282-1.301-1.41-.707.66.136-.066-.352l-1.02-.332-1.042-.285c-.075-.344-3.73-1.988-.192-.777l-3.121-1.25c-.89-.442-2.004-.836-3.066-1.235-1.075-.375-2.121-.742-2.946-.918-1.507-.492-3.945-.785-2.554-.62-.86-.212-1.703-.43-2.563-.626l-2.586-.508-.031-.082c-2.516-.664-5.188-.945-7.918-1.379-2.75-.28-5.57-.715-8.512-1.144-.879-.031-1.761-.067-2.804-.106a72.599 72.599 0 0 1-3.676-.11l-.567-.265c-1.125-.007-2.816-.015-4.343-.02-1.528 0-2.903 0-3.371.196-.618-.125-1.606-.144-2.81-.098-.605.02-1.253.059-1.94.11-.684.066-1.399.168-2.13.265-1.449.215-2.949.391-4.32.657-1.37.27-2.625.5-3.605.644l-.086.352c-.34.058-.668.117-1 .176l-.988.234c-.664.168-1.328.332-2.016.508l-2.125.558c-.727.215-1.488.473-2.29.735l.282.218c-1.36.528-3.187.922-5.16 1.555l-3.113.93c-1.063.355-2.133.773-3.2 1.195.247-.223 1.344-.617 2.137-.86-1.332.352-2.668.821-3.988 1.352-1.309.567-2.582 1.239-3.844 1.88-1.273.624-2.469 1.366-3.664 2.003-1.195.64-2.379 1.207-3.504 1.746a16.823 16.823 0 0 1-2.613 1.496 3.92 3.92 0 0 0 .262-.168l-.442.254c-.508.219-1.015.473-1.554.766.476-.227.921-.442 1.312-.629-.824.484-2.016 1.324-3.176 2.145l-.683.062c-.098.066-.176.117-.274.191-1.242.66-.863.727-.105.524-.578.418-1.067.871-1.442 1.223-.605.117-1.34.695-2.117 1.3-.39.297-.789.606-1.191.871-.395.274-.781.508-1.168.637-.3.402-1.672 1.54-3.004 2.695-1.281 1.22-2.504 2.446-2.606 2.895-.085-.02-.425.227.149-.281-1.254.965-2.426 2.023-3.34 3.113l-.762.176-1.058 1.386-1.047 1.461c-1.617 1.344-2.328 1.887-1.106.164-.793.981-1.343 1.676-1.773 2.208-.422.546-.723.93-1 1.292-.566.735-1.102 1.38-2.29 3.16l-.077-.324c-.938 1.207-2.172 3.332-2.906 3.934-.61.61-1.508 1.785-2.633 3.3-.278.384-.578.774-.871 1.204-.286.434-.579.883-.883 1.352-.606.933-1.246 1.93-1.91 2.957-2.516 4.203-5.118 9.132-7.04 13.093.704-.62.18.27-.41 1.399-.566 1.144-1.246 2.527-1.039 2.8-.351.41-.898 1.524-.52.137a76.562 76.562 0 0 1-.546 1.489c-.164.468-.32.917-.461 1.34-.305.84-.578 1.593-.832 2.308-.54 1.414-.883 2.715-1.066 4.277-.313.446.011-1.004-.215-.586-.059.356-.242 1.418-.473 1.84-.23.414.031-.676.156-1.387-.308 1.114-.515 1.985-.64 2.665-.098.699-.121 1.203-.102 1.585.04.762.254 1.016.469 1.239-.379 1.097-.633 1.933-.781 2.703a13.084 13.084 0 0 0-.13 2.344c-.308.761-.722 2.062-.28-.754-.079.39-.235 1.191-.43 2.168-.098.484-.2 1.02-.305 1.57-.078.555-.156 1.125-.226 1.691-.293 2.246-.52 4.317-.286 4.418-.144.489-.203 2.223-.183 2.645-.078.89-.137 1.582-.184 2.172-.035.586-.043 1.074-.062 1.554-.032.97-.059 1.922-.078 3.684l.09-.973c.437 1.391.105 2.918.234 5.746l-.051-.078c-.074 1.625 0 2.61.04 3.282.042.668.089 1.011.136 1.351.043.344.082.684.12 1.34.017.332.036.734.056 1.258.039.527.078 1.172.136 1.972l.266-.386c.371.261.45 1.672.527 3.484.14 1.8.344 4.012.797 5.813l-.062-1.352c.265.98.375 2.399.433 3.848.07 1.441.059 2.922.324 3.918.075.441-.296-.657-.48-1.254 1.059 5.297.578.57 1.754 4.394.008.774-.832-.75-.063 1.844.137.664.922 2.477 1.801 4.543.48 1.024.98 2.113 1.422 3.168.223.523.422 1.043.606 1.547.195.492.375.96.52 1.402-.185-.804-.352-1.605.526.031 1.16 2.575 2.715 7.243 4.47 9.223.144.34.171.477.144.508.293.46.683 1.059 1.105 1.723.414.664.863 1.398 1.36 2.062.96 1.352 1.87 2.606 2.343 3.074.028.582.606 1.512 1.371 2.637a38.13 38.13 0 0 0 2.797 3.582c1.012 1.188 1.98 2.32 2.696 3.156.714.84 1.113 1.434.918 1.582.742.832 1.457 1.688 2.23 2.496l2.324 2.403-.195-.059c.723.793 1.348 1.438 1.926 1.938.566.52 1.047.937 1.476 1.289.856.695 1.469 1.144 2.11 1.547.703.695.097.293 0 .277 2.296 2.113 3.55 3.3 4.851 4.219.637.476 1.266.91 2.012 1.402.734.508 1.621 1.024 2.758 1.68l.254.578c1.195.734 7.187 5.543 12.836 8.02-.07.007-.215 0-.668-.18 3.136 1.441 6.765 3.41 10.058 4.851.828.36 1.621.696 2.367 1.008.375.152.743.293 1.09.438.36.109.703.218 1.028.324 1.312.39 2.378.605 3.07.527l1.098.293 1.109.246 2.223.48c-5.606-1.69.984-.253-1.278-1.097 1.11.277 2.508.766 3.293 1.098.793.293.961.48-.41.148l-.406-.176c-1.184.407 7.02 1.926 6.797 2.23 5.675 1.134 11.359 1.79 16.968 2.138 1.407.058 2.809.113 4.2.171 1.398.012 2.78-.02 4.168-.035.687-.011 1.382 0 2.074-.043.687-.047 1.37-.093 2.058-.136.684-.047 1.364-.09 2.047-.145.684-.043 1.36-.09 2.035-.187-.43-.11-.859-.204-1.293-.34 1.254-.11 2.5-.285 3.75-.426.993-.016 1.372.2-1.312.52.719.042 1.84-.157 2.781-.38.942-.199 1.696-.53 1.73-.578 5.231-.742-1.945.91-.347.637l2.172-.422-.5.032c.863-.254 1.324-.434 1.969-.622.32-.097.687-.191 1.175-.3.48-.13 1.079-.278 1.872-.453 2.023-.372 1.093.042 1.886-.118 0 .032.274-.015 1.215-.27 1.547-.386 3.074-.831 4.613-1.245l-1.933.164c.988-.38 2.066-.676 2.617-.86.547-.207.574-.242-.54-.148 1.626-.164 5.884-1.469 9.84-3.113 1.009-.371 1.966-.84 2.88-1.25.918-.414 1.78-.813 2.55-1.157 1.528-.726 2.649-1.332 3.125-1.5a52.381 52.381 0 0 1 1.903-1.152c.633-.394 1.273-.797 1.937-1.195 1.328-.801 2.762-1.574 4.27-2.563-.797.418-1.469.348 1.172-1.277-.118.336.129.332.617.121.48-.207 1.207-.61 1.988-1.144.785-.52 1.664-1.11 2.488-1.63.418-.261.82-.5 1.196-.714a8.04 8.04 0 0 1 1.004-.547c-1.016.531.714-.86 2.304-2.172a18.626 18.626 0 0 0 1.868-1.703c.343-.375.312-.465-.45-.004 2.008-1.645.332.14 1.957-.996 4.426-4.32 10.055-9.29 14.668-15.457-.02-.16-.949.734-.062-.656 1.008-.922 1.902-1.934 2.851-2.922.418-.637.48-1.016.692-1.489.094-.234.238-.496.465-.828.214-.336.52-.746.976-1.273-.293.281-.726.683-.207-.188 4.328-6.12 7.778-13.039 10.508-20.218 2.738-7.192 4.766-14.633 6.5-22.094-.586 2.004-.356.637-.09-.918-.23 1.004-.273-.063-.46.113l.62-3.129c.192-1.043.442-2.086.578-3.144-.168-.598-.043-2.301.075-3.946.078-.82.09-1.625.078-2.273-.016-.645-.055-1.125-.153-1.293l.028 2.012c-.215-1.352-.489-.422-.832.781-.375 1.195-.793 2.66-1.09 2.445.082.746.031 1.606-.078 2.54-.137.937-.38 1.949-.598 3.023-.105.539-.215 1.086-.328 1.644-.098.567-.2 1.137-.316 1.715a21.534 21.534 0 0 0-.383 3.59c-.313 1.027-.04-.937-.281-.402.078 1.257-.235 2.715-.961 5.367l.003-.32c-.101.468-.207.925-.304 1.367-.11.433-.235.851-.352 1.261-.23.813-.46 1.57-.668 2.305-.41 1.477-.902 2.797-1.402 4.14-.25.673-.5 1.352-.762 2.055-.254.708-.59 1.41-.91 2.172-.648 1.512-1.332 3.203-2.3 5.133l.546-.453c-.808 1.676-1.055 1.992-1.484 2.754-.453 2.144 2.172-4.742 1.847-2.762-.398.5-.937 1.496-1.539 2.73-.605 1.227-1.386 2.645-2.105 4.063-.184.352-.367.7-.547 1.051-.187.344-.39.672-.578.996-.383.645-.75 1.254-1.086 1.785-.676 1.074-1.242 1.88-1.633 2.13-1.539 2.398.754-.524-.793 1.882l-.57.531-.184.75c-.511.785-.98 1.32-1.332 1.656-.351.344-.578.489-.664.477.281-.36.711-1.082.985-1.484-.793.925-1.77 2.32-2.614 3.574-.847 1.25-1.652 2.289-1.926 2.601.594-.695 1.196-1.379 1.782-2.086-.567.793-1.184 1.579-1.801 2.391-.629.8-1.227 1.652-1.93 2.438-1.383 1.578-2.742 3.261-4.258 4.785-.734.777-1.472 1.558-2.203 2.324-.761.742-1.515 1.477-2.254 2.2-1.449 1.487-2.964 2.8-4.324 4.12l.528-.27c-.528.497-.97.927-1.372 1.278-.414.336-.765.617-1.078.867-.632.496-1.117.848-1.613 1.203-.508.352-1 .735-1.723 1.23a93.709 93.709 0 0 0-2.906 2.075l.172-.164c-.93.879-2.336 1.832-3.805 2.754 1.258-1.004-2.703 1.34-1.039.055-.629.46-1.156.804-1.597 1.086l-1.047.68c-.54.359-.801.554-.996.714-.196.172-.336.3-.63.559-.3.254-.741.644-1.605 1.222l-.96.223c-.579.414-.88.668-1.387 1-.512.324-1.207.773-2.653 1.438 2.285-1.262-1.992.5.543-.95a48.77 48.77 0 0 0-4.05 1.664c-1.169.512-2.196.953-3.114 1.38-.922.402-1.722.812-2.523 1.05-.793.254-1.551.422-2.332.488-1.332.805.05.434 1.578-.058 1.543-.457 3.152-1.203 2.394-.805.7-.164.16.188-.808.66-.98.442-2.403.969-3.403 1.274-1.015.34-1.933.437-3.25.574-.656.078-1.41.18-2.316.355-.902.196-1.969.426-3.27.711.516-.117.54-.176 1.055-.285-.988.14-1.926.414-2.918.688-.5.136-1.008.273-1.554.394-.547.098-1.118.172-1.735.211-1.273.637-3.121.531-3.433 1.11l4.796-.973c-1.351.308-2.644.726-4.171 1.129-1.528.398-3.32.648-5.61.812.344-.148 1.684-.453 2.602-.648-.676.004-1.309.117-1.95.219-.644.113-1.296.222-1.992.183.086-.144.5-.223 1.114-.344a42.05 42.05 0 0 1 2.32-.351c.898-.125 1.871-.242 2.8-.399.923-.187 1.801-.394 2.516-.62-.722.003-2.078.382-3.101.562-1.02.183-1.684.273-.989-.098-1.007.488-2.32.633-3.8.774-1.496.078-3.164.136-4.946.546l.22-.324c-.563.11-1.735.285-2.786.297l1.875-.445c-2.898.402-5.61-.106-8.383-.047 2.91.078 3.242.164 3.145.281-.09.121-.61.29.632.367-.906.094-1.644.075-2.269.075a19.662 19.662 0 0 1-1.555-.075c-.851-.078-1.394-.199-1.96-.328-.567-.117-1.157-.308-2.106-.465-.95-.168-2.262-.289-4.266-.441 1.086.078 4.063.508 2.356.527-.762-.097-1.653-.183-2.453-.343-.805-.165-1.532-.325-1.989-.461-5.297-.614.774.414-1.507.316-1.754-.57-2.618-.254-4.958-.531l.04-.313a50.241 50.241 0 0 0-1.797-.351c-.461-.098-.797-.16-1.059-.2-.52-.074-.715-.035-.89.004-.356.078-.637.168-3.294-.566l2.364.098c-.934-.188-1.883-.328-2.813-.559.219-.062.434-.117.656-.187a37.429 37.429 0 0 1-3.496-.793c-.488-.137-.968-.286-1.515-.454-.54-.171-1.125-.418-1.848-.675.606.433-.55.414-3.125-.45-1.668-.808 1.059.11-2.527-1.242.433.067.898.13 1.43.285.265.079.546.184.859.313.308.125.648.281 1.02.48.195-.039.87.086 1.07.047-1.82-.781-4.64-1.781-5.934-2.277.488.21 1.078.457 1.367.617-.886-.27-1.777-.531-2.66-.824l-2.617-.942c-.75-.468-.078-.265.582-.07-.52-.215-.969-.37-1.48-.555-.512-.187-1.094-.382-1.829-.757.496-.04.504-.29 2.68.55-1.652-.605-3.242-1.351-4.855-2.066-.13-.129-.696-.508-1.149-.82-.457-.305-.77-.598-.457-.461-1.223-.801-2.84-1.567-4.543-2.438-.832-.468-1.695-.949-2.543-1.457-.844-.511-1.695-1.02-2.449-1.644-.195-.078-.547-.27-1.242-.719-.735-.54-1.434-1.078-2.137-1.613-.676-.567-1.352-1.13-2.043-1.711-.687-.578-1.422-1.137-2.176-1.735a49.233 49.233 0 0 0-2.41-1.882c-.508-.657-1.055-1.274-1.527-1.965-2.516-2.254 2.015 2.718-2.184-1.051-1.496-1.328-1.703-1.652-1.64-1.79.058-.128.367-.046-.07-.597-.766-.637-1.825-1.496-2.985-2.566-1.14-1.078-2.3-2.446-3.367-3.942.8.868 1.375 1.625 2.14 2.457M56.7 146.968c.164.372.418.923.637 1.462.25.527.457 1.035.477 1.347a3.252 3.252 0 0 1-.696-1.172c-.148-.44-.246-.968-.418-1.636M53.41 84.177c-.062.61-.305 1.515-.66 2.515.156-.746.344-1.605.66-2.515m140.754-77.02c-.031-.008-.059-.008-.09-.011-1.722-.711-1.11-.457.09.011m3.57 1.45c.375.105.364.05.227-.051-.277-.02-1.086-.344-1.996-.715.234.168.676.41 1.77.765M184.527 218.44l-.75.094c1.621-.469 1.184-.285.75-.094m0 0"/></g><path fill="#174441" d="M52.27 91.34c-.094.215-.165.265-.23.308-.005.329.054.348.23-.308M97.383 199.684l.101.078c.067.027.11.035.137.027ZM139.543 5.543c-.766.094-1.203.113-1.5.105-.027.079.332.086 1.5-.105M216.277 17.2c-.703-.438-1.445-.81-2.172-1.196 1.047.582 1.391.844 1.868 1.219-.008-.098-.352-.442.304-.024M232.05 31.629c.286.21.548.52.833.734l.031-.175c-1.11-1.047-1.953-1.692-.863-.56M217.64 19.313c.016.16.352.433.872.773.261.168.566.355.906.559.324.214.668.445 1.023.68-.082-.06-.16-.118-.246-.177.313-.003.078-.246-.43-.609-.511-.352-1.324-.785-2.124-1.227M220.773 21.555c.438.297.887.601 1.301.914.254-.004-.508-.403-1.3-.914M202.328 10.297c.723.402.606-.098.988.195.489.04-.804-.437-1.695-.703-.441-.144-.793-.203-.77-.148.036.043.438.226 1.477.656M218.336 20.785l-.336-.601-.95-.301ZM206.781 13.832l2.39 1.324c-.01-.062.313.067.704.235-1.488-.774-3.105-1.676-3.094-1.559M209.875 15.39c.773.419 1.488.848 1.941 1.036-.414-.223-1.293-.742-1.941-1.035M215.145 18.855c-.215-.164-.426-.332-.641-.488l-1.66-.98c.77.492 1.562.937 2.3 1.468M179.066 4.348l-2.949-.434c-.32.059.469.266 1.567.414.718.059 1.82.211 1.382.02M187.602 7.305c-.754-.285-.786-.367-1.192-.598l-.187.363ZM179.195 5.375c-.308.059-4.273-.434-.59.195.32-.078 3.239.418.59-.195M134.844 5.332l.734-.176-.238-.625ZM99.54 21.852c3.007-1.727.468-.805 3.23-2.301.316-.266-.274 0-.825.324-.562.313-1.113.633-.8.344-1.676 1.27-2.653 1.789-1.606 1.633M101.152 20.215c.27-.203.551-.422.852-.664-.496.363-.715.547-.852.664m0 0"/><g clip-path="url(#A)"><path fill="#174441" d="M268.422 117.844c.125-.762.156-1.528.226-2.293l-.257 1.472c.02.274.02.547.03.82m0 0"/></g><g clip-path="url(#B)"><path fill="#174441" d="m268.07 113.422.438-.531-.344-1.38c.004.516.012 1.524-.094 1.91m0 0"/></g><path fill="#174441" d="m55.64 140.805-.14-.137c-.016.367.121.867.387 1.875ZM67.605 168.371l-.273-.441.203 1.027ZM83.844 187.695c-.75-.71-1.645-1.523-2.34-2.289 1.566 1.594 2.215 2.809 2.34 2.29m0 0"/><path fill="#634e4e" d="M60.828 145.187c.227-.3.344-.601.344-.906l.016-8.187c-1.106-.008-1.664-.016-1.672-.016-.262 0-.496.102-.703.297a1.78 1.78 0 0 0-.453.703 8.435 8.435 0 0 0-.266.828 3.38 3.38 0 0 0-.125.781h-.297l.063-2.984c1.195.031 2.718.047 4.562.047 1.738 0 3.082-.016 4.031-.047l.047 2.984h-.328c-.094-1.707-.539-2.566-1.328-2.578l-1.875-.015.016 8.187c0 .375.101.68.312.906.156.2.594.305 1.313.313v.297h-4.922v-.297h.187c.57-.008.93-.113 1.078-.313M78.856 145.812l-2.907-.046v-.125c0-.395-.14-1.133-.421-2.22-.493-1.788-1.141-2.69-1.954-2.702l-1.078-.016.016 3.969c0 .168.008.305.031.406.02.094.07.188.156.281.083.086.208.125.375.125.47.012.704.024.704.032l-.016.296c-.594-.039-1.39-.062-2.39-.062-.794 0-1.403.016-1.829.047v-.266c.832 0 1.27-.125 1.313-.375.039-.164.062-.351.062-.562.051-1.07.078-2.43.078-4.078 0-2.446-.027-3.801-.078-4.063-.023-.113-.219-.21-.594-.297l-.562-.125v-.297c.625.024 1.367.032 2.234.032h1.328c.54-.008.883-.016 1.032-.016.406 0 .812.094 1.218.281.407.188.754.48 1.047.875.29.399.438.844.438 1.344 0 .543-.262 1.039-.781 1.484-.524.438-1.141.672-1.86.703.332.032.633.125.906.282.282.148.504.308.672.484.176.168.352.414.532.734.175.325.296.586.359.782l.312.828c.333.887.547 1.39.641 1.515.238.336.578.512 1.016.532Zm-4.578-9.64a4.407 4.407 0 0 0-.891-.078c-.313 0-.605.015-.875.047v4.171c.727.012 1.098.016 1.11.016.593 0 1.046-.207 1.359-.625.32-.414.484-.91.484-1.484 0-.489-.11-.93-.328-1.328-.21-.395-.496-.633-.86-.72M85.57 141.828a24.986 24.986 0 0 0-2.735-4.844c-.25-.343-.492-.57-.719-.687a5.304 5.304 0 0 0-.922-.313v-.234c.508.043 1.254.062 2.235.062 1.039 0 1.797-.02 2.265-.062v.328c-.593.055-.933.14-1.015.266-.055.105-.09.234-.11.39l-.03.188a72.085 72.085 0 0 0 2.218 4.031c1.55-2.758 2.332-4.219 2.344-4.375 0-.144-.125-.254-.375-.328l-.953-.266v-.234c.5.043 1.054.062 1.671.062.633 0 1.192-.02 1.672-.062v.328c-.437.024-.797.11-1.078.266a2.267 2.267 0 0 0-.375.36l-.25.25c-1.262 2.179-2.031 3.577-2.312 4.202 0 .406.02 1.762.062 4.063 0 .273.438.406 1.313.406v.297h-4.36v-.25h.172c.79 0 1.192-.125 1.203-.375.02-1.25.047-2.406.078-3.469M99.802 135.5c.395 0 .797.078 1.204.234.414.157.734.32.953.485.226.156.437.297.625.422.144-.07.273-.211.39-.422.125-.22.196-.438.219-.657h.406l-.047 3.313h-.5c-.304-1.945-1.402-2.922-3.296-2.922-1.118 0-1.977.39-2.579 1.172-.593.781-.89 2.094-.89 3.937 0 .805.11 1.543.328 2.22a3.761 3.761 0 0 0 1.078 1.671c.508.45 1.129.672 1.86.672.519 0 1.023-.113 1.515-.344.5-.226.883-.531 1.156-.906.032-.414.047-.848.047-1.297 0-.394-.015-.707-.047-.937-.418-.239-.918-.375-1.5-.407v-.36h4.266v.36c-.586.063-.961.2-1.125.407-.043.086-.063.554-.063 1.406 0 .71.008 1.469.032 2.281h-.282l-.078-.234c-.043-.176-.156-.352-.343-.532a.905.905 0 0 0-.657-.265c-.23.355-.633.672-1.203.953a4.05 4.05 0 0 1-1.734.406c-1.574 0-2.86-.46-3.86-1.39-1-.938-1.5-2.18-1.5-3.735 0-.812.114-1.547.344-2.203.238-.664.547-1.195.922-1.594a5.54 5.54 0 0 1 1.328-1 5.46 5.46 0 0 1 1.5-.578 7.655 7.655 0 0 1 1.531-.156M113.81 135.5c.395 0 .798.078 1.204.234.414.157.734.32.953.485.227.156.438.297.625.422.145-.07.274-.211.39-.422.126-.22.196-.438.22-.657h.406l-.047 3.313h-.5c-.305-1.945-1.402-2.922-3.297-2.922-1.117 0-1.977.39-2.578 1.172-.594.781-.89 2.094-.89 3.937 0 .805.109 1.543.327 2.22a3.761 3.761 0 0 0 1.079 1.671c.507.45 1.128.672 1.859.672.52 0 1.023-.113 1.516-.344.5-.226.882-.531 1.156-.906.031-.414.047-.848.047-1.297 0-.394-.016-.707-.047-.937-.418-.239-.918-.375-1.5-.407v-.36h4.265v.36c-.586.063-.96.2-1.125.407-.043.086-.062.554-.062 1.406 0 .71.008 1.469.031 2.281h-.281l-.078-.234c-.043-.176-.156-.352-.344-.532a.905.905 0 0 0-.656-.265c-.23.355-.633.672-1.203.953a4.05 4.05 0 0 1-1.735.406c-1.574 0-2.86-.46-3.86-1.39-1-.938-1.5-2.18-1.5-3.735 0-.812.114-1.547.345-2.203.238-.664.547-1.195.922-1.594a5.54 5.54 0 0 1 1.328-1 5.46 5.46 0 0 1 1.5-.578 7.655 7.655 0 0 1 1.53-.156M131.765 145.844a26.267 26.267 0 0 0-2.031-.063c-.824 0-1.578.02-2.266.063v-.25c.27 0 .55-.032.844-.094.3-.063.457-.156.469-.281.02-.25.047-1.117.078-2.61.039-1.5.062-2.804.062-3.922 0-1.332-.023-2.093-.062-2.28-.024-.114-.227-.212-.61-.298l-.562-.125v-.28c1.101.042 2.36.062 3.766.062 1.406 0 2.546-.02 3.421-.063l.047 2.328h-.297a5.205 5.205 0 0 0-.25-.781c-.105-.25-.289-.5-.546-.75a1.201 1.201 0 0 0-.875-.375h-2.516v4.36h2.203c.5 0 .77-.423.813-1.266h.359v2.875h-.297c-.055-.832-.36-1.25-.922-1.25h-2.156v3.89c0 .48.187.75.562.813.082.012.196.015.344.015l.422-.015v.203zM142.59 134.594c0-.164.05-.301.156-.407a.484.484 0 0 1 .344-.156c.144 0 .27.055.375.156a.511.511 0 0 1 .156.391.594.594 0 0 1-.156.406.445.445 0 0 1-.344.157.537.537 0 0 1-.531-.547m2.453 0c0-.164.047-.301.14-.407a.498.498 0 0 1 .36-.156c.133 0 .25.055.344.156a.511.511 0 0 1 .156.391.594.594 0 0 1-.156.406.425.425 0 0 1-.328.157.483.483 0 0 1-.36-.157.552.552 0 0 1-.156-.39m-.625 11.062c1 0 1.816-.457 2.453-1.375.633-.914.953-2.082.953-3.5 0-1.687-.312-2.969-.937-3.844-.617-.875-1.485-1.312-2.61-1.312-.53 0-1.011.078-1.437.234-.418.149-.82.399-1.203.75-.387.344-.684.875-.89 1.594-.212.711-.313 1.574-.313 2.594 0 .387.035.781.109 1.187.07.399.203.82.39 1.266.196.45.438.852.72 1.203.28.344.66.633 1.14.86.477.23 1.02.343 1.625.343m0-10.312c.375 0 .77.047 1.188.14.414.086.875.25 1.375.5.507.25.953.57 1.328.953.382.387.703.915.953 1.579.258.668.39 1.421.39 2.265 0 .824-.168 1.574-.5 2.25a4.783 4.783 0 0 1-1.265 1.64 6.11 6.11 0 0 1-1.703.97 5.257 5.257 0 0 1-1.797.328c-1.617 0-2.996-.457-4.14-1.375-1.15-.926-1.72-2.157-1.72-3.688 0-.875.125-1.644.375-2.312.25-.676.57-1.211.97-1.61a4.647 4.647 0 0 1 1.405-.984 6.644 6.644 0 0 1 1.563-.516 8.688 8.688 0 0 1 1.578-.14M162.57 145.812l-2.907-.046v-.125c0-.395-.14-1.133-.421-2.22-.493-1.788-1.141-2.69-1.954-2.702l-1.078-.016.016 3.969c0 .168.008.305.031.406.02.094.07.188.156.281.082.086.207.125.375.125.47.012.704.024.704.032l-.016.296c-.594-.039-1.39-.062-2.39-.062-.794 0-1.403.016-1.829.047v-.266c.832 0 1.27-.125 1.313-.375.039-.164.062-.351.062-.562.051-1.07.078-2.43.078-4.078 0-2.446-.027-3.801-.078-4.063-.023-.113-.219-.21-.594-.297l-.562-.125v-.297c.625.024 1.367.032 2.234.032h1.328c.54-.008.883-.016 1.032-.016.406 0 .812.094 1.218.281.407.188.754.48 1.047.875.29.399.438.844.438 1.344 0 .543-.262 1.039-.781 1.484-.524.438-1.141.672-1.86.703.332.032.633.125.906.282.282.148.504.308.672.484.176.168.352.414.532.734.175.325.296.586.359.782l.312.828c.332.887.547 1.39.641 1.515.238.336.578.512 1.016.532Zm-4.578-9.64a4.407 4.407 0 0 0-.891-.078c-.313 0-.606.015-.875.047v4.171c.727.012 1.098.016 1.11.016.593 0 1.046-.207 1.359-.625.32-.414.484-.91.484-1.484 0-.489-.11-.93-.328-1.328-.211-.395-.496-.633-.86-.72M168.627 144.687c0 .48.192.72.578.72 0 0 .688.007 2.063.015.375 0 .703-.207.984-.625.29-.414.469-.899.531-1.453h.344l-.25 2.484h-7.39v-.25l.375-.016c.25-.02.5-.066.75-.14.25-.082.378-.18.39-.297.05-.57.078-2.414.078-5.531 0-1.758-.011-2.82-.031-3.188-.012-.133-.234-.234-.672-.297l-.672-.125v-.28l4.11-.017v.25c-.75.055-1.137.211-1.157.47-.03 2.554-.046 4.089-.046 4.609v1.546c.007.762.015 1.47.015 2.125M182.821 145.656c1 0 1.816-.457 2.453-1.375.633-.914.953-2.082.953-3.5 0-1.687-.312-2.969-.937-3.844-.617-.875-1.485-1.312-2.61-1.312-.53 0-1.011.078-1.437.234-.418.149-.82.399-1.203.75-.387.344-.684.875-.89 1.594-.212.711-.313 1.574-.313 2.594 0 .387.035.781.11 1.187.07.399.202.82.39 1.266.195.45.437.852.718 1.203.282.344.66.633 1.141.86.477.23 1.02.343 1.625.343m0-10.312c.375 0 .77.047 1.188.14.414.086.875.25 1.375.5.507.25.953.57 1.328.953.383.387.703.915.953 1.579.258.668.39 1.421.39 2.265 0 .824-.168 1.574-.5 2.25a4.783 4.783 0 0 1-1.265 1.64 6.11 6.11 0 0 1-1.703.97 5.257 5.257 0 0 1-1.797.328c-1.617 0-2.996-.457-4.14-1.375-1.15-.926-1.72-2.157-1.72-3.688 0-.875.125-1.644.375-2.312.25-.676.57-1.211.97-1.61a4.647 4.647 0 0 1 1.405-.984 6.644 6.644 0 0 1 1.563-.516 8.688 8.688 0 0 1 1.578-.14M195.707 135.312c.82 0 1.52.309 2.094.922.27-.03.484-.254.64-.672h.22l-.048 3.11h-.297a10.605 10.605 0 0 0-.14-1.063 1.991 1.991 0 0 0-.344-.875c-.5-.738-1.219-1.11-2.156-1.11-.512 0-.945.2-1.297.595-.344.386-.516.789-.516 1.203 0 .449.211.87.641 1.265.426.399.988.72 1.687.97.977.366 1.766.835 2.36 1.405.594.563.89 1.2.89 1.907 0 .906-.304 1.64-.906 2.203-.594.562-1.59.844-2.984.844a3.94 3.94 0 0 1-.86-.094 2.753 2.753 0 0 1-.687-.235 9.34 9.34 0 0 1-.5-.296 2.617 2.617 0 0 1-.36-.25c-.218.093-.417.312-.593.656h-.344l.031-2.922h.328c.176.875.485 1.559.922 2.047.446.48 1.114.719 2 .719 1.5 0 2.25-.723 2.25-2.172 0-.938-.793-1.68-2.375-2.235-.855-.3-1.527-.726-2.015-1.28-.492-.552-.735-1.134-.735-1.75-.011-1.927 1.02-2.892 3.094-2.892M207.151 135.312c.82 0 1.52.309 2.094.922.27-.03.484-.254.64-.672h.22l-.048 3.11h-.297a10.605 10.605 0 0 0-.14-1.063 1.991 1.991 0 0 0-.344-.875c-.5-.738-1.219-1.11-2.156-1.11-.512 0-.946.2-1.297.595-.344.386-.516.789-.516 1.203 0 .449.211.87.64 1.265.427.399.99.72 1.688.97.977.366 1.766.835 2.36 1.405.594.563.89 1.2.89 1.907 0 .906-.304 1.64-.906 2.203-.594.562-1.59.844-2.984.844a3.94 3.94 0 0 1-.86-.094 2.753 2.753 0 0 1-.687-.235 9.34 9.34 0 0 1-.5-.296 2.617 2.617 0 0 1-.36-.25c-.218.093-.417.312-.593.656h-.344l.031-2.922h.328c.176.875.485 1.559.922 2.047.446.48 1.114.719 2 .719 1.5 0 2.25-.723 2.25-2.172 0-.938-.793-1.68-2.375-2.235-.855-.3-1.527-.726-2.015-1.28-.493-.552-.735-1.134-.735-1.75-.011-1.927 1.02-2.892 3.094-2.892M224.454 136.11a5.804 5.804 0 0 0-.5.062c-.187.023-.39.07-.609.14-.211.075-.313.168-.313.282-.023.355-.039 1.34-.046 2.953l.046 6.406h-.562l-3.063-4.172c-2.03-2.789-3.105-4.242-3.218-4.36-.012.907-.016 1.65-.016 2.22 0 .73.008 1.43.031 2.093a53.2 53.2 0 0 1 .047 2.453v.657c0 .437.188.656.563.656.601 0 .91.012.922.031v.281a30.194 30.194 0 0 0-1.782-.046c-.73 0-1.351.02-1.859.062v-.25h.094c.875 0 1.336-.125 1.39-.375.051-3.176.078-5.039.078-5.594 0-.82-.011-1.77-.03-2.843-.024-.125-.274-.286-.75-.485l-.72-.297v-.28l2.954.015c.632.875 1.671 2.258 3.109 4.14l2.203 2.813.016-6.078c-.012-.145-.149-.258-.407-.344a2.676 2.676 0 0 0-.906-.14h-.25l-.031-.376c.445.055 1.004.078 1.672.078.601 0 1.25-.02 1.937-.062ZM230.735 136.437c0 .012-.007.313-.015.907 0 .586-.008 1.32-.016 2.203v2.406c0 1.45.008 2.484.031 3.11.008.312.415.468 1.22.468l.015.25a54.355 54.355 0 0 0-1.266-.015c-1.156 0-2.14.02-2.953.062v-.25h.078c.781 0 1.196-.125 1.25-.375.051-.32.078-3.254.078-8.797 0-.113-.195-.21-.578-.297l-.594-.125v-.234c.5.043 1.145.062 1.938.062.82 0 1.46-.02 1.922-.062v.328c-.742.055-1.11.172-1.11.36M245.563 136.11a5.804 5.804 0 0 0-.5.062c-.187.023-.39.07-.61.14-.21.075-.312.168-.312.282-.023.355-.039 1.34-.047 2.953l.047 6.406h-.562l-3.063-4.172c-2.031-2.789-3.105-4.242-3.219-4.36-.011.907-.015 1.65-.015 2.22 0 .73.008 1.43.031 2.093a53.2 53.2 0 0 1 .047 2.453v.657c0 .437.187.656.562.656.602 0 .91.012.922.031v.281a30.194 30.194 0 0 0-1.781-.046c-.73 0-1.352.02-1.86.062v-.25h.094c.875 0 1.336-.125 1.391-.375.05-3.176.078-5.039.078-5.594 0-.82-.012-1.77-.031-2.843-.024-.125-.274-.286-.75-.485l-.719-.297v-.28l2.953.015c.633.875 1.672 2.258 3.11 4.14l2.203 2.813.015-6.078c-.011-.145-.148-.258-.406-.344a2.676 2.676 0 0 0-.906-.14h-.25l-.031-.376c.445.055 1.004.078 1.672.078.601 0 1.25-.02 1.937-.062ZM254.36 135.5c.394 0 .797.078 1.203.234.414.157.734.32.953.485.227.156.438.297.625.422.145-.07.273-.211.39-.422.126-.22.196-.438.22-.657h.406l-.047 3.313h-.5c-.305-1.945-1.403-2.922-3.297-2.922-1.117 0-1.977.39-2.578 1.172-.594.781-.89 2.094-.89 3.937 0 .805.109 1.543.327 2.22a3.761 3.761 0 0 0 1.078 1.671c.508.45 1.13.672 1.86.672.52 0 1.023-.113 1.515-.344.5-.226.883-.531 1.157-.906.03-.414.047-.848.047-1.297 0-.394-.016-.707-.047-.937-.418-.239-.918-.375-1.5-.407v-.36h4.265v.36c-.586.063-.96.2-1.125.407-.043.086-.062.554-.062 1.406 0 .71.008 1.469.031 2.281h-.281l-.078-.234c-.043-.176-.157-.352-.344-.532a.905.905 0 0 0-.656-.265c-.23.355-.633.672-1.203.953a4.05 4.05 0 0 1-1.735.406c-1.574 0-2.86-.46-3.86-1.39-1-.938-1.5-2.18-1.5-3.735 0-.812.114-1.547.345-2.203.238-.664.546-1.195.921-1.594a5.54 5.54 0 0 1 1.329-1 5.46 5.46 0 0 1 1.5-.578 7.655 7.655 0 0 1 1.53-.156m0 0"/></svg>