<svg xmlns="http://www.w3.org/2000/svg" xmlns:xlink="http://www.w3.org/1999/xlink" width="334" zoomAndPan="magnify" viewBox="0 0 250.5 178.499995" height="238" preserveAspectRatio="xMidYMid meet" version="1.0"><defs><g/><clipPath id="3a7c311802"><path d="M 55.511719 145 L 104 145 L 104 156 L 55.511719 156 Z M 55.511719 145 " clip-rule="nonzero"/></clipPath><clipPath id="bf2f8f670d"><path d="M 124 148 L 183.835938 148 L 183.835938 176 L 124 176 Z M 124 148 " clip-rule="nonzero"/></clipPath><clipPath id="7ea4709475"><path d="M 100 133.632812 L 174 133.632812 L 174 154 L 100 154 Z M 100 133.632812 " clip-rule="nonzero"/></clipPath><clipPath id="a73c743346"><path d="M 103 159 L 111 159 L 111 177.433594 L 103 177.433594 Z M 103 159 " clip-rule="nonzero"/></clipPath><clipPath id="5da8e5cf52"><path d="M 109 158 L 117 158 L 117 177.433594 L 109 177.433594 Z M 109 158 " clip-rule="nonzero"/></clipPath><clipPath id="c63fd699ac"><path d="M 84 40 L 105 40 L 105 52.59375 L 84 52.59375 Z M 84 40 " clip-rule="nonzero"/></clipPath><clipPath id="b778f39dff"><path d="M 80 36 L 108 36 L 108 52.59375 L 80 52.59375 Z M 80 36 " clip-rule="nonzero"/></clipPath><clipPath id="dc13cfdfe6"><path d="M 79 35 L 109.824219 35 L 109.824219 52.59375 L 79 52.59375 Z M 79 35 " clip-rule="nonzero"/></clipPath><clipPath id="3547b73b6c"><path d="M 86 42 L 102 42 L 102 52.59375 L 86 52.59375 Z M 86 42 " clip-rule="nonzero"/></clipPath><clipPath id="93abe92dd9"><path d="M 81 51.980469 L 109 51.980469 L 109 68 L 81 68 Z M 81 51.980469 " clip-rule="nonzero"/></clipPath><clipPath id="fcce7d44db"><path d="M 79.257812 51.980469 L 110.105469 51.980469 L 110.105469 69.871094 L 79.257812 69.871094 Z M 79.257812 51.980469 " clip-rule="nonzero"/></clipPath><clipPath id="a8c296763a"><path d="M 119 46 L 147 46 L 147 63 L 119 63 Z M 119 46 " clip-rule="nonzero"/></clipPath><clipPath id="c2c9576d8e"><path d="M 152.296875 69.871094 L 112.203125 69.035156 L 112.679688 46.210938 L 152.773438 47.046875 Z M 152.296875 69.871094 " clip-rule="nonzero"/></clipPath><clipPath id="29b716c90c"><path d="M 152.296875 69.871094 L 112.203125 69.035156 L 112.679688 46.210938 L 152.773438 47.046875 Z M 152.296875 69.871094 " clip-rule="nonzero"/></clipPath><clipPath id="8fa6827771"><path d="M 152.296875 69.871094 L 112.203125 69.035156 L 112.679688 46.210938 L 152.773438 47.046875 Z M 152.296875 69.871094 " clip-rule="nonzero"/></clipPath><clipPath id="2aebf76585"><path d="M 115 46 L 151 46 L 151 67 L 115 67 Z M 115 46 " clip-rule="nonzero"/></clipPath><clipPath id="5bd36ecfac"><path d="M 152.296875 69.871094 L 112.203125 69.035156 L 112.679688 46.210938 L 152.773438 47.046875 Z M 152.296875 69.871094 " clip-rule="nonzero"/></clipPath><clipPath id="0df6d01554"><path d="M 152.296875 69.871094 L 112.203125 69.035156 L 112.679688 46.210938 L 152.773438 47.046875 Z M 152.296875 69.871094 " clip-rule="nonzero"/></clipPath><clipPath id="99e776975a"><path d="M 152.296875 69.871094 L 112.203125 69.035156 L 112.679688 46.210938 L 152.773438 47.046875 Z M 152.296875 69.871094 " clip-rule="nonzero"/></clipPath><clipPath id="6a61dca48f"><path d="M 112 46 L 153 46 L 153 69 L 112 69 Z M 112 46 " clip-rule="nonzero"/></clipPath><clipPath id="c07b4df6c4"><path d="M 152.296875 69.871094 L 112.203125 69.035156 L 112.679688 46.210938 L 152.773438 47.046875 Z M 152.296875 69.871094 " clip-rule="nonzero"/></clipPath><clipPath id="bc6bee4e61"><path d="M 152.296875 69.871094 L 112.203125 69.035156 L 112.679688 46.210938 L 152.773438 47.046875 Z M 152.296875 69.871094 " clip-rule="nonzero"/></clipPath><clipPath id="fbecb455a6"><path d="M 152.296875 69.871094 L 112.203125 69.035156 L 112.679688 46.210938 L 152.773438 47.046875 Z M 152.296875 69.871094 " clip-rule="nonzero"/></clipPath><clipPath id="5738036d11"><path d="M 123 46 L 144 46 L 144 60 L 123 60 Z M 123 46 " clip-rule="nonzero"/></clipPath><clipPath id="0d209ea076"><path d="M 152.296875 69.871094 L 112.203125 69.035156 L 112.679688 46.210938 L 152.773438 47.046875 Z M 152.296875 69.871094 " clip-rule="nonzero"/></clipPath><clipPath id="028e1904e2"><path d="M 152.296875 69.871094 L 112.203125 69.035156 L 112.679688 46.210938 L 152.773438 47.046875 Z M 152.296875 69.871094 " clip-rule="nonzero"/></clipPath><clipPath id="aad5515f47"><path d="M 152.296875 69.871094 L 112.203125 69.035156 L 112.679688 46.210938 L 152.773438 47.046875 Z M 152.296875 69.871094 " clip-rule="nonzero"/></clipPath></defs><g clip-path="url(#3a7c311802)"><path fill="#634e4e" d="M 95.625 155.304688 C 95.386719 155.304688 95.1875 155.101562 95.1875 154.863281 C 95.1875 154.664062 95.304688 154.503906 95.484375 154.445312 C 95.683594 154.363281 95.863281 154.285156 96.042969 154.183594 C 97.039062 153.683594 98.910156 152.722656 101.519531 152.824219 C 101.976562 152.84375 102.296875 152.523438 102.316406 152.363281 C 102.316406 152.265625 102.136719 152.164062 101.859375 152.125 C 99.769531 151.746094 97.4375 151.046875 94.96875 150.304688 C 88.195312 148.265625 80.507812 145.96875 74.714844 149.585938 C 74.613281 149.644531 74.472656 149.664062 74.355469 149.644531 C 74.234375 149.605469 74.136719 149.527344 74.074219 149.40625 C 73.378906 147.984375 70.351562 146.886719 68.878906 146.605469 C 64.078125 145.707031 60.910156 145.925781 56.011719 146.726562 C 55.773438 146.765625 55.554688 146.585938 55.515625 146.347656 C 55.492188 146.105469 55.632812 145.90625 55.871094 145.847656 C 60.871094 145.027344 64.097656 144.808594 69.035156 145.726562 C 70.152344 145.925781 73.378906 146.886719 74.613281 148.585938 C 80.6875 145.066406 88.394531 147.386719 95.207031 149.425781 C 97.65625 150.164062 99.96875 150.84375 102 151.203125 C 102.953125 151.363281 103.234375 151.945312 103.195312 152.425781 C 103.113281 153.144531 102.335938 153.703125 101.480469 153.683594 C 99.089844 153.605469 97.417969 154.445312 96.421875 154.945312 C 96.203125 155.0625 95.964844 155.164062 95.746094 155.261719 C 95.726562 155.285156 95.664062 155.304688 95.625 155.304688 Z M 95.625 155.304688 " fill-opacity="1" fill-rule="nonzero"/></g><path fill="#634e4e" d="M 63.558594 168.019531 C 61.308594 168.039062 59.058594 167.757812 56.867188 167.21875 C 56.628906 167.160156 56.488281 166.917969 56.550781 166.679688 C 56.609375 166.4375 56.847656 166.300781 57.085938 166.359375 C 61.148438 167.398438 65.214844 167.199219 67.921875 166.839844 C 70.871094 166.4375 72.882812 165.800781 73.417969 165.519531 C 73.359375 165.339844 73.257812 165.058594 73.140625 164.800781 C 72.523438 163.261719 71.386719 160.421875 72.261719 157.324219 C 72.324219 157.082031 72.542969 156.921875 72.78125 156.984375 C 73.019531 157.042969 73.179688 157.261719 73.121094 157.503906 C 73.121094 157.523438 73.121094 157.542969 73.101562 157.5625 C 72.304688 160.363281 73.378906 163.039062 73.9375 164.460938 C 74.234375 165.21875 74.375 165.558594 74.253906 165.859375 C 73.9375 166.699219 69.792969 167.457031 68.359375 167.660156 C 66.785156 167.878906 65.171875 168 63.558594 168.019531 Z M 63.558594 168.019531 " fill-opacity="1" fill-rule="nonzero"/><path fill="#634e4e" d="M 97.496094 159.542969 C 95.746094 159.542969 93.992188 159.183594 91.78125 158.640625 C 91.542969 158.582031 91.402344 158.34375 91.460938 158.101562 C 91.523438 157.863281 91.761719 157.722656 92 157.78125 C 96.421875 158.863281 98.992188 159.183594 103.472656 157.222656 C 103.949219 157.023438 103.96875 156.761719 103.988281 156.664062 C 103.988281 156.34375 103.871094 156.042969 103.632812 155.84375 C 103.492188 155.785156 102.855469 155.84375 102.277344 155.882812 C 100.027344 156.082031 95.863281 156.441406 90.824219 153.542969 C 90.605469 153.425781 90.546875 153.144531 90.667969 152.945312 C 90.785156 152.746094 91.0625 152.664062 91.261719 152.785156 C 96.0625 155.542969 100.046875 155.203125 102.199219 155.003906 C 103.234375 154.921875 103.789062 154.863281 104.148438 155.144531 C 104.628906 155.542969 104.886719 156.164062 104.847656 156.78125 C 104.804688 157.164062 104.585938 157.703125 103.8125 158.042969 C 101.339844 159.101562 99.429688 159.542969 97.496094 159.542969 Z M 97.496094 159.542969 " fill-opacity="1" fill-rule="nonzero"/><path fill="#634e4e" d="M 97.597656 163.519531 C 96.125 163.519531 94.570312 163.242188 92.578125 162.582031 C 92.339844 162.5 92.21875 162.261719 92.300781 162.019531 C 92.378906 161.78125 92.617188 161.660156 92.855469 161.742188 C 97.398438 163.21875 99.507812 162.742188 103.949219 161.121094 C 104.546875 160.902344 105.246094 160.5 105.164062 159.902344 C 105.085938 159.34375 104.488281 158.902344 104.328125 158.882812 C 103.632812 158.820312 102.933594 158.902344 102.277344 159.140625 C 101.519531 159.363281 100.664062 159.601562 98.992188 159.421875 C 98.753906 159.402344 98.574219 159.183594 98.59375 158.921875 C 98.613281 158.683594 98.832031 158.503906 99.089844 158.523438 C 100.085938 158.664062 101.082031 158.582031 102.039062 158.28125 C 102.796875 158.023438 103.613281 157.921875 104.410156 158.003906 C 105.046875 158.042969 105.941406 158.863281 106.0625 159.78125 C 106.140625 160.320312 106 161.339844 104.269531 161.960938 C 101.601562 162.941406 99.6875 163.519531 97.597656 163.519531 Z M 97.597656 163.519531 " fill-opacity="1" fill-rule="nonzero"/><path fill="#634e4e" d="M 91.703125 168.238281 C 90.824219 168.238281 90.128906 168.21875 89.769531 168.21875 C 86.464844 168.136719 83.996094 167.640625 81.585938 167.160156 C 80.449219 166.9375 79.375 166.71875 78.199219 166.539062 C 77.78125 166.480469 77.382812 166.4375 77.003906 166.398438 C 75.648438 166.277344 74.355469 166.160156 73.160156 164.859375 C 73 164.660156 73.039062 164.378906 73.21875 164.238281 C 73.398438 164.101562 73.636719 164.121094 73.796875 164.261719 C 74.753906 165.300781 75.730469 165.398438 77.0625 165.519531 C 77.460938 165.558594 77.878906 165.597656 78.316406 165.660156 C 79.511719 165.839844 80.648438 166.058594 81.742188 166.300781 C 84.09375 166.777344 86.542969 167.257812 89.769531 167.339844 C 93.632812 167.4375 99.847656 167.21875 101.082031 166.160156 C 101.203125 166.058594 101.382812 165.898438 101.539062 165.757812 C 101.441406 165.757812 101.320312 165.757812 101.160156 165.757812 C 100.921875 165.738281 100.722656 165.539062 100.742188 165.28125 C 100.761719 165.058594 100.941406 164.878906 101.160156 164.859375 C 101.800781 164.839844 102.457031 164.878906 102.636719 165.359375 C 102.816406 165.839844 102.316406 166.300781 101.660156 166.839844 C 100.226562 168.058594 94.808594 168.238281 91.703125 168.238281 Z M 91.703125 168.238281 " fill-opacity="1" fill-rule="nonzero"/><path fill="#634e4e" d="M 96.300781 166.21875 C 95.148438 166.238281 93.992188 166.121094 92.855469 165.859375 C 92.617188 165.78125 92.5 165.519531 92.578125 165.300781 C 92.65625 165.078125 92.875 164.960938 93.097656 165 C 95.984375 165.800781 102.316406 165.101562 103.53125 163.839844 C 103.929688 163.421875 104.070312 163.019531 103.890625 162.71875 C 103.691406 162.441406 103.3125 162.320312 102.996094 162.421875 C 102.753906 162.5 102.515625 162.359375 102.4375 162.121094 C 102.355469 161.882812 102.496094 161.640625 102.734375 161.5625 C 102.753906 161.5625 102.753906 161.5625 102.773438 161.5625 C 103.492188 161.359375 104.269531 161.640625 104.667969 162.28125 C 105.046875 162.941406 104.867188 163.738281 104.1875 164.460938 C 103.113281 165.578125 99.449219 166.21875 96.300781 166.21875 Z M 96.300781 166.21875 " fill-opacity="1" fill-rule="nonzero"/><g clip-path="url(#bf2f8f670d)"><path fill="#634e4e" d="M 128.089844 175.777344 C 127.890625 175.777344 127.691406 175.753906 127.492188 175.734375 C 126.277344 175.554688 125.28125 174.796875 124.523438 173.496094 C 123.050781 170.9375 126.59375 166.679688 128.527344 165.019531 C 132.230469 161.820312 134.523438 159.160156 136.511719 156.804688 C 139.582031 153.203125 141.789062 150.605469 147.027344 148.945312 C 147.269531 148.867188 147.507812 149.003906 147.585938 149.246094 C 147.644531 149.464844 147.527344 149.726562 147.308594 149.785156 C 142.308594 151.386719 140.277344 153.765625 137.191406 157.382812 C 135.257812 159.640625 132.867188 162.441406 129.105469 165.679688 C 127.230469 167.300781 124.183594 171.117188 125.300781 173.035156 C 125.917969 174.117188 126.675781 174.695312 127.628906 174.835938 C 127.789062 174.855469 127.929688 174.875 128.089844 174.875 C 131.054688 174.875 135.097656 171.015625 138.085938 168.179688 C 138.523438 167.757812 138.964844 167.359375 139.359375 166.980469 C 145.59375 161.160156 146.789062 161.042969 151.769531 160.5 C 153.082031 160.363281 154.714844 160.179688 156.789062 159.839844 C 158.242188 159.601562 160.652344 158.183594 163.421875 156.542969 C 168.699219 153.402344 175.949219 149.105469 183.375 148.886719 C 183.613281 148.886719 183.8125 149.105469 183.8125 149.34375 C 183.8125 149.566406 183.636719 149.765625 183.414062 149.785156 C 176.207031 149.984375 169.078125 154.222656 163.878906 157.324219 C 160.910156 159.082031 158.558594 160.480469 156.925781 160.742188 C 154.835938 161.082031 153.203125 161.261719 151.867188 161.402344 C 146.988281 161.921875 145.972656 162.039062 139.957031 167.640625 C 139.558594 168 139.140625 168.417969 138.703125 168.839844 C 135.4375 171.9375 131.433594 175.777344 128.089844 175.777344 Z M 128.089844 175.777344 " fill-opacity="1" fill-rule="nonzero"/></g><g clip-path="url(#7ea4709475)"><path fill="#634e4e" d="M 101.261719 153.703125 C 101.023438 153.683594 100.824219 153.484375 100.84375 153.246094 C 100.863281 153.023438 101.023438 152.84375 101.261719 152.824219 C 108.152344 152.605469 114.464844 150.324219 120.582031 148.105469 C 125.320312 146.386719 130.199219 144.605469 135.257812 143.847656 C 138.34375 143.386719 141.035156 142.75 143.882812 142.066406 C 148.304688 141.027344 152.84375 139.949219 159.078125 139.488281 C 164.296875 139.109375 168.199219 136.871094 173.121094 133.710938 C 173.320312 133.570312 173.597656 133.632812 173.738281 133.851562 C 173.875 134.050781 173.816406 134.332031 173.597656 134.472656 C 168.558594 137.691406 164.574219 140.007812 159.136719 140.390625 C 152.984375 140.828125 148.441406 141.910156 144.082031 142.949219 C 141.214844 143.628906 138.503906 144.265625 135.378906 144.746094 C 130.398438 145.488281 125.558594 147.246094 120.859375 148.964844 C 114.683594 151.164062 108.292969 153.484375 101.261719 153.703125 Z M 101.261719 153.703125 " fill-opacity="1" fill-rule="nonzero"/></g><path fill="#634e4e" d="M 116.515625 168.699219 C 116.199219 168.699219 115.878906 168.617188 115.601562 168.457031 C 115.382812 168.359375 115.28125 168.078125 115.402344 167.859375 C 115.523438 167.640625 115.78125 167.539062 116 167.660156 C 116.019531 167.660156 116.019531 167.679688 116.039062 167.679688 C 116.339844 167.820312 116.675781 167.839844 116.976562 167.738281 C 117.492188 167.558594 117.929688 167.160156 118.171875 166.660156 C 118.726562 165.460938 119.007812 163.320312 119.246094 161.441406 C 119.40625 160.160156 119.566406 158.941406 119.804688 158.140625 C 119.882812 157.902344 120.140625 157.78125 120.359375 157.863281 C 120.582031 157.941406 120.699219 158.164062 120.660156 158.382812 C 120.460938 159.140625 120.300781 160.300781 120.140625 161.5625 C 119.882812 163.519531 119.605469 165.71875 118.988281 167.039062 C 118.648438 167.757812 118.03125 168.320312 117.273438 168.578125 C 116.996094 168.660156 116.757812 168.699219 116.515625 168.699219 Z M 116.515625 168.699219 " fill-opacity="1" fill-rule="nonzero"/><path fill="#634e4e" d="M 133.027344 159.660156 C 130.238281 159.660156 127.511719 159.0625 124.5625 157.824219 C 124.34375 157.722656 124.246094 157.441406 124.363281 157.222656 C 124.464844 157.023438 124.703125 156.921875 124.902344 157.003906 C 128.347656 158.441406 131.496094 158.980469 134.761719 158.683594 C 135 158.664062 135.21875 158.863281 135.238281 159.101562 C 135.257812 159.34375 135.078125 159.542969 134.839844 159.5625 C 134.222656 159.640625 133.625 159.660156 133.027344 159.660156 Z M 133.027344 159.660156 " fill-opacity="1" fill-rule="nonzero"/><path fill="#634e4e" d="M 137.449219 156.742188 L 137.390625 156.742188 C 135.199219 156.523438 131.832031 155.625 129.5625 153.84375 C 129.382812 153.683594 129.363281 153.402344 129.523438 153.222656 C 129.660156 153.042969 129.921875 153.023438 130.101562 153.144531 C 132.09375 154.703125 135.238281 155.625 137.46875 155.863281 C 137.707031 155.902344 137.886719 156.125 137.847656 156.363281 C 137.847656 156.5625 137.648438 156.742188 137.449219 156.742188 Z M 137.449219 156.742188 " fill-opacity="1" fill-rule="nonzero"/><path fill="#634e4e" d="M 105.625 159.863281 C 105.382812 159.863281 105.183594 159.660156 105.183594 159.402344 C 105.183594 159.183594 105.34375 159.003906 105.5625 158.960938 C 108.171875 158.5625 110.839844 158.382812 113.429688 158.222656 C 119.703125 157.800781 125.617188 157.421875 131.15625 154.222656 C 131.375 154.105469 131.632812 154.203125 131.753906 154.402344 C 131.851562 154.605469 131.792969 154.863281 131.59375 154.984375 C 125.878906 158.261719 119.585938 158.683594 113.488281 159.082031 C 110.921875 159.261719 108.273438 159.421875 105.703125 159.820312 Z M 105.625 159.863281 " fill-opacity="1" fill-rule="nonzero"/><path fill="#634e4e" d="M 103.035156 153.605469 C 102.996094 153.605469 102.972656 153.605469 102.933594 153.585938 C 102.695312 153.523438 102.535156 153.304688 102.597656 153.0625 C 103.113281 150.683594 105.960938 150.164062 108.230469 149.726562 C 108.628906 149.644531 108.988281 149.585938 109.328125 149.503906 C 110.859375 149.164062 112.671875 148.644531 114.765625 148.046875 C 119.84375 146.585938 126.175781 144.789062 133.386719 144.128906 C 133.625 144.109375 133.84375 144.265625 133.882812 144.507812 C 133.925781 144.746094 133.746094 144.96875 133.507812 145.007812 C 133.507812 145.007812 133.484375 145.007812 133.484375 145.007812 C 126.375 145.648438 120.082031 147.445312 115.042969 148.886719 C 112.933594 149.484375 111.121094 150.003906 109.546875 150.367188 C 109.1875 150.445312 108.828125 150.503906 108.429688 150.585938 C 106.398438 150.964844 103.890625 151.445312 103.492188 153.222656 C 103.414062 153.464844 103.234375 153.605469 103.035156 153.605469 Z M 103.035156 153.605469 " fill-opacity="1" fill-rule="nonzero"/><g clip-path="url(#a73c743346)"><path fill="#634e4e" d="M 106.917969 177.074219 C 106.578125 177.074219 106.242188 177.035156 105.921875 176.957031 C 105.761719 176.914062 105.644531 176.796875 105.601562 176.636719 C 104.945312 174.117188 104.566406 171.21875 104.210938 168.636719 C 104.011719 167.21875 103.832031 165.878906 103.632812 164.71875 C 103.589844 164.480469 103.75 164.238281 103.988281 164.199219 C 104.230469 164.160156 104.46875 164.320312 104.507812 164.558594 C 104.726562 165.738281 104.90625 167.078125 105.105469 168.519531 C 105.445312 170.976562 105.824219 173.738281 106.417969 176.136719 C 106.859375 176.195312 107.855469 176.253906 108.652344 175.636719 C 109.527344 174.957031 109.964844 173.65625 109.964844 171.777344 C 109.964844 171.539062 109.984375 171.257812 109.984375 170.957031 C 110.042969 169.476562 110.183594 166.757812 109.089844 159.523438 C 109.070312 159.28125 109.246094 159.0625 109.488281 159.042969 C 109.707031 159.023438 109.925781 159.160156 109.964844 159.402344 C 111.082031 166.71875 110.960938 169.519531 110.882812 171.015625 C 110.859375 171.316406 110.859375 171.578125 110.859375 171.796875 C 110.859375 173.976562 110.304688 175.515625 109.1875 176.375 C 108.492188 176.835938 107.714844 177.09375 106.917969 177.074219 Z M 106.917969 177.074219 " fill-opacity="1" fill-rule="nonzero"/></g><g clip-path="url(#5da8e5cf52)"><path fill="#634e4e" d="M 111.71875 177.433594 C 111.578125 177.433594 111.4375 177.375 111.359375 177.253906 C 110.78125 176.496094 110.484375 175.234375 110.222656 174.117188 C 110.125 173.738281 110.042969 173.375 109.964844 173.078125 C 109.886719 172.855469 109.984375 172.597656 110.222656 172.496094 C 110.441406 172.417969 110.703125 172.515625 110.800781 172.757812 C 110.800781 172.777344 110.820312 172.796875 110.820312 172.816406 C 110.921875 173.136719 111 173.515625 111.101562 173.917969 C 111.320312 174.796875 111.578125 175.875 111.957031 176.515625 C 113.171875 176.394531 114.007812 176.015625 114.546875 175.394531 C 115.640625 174.097656 115.421875 171.578125 115.144531 168.398438 C 114.902344 165.679688 114.605469 162.300781 115.0625 158.621094 C 115.082031 158.382812 115.300781 158.183594 115.542969 158.203125 C 115.78125 158.222656 115.980469 158.441406 115.960938 158.683594 C 115.960938 158.703125 115.960938 158.722656 115.960938 158.722656 C 115.523438 162.300781 115.800781 165.5 116.039062 168.320312 C 116.339844 171.695312 116.558594 174.375 115.222656 175.957031 C 114.503906 176.816406 113.371094 177.273438 111.777344 177.394531 Z M 111.71875 177.433594 " fill-opacity="1" fill-rule="nonzero"/></g><g fill="#634e4e" fill-opacity="1"><g transform="translate(83.33288, 105.849887)"><g><path d="M 7.875 -7.796875 L 7.28125 -7.125 C 7.226562 -6.28125 7.203125 -5.25 7.203125 -4.03125 C 7.203125 -3.269531 7.210938 -2.613281 7.234375 -2.0625 C 7.265625 -1.738281 7.398438 -1.472656 7.640625 -1.265625 C 7.847656 -1.054688 8.078125 -0.910156 8.328125 -0.828125 C 8.578125 -0.753906 9.148438 -0.691406 10.046875 -0.640625 L 10.046875 0 C 9.046875 -0.0820312 7.675781 -0.125 5.9375 -0.125 C 4.0625 -0.125 2.488281 -0.0820312 1.21875 0 L 1.21875 -0.640625 C 3.144531 -0.742188 4.109375 -1.019531 4.109375 -1.46875 C 4.191406 -3.914062 4.242188 -7.910156 4.265625 -13.453125 C 4.265625 -17.953125 4.210938 -21.484375 4.109375 -24.046875 C 3.796875 -24.523438 2.832031 -24.800781 1.21875 -24.875 L 1.21875 -25.515625 C 1.28125 -25.515625 1.347656 -25.515625 1.421875 -25.515625 C 2.847656 -25.515625 4.828125 -25.816406 7.359375 -26.421875 L 7.234375 -8.140625 L 11.234375 -12.703125 C 11.597656 -13.148438 11.78125 -13.570312 11.78125 -13.96875 C 11.78125 -14.414062 11.476562 -14.691406 10.875 -14.796875 C 10.875 -14.867188 10.878906 -15.003906 10.890625 -15.203125 C 10.910156 -15.398438 10.921875 -15.539062 10.921875 -15.625 L 17.5625 -15.625 L 17.5625 -14.875 C 15.375 -14.664062 13.84375 -14.140625 12.96875 -13.296875 L 9.8125 -9.40625 C 10.675781 -8.507812 11.566406 -7.523438 12.484375 -6.453125 C 13.410156 -5.390625 14.390625 -4.332031 15.421875 -3.28125 C 16.472656 -2.226562 17.304688 -1.492188 17.921875 -1.078125 C 18.546875 -0.671875 19.140625 -0.46875 19.703125 -0.46875 C 19.753906 -0.46875 19.816406 -0.46875 19.890625 -0.46875 L 19.890625 0.078125 L 14.4375 0.15625 C 14.125 -0.445312 13.550781 -1.253906 12.71875 -2.265625 C 11.882812 -3.285156 11.054688 -4.242188 10.234375 -5.140625 C 9.421875 -6.035156 8.632812 -6.921875 7.875 -7.796875 Z M 7.875 -7.796875 "/></g></g></g><g fill="#634e4e" fill-opacity="1"><g transform="translate(109.430076, 105.849887)"><g><path d="M 17.921875 -3.28125 L 18.515625 -2.921875 C 18.171875 -0.785156 16.90625 0.28125 14.71875 0.28125 C 13.820312 0.28125 13.148438 -0.015625 12.703125 -0.609375 C 12.253906 -1.203125 11.988281 -1.910156 11.90625 -2.734375 C 11.375 -2.117188 10.96875 -1.679688 10.6875 -1.421875 C 10.414062 -1.160156 9.894531 -0.796875 9.125 -0.328125 C 8.363281 0.128906 7.601562 0.359375 6.84375 0.359375 C 5.519531 0.359375 4.382812 -0.0078125 3.4375 -0.75 C 2.488281 -1.488281 2.015625 -2.660156 2.015625 -4.265625 C 2.015625 -4.984375 2.164062 -5.601562 2.46875 -6.125 C 2.769531 -6.65625 3.191406 -7.082031 3.734375 -7.40625 C 4.273438 -7.738281 4.820312 -8.007812 5.375 -8.21875 C 5.925781 -8.4375 6.570312 -8.585938 7.3125 -8.671875 C 8.050781 -8.765625 8.664062 -8.828125 9.15625 -8.859375 C 9.644531 -8.890625 10.1875 -8.910156 10.78125 -8.921875 C 11.375 -8.929688 11.695312 -8.9375 11.75 -8.9375 C 11.820312 -8.9375 11.859375 -9.910156 11.859375 -11.859375 C 11.859375 -14.367188 10.710938 -15.625 8.421875 -15.625 C 7.628906 -15.625 6.992188 -15.453125 6.515625 -15.109375 C 6.046875 -14.765625 5.757812 -14.351562 5.65625 -13.875 C 6.414062 -13.875 6.796875 -13.296875 6.796875 -12.140625 C 6.796875 -11.429688 6.554688 -10.925781 6.078125 -10.625 C 5.609375 -10.320312 5.148438 -10.171875 4.703125 -10.171875 C 4.203125 -10.171875 3.753906 -10.398438 3.359375 -10.859375 C 2.960938 -11.316406 2.765625 -11.820312 2.765625 -12.375 C 2.765625 -13.351562 3.382812 -14.304688 4.625 -15.234375 C 5.625 -15.992188 7.007812 -16.375 8.78125 -16.375 C 10.4375 -16.375 11.910156 -15.859375 13.203125 -14.828125 C 14.492188 -13.804688 15.140625 -12.410156 15.140625 -10.640625 C 15.140625 -9.765625 15.113281 -8.550781 15.0625 -7 C 15.007812 -5.445312 14.984375 -4.328125 14.984375 -3.640625 C 14.984375 -1.867188 15.394531 -1 16.21875 -1.03125 C 16.6875 -1.03125 17.039062 -1.203125 17.28125 -1.546875 C 17.519531 -1.890625 17.734375 -2.46875 17.921875 -3.28125 Z M 11.75 -3.71875 L 11.75 -8.390625 C 10.820312 -8.304688 9.96875 -8.21875 9.1875 -8.125 C 8.414062 -8.03125 7.753906 -7.882812 7.203125 -7.6875 C 6.648438 -7.488281 6.210938 -7.148438 5.890625 -6.671875 C 5.578125 -6.203125 5.421875 -5.546875 5.421875 -4.703125 C 5.421875 -3.566406 5.703125 -2.734375 6.265625 -2.203125 C 6.835938 -1.679688 7.554688 -1.421875 8.421875 -1.421875 C 9.796875 -1.421875 10.90625 -2.1875 11.75 -3.71875 Z M 11.75 -3.71875 "/></g></g></g><g fill="#634e4e" fill-opacity="1"><g transform="translate(132.917621, 105.849887)"><g><path d="M 7.796875 -11.546875 L 7.4375 -7.4375 L 7.46875 -2.65625 C 8.53125 -1.46875 9.957031 -0.875 11.75 -0.875 C 12.851562 -0.875 13.691406 -1.472656 14.265625 -2.671875 C 14.847656 -3.867188 15.140625 -5.535156 15.140625 -7.671875 C 15.140625 -9.835938 14.863281 -11.546875 14.3125 -12.796875 C 13.757812 -14.046875 12.984375 -14.671875 11.984375 -14.671875 C 10.210938 -14.671875 8.816406 -13.628906 7.796875 -11.546875 Z M 1.21875 -15.734375 C 3.28125 -15.734375 5.257812 -15.988281 7.15625 -16.5 L 7.71875 -12.859375 C 8.425781 -13.992188 9.175781 -14.875 9.96875 -15.5 C 10.757812 -16.132812 11.75 -16.453125 12.9375 -16.453125 C 14.644531 -16.453125 16.140625 -15.640625 17.421875 -14.015625 C 18.703125 -12.398438 19.34375 -10.523438 19.34375 -8.390625 C 19.34375 -6.066406 18.671875 -4.046875 17.328125 -2.328125 C 15.984375 -0.617188 14.046875 0.234375 11.515625 0.234375 C 9.953125 0.234375 8.59375 -0.367188 7.4375 -1.578125 L 7.46875 7.125 C 7.65625 7.40625 8.128906 7.640625 8.890625 7.828125 C 9.660156 8.015625 10.363281 8.109375 11 8.109375 L 10.921875 8.65625 C 9.597656 8.582031 7.921875 8.546875 5.890625 8.546875 C 3.859375 8.546875 2.332031 8.582031 1.3125 8.65625 L 1.3125 8.109375 C 3.15625 8.054688 4.078125 7.726562 4.078125 7.125 C 4.179688 3.976562 4.242188 -0.238281 4.265625 -5.53125 C 4.265625 -9.226562 4.226562 -12.15625 4.15625 -14.3125 C 3.070312 -14.8125 2.09375 -15.085938 1.21875 -15.140625 Z M 1.21875 -15.734375 "/></g></g></g><g fill="#634e4e" fill-opacity="1"><g transform="translate(158.500795, 105.849887)"><g><path d="M 5.96875 -9.171875 L 13.09375 -9.21875 C 13.113281 -9.664062 13.125 -10.085938 13.125 -10.484375 C 13.125 -11.296875 13.0625 -11.953125 12.9375 -12.453125 C 12.71875 -13.296875 12.285156 -13.988281 11.640625 -14.53125 C 10.992188 -15.070312 10.195312 -15.34375 9.25 -15.34375 C 8.28125 -15.34375 7.515625 -14.789062 6.953125 -13.6875 C 6.398438 -12.582031 6.070312 -11.078125 5.96875 -9.171875 Z M 5.9375 -8.578125 L 5.9375 -7.71875 C 5.9375 -5.8125 6.285156 -4.09375 6.984375 -2.5625 C 7.679688 -1.039062 8.6875 -0.28125 10 -0.28125 C 11.53125 -0.28125 12.742188 -0.726562 13.640625 -1.625 C 14.535156 -2.519531 15.15625 -3.457031 15.5 -4.4375 L 16.609375 -3.640625 C 16.210938 -2.640625 15.445312 -1.671875 14.3125 -0.734375 C 13.175781 0.203125 11.6875 0.671875 9.84375 0.671875 C 7.601562 0.671875 5.738281 -0.0234375 4.25 -1.421875 C 2.757812 -2.816406 2.015625 -4.847656 2.015625 -7.515625 C 2.015625 -9.066406 2.269531 -10.429688 2.78125 -11.609375 C 3.300781 -12.785156 3.988281 -13.679688 4.84375 -14.296875 C 5.695312 -14.921875 6.554688 -15.375 7.421875 -15.65625 C 8.296875 -15.945312 9.195312 -16.09375 10.125 -16.09375 C 11.550781 -16.09375 12.875 -15.707031 14.09375 -14.9375 C 15.320312 -14.175781 16.125 -12.941406 16.5 -11.234375 C 16.601562 -10.703125 16.65625 -10.175781 16.65625 -9.65625 C 16.65625 -9.363281 16.640625 -9.019531 16.609375 -8.625 Z M 5.9375 -8.578125 "/></g></g></g><g fill="#634e4e" fill-opacity="1"><g transform="translate(181.316157, 105.849887)"><g><path d="M 12.8125 -15.265625 L 8.625 -15.265625 C 8.625 -15.265625 8.625 -11.679688 8.625 -4.515625 C 8.625 -3.378906 8.800781 -2.46875 9.15625 -1.78125 C 9.507812 -1.09375 9.988281 -0.75 10.59375 -0.75 C 11.28125 -0.75 11.851562 -1.023438 12.3125 -1.578125 C 12.78125 -2.128906 13.210938 -2.960938 13.609375 -4.078125 L 14.46875 -3.640625 C 14.238281 -3.003906 14.03125 -2.515625 13.84375 -2.171875 C 13.65625 -1.828125 13.390625 -1.429688 13.046875 -0.984375 C 12.703125 -0.535156 12.28125 -0.210938 11.78125 -0.015625 C 11.28125 0.179688 10.675781 0.28125 9.96875 0.28125 C 8.382812 0.28125 7.195312 -0.164062 6.40625 -1.0625 C 6.039062 -1.457031 5.773438 -2.019531 5.609375 -2.75 C 5.453125 -3.476562 5.375 -4.539062 5.375 -5.9375 L 5.375 -15.265625 L 2.0625 -15.265625 L 2.0625 -15.78125 C 2.6875 -15.78125 3.453125 -15.957031 4.359375 -16.3125 C 5.273438 -16.664062 5.90625 -17.054688 6.25 -17.484375 C 6.59375 -17.929688 6.9375 -18.566406 7.28125 -19.390625 C 7.625 -20.222656 7.796875 -21.050781 7.796875 -21.875 L 8.703125 -21.875 C 8.597656 -21.03125 8.546875 -19.738281 8.546875 -18 C 8.546875 -17.8125 8.546875 -17.519531 8.546875 -17.125 C 8.546875 -16.726562 8.546875 -16.425781 8.546875 -16.21875 L 13.046875 -16.296875 Z M 12.8125 -15.265625 "/></g></g></g><g fill="#634e4e" fill-opacity="1"><g transform="translate(201.64049, 105.849887)"><g><path d="M 5.015625 -5.1875 C 5.703125 -5.1875 6.328125 -4.96875 6.890625 -4.53125 C 7.460938 -4.09375 7.75 -3.441406 7.75 -2.578125 C 7.75 -1.617188 7.488281 -0.921875 6.96875 -0.484375 C 6.457031 -0.0546875 5.804688 0.15625 5.015625 0.15625 C 4.359375 0.15625 3.757812 -0.117188 3.21875 -0.671875 C 2.675781 -1.222656 2.40625 -1.859375 2.40625 -2.578125 C 2.40625 -3.390625 2.679688 -4.023438 3.234375 -4.484375 C 3.796875 -4.953125 4.390625 -5.1875 5.015625 -5.1875 Z M 5.015625 -5.1875 "/></g></g></g><g clip-path="url(#c63fd699ac)"><path fill="#e88b22" d="M 104.445312 52.242188 C 104.140625 52.246094 103.839844 52.25 103.535156 52.257812 C 103.105469 50.09375 102.453125 47.96875 101.332031 46.074219 C 99.257812 42.566406 95.246094 39.585938 91.25 41.5 C 87.226562 43.425781 85.730469 48.410156 85.0625 52.550781 C 84.761719 52.554688 84.460938 52.558594 84.160156 52.5625 C 84.589844 49.808594 85.109375 47 86.546875 44.59375 C 87.65625 42.742188 89.289062 41.15625 91.339844 40.5 C 93.4375 39.828125 95.726562 40.230469 97.65625 41.238281 C 101.71875 43.355469 103.59375 47.863281 104.445312 52.242188 Z M 104.445312 52.242188 " fill-opacity="1" fill-rule="nonzero"/></g><g clip-path="url(#b778f39dff)"><path fill="#c55428" d="M 107.597656 52.199219 C 107.085938 52.207031 106.570312 52.210938 106.058594 52.21875 C 105.8125 49.226562 104.964844 46.277344 103.296875 43.792969 C 100.367188 39.425781 94.710938 36.84375 89.769531 39.203125 C 84.808594 41.574219 83.523438 47.496094 82.726562 52.578125 C 82.140625 52.582031 81.550781 52.582031 80.960938 52.585938 C 81.46875 49.269531 82.082031 45.890625 83.777344 42.96875 C 85.160156 40.589844 87.746094 38.21875 90.359375 37.40625 C 92.996094 36.585938 96.914062 36.972656 99.394531 38.164062 C 104.554688 40.640625 107.144531 46.566406 107.597656 52.199219 Z M 107.597656 52.199219 " fill-opacity="1" fill-rule="nonzero"/></g><g clip-path="url(#dc13cfdfe6)"><path fill="#174441" d="M 109.773438 52.179688 C 109.472656 52.183594 108.753906 52.1875 108.457031 52.191406 C 108.429688 48.804688 107.40625 45.496094 105.582031 42.65625 C 101.777344 36.742188 94.9375 34.703125 88.894531 37.117188 C 85.960938 38.292969 83.507812 40.523438 82.074219 43.40625 C 80.667969 46.238281 80.214844 49.449219 79.925781 52.589844 C 79.625 52.589844 79.328125 52.59375 79.03125 52.59375 C 79.378906 48.785156 79.972656 44.859375 82.054688 41.609375 C 83.851562 38.804688 86.671875 36.773438 89.796875 35.835938 C 92.984375 34.875 96.410156 35.148438 99.464844 36.460938 C 105.605469 39.105469 109.722656 45.480469 109.773438 52.179688 Z M 109.773438 52.179688 " fill-opacity="1" fill-rule="nonzero"/></g><g clip-path="url(#3547b73b6c)"><path fill="#fab7a4" d="M 101.777344 52.257812 C 101.472656 52.261719 100.71875 52.269531 100.414062 52.273438 C 100.097656 50.363281 99.628906 48.457031 98.660156 46.8125 C 97.84375 45.421875 97.261719 44.632812 95.800781 44.148438 C 94.339844 43.660156 92.898438 43.972656 91.582031 44.777344 C 88.898438 46.425781 87.988281 49.292969 87.796875 52.519531 C 87.488281 52.523438 86.644531 52.527344 86.339844 52.535156 C 86.441406 50.570312 86.851562 48.617188 87.738281 46.898438 C 89.402344 43.675781 93.035156 41.496094 96.347656 42.945312 C 99.800781 44.460938 101.167969 48.511719 101.777344 52.257812 Z M 101.777344 52.257812 " fill-opacity="1" fill-rule="nonzero"/></g><path fill="#e88b22" d="M 84.636719 52.332031 C 84.941406 52.328125 85.242188 52.320312 85.546875 52.316406 C 85.976562 54.476562 86.628906 56.605469 87.75 58.5 C 89.824219 62.007812 93.835938 64.984375 97.832031 63.074219 C 101.855469 61.148438 103.355469 56.164062 104.019531 52.019531 C 104.320312 52.019531 104.621094 52.015625 104.925781 52.011719 C 104.496094 54.765625 103.972656 57.574219 102.535156 59.976562 C 101.425781 61.828125 99.792969 63.414062 97.742188 64.074219 C 95.644531 64.746094 93.355469 64.339844 91.425781 63.335938 C 87.367188 61.21875 85.488281 56.710938 84.636719 52.332031 Z M 84.636719 52.332031 " fill-opacity="1" fill-rule="nonzero"/><g clip-path="url(#93abe92dd9)"><path fill="#c55428" d="M 81.484375 52.375 C 81.996094 52.367188 82.511719 52.363281 83.027344 52.355469 C 83.269531 55.34375 84.117188 58.292969 85.785156 60.78125 C 88.714844 65.148438 94.371094 67.730469 99.3125 65.371094 C 104.273438 63 105.558594 57.078125 106.355469 51.996094 C 106.941406 51.992188 107.53125 51.988281 108.121094 51.988281 C 107.613281 55.304688 107 58.683594 105.304688 61.605469 C 103.921875 63.984375 101.335938 66.355469 98.722656 67.167969 C 96.085938 67.988281 92.167969 67.601562 89.6875 66.410156 C 84.527344 63.933594 81.9375 58.007812 81.484375 52.375 Z M 81.484375 52.375 " fill-opacity="1" fill-rule="nonzero"/></g><g clip-path="url(#fcce7d44db)"><path fill="#174441" d="M 79.308594 52.394531 C 79.609375 52.390625 80.328125 52.386719 80.625 52.382812 C 80.652344 55.765625 81.675781 59.078125 83.5 61.917969 C 87.304688 67.828125 94.144531 69.871094 100.1875 67.453125 C 103.121094 66.28125 105.574219 64.050781 107.007812 61.167969 C 108.414062 58.332031 108.867188 55.125 109.15625 51.980469 C 109.457031 51.980469 109.753906 51.980469 110.050781 51.976562 C 109.703125 55.789062 109.109375 59.714844 107.027344 62.960938 C 105.230469 65.765625 102.410156 67.796875 99.285156 68.738281 C 96.097656 69.695312 92.671875 69.425781 89.617188 68.109375 C 83.476562 65.46875 79.359375 59.09375 79.308594 52.394531 Z M 79.308594 52.394531 " fill-opacity="1" fill-rule="nonzero"/></g><path fill="#fab7a4" d="M 87.304688 52.316406 C 87.609375 52.308594 88.363281 52.304688 88.671875 52.296875 C 88.984375 54.210938 89.453125 56.117188 90.421875 57.761719 C 91.238281 59.152344 91.824219 59.9375 93.28125 60.425781 C 94.742188 60.910156 96.183594 60.601562 97.5 59.792969 C 100.183594 58.148438 101.09375 55.28125 101.285156 52.050781 C 101.59375 52.046875 102.4375 52.042969 102.746094 52.039062 C 102.640625 54 102.230469 55.957031 101.34375 57.671875 C 99.679688 60.894531 96.046875 63.078125 92.734375 61.625 C 89.28125 60.109375 87.914062 56.058594 87.304688 52.316406 Z M 87.304688 52.316406 " fill-opacity="1" fill-rule="nonzero"/><g clip-path="url(#a8c296763a)"><g clip-path="url(#c2c9576d8e)"><g clip-path="url(#29b716c90c)"><g clip-path="url(#8fa6827771)"><path fill="#e88b22" d="M 119.664062 46.804688 C 120.054688 46.804688 120.449219 46.808594 120.84375 46.8125 C 121.34375 49.578125 122.136719 52.308594 123.542969 54.753906 C 126.148438 59.285156 131.285156 63.195312 136.527344 60.863281 C 141.804688 58.515625 143.886719 52.199219 144.863281 46.933594 C 145.253906 46.9375 145.648438 46.941406 146.039062 46.945312 C 145.40625 50.445312 144.652344 54.015625 142.722656 57.042969 C 141.230469 59.375 139.066406 61.351562 136.382812 62.136719 C 133.640625 62.9375 130.675781 62.359375 128.195312 61.023438 C 122.972656 58.214844 120.652344 52.414062 119.664062 46.804688 Z M 119.664062 46.804688 " fill-opacity="1" fill-rule="nonzero"/></g></g></g></g><g clip-path="url(#2aebf76585)"><g clip-path="url(#5bd36ecfac)"><g clip-path="url(#0df6d01554)"><g clip-path="url(#99e776975a)"><path fill="#c55428" d="M 115.5625 46.773438 C 116.230469 46.777344 116.898438 46.789062 117.566406 46.792969 C 117.800781 50.609375 118.828125 54.398438 120.929688 57.613281 C 124.625 63.261719 131.90625 66.710938 138.390625 63.832031 C 144.902344 60.945312 146.730469 53.425781 147.898438 46.964844 C 148.664062 46.976562 149.429688 46.988281 150.195312 47 C 149.445312 51.21875 148.5625 55.511719 146.28125 59.191406 C 144.417969 62.191406 140.996094 65.144531 137.578125 66.113281 C 134.128906 67.085938 129.042969 66.484375 125.851562 64.898438 C 119.210938 61.601562 116 53.972656 115.5625 46.773438 Z M 115.5625 46.773438 " fill-opacity="1" fill-rule="nonzero"/></g></g></g></g><g clip-path="url(#6a61dca48f)"><g clip-path="url(#c07b4df6c4)"><g clip-path="url(#bc6bee4e61)"><g clip-path="url(#fbecb455a6)"><path fill="#174441" d="M 112.734375 46.738281 C 113.125 46.742188 114.058594 46.757812 114.445312 46.761719 C 114.390625 51.078125 115.632812 55.328125 117.929688 59 C 122.714844 66.644531 131.550781 69.433594 139.472656 66.515625 C 143.320312 65.097656 146.566406 62.320312 148.503906 58.679688 C 150.40625 55.105469 151.085938 51.023438 151.542969 47.023438 C 151.929688 47.03125 152.320312 47.035156 152.707031 47.042969 C 152.148438 51.890625 151.273438 56.886719 148.484375 60.972656 C 146.074219 64.5 142.351562 67.015625 138.265625 68.128906 C 134.097656 69.265625 129.652344 68.828125 125.71875 67.066406 C 117.804688 63.527344 112.621094 55.285156 112.734375 46.738281 Z M 112.734375 46.738281 " fill-opacity="1" fill-rule="nonzero"/></g></g></g></g><g clip-path="url(#5738036d11)"><g clip-path="url(#0d209ea076)"><g clip-path="url(#028e1904e2)"><g clip-path="url(#aad5515f47)"><path fill="#fab7a4" d="M 123.128906 46.855469 C 123.527344 46.859375 124.503906 46.871094 124.90625 46.871094 C 125.261719 49.320312 125.824219 51.765625 127.035156 53.886719 C 128.0625 55.683594 128.800781 56.703125 130.683594 57.363281 C 132.570312 58.023438 134.453125 57.667969 136.183594 56.671875 C 139.714844 54.644531 140.972656 51.011719 141.308594 46.898438 C 141.710938 46.902344 142.804688 46.917969 143.207031 46.921875 C 143.019531 49.421875 142.433594 51.902344 141.234375 54.070312 C 138.988281 58.136719 134.207031 60.824219 129.941406 58.878906 C 125.492188 56.855469 123.820312 51.648438 123.128906 46.855469 Z M 123.128906 46.855469 " fill-opacity="1" fill-rule="nonzero"/></g></g></g></g><g fill="#634e4e" fill-opacity="1"><g transform="translate(39.539436, 67.695304)"><g><path d="M 35.671875 -16.625 C 35.671875 -14.601562 35.300781 -12.628906 34.5625 -10.703125 C 33.832031 -8.773438 32.753906 -6.976562 31.328125 -5.3125 C 29.910156 -3.644531 28.003906 -2.3125 25.609375 -1.3125 C 23.210938 -0.320312 20.476562 0.171875 17.40625 0.171875 C 17.144531 0.171875 16.382812 0.160156 15.125 0.140625 C 13.875 0.117188 12.144531 0.0976562 9.9375 0.078125 C 7.726562 0.0664062 5.332031 0.0625 2.75 0.0625 L 2.75 -0.84375 C 5.78125 -1.101562 7.425781 -1.960938 7.6875 -3.421875 L 7.6875 -31.734375 C 7.65625 -32.222656 7.523438 -32.644531 7.296875 -33 C 7.078125 -33.351562 6.691406 -33.613281 6.140625 -33.78125 C 5.597656 -33.945312 5.207031 -34.054688 4.96875 -34.109375 C 4.726562 -34.171875 4.234375 -34.238281 3.484375 -34.3125 L 3.484375 -35.328125 C 5.691406 -35.328125 8.570312 -35.34375 12.125 -35.375 C 15.6875 -35.414062 17.9375 -35.4375 18.875 -35.4375 C 20.707031 -35.4375 22.539062 -35.109375 24.375 -34.453125 C 26.207031 -33.796875 28.003906 -32.785156 29.765625 -31.421875 C 31.523438 -30.054688 32.945312 -28.09375 34.03125 -25.53125 C 35.125 -22.96875 35.671875 -20 35.671875 -16.625 Z M 29.546875 -16.28125 C 29.546875 -16.394531 29.546875 -16.507812 29.546875 -16.625 C 29.546875 -19.582031 29.367188 -22.050781 29.015625 -24.03125 C 28.660156 -26.019531 28.015625 -27.789062 27.078125 -29.34375 C 26.140625 -30.894531 24.816406 -32.035156 23.109375 -32.765625 C 21.410156 -33.503906 19.269531 -33.875 16.6875 -33.875 C 15.5625 -33.875 14.378906 -33.816406 13.140625 -33.703125 C 13.140625 -32.722656 13.140625 -31.035156 13.140625 -28.640625 C 13.140625 -26.585938 13.140625 -23.066406 13.140625 -18.078125 C 13.140625 -13.097656 13.140625 -9.726562 13.140625 -7.96875 C 13.140625 -5.800781 13.140625 -4.414062 13.140625 -3.8125 C 13.140625 -3.101562 13.429688 -2.457031 14.015625 -1.875 C 14.597656 -1.300781 15.335938 -1.015625 16.234375 -1.015625 C 18.960938 -1.015625 21.195312 -1.296875 22.9375 -1.859375 C 24.6875 -2.421875 26.035156 -3.363281 26.984375 -4.6875 C 27.941406 -6.019531 28.597656 -7.570312 28.953125 -9.34375 C 29.304688 -11.125 29.503906 -13.4375 29.546875 -16.28125 Z M 29.546875 -16.28125 "/></g></g></g><g fill="#634e4e" fill-opacity="1"><g transform="translate(151.156464, 67.130084)"><g><path d="M 11.71875 -39.453125 C 11.550781 -35.609375 11.445312 -31.285156 11.40625 -26.484375 C 11.40625 -24.566406 11.4375 -20.972656 11.5 -15.703125 C 11.5625 -10.441406 11.59375 -5.945312 11.59375 -2.21875 C 11.675781 -1.820312 12.21875 -1.519531 13.21875 -1.3125 C 14.21875 -1.113281 15.054688 -1 15.734375 -0.96875 L 15.734375 0 C 13.972656 -0.195312 11.867188 -0.296875 9.421875 -0.296875 C 6.585938 -0.296875 4.269531 -0.195312 2.46875 0 L 2.46875 -0.96875 C 5.101562 -1.082031 6.460938 -1.5 6.546875 -2.21875 C 6.671875 -6.019531 6.734375 -11.285156 6.734375 -18.015625 C 6.734375 -25.179688 6.671875 -31.148438 6.546875 -35.921875 C 5.546875 -36.710938 4.1875 -37.109375 2.46875 -37.109375 L 2.46875 -38.140625 C 4.582031 -38.253906 7.664062 -38.691406 11.71875 -39.453125 Z M 11.71875 -39.453125 "/></g></g></g><g fill="#634e4e" fill-opacity="1"><g transform="translate(175.117726, 67.130084)"><g><path d="M 27.203125 -4.984375 L 28.109375 -4.4375 C 27.585938 -1.195312 25.664062 0.421875 22.34375 0.421875 C 20.976562 0.421875 19.957031 -0.0234375 19.28125 -0.921875 C 18.601562 -1.828125 18.203125 -2.898438 18.078125 -4.140625 C 17.273438 -3.222656 16.660156 -2.5625 16.234375 -2.15625 C 15.816406 -1.757812 15.023438 -1.207031 13.859375 -0.5 C 12.703125 0.195312 11.546875 0.546875 10.390625 0.546875 C 8.390625 0.546875 6.664062 -0.015625 5.21875 -1.140625 C 3.78125 -2.265625 3.0625 -4.046875 3.0625 -6.484375 C 3.0625 -7.566406 3.289062 -8.507812 3.75 -9.3125 C 4.207031 -10.113281 4.847656 -10.765625 5.671875 -11.265625 C 6.492188 -11.765625 7.320312 -12.171875 8.15625 -12.484375 C 9 -12.804688 9.984375 -13.035156 11.109375 -13.171875 C 12.234375 -13.316406 13.164062 -13.410156 13.90625 -13.453125 C 14.644531 -13.492188 15.460938 -13.523438 16.359375 -13.546875 C 17.265625 -13.566406 17.757812 -13.578125 17.84375 -13.578125 C 17.957031 -13.578125 18.015625 -15.054688 18.015625 -18.015625 C 18.015625 -21.816406 16.273438 -23.71875 12.796875 -23.71875 C 11.585938 -23.71875 10.625 -23.457031 9.90625 -22.9375 C 9.1875 -22.414062 8.75 -21.796875 8.59375 -21.078125 C 9.75 -21.078125 10.328125 -20.195312 10.328125 -18.4375 C 10.328125 -17.351562 9.96875 -16.582031 9.25 -16.125 C 8.53125 -15.664062 7.828125 -15.4375 7.140625 -15.4375 C 6.378906 -15.4375 5.695312 -15.785156 5.09375 -16.484375 C 4.5 -17.179688 4.203125 -17.953125 4.203125 -18.796875 C 4.203125 -20.273438 5.144531 -21.71875 7.03125 -23.125 C 8.550781 -24.28125 10.648438 -24.859375 13.328125 -24.859375 C 15.847656 -24.859375 18.085938 -24.078125 20.046875 -22.515625 C 22.015625 -20.960938 23 -18.84375 23 -16.15625 C 23 -14.832031 22.957031 -12.988281 22.875 -10.625 C 22.800781 -8.269531 22.765625 -6.570312 22.765625 -5.53125 C 22.765625 -2.84375 23.382812 -1.519531 24.625 -1.5625 C 25.34375 -1.5625 25.878906 -1.820312 26.234375 -2.34375 C 26.597656 -2.863281 26.921875 -3.742188 27.203125 -4.984375 Z M 17.84375 -5.640625 L 17.84375 -12.734375 C 16.4375 -12.609375 15.140625 -12.472656 13.953125 -12.328125 C 12.773438 -12.191406 11.765625 -11.972656 10.921875 -11.671875 C 10.085938 -11.378906 9.429688 -10.867188 8.953125 -10.140625 C 8.472656 -9.421875 8.234375 -8.421875 8.234375 -7.140625 C 8.234375 -5.421875 8.660156 -4.160156 9.515625 -3.359375 C 10.378906 -2.554688 11.472656 -2.15625 12.796875 -2.15625 C 14.878906 -2.15625 16.5625 -3.316406 17.84375 -5.640625 Z M 17.84375 -5.640625 "/></g></g></g><g fill="#634e4e" fill-opacity="1"><g transform="translate(43.092931, 110.587537)"><g><path d="M 18.125 -39.3125 C 21.21875 -39.3125 23.847656 -38.171875 26.015625 -35.890625 C 27.015625 -36.003906 27.816406 -36.847656 28.421875 -38.421875 L 29.265625 -38.421875 L 29.078125 -26.734375 C 29.078125 -26.734375 28.695312 -26.734375 27.9375 -26.734375 C 27.8125 -28.140625 27.648438 -29.472656 27.453125 -30.734375 C 27.253906 -32.003906 26.8125 -33.097656 26.125 -34.015625 C 24.238281 -36.785156 21.53125 -38.171875 18 -38.171875 C 16.113281 -38.171875 14.507812 -37.4375 13.1875 -35.96875 C 11.863281 -34.507812 11.203125 -33 11.203125 -31.4375 C 11.203125 -29.75 12.003906 -28.160156 13.609375 -26.671875 C 15.210938 -25.191406 17.335938 -23.96875 19.984375 -23 C 23.640625 -21.632812 26.582031 -19.890625 28.8125 -17.765625 C 31.039062 -15.640625 32.15625 -13.25 32.15625 -10.59375 C 32.15625 -7.1875 31.03125 -4.414062 28.78125 -2.28125 C 26.53125 -0.15625 22.796875 0.90625 17.578125 0.90625 C 16.453125 0.90625 15.367188 0.785156 14.328125 0.546875 C 13.285156 0.304688 12.429688 0.00390625 11.765625 -0.359375 C 11.109375 -0.722656 10.46875 -1.09375 9.84375 -1.46875 C 9.21875 -1.851562 8.765625 -2.164062 8.484375 -2.40625 C 7.679688 -2.039062 6.941406 -1.21875 6.265625 0.0625 L 5 0.0625 L 5.125 -10.890625 L 6.328125 -10.890625 C 7.003906 -7.597656 8.175781 -5.050781 9.84375 -3.25 C 11.507812 -1.445312 14.007812 -0.546875 17.34375 -0.546875 C 22.957031 -0.546875 25.765625 -3.253906 25.765625 -8.671875 C 25.765625 -12.203125 22.796875 -15.007812 16.859375 -17.09375 C 13.648438 -18.21875 11.117188 -19.8125 9.265625 -21.875 C 7.421875 -23.945312 6.5 -26.148438 6.5 -28.484375 C 6.457031 -35.703125 10.332031 -39.3125 18.125 -39.3125 Z M 18.125 -39.3125 "/></g></g></g><g fill="#634e4e" fill-opacity="1"><g transform="translate(20.831609, 132.498768)"><g><path d="M 3.71875 -0.59375 C 3.957031 -0.894531 4.078125 -1.195312 4.078125 -1.5 L 4.09375 -9.703125 C 2.976562 -9.710938 2.414062 -9.71875 2.40625 -9.71875 C 2.144531 -9.71875 1.910156 -9.617188 1.703125 -9.421875 C 1.503906 -9.234375 1.351562 -9 1.25 -8.71875 C 1.144531 -8.4375 1.054688 -8.15625 0.984375 -7.875 C 0.910156 -7.601562 0.867188 -7.347656 0.859375 -7.109375 L 0.5625 -7.109375 L 0.625 -10.09375 C 1.820312 -10.0625 3.347656 -10.046875 5.203125 -10.046875 C 6.941406 -10.046875 8.28125 -10.0625 9.21875 -10.09375 L 9.265625 -7.109375 L 8.953125 -7.109375 C 8.847656 -8.816406 8.40625 -9.675781 7.625 -9.6875 L 5.734375 -9.703125 L 5.75 -1.5 C 5.75 -1.132812 5.851562 -0.832031 6.0625 -0.59375 C 6.21875 -0.40625 6.65625 -0.300781 7.375 -0.28125 L 7.375 0.015625 L 2.453125 0.015625 L 2.453125 -0.28125 C 2.472656 -0.28125 2.503906 -0.28125 2.546875 -0.28125 C 2.585938 -0.28125 2.617188 -0.28125 2.640625 -0.28125 C 3.210938 -0.300781 3.570312 -0.40625 3.71875 -0.59375 Z M 3.71875 -0.59375 "/></g></g></g><g fill="#634e4e" fill-opacity="1"><g transform="translate(32.489715, 132.498768)"><g><path d="M 10.109375 0.03125 L 7.203125 -0.015625 C 7.203125 -0.0546875 7.203125 -0.0976562 7.203125 -0.140625 C 7.203125 -0.535156 7.054688 -1.273438 6.765625 -2.359375 C 6.273438 -4.148438 5.625 -5.050781 4.8125 -5.0625 L 3.734375 -5.078125 L 3.75 -1.109375 C 3.75 -0.941406 3.757812 -0.804688 3.78125 -0.703125 C 3.800781 -0.609375 3.851562 -0.519531 3.9375 -0.4375 C 4.03125 -0.351562 4.15625 -0.3125 4.3125 -0.3125 C 4.78125 -0.289062 5.015625 -0.273438 5.015625 -0.265625 L 5 0.03125 C 4.40625 -0.0078125 3.609375 -0.03125 2.609375 -0.03125 C 1.816406 -0.03125 1.207031 -0.015625 0.78125 0.015625 L 0.78125 -0.25 C 1.613281 -0.25 2.050781 -0.375 2.09375 -0.625 C 2.144531 -0.789062 2.171875 -0.976562 2.171875 -1.1875 C 2.210938 -2.269531 2.234375 -3.632812 2.234375 -5.28125 C 2.234375 -7.726562 2.210938 -9.078125 2.171875 -9.328125 C 2.148438 -9.453125 1.953125 -9.554688 1.578125 -9.640625 L 1 -9.765625 L 1 -10.0625 C 1.625 -10.03125 2.367188 -10.015625 3.234375 -10.015625 C 3.585938 -10.015625 4.03125 -10.019531 4.5625 -10.03125 C 5.101562 -10.039062 5.445312 -10.046875 5.59375 -10.046875 C 6 -10.046875 6.40625 -9.953125 6.8125 -9.765625 C 7.21875 -9.578125 7.566406 -9.285156 7.859375 -8.890625 C 8.160156 -8.492188 8.3125 -8.039062 8.3125 -7.53125 C 8.3125 -6.988281 8.046875 -6.492188 7.515625 -6.046875 C 6.992188 -5.609375 6.375 -5.378906 5.65625 -5.359375 C 5.988281 -5.328125 6.289062 -5.234375 6.5625 -5.078125 C 6.84375 -4.921875 7.066406 -4.753906 7.234375 -4.578125 C 7.410156 -4.410156 7.585938 -4.164062 7.765625 -3.84375 C 7.941406 -3.53125 8.066406 -3.273438 8.140625 -3.078125 C 8.210938 -2.890625 8.316406 -2.609375 8.453125 -2.234375 C 8.785156 -1.359375 9 -0.851562 9.09375 -0.71875 C 9.332031 -0.382812 9.671875 -0.207031 10.109375 -0.1875 Z M 5.515625 -9.625 C 5.273438 -9.675781 4.984375 -9.703125 4.640625 -9.703125 C 4.316406 -9.703125 4.019531 -9.6875 3.75 -9.65625 L 3.75 -5.46875 C 4.476562 -5.457031 4.847656 -5.453125 4.859375 -5.453125 C 5.453125 -5.453125 5.90625 -5.660156 6.21875 -6.078125 C 6.539062 -6.492188 6.703125 -6.988281 6.703125 -7.5625 C 6.703125 -8.0625 6.59375 -8.507812 6.375 -8.90625 C 6.164062 -9.300781 5.878906 -9.539062 5.515625 -9.625 Z M 5.515625 -9.625 "/></g></g></g><g fill="#634e4e" fill-opacity="1"><g transform="translate(44.725133, 132.498768)"><g><path d="M 4.59375 -3.96875 C 3.863281 -5.664062 2.945312 -7.273438 1.84375 -8.796875 C 1.59375 -9.140625 1.351562 -9.375 1.125 -9.5 C 0.851562 -9.625 0.546875 -9.722656 0.203125 -9.796875 L 0.203125 -10.046875 C 0.710938 -9.992188 1.457031 -9.96875 2.4375 -9.96875 C 3.488281 -9.96875 4.25 -9.992188 4.71875 -10.046875 L 4.71875 -9.71875 C 4.113281 -9.664062 3.769531 -9.578125 3.6875 -9.453125 C 3.632812 -9.335938 3.597656 -9.207031 3.578125 -9.0625 L 3.546875 -8.875 C 4.273438 -7.457031 5.015625 -6.109375 5.765625 -4.828125 C 7.316406 -7.597656 8.097656 -9.054688 8.109375 -9.203125 C 8.109375 -9.359375 7.988281 -9.472656 7.75 -9.546875 L 6.78125 -9.796875 L 6.78125 -10.046875 C 7.28125 -9.992188 7.84375 -9.96875 8.46875 -9.96875 C 9.09375 -9.96875 9.648438 -9.992188 10.140625 -10.046875 L 10.140625 -9.71875 C 9.703125 -9.695312 9.34375 -9.609375 9.0625 -9.453125 C 8.96875 -9.378906 8.835938 -9.257812 8.671875 -9.09375 L 8.4375 -8.84375 C 7.175781 -6.65625 6.398438 -5.253906 6.109375 -4.640625 C 6.109375 -4.234375 6.128906 -2.875 6.171875 -0.5625 C 6.171875 -0.289062 6.609375 -0.15625 7.484375 -0.15625 L 7.484375 0.140625 L 3.125 0.140625 L 3.125 -0.109375 C 3.15625 -0.109375 3.210938 -0.109375 3.296875 -0.109375 C 4.085938 -0.109375 4.488281 -0.234375 4.5 -0.484375 C 4.519531 -1.734375 4.550781 -2.894531 4.59375 -3.96875 Z M 4.59375 -3.96875 "/></g></g></g><g fill="#634e4e" fill-opacity="1"><g transform="translate(57.104879, 132.498768)"><g><path d="M 6.453125 -10.296875 C 6.847656 -10.296875 7.25 -10.210938 7.65625 -10.046875 C 8.070312 -9.890625 8.390625 -9.726562 8.609375 -9.5625 C 8.835938 -9.40625 9.039062 -9.269531 9.21875 -9.15625 C 9.375 -9.21875 9.507812 -9.351562 9.625 -9.5625 C 9.738281 -9.78125 9.804688 -10.003906 9.828125 -10.234375 L 10.25 -10.234375 L 10.203125 -6.90625 L 9.703125 -6.90625 C 9.390625 -8.851562 8.289062 -9.828125 6.40625 -9.828125 C 5.289062 -9.828125 4.429688 -9.4375 3.828125 -8.65625 C 3.222656 -7.875 2.921875 -6.566406 2.921875 -4.734375 C 2.921875 -3.921875 3.03125 -3.175781 3.25 -2.5 C 3.46875 -1.832031 3.828125 -1.273438 4.328125 -0.828125 C 4.835938 -0.378906 5.457031 -0.15625 6.1875 -0.15625 C 6.707031 -0.15625 7.21875 -0.269531 7.71875 -0.5 C 8.21875 -0.726562 8.601562 -1.03125 8.875 -1.40625 C 8.90625 -1.820312 8.921875 -2.253906 8.921875 -2.703125 C 8.921875 -3.097656 8.90625 -3.410156 8.875 -3.640625 C 8.457031 -3.890625 7.953125 -4.03125 7.359375 -4.0625 L 7.359375 -4.40625 L 11.640625 -4.40625 L 11.640625 -4.0625 C 11.054688 -4 10.675781 -3.859375 10.5 -3.640625 C 10.457031 -3.554688 10.4375 -3.085938 10.4375 -2.234375 C 10.4375 -1.523438 10.445312 -0.765625 10.46875 0.046875 L 10.203125 0.046875 L 10.125 -0.1875 C 10.082031 -0.363281 9.96875 -0.539062 9.78125 -0.71875 C 9.601562 -0.894531 9.382812 -0.984375 9.125 -0.984375 C 8.882812 -0.628906 8.476562 -0.3125 7.90625 -0.03125 C 7.34375 0.238281 6.765625 0.375 6.171875 0.375 C 4.597656 0.375 3.3125 -0.0859375 2.3125 -1.015625 C 1.3125 -1.953125 0.8125 -3.195312 0.8125 -4.75 C 0.8125 -5.570312 0.929688 -6.3125 1.171875 -6.96875 C 1.410156 -7.625 1.71875 -8.148438 2.09375 -8.546875 C 2.46875 -8.953125 2.90625 -9.289062 3.40625 -9.5625 C 3.914062 -9.832031 4.414062 -10.019531 4.90625 -10.125 C 5.40625 -10.238281 5.921875 -10.296875 6.453125 -10.296875 Z M 6.453125 -10.296875 "/></g></g></g><g fill="#634e4e" fill-opacity="1"><g transform="translate(71.120341, 132.498768)"><g><path d="M 6.453125 -10.296875 C 6.847656 -10.296875 7.25 -10.210938 7.65625 -10.046875 C 8.070312 -9.890625 8.390625 -9.726562 8.609375 -9.5625 C 8.835938 -9.40625 9.039062 -9.269531 9.21875 -9.15625 C 9.375 -9.21875 9.507812 -9.351562 9.625 -9.5625 C 9.738281 -9.78125 9.804688 -10.003906 9.828125 -10.234375 L 10.25 -10.234375 L 10.203125 -6.90625 L 9.703125 -6.90625 C 9.390625 -8.851562 8.289062 -9.828125 6.40625 -9.828125 C 5.289062 -9.828125 4.429688 -9.4375 3.828125 -8.65625 C 3.222656 -7.875 2.921875 -6.566406 2.921875 -4.734375 C 2.921875 -3.921875 3.03125 -3.175781 3.25 -2.5 C 3.46875 -1.832031 3.828125 -1.273438 4.328125 -0.828125 C 4.835938 -0.378906 5.457031 -0.15625 6.1875 -0.15625 C 6.707031 -0.15625 7.21875 -0.269531 7.71875 -0.5 C 8.21875 -0.726562 8.601562 -1.03125 8.875 -1.40625 C 8.90625 -1.820312 8.921875 -2.253906 8.921875 -2.703125 C 8.921875 -3.097656 8.90625 -3.410156 8.875 -3.640625 C 8.457031 -3.890625 7.953125 -4.03125 7.359375 -4.0625 L 7.359375 -4.40625 L 11.640625 -4.40625 L 11.640625 -4.0625 C 11.054688 -4 10.675781 -3.859375 10.5 -3.640625 C 10.457031 -3.554688 10.4375 -3.085938 10.4375 -2.234375 C 10.4375 -1.523438 10.445312 -0.765625 10.46875 0.046875 L 10.203125 0.046875 L 10.125 -0.1875 C 10.082031 -0.363281 9.96875 -0.539062 9.78125 -0.71875 C 9.601562 -0.894531 9.382812 -0.984375 9.125 -0.984375 C 8.882812 -0.628906 8.476562 -0.3125 7.90625 -0.03125 C 7.34375 0.238281 6.765625 0.375 6.171875 0.375 C 4.597656 0.375 3.3125 -0.0859375 2.3125 -1.015625 C 1.3125 -1.953125 0.8125 -3.195312 0.8125 -4.75 C 0.8125 -5.570312 0.929688 -6.3125 1.171875 -6.96875 C 1.410156 -7.625 1.71875 -8.148438 2.09375 -8.546875 C 2.46875 -8.953125 2.90625 -9.289062 3.40625 -9.5625 C 3.914062 -9.832031 4.414062 -10.019531 4.90625 -10.125 C 5.40625 -10.238281 5.921875 -10.296875 6.453125 -10.296875 Z M 6.453125 -10.296875 "/></g></g></g><g fill="#634e4e" fill-opacity="1"><g transform="translate(85.135803, 132.498768)"><g/></g></g><g fill="#634e4e" fill-opacity="1"><g transform="translate(90.44348, 132.498768)"><g><path d="M 5.078125 0.0625 C 4.546875 0.0195312 3.867188 0 3.046875 0 C 2.222656 0 1.46875 0.0195312 0.78125 0.0625 L 0.78125 -0.1875 C 1.050781 -0.1875 1.332031 -0.21875 1.625 -0.28125 C 1.925781 -0.34375 2.082031 -0.4375 2.09375 -0.5625 C 2.125 -0.820312 2.15625 -1.695312 2.1875 -3.1875 C 2.21875 -4.675781 2.234375 -5.984375 2.234375 -7.109375 C 2.234375 -8.441406 2.21875 -9.195312 2.1875 -9.375 C 2.164062 -9.5 1.960938 -9.601562 1.578125 -9.6875 L 1 -9.796875 L 1 -10.09375 C 2.101562 -10.039062 3.359375 -10.015625 4.765625 -10.015625 C 6.171875 -10.015625 7.3125 -10.039062 8.1875 -10.09375 L 8.25 -7.765625 L 7.9375 -7.765625 C 7.882812 -8.023438 7.800781 -8.28125 7.6875 -8.53125 C 7.582031 -8.789062 7.398438 -9.046875 7.140625 -9.296875 C 6.890625 -9.546875 6.597656 -9.671875 6.265625 -9.671875 L 3.75 -9.671875 L 3.75 -5.3125 L 5.96875 -5.3125 C 6.457031 -5.3125 6.722656 -5.734375 6.765625 -6.578125 L 7.140625 -6.578125 L 7.140625 -3.6875 L 6.828125 -3.6875 C 6.773438 -4.519531 6.472656 -4.9375 5.921875 -4.9375 L 3.75 -4.9375 L 3.75 -1.046875 C 3.75 -0.566406 3.9375 -0.296875 4.3125 -0.234375 C 4.394531 -0.222656 4.515625 -0.21875 4.671875 -0.21875 L 5.078125 -0.234375 C 5.078125 -0.234375 5.078125 -0.207031 5.078125 -0.15625 C 5.078125 -0.101562 5.078125 -0.0625 5.078125 -0.03125 C 5.078125 0.0078125 5.078125 0.0390625 5.078125 0.0625 Z M 5.078125 0.0625 "/></g></g></g><g fill="#634e4e" fill-opacity="1"><g transform="translate(101.508237, 132.498768)"><g><path d="M 4.859375 -11.21875 C 4.859375 -11.375 4.90625 -11.503906 5 -11.609375 C 5.101562 -11.722656 5.21875 -11.78125 5.34375 -11.78125 C 5.488281 -11.78125 5.613281 -11.726562 5.71875 -11.625 C 5.820312 -11.519531 5.875 -11.382812 5.875 -11.21875 C 5.875 -11.0625 5.820312 -10.929688 5.71875 -10.828125 C 5.625 -10.722656 5.507812 -10.671875 5.375 -10.671875 C 5.238281 -10.671875 5.117188 -10.722656 5.015625 -10.828125 C 4.910156 -10.929688 4.859375 -11.0625 4.859375 -11.21875 Z M 7.3125 -11.21875 C 7.3125 -11.375 7.359375 -11.503906 7.453125 -11.609375 C 7.546875 -11.722656 7.660156 -11.78125 7.796875 -11.78125 C 7.941406 -11.78125 8.0625 -11.726562 8.15625 -11.625 C 8.25 -11.519531 8.296875 -11.382812 8.296875 -11.21875 C 8.296875 -11.0625 8.25 -10.929688 8.15625 -10.828125 C 8.0625 -10.722656 7.945312 -10.671875 7.8125 -10.671875 C 7.675781 -10.671875 7.554688 -10.722656 7.453125 -10.828125 C 7.359375 -10.929688 7.3125 -11.0625 7.3125 -11.21875 Z M 6.671875 -0.125 C 7.671875 -0.125 8.488281 -0.582031 9.125 -1.5 C 9.769531 -2.414062 10.09375 -3.582031 10.09375 -5 C 10.09375 -6.6875 9.78125 -7.96875 9.15625 -8.84375 C 8.539062 -9.726562 7.671875 -10.171875 6.546875 -10.171875 C 6.003906 -10.171875 5.519531 -10.09375 5.09375 -9.9375 C 4.675781 -9.789062 4.273438 -9.539062 3.890625 -9.1875 C 3.503906 -8.832031 3.207031 -8.300781 3 -7.59375 C 2.789062 -6.882812 2.6875 -6.015625 2.6875 -4.984375 C 2.6875 -4.597656 2.722656 -4.203125 2.796875 -3.796875 C 2.867188 -3.398438 3 -2.976562 3.1875 -2.53125 C 3.382812 -2.082031 3.625 -1.679688 3.90625 -1.328125 C 4.1875 -0.984375 4.566406 -0.695312 5.046875 -0.46875 C 5.523438 -0.238281 6.066406 -0.125 6.671875 -0.125 Z M 6.671875 -10.4375 C 7.054688 -10.4375 7.457031 -10.394531 7.875 -10.3125 C 8.289062 -10.226562 8.75 -10.0625 9.25 -9.8125 C 9.75 -9.5625 10.1875 -9.242188 10.5625 -8.859375 C 10.945312 -8.472656 11.269531 -7.941406 11.53125 -7.265625 C 11.789062 -6.597656 11.921875 -5.84375 11.921875 -5 C 11.921875 -4.175781 11.753906 -3.425781 11.421875 -2.75 C 11.097656 -2.082031 10.671875 -1.535156 10.140625 -1.109375 C 9.617188 -0.691406 9.050781 -0.367188 8.4375 -0.140625 C 7.832031 0.078125 7.234375 0.1875 6.640625 0.1875 C 5.023438 0.1875 3.644531 -0.269531 2.5 -1.1875 C 1.351562 -2.113281 0.78125 -3.34375 0.78125 -4.875 C 0.78125 -5.75 0.90625 -6.523438 1.15625 -7.203125 C 1.414062 -7.878906 1.738281 -8.414062 2.125 -8.8125 C 2.519531 -9.207031 2.988281 -9.53125 3.53125 -9.78125 C 4.070312 -10.039062 4.597656 -10.210938 5.109375 -10.296875 C 5.617188 -10.390625 6.140625 -10.4375 6.671875 -10.4375 Z M 6.671875 -10.4375 "/></g></g></g><g fill="#634e4e" fill-opacity="1"><g transform="translate(116.245339, 132.498768)"><g><path d="M 10.109375 0.03125 L 7.203125 -0.015625 C 7.203125 -0.0546875 7.203125 -0.0976562 7.203125 -0.140625 C 7.203125 -0.535156 7.054688 -1.273438 6.765625 -2.359375 C 6.273438 -4.148438 5.625 -5.050781 4.8125 -5.0625 L 3.734375 -5.078125 L 3.75 -1.109375 C 3.75 -0.941406 3.757812 -0.804688 3.78125 -0.703125 C 3.800781 -0.609375 3.851562 -0.519531 3.9375 -0.4375 C 4.03125 -0.351562 4.15625 -0.3125 4.3125 -0.3125 C 4.78125 -0.289062 5.015625 -0.273438 5.015625 -0.265625 L 5 0.03125 C 4.40625 -0.0078125 3.609375 -0.03125 2.609375 -0.03125 C 1.816406 -0.03125 1.207031 -0.015625 0.78125 0.015625 L 0.78125 -0.25 C 1.613281 -0.25 2.050781 -0.375 2.09375 -0.625 C 2.144531 -0.789062 2.171875 -0.976562 2.171875 -1.1875 C 2.210938 -2.269531 2.234375 -3.632812 2.234375 -5.28125 C 2.234375 -7.726562 2.210938 -9.078125 2.171875 -9.328125 C 2.148438 -9.453125 1.953125 -9.554688 1.578125 -9.640625 L 1 -9.765625 L 1 -10.0625 C 1.625 -10.03125 2.367188 -10.015625 3.234375 -10.015625 C 3.585938 -10.015625 4.03125 -10.019531 4.5625 -10.03125 C 5.101562 -10.039062 5.445312 -10.046875 5.59375 -10.046875 C 6 -10.046875 6.40625 -9.953125 6.8125 -9.765625 C 7.21875 -9.578125 7.566406 -9.285156 7.859375 -8.890625 C 8.160156 -8.492188 8.3125 -8.039062 8.3125 -7.53125 C 8.3125 -6.988281 8.046875 -6.492188 7.515625 -6.046875 C 6.992188 -5.609375 6.375 -5.378906 5.65625 -5.359375 C 5.988281 -5.328125 6.289062 -5.234375 6.5625 -5.078125 C 6.84375 -4.921875 7.066406 -4.753906 7.234375 -4.578125 C 7.410156 -4.410156 7.585938 -4.164062 7.765625 -3.84375 C 7.941406 -3.53125 8.066406 -3.273438 8.140625 -3.078125 C 8.210938 -2.890625 8.316406 -2.609375 8.453125 -2.234375 C 8.785156 -1.359375 9 -0.851562 9.09375 -0.71875 C 9.332031 -0.382812 9.671875 -0.207031 10.109375 -0.1875 Z M 5.515625 -9.625 C 5.273438 -9.675781 4.984375 -9.703125 4.640625 -9.703125 C 4.316406 -9.703125 4.019531 -9.6875 3.75 -9.65625 L 3.75 -5.46875 C 4.476562 -5.457031 4.847656 -5.453125 4.859375 -5.453125 C 5.453125 -5.453125 5.90625 -5.660156 6.21875 -6.078125 C 6.539062 -6.492188 6.703125 -6.988281 6.703125 -7.5625 C 6.703125 -8.0625 6.59375 -8.507812 6.375 -8.90625 C 6.164062 -9.300781 5.878906 -9.539062 5.515625 -9.625 Z M 5.515625 -9.625 "/></g></g></g><g fill="#634e4e" fill-opacity="1"><g transform="translate(128.480757, 132.498768)"><g><path d="M 3.921875 -1.09375 C 3.921875 -0.613281 4.113281 -0.375 4.5 -0.375 C 4.5 -0.375 5.191406 -0.367188 6.578125 -0.359375 C 6.953125 -0.359375 7.28125 -0.566406 7.5625 -0.984375 C 7.84375 -1.398438 8.015625 -1.882812 8.078125 -2.4375 L 8.4375 -2.4375 L 8.171875 0.046875 L 0.78125 0.046875 L 0.78125 -0.203125 L 1.15625 -0.21875 C 1.414062 -0.238281 1.664062 -0.285156 1.90625 -0.359375 C 2.15625 -0.441406 2.285156 -0.539062 2.296875 -0.65625 C 2.347656 -1.238281 2.375 -3.082031 2.375 -6.1875 C 2.375 -7.957031 2.363281 -9.019531 2.34375 -9.375 C 2.332031 -9.519531 2.109375 -9.625 1.671875 -9.6875 L 1 -9.796875 L 1 -10.09375 L 5.109375 -10.109375 L 5.109375 -9.84375 C 4.367188 -9.800781 3.988281 -9.644531 3.96875 -9.375 C 3.925781 -6.820312 3.90625 -5.285156 3.90625 -4.765625 C 3.90625 -4.492188 3.90625 -3.976562 3.90625 -3.21875 C 3.914062 -2.457031 3.921875 -1.75 3.921875 -1.09375 Z M 3.921875 -1.09375 "/></g></g></g><g fill="#634e4e" fill-opacity="1"><g transform="translate(139.930389, 132.498768)"><g><path d="M 6.671875 -0.125 C 7.671875 -0.125 8.488281 -0.582031 9.125 -1.5 C 9.769531 -2.414062 10.09375 -3.582031 10.09375 -5 C 10.09375 -6.6875 9.78125 -7.96875 9.15625 -8.84375 C 8.539062 -9.726562 7.671875 -10.171875 6.546875 -10.171875 C 6.003906 -10.171875 5.519531 -10.09375 5.09375 -9.9375 C 4.675781 -9.789062 4.273438 -9.539062 3.890625 -9.1875 C 3.503906 -8.832031 3.207031 -8.300781 3 -7.59375 C 2.789062 -6.882812 2.6875 -6.015625 2.6875 -4.984375 C 2.6875 -4.597656 2.722656 -4.203125 2.796875 -3.796875 C 2.867188 -3.398438 3 -2.976562 3.1875 -2.53125 C 3.382812 -2.082031 3.625 -1.679688 3.90625 -1.328125 C 4.1875 -0.984375 4.566406 -0.695312 5.046875 -0.46875 C 5.523438 -0.238281 6.066406 -0.125 6.671875 -0.125 Z M 6.671875 -10.4375 C 7.054688 -10.4375 7.457031 -10.394531 7.875 -10.3125 C 8.289062 -10.226562 8.75 -10.0625 9.25 -9.8125 C 9.75 -9.5625 10.1875 -9.242188 10.5625 -8.859375 C 10.945312 -8.472656 11.269531 -7.941406 11.53125 -7.265625 C 11.789062 -6.597656 11.921875 -5.84375 11.921875 -5 C 11.921875 -4.175781 11.753906 -3.425781 11.421875 -2.75 C 11.097656 -2.082031 10.671875 -1.535156 10.140625 -1.109375 C 9.617188 -0.691406 9.050781 -0.367188 8.4375 -0.140625 C 7.832031 0.078125 7.234375 0.1875 6.640625 0.1875 C 5.023438 0.1875 3.644531 -0.269531 2.5 -1.1875 C 1.351562 -2.113281 0.78125 -3.34375 0.78125 -4.875 C 0.78125 -5.75 0.90625 -6.523438 1.15625 -7.203125 C 1.414062 -7.878906 1.738281 -8.414062 2.125 -8.8125 C 2.519531 -9.207031 2.988281 -9.53125 3.53125 -9.78125 C 4.070312 -10.039062 4.597656 -10.210938 5.109375 -10.296875 C 5.617188 -10.390625 6.140625 -10.4375 6.671875 -10.4375 Z M 6.671875 -10.4375 "/></g></g></g><g fill="#634e4e" fill-opacity="1"><g transform="translate(154.667491, 132.498768)"><g><path d="M 4.828125 -10.46875 C 5.648438 -10.46875 6.347656 -10.164062 6.921875 -9.5625 C 7.191406 -9.59375 7.40625 -9.816406 7.5625 -10.234375 L 7.796875 -10.234375 L 7.75 -7.125 C 7.75 -7.125 7.644531 -7.125 7.4375 -7.125 C 7.40625 -7.5 7.363281 -7.851562 7.3125 -8.1875 C 7.257812 -8.519531 7.140625 -8.8125 6.953125 -9.0625 C 6.453125 -9.800781 5.734375 -10.171875 4.796875 -10.171875 C 4.296875 -10.171875 3.867188 -9.972656 3.515625 -9.578125 C 3.160156 -9.191406 2.984375 -8.789062 2.984375 -8.375 C 2.984375 -7.925781 3.195312 -7.503906 3.625 -7.109375 C 4.050781 -6.710938 4.617188 -6.382812 5.328125 -6.125 C 6.296875 -5.757812 7.078125 -5.289062 7.671875 -4.71875 C 8.265625 -4.15625 8.5625 -3.523438 8.5625 -2.828125 C 8.5625 -1.910156 8.257812 -1.171875 7.65625 -0.609375 C 7.0625 -0.046875 6.070312 0.234375 4.6875 0.234375 C 4.382812 0.234375 4.09375 0.203125 3.8125 0.140625 C 3.539062 0.078125 3.316406 0 3.140625 -0.09375 C 2.960938 -0.1875 2.789062 -0.285156 2.625 -0.390625 C 2.457031 -0.492188 2.335938 -0.578125 2.265625 -0.640625 C 2.046875 -0.546875 1.847656 -0.328125 1.671875 0.015625 L 1.328125 0.015625 L 1.359375 -2.90625 L 1.6875 -2.90625 C 1.863281 -2.03125 2.171875 -1.347656 2.609375 -0.859375 C 3.054688 -0.378906 3.726562 -0.140625 4.625 -0.140625 C 6.113281 -0.140625 6.859375 -0.863281 6.859375 -2.3125 C 6.859375 -3.25 6.066406 -3.992188 4.484375 -4.546875 C 3.628906 -4.847656 2.957031 -5.273438 2.46875 -5.828125 C 1.976562 -6.378906 1.734375 -6.960938 1.734375 -7.578125 C 1.722656 -9.503906 2.753906 -10.46875 4.828125 -10.46875 Z M 4.828125 -10.46875 "/></g></g></g><g fill="#634e4e" fill-opacity="1"><g transform="translate(166.117123, 132.498768)"><g><path d="M 4.828125 -10.46875 C 5.648438 -10.46875 6.347656 -10.164062 6.921875 -9.5625 C 7.191406 -9.59375 7.40625 -9.816406 7.5625 -10.234375 L 7.796875 -10.234375 L 7.75 -7.125 C 7.75 -7.125 7.644531 -7.125 7.4375 -7.125 C 7.40625 -7.5 7.363281 -7.851562 7.3125 -8.1875 C 7.257812 -8.519531 7.140625 -8.8125 6.953125 -9.0625 C 6.453125 -9.800781 5.734375 -10.171875 4.796875 -10.171875 C 4.296875 -10.171875 3.867188 -9.972656 3.515625 -9.578125 C 3.160156 -9.191406 2.984375 -8.789062 2.984375 -8.375 C 2.984375 -7.925781 3.195312 -7.503906 3.625 -7.109375 C 4.050781 -6.710938 4.617188 -6.382812 5.328125 -6.125 C 6.296875 -5.757812 7.078125 -5.289062 7.671875 -4.71875 C 8.265625 -4.15625 8.5625 -3.523438 8.5625 -2.828125 C 8.5625 -1.910156 8.257812 -1.171875 7.65625 -0.609375 C 7.0625 -0.046875 6.070312 0.234375 4.6875 0.234375 C 4.382812 0.234375 4.09375 0.203125 3.8125 0.140625 C 3.539062 0.078125 3.316406 0 3.140625 -0.09375 C 2.960938 -0.1875 2.789062 -0.285156 2.625 -0.390625 C 2.457031 -0.492188 2.335938 -0.578125 2.265625 -0.640625 C 2.046875 -0.546875 1.847656 -0.328125 1.671875 0.015625 L 1.328125 0.015625 L 1.359375 -2.90625 L 1.6875 -2.90625 C 1.863281 -2.03125 2.171875 -1.347656 2.609375 -0.859375 C 3.054688 -0.378906 3.726562 -0.140625 4.625 -0.140625 C 6.113281 -0.140625 6.859375 -0.863281 6.859375 -2.3125 C 6.859375 -3.25 6.066406 -3.992188 4.484375 -4.546875 C 3.628906 -4.847656 2.957031 -5.273438 2.46875 -5.828125 C 1.976562 -6.378906 1.734375 -6.960938 1.734375 -7.578125 C 1.722656 -9.503906 2.753906 -10.46875 4.828125 -10.46875 Z M 4.828125 -10.46875 "/></g></g></g><g fill="#634e4e" fill-opacity="1"><g transform="translate(177.566747, 132.498768)"><g><path d="M 10.703125 -9.6875 C 10.546875 -9.675781 10.375 -9.65625 10.1875 -9.625 C 10 -9.601562 9.796875 -9.550781 9.578125 -9.46875 C 9.367188 -9.394531 9.265625 -9.300781 9.265625 -9.1875 C 9.242188 -8.832031 9.226562 -7.847656 9.21875 -6.234375 L 9.265625 0.171875 L 8.703125 0.171875 L 5.640625 -4.015625 C 3.609375 -6.796875 2.535156 -8.25 2.421875 -8.375 C 2.410156 -7.46875 2.40625 -6.722656 2.40625 -6.140625 C 2.40625 -5.410156 2.414062 -4.710938 2.4375 -4.046875 C 2.46875 -3.390625 2.484375 -2.570312 2.484375 -1.59375 C 2.484375 -1.394531 2.484375 -1.179688 2.484375 -0.953125 C 2.484375 -0.503906 2.671875 -0.28125 3.046875 -0.28125 C 3.660156 -0.28125 3.972656 -0.269531 3.984375 -0.25 L 3.984375 0.03125 C 3.453125 0 2.859375 -0.015625 2.203125 -0.015625 C 1.460938 -0.015625 0.835938 0.00390625 0.328125 0.046875 L 0.328125 -0.203125 C 0.328125 -0.203125 0.359375 -0.203125 0.421875 -0.203125 C 1.296875 -0.203125 1.757812 -0.328125 1.8125 -0.578125 C 1.863281 -3.765625 1.890625 -5.628906 1.890625 -6.171875 C 1.890625 -6.992188 1.878906 -7.945312 1.859375 -9.03125 C 1.835938 -9.144531 1.585938 -9.304688 1.109375 -9.515625 L 0.390625 -9.796875 L 0.390625 -10.09375 L 3.359375 -10.078125 C 3.984375 -9.191406 5.019531 -7.8125 6.46875 -5.9375 L 8.65625 -3.109375 L 8.671875 -9.1875 C 8.660156 -9.332031 8.523438 -9.453125 8.265625 -9.546875 C 8.015625 -9.640625 7.710938 -9.6875 7.359375 -9.6875 C 7.285156 -9.6875 7.207031 -9.6875 7.125 -9.6875 L 7.09375 -10.0625 C 7.539062 -10 8.09375 -9.96875 8.75 -9.96875 C 9.363281 -9.96875 10.015625 -9.992188 10.703125 -10.046875 Z M 10.703125 -9.6875 "/></g></g></g><g fill="#634e4e" fill-opacity="1"><g transform="translate(190.620014, 132.498768)"><g><path d="M 3.921875 -9.34375 C 3.921875 -9.332031 3.914062 -9.03125 3.90625 -8.4375 C 3.90625 -7.851562 3.898438 -7.117188 3.890625 -6.234375 C 3.890625 -5.359375 3.890625 -4.554688 3.890625 -3.828125 C 3.890625 -2.378906 3.898438 -1.34375 3.921875 -0.71875 C 3.929688 -0.40625 4.335938 -0.25 5.140625 -0.25 L 5.15625 0 C 4.820312 -0.0078125 4.398438 -0.015625 3.890625 -0.015625 C 2.742188 -0.015625 1.765625 0.00390625 0.953125 0.046875 L 0.953125 -0.203125 C 0.953125 -0.203125 0.972656 -0.203125 1.015625 -0.203125 C 1.804688 -0.203125 2.222656 -0.328125 2.265625 -0.578125 C 2.316406 -0.898438 2.34375 -3.832031 2.34375 -9.375 C 2.34375 -9.5 2.148438 -9.601562 1.765625 -9.6875 L 1.171875 -9.796875 L 1.171875 -10.046875 C 1.671875 -9.992188 2.316406 -9.96875 3.109375 -9.96875 C 3.929688 -9.96875 4.570312 -9.992188 5.03125 -10.046875 L 5.03125 -9.71875 C 4.289062 -9.664062 3.921875 -9.539062 3.921875 -9.34375 Z M 3.921875 -9.34375 "/></g></g></g><g fill="#634e4e" fill-opacity="1"><g transform="translate(198.685949, 132.498768)"><g><path d="M 10.703125 -9.6875 C 10.546875 -9.675781 10.375 -9.65625 10.1875 -9.625 C 10 -9.601562 9.796875 -9.550781 9.578125 -9.46875 C 9.367188 -9.394531 9.265625 -9.300781 9.265625 -9.1875 C 9.242188 -8.832031 9.226562 -7.847656 9.21875 -6.234375 L 9.265625 0.171875 L 8.703125 0.171875 L 5.640625 -4.015625 C 3.609375 -6.796875 2.535156 -8.25 2.421875 -8.375 C 2.410156 -7.46875 2.40625 -6.722656 2.40625 -6.140625 C 2.40625 -5.410156 2.414062 -4.710938 2.4375 -4.046875 C 2.46875 -3.390625 2.484375 -2.570312 2.484375 -1.59375 C 2.484375 -1.394531 2.484375 -1.179688 2.484375 -0.953125 C 2.484375 -0.503906 2.671875 -0.28125 3.046875 -0.28125 C 3.660156 -0.28125 3.972656 -0.269531 3.984375 -0.25 L 3.984375 0.03125 C 3.453125 0 2.859375 -0.015625 2.203125 -0.015625 C 1.460938 -0.015625 0.835938 0.00390625 0.328125 0.046875 L 0.328125 -0.203125 C 0.328125 -0.203125 0.359375 -0.203125 0.421875 -0.203125 C 1.296875 -0.203125 1.757812 -0.328125 1.8125 -0.578125 C 1.863281 -3.765625 1.890625 -5.628906 1.890625 -6.171875 C 1.890625 -6.992188 1.878906 -7.945312 1.859375 -9.03125 C 1.835938 -9.144531 1.585938 -9.304688 1.109375 -9.515625 L 0.390625 -9.796875 L 0.390625 -10.09375 L 3.359375 -10.078125 C 3.984375 -9.191406 5.019531 -7.8125 6.46875 -5.9375 L 8.65625 -3.109375 L 8.671875 -9.1875 C 8.660156 -9.332031 8.523438 -9.453125 8.265625 -9.546875 C 8.015625 -9.640625 7.710938 -9.6875 7.359375 -9.6875 C 7.285156 -9.6875 7.207031 -9.6875 7.125 -9.6875 L 7.09375 -10.0625 C 7.539062 -10 8.09375 -9.96875 8.75 -9.96875 C 9.363281 -9.96875 10.015625 -9.992188 10.703125 -10.046875 Z M 10.703125 -9.6875 "/></g></g></g><g fill="#634e4e" fill-opacity="1"><g transform="translate(211.739216, 132.498768)"><g><path d="M 6.453125 -10.296875 C 6.847656 -10.296875 7.25 -10.210938 7.65625 -10.046875 C 8.070312 -9.890625 8.390625 -9.726562 8.609375 -9.5625 C 8.835938 -9.40625 9.039062 -9.269531 9.21875 -9.15625 C 9.375 -9.21875 9.507812 -9.351562 9.625 -9.5625 C 9.738281 -9.78125 9.804688 -10.003906 9.828125 -10.234375 L 10.25 -10.234375 L 10.203125 -6.90625 L 9.703125 -6.90625 C 9.390625 -8.851562 8.289062 -9.828125 6.40625 -9.828125 C 5.289062 -9.828125 4.429688 -9.4375 3.828125 -8.65625 C 3.222656 -7.875 2.921875 -6.566406 2.921875 -4.734375 C 2.921875 -3.921875 3.03125 -3.175781 3.25 -2.5 C 3.46875 -1.832031 3.828125 -1.273438 4.328125 -0.828125 C 4.835938 -0.378906 5.457031 -0.15625 6.1875 -0.15625 C 6.707031 -0.15625 7.21875 -0.269531 7.71875 -0.5 C 8.21875 -0.726562 8.601562 -1.03125 8.875 -1.40625 C 8.90625 -1.820312 8.921875 -2.253906 8.921875 -2.703125 C 8.921875 -3.097656 8.90625 -3.410156 8.875 -3.640625 C 8.457031 -3.890625 7.953125 -4.03125 7.359375 -4.0625 L 7.359375 -4.40625 L 11.640625 -4.40625 L 11.640625 -4.0625 C 11.054688 -4 10.675781 -3.859375 10.5 -3.640625 C 10.457031 -3.554688 10.4375 -3.085938 10.4375 -2.234375 C 10.4375 -1.523438 10.445312 -0.765625 10.46875 0.046875 L 10.203125 0.046875 L 10.125 -0.1875 C 10.082031 -0.363281 9.96875 -0.539062 9.78125 -0.71875 C 9.601562 -0.894531 9.382812 -0.984375 9.125 -0.984375 C 8.882812 -0.628906 8.476562 -0.3125 7.90625 -0.03125 C 7.34375 0.238281 6.765625 0.375 6.171875 0.375 C 4.597656 0.375 3.3125 -0.0859375 2.3125 -1.015625 C 1.3125 -1.953125 0.8125 -3.195312 0.8125 -4.75 C 0.8125 -5.570312 0.929688 -6.3125 1.171875 -6.96875 C 1.410156 -7.625 1.71875 -8.148438 2.09375 -8.546875 C 2.46875 -8.953125 2.90625 -9.289062 3.40625 -9.5625 C 3.914062 -9.832031 4.414062 -10.019531 4.90625 -10.125 C 5.40625 -10.238281 5.921875 -10.296875 6.453125 -10.296875 Z M 6.453125 -10.296875 "/></g></g></g><g fill="#634e4e" fill-opacity="1"><g transform="translate(225.758969, 132.498768)"><g/></g></g></svg>