<svg xmlns="http://www.w3.org/2000/svg" xmlns:xlink="http://www.w3.org/1999/xlink" width="500" zoomAndPan="magnify" viewBox="0 0 375 374.999991" height="500" preserveAspectRatio="xMidYMid meet" version="1.0"><path stroke-linecap="butt" transform="matrix(0.820418, 0, 0, 0.819719, -21.823108, 1.962122)" fill-opacity="1" fill="#c5815c" fill-rule="nonzero" stroke-linejoin="miter" d="M 47.202118 166.099646 C 48.002015 167.900949 48.801913 169.60218 50.001759 171.198572 C 51.201605 172.799731 52.8014 174.000599 54.701157 174.400889 C 56.200964 174.701106 57.900746 174.500961 59.400554 174.100671 C 64.399913 172.899803 68.899336 170.598138 73.498746 168.201166 C 83.202264 163.10224 93.001008 158.098621 102.099841 151.898899 C 101.999854 148.200986 101.399931 144.59838 99.800136 141.300757 C 98.200341 137.998369 95.500687 135.101035 92.001136 134.000239 C 88.601572 132.79937 84.802059 133.399804 81.297747 134.500601 C 77.798195 135.601397 74.498618 137.097717 70.999067 137.898296 C 66.699618 138.89902 61.900234 138.89902 58.500669 141.701047 C 56.200964 143.597657 55.101105 146.399683 53.901259 149.20171 C 51.601554 154.800998 49.501823 160.500358 47.202118 166.099646 Z M 47.202118 166.099646 " stroke="#ffffff" stroke-width="0.75" stroke-opacity="1" stroke-miterlimit="10"/><path fill="#221b1b" d="M 18.214844 142.460938 C 19.691406 141.640625 21.25 140.824219 22.152344 139.429688 C 22.890625 138.28125 23.21875 136.886719 24.203125 135.902344 C 25.925781 134.101562 29.289062 134.265625 30.273438 132.050781 C 30.847656 130.902344 30.519531 129.59375 30.027344 128.363281 C 29.535156 127.214844 28.878906 126.066406 28.632812 124.839844 C 28.140625 121.96875 30.683594 119.101562 33.554688 119.101562 C 34.949219 119.101562 36.261719 119.753906 37.65625 120 C 40.199219 120.492188 42.824219 119.671875 45.039062 118.363281 C 47.257812 117.132812 49.308594 115.410156 51.441406 113.9375 C 55.050781 111.558594 59.070312 109.835938 63.335938 108.933594 C 63.992188 108.773438 64.730469 108.609375 65.304688 108.117188 C 65.796875 107.625 65.960938 106.640625 65.304688 106.230469 C 65.058594 106.066406 64.730469 106.066406 64.484375 105.984375 C 62.1875 105.820312 59.972656 105.574219 57.675781 105.410156 C 55.542969 105.246094 53.082031 104.917969 51.769531 103.199219 C 50.785156 101.886719 48.570312 102.871094 46.929688 102.953125 C 45.039062 103.035156 43.152344 102.296875 41.347656 101.804688 C 31.75 99.261719 21.003906 102.132812 13.945312 109.015625 C 12.140625 110.820312 10.5 112.871094 9.433594 115.246094 C 8.367188 117.625 7.957031 120.246094 8.367188 122.789062 C 8.777344 124.839844 8.613281 126.886719 8.859375 128.9375 C 9.269531 131.722656 9.925781 134.59375 11.238281 137.050781 C 12.878906 139.59375 15.425781 141.886719 18.214844 142.460938 Z M 18.214844 142.460938 " fill-opacity="1" fill-rule="nonzero"/><path fill="#5f3629" d="M 61.53125 109.917969 C 59.5625 110.082031 57.429688 110.328125 55.871094 111.640625 C 55.050781 112.296875 54.476562 113.28125 53.820312 114.101562 C 52.425781 115.984375 50.867188 117.625 49.226562 119.265625 C 41.839844 126.804688 34.539062 134.347656 27.15625 141.886719 C 23.136719 146.070312 17.3125 148.28125 12.222656 151.070312 C 9.1875 152.707031 5.988281 154.347656 3.691406 156.890625 C 1.394531 159.429688 0 163.199219 1.230469 166.398438 C 2.132812 168.691406 4.183594 170.332031 6.398438 171.398438 C 10.910156 173.449219 16.246094 173.203125 21.003906 171.890625 C 25.761719 170.496094 30.191406 168.121094 34.621094 165.824219 C 39.050781 163.527344 43.5625 161.316406 48.488281 160.496094 C 50.785156 160.085938 52.835938 158.9375 55.132812 158.609375 C 57.429688 158.28125 59.972656 158.609375 61.859375 159.921875 C 63.171875 160.824219 64.15625 162.136719 64.894531 163.609375 C 66.042969 165.90625 66.617188 168.609375 68.175781 170.660156 C 70.554688 173.691406 74.574219 174.675781 78.1875 175.988281 C 81.140625 177.054688 84.011719 178.53125 87.046875 179.347656 C 90.082031 180.167969 93.527344 180.167969 96.234375 178.613281 C 106.324219 172.710938 119.371094 175.824219 131.019531 175.496094 C 139.71875 175.25 147.59375 170.660156 156.125 169.101562 C 161.867188 168.039062 167.777344 167.21875 172.617188 164.019531 C 174.421875 162.871094 176.308594 161.808594 177.785156 160.25 C 179.261719 158.691406 180.246094 156.5625 179.835938 154.429688 C 179.671875 153.445312 179.179688 152.542969 178.605469 151.726562 C 176.472656 148.855469 172.945312 147.460938 169.582031 146.234375 C 161.539062 143.28125 153.5 140.332031 145.460938 137.460938 C 136.597656 134.183594 128.640625 128.855469 120.929688 123.445312 C 114.695312 119.101562 109.9375 113.035156 103.453125 108.933594 C 100.335938 106.96875 97.054688 104.917969 93.363281 105.082031 C 90.738281 105.164062 88.359375 106.394531 85.734375 106.476562 C 83.4375 106.558594 81.222656 105.738281 79.007812 105.082031 C 76.792969 104.507812 74.328125 104.179688 72.277344 105.164062 C 69.652344 106.476562 66.78125 107.214844 64.074219 108.28125 C 63.253906 108.527344 62.351562 109.097656 61.53125 109.917969 Z M 61.53125 109.917969 " fill-opacity="1" fill-rule="nonzero"/><path fill="#c5815c" d="M 172.699219 366 C 172.371094 366.65625 171.960938 367.394531 172.042969 368.210938 C 172.042969 368.949219 172.535156 369.605469 173.027344 370.261719 C 174.421875 372.148438 175.816406 374.113281 177.539062 375.671875 C 179.261719 377.3125 181.3125 378.625 183.609375 379.113281 C 187.546875 379.933594 191.648438 378.296875 194.847656 376 C 195.503906 375.507812 196.242188 374.933594 196.324219 374.03125 C 196.324219 373.539062 196.160156 373.050781 195.914062 372.558594 C 193.78125 368.046875 192.632812 363.046875 192.386719 358.046875 C 192.386719 358.292969 178.523438 357.964844 177.210938 357.882812 C 176.472656 357.800781 175.816406 357.800781 175.078125 357.71875 C 174.585938 357.71875 173.847656 357.472656 173.355469 357.636719 C 173.519531 357.964844 173.929688 358.210938 174.011719 358.621094 C 174.175781 359.359375 174.09375 360.34375 174.011719 361.164062 C 173.847656 362.71875 173.4375 364.441406 172.699219 366 Z M 172.699219 366 " fill-opacity="1" fill-rule="nonzero"/><path fill="#5f3629" d="M 198.050781 383.625 C 197.882812 384.523438 197.636719 385.507812 196.816406 385.753906 C 196.40625 385.917969 195.996094 385.835938 195.585938 385.835938 C 185.660156 385.015625 175.734375 384.195312 165.804688 383.296875 C 164.164062 383.132812 162.277344 382.96875 161.046875 381.820312 C 159.734375 380.589844 159.40625 378.460938 159.980469 376.738281 C 160.308594 375.753906 160.882812 374.851562 161.621094 374.113281 C 162.6875 372.96875 164.082031 372.066406 165.3125 371.164062 C 166.707031 370.179688 168.1875 369.195312 169.664062 368.292969 C 170.484375 367.882812 171.386719 367.476562 172.207031 367.640625 C 172.863281 367.804688 173.4375 368.210938 173.847656 368.703125 C 174.175781 369.113281 174.339844 369.523438 174.585938 369.933594 C 174.75 370.34375 175.078125 370.589844 175.324219 371 C 175.898438 371.738281 176.472656 372.558594 177.046875 373.292969 C 180 376.738281 185.167969 378.132812 189.351562 376.492188 C 191.484375 375.671875 193.371094 374.113281 195.585938 373.539062 C 196.160156 373.375 196.40625 373.292969 196.652344 373.867188 C 196.898438 374.359375 197.0625 375.015625 197.308594 375.589844 C 197.71875 376.820312 197.964844 378.050781 198.046875 379.277344 C 198.378906 380.835938 198.296875 382.230469 198.050781 383.625 Z M 198.050781 383.625 " fill-opacity="1" fill-rule="nonzero"/><path fill="#e6ceb8" d="M 137.832031 180.414062 C 138.242188 187.21875 137.503906 194.105469 135.613281 200.660156 C 130.9375 216.972656 128.3125 233.859375 127.328125 250.746094 C 126.917969 258.617188 124.046875 266.15625 123.390625 273.945312 C 122.816406 280.667969 124.210938 287.386719 125.933594 293.945312 C 130.117188 310.257812 134.464844 326.488281 139.636719 342.554688 C 141.851562 349.441406 143.246094 356.492188 144.722656 363.539062 C 145.871094 369.195312 146.527344 375.015625 148.742188 380.34375 C 150.382812 380.097656 151.941406 380.097656 153.582031 379.851562 C 158.011719 379.195312 162.359375 378.542969 166.789062 377.886719 C 167.609375 377.722656 168.597656 377.558594 169.007812 376.820312 C 169.335938 376.246094 169.171875 375.507812 169.007812 374.851562 C 165.96875 361.65625 164 348.128906 163.179688 334.605469 C 162.523438 324.113281 159.488281 313.945312 156.125 304.027344 C 155.550781 302.390625 154.894531 300.75 154.402344 299.027344 C 153.992188 297.636719 154.648438 296.324219 153.5 295.011719 C 153.253906 294.683594 152.84375 294.355469 153.007812 293.945312 C 153.089844 293.617188 153.417969 293.535156 153.664062 293.371094 C 153.992188 293.125 154.15625 292.632812 154.074219 292.226562 C 153.992188 291.816406 153.664062 291.488281 153.335938 291.324219 C 154.074219 290.257812 154.484375 288.945312 154.402344 287.714844 C 155.140625 289.847656 155.386719 292.144531 156.125 294.273438 C 156.289062 294.683594 156.453125 295.175781 156.617188 295.585938 C 156.863281 296.242188 157.027344 296.816406 157.273438 297.472656 C 159.242188 303.289062 161.292969 309.191406 163.261719 315.011719 C 166.296875 323.867188 168.761719 332.882812 171.058594 341.980469 C 171.632812 344.359375 172.207031 346.734375 172.042969 349.113281 C 171.960938 350.261719 171.714844 351.410156 172.042969 352.472656 C 172.289062 353.375 172.863281 354.113281 173.109375 354.933594 C 173.519531 356.574219 172.78125 358.539062 173.847656 359.933594 C 174.585938 360.835938 175.898438 361 177.128906 361.082031 C 181.066406 361.246094 185.085938 361.082031 189.023438 360.507812 C 190.335938 360.34375 191.730469 360.015625 192.550781 358.949219 C 193.453125 357.71875 193.125 356 192.796875 354.523438 C 191.074219 347.144531 189.597656 339.769531 189.269531 332.226562 C 189.023438 326.324219 189.433594 320.257812 187.875 314.519531 C 185.414062 305.667969 183.527344 296.734375 179.835938 288.371094 C 178.6875 285.832031 177.457031 283.207031 177.703125 280.421875 C 178.113281 275.667969 178.03125 270.910156 179.015625 266.238281 C 180.65625 258.207031 183.363281 250.417969 186.398438 242.714844 C 189.925781 233.695312 191.648438 223.941406 194.355469 214.679688 C 195.421875 211.074219 196.488281 207.464844 197.554688 203.941406 C 200.429688 194.1875 200.347656 183.53125 197.71875 173.691406 C 187.710938 174.757812 177.949219 177.464844 168.105469 179.347656 C 158.257812 181.234375 147.59375 182.875 137.832031 180.414062 Z M 137.832031 180.414062 " fill-opacity="1" fill-rule="nonzero"/><path fill="#c5815c" d="M 206.253906 174.839844 C 206.171875 175.660156 206.171875 176.5625 206.746094 177.21875 C 207.402344 177.957031 208.796875 177.792969 209.371094 176.972656 C 209.453125 176.808594 209.535156 176.5625 209.699219 176.398438 C 209.863281 176.234375 210.109375 176.070312 210.273438 176.152344 C 210.601562 176.234375 210.683594 176.726562 210.847656 177.054688 C 211.175781 177.792969 212.242188 177.957031 212.980469 177.628906 C 213.71875 177.300781 214.210938 176.5625 214.703125 175.824219 C 215.113281 175.167969 215.605469 174.429688 216.34375 174.019531 C 217.328125 173.53125 218.558594 173.773438 219.707031 173.609375 C 220.527344 173.53125 221.429688 173.367188 221.921875 173.9375 C 222.332031 174.347656 222.332031 175.003906 222.085938 175.496094 C 221.921875 175.988281 221.511719 176.480469 221.265625 176.972656 C 220.855469 177.710938 220.691406 178.53125 220.691406 179.347656 C 220.691406 179.757812 220.773438 180.167969 220.9375 180.578125 C 221.101562 180.90625 221.511719 181.234375 221.921875 181.234375 C 222.660156 181.316406 223.152344 180.660156 223.480469 180.003906 C 224.21875 178.941406 224.875 177.875 225.367188 176.644531 C 225.859375 175.414062 226.1875 174.183594 225.941406 172.875 C 220.9375 171.152344 215.605469 170.332031 210.273438 170.414062 C 209.699219 170.414062 209.207031 170.414062 208.632812 170.578125 C 208.222656 170.660156 207.8125 170.90625 207.484375 171.234375 C 207.238281 171.480469 207.15625 171.890625 206.992188 172.21875 C 206.664062 172.957031 206.417969 173.855469 206.253906 174.839844 Z M 206.253906 174.839844 " fill-opacity="1" fill-rule="nonzero"/><path fill="#c5815c" d="M 218.476562 143.363281 C 216.425781 143.855469 214.621094 144.839844 212.898438 145.988281 C 211.257812 147.214844 209.699219 148.609375 208.304688 150.085938 C 208.058594 150.332031 207.894531 150.578125 207.730469 150.824219 C 207.566406 151.152344 207.566406 151.480469 207.8125 151.726562 C 207.976562 151.890625 208.140625 151.972656 208.386719 152.050781 C 209.125 152.296875 209.945312 152.378906 210.765625 152.460938 C 211.585938 152.542969 212.324219 152.625 213.144531 152.378906 C 213.882812 152.132812 214.621094 151.644531 215.277344 151.316406 C 217.492188 150.003906 220.035156 149.59375 222.578125 148.9375 C 223.398438 148.773438 224.300781 148.445312 224.792969 147.789062 C 225.203125 147.214844 225.203125 146.480469 225.203125 145.824219 C 225.203125 145.003906 225.285156 144.101562 225.039062 143.28125 C 224.875 142.707031 223.890625 142.871094 223.398438 142.871094 C 221.675781 142.953125 220.117188 143.035156 218.476562 143.363281 Z M 218.476562 143.363281 " fill-opacity="1" fill-rule="nonzero"/><path fill="#cd9b8b" d="M 93.445312 172.875 C 92.871094 173.285156 92.460938 173.773438 92.050781 174.429688 C 91.3125 175.660156 90.984375 177.136719 90.984375 178.613281 C 90.984375 180.824219 91.558594 182.957031 92.296875 185.085938 C 95.003906 193.285156 99.351562 201.316406 106.40625 206.234375 C 110.757812 209.269531 115.84375 210.828125 120.929688 212.300781 C 123.472656 213.039062 126.015625 213.695312 128.476562 214.515625 C 129.378906 214.84375 131.183594 215.828125 132.085938 215.746094 C 133.152344 215.664062 133.644531 214.1875 133.808594 213.285156 C 134.054688 212.300781 134.054688 211.15625 134.628906 210.253906 C 135.367188 209.105469 136.925781 208.613281 138.242188 208.203125 C 143.246094 206.644531 147.839844 204.023438 151.777344 200.5 C 164.65625 189.023438 183.855469 187.300781 197.71875 176.972656 C 197.71875 177.710938 197.71875 178.449219 197.964844 179.101562 C 198.210938 179.757812 198.871094 180.332031 199.609375 180.332031 C 200.757812 180.25 201.25 178.941406 201.742188 177.957031 C 203.054688 175.25 205.925781 173.613281 208.796875 172.957031 C 211.585938 172.300781 214.785156 172.21875 217.492188 172.710938 C 220.363281 173.285156 223.480469 172.464844 226.515625 172.957031 C 229.472656 173.449219 232.425781 174.757812 234.230469 177.136719 C 236.773438 180.414062 236.855469 184.839844 236.773438 188.941406 C 236.691406 192.957031 236.691406 196.972656 236.609375 200.988281 C 236.609375 202.628906 236.527344 204.269531 237.101562 205.746094 C 237.59375 207.300781 238.742188 208.695312 240.382812 209.023438 C 243.171875 209.679688 245.46875 206.890625 246.699219 204.351562 C 247.929688 201.808594 249.078125 198.695312 251.703125 197.792969 C 251.375 200.988281 248.914062 203.941406 245.714844 204.84375 C 246.863281 205.417969 248.257812 204.761719 249.160156 203.941406 C 250.144531 203.121094 250.964844 202.054688 252.113281 201.5625 C 253.34375 201.152344 254.984375 201.890625 254.902344 203.121094 C 254.820312 203.695312 254.410156 204.1875 254 204.679688 C 251.785156 207.136719 249.488281 209.597656 247.273438 212.054688 C 248.832031 214.433594 252.6875 214.269531 254.902344 212.382812 C 257.117188 210.5 258.101562 207.628906 258.921875 204.84375 C 258.59375 207.300781 258.265625 209.761719 257.855469 212.21875 C 257.773438 212.710938 257.773438 213.203125 258.101562 213.53125 C 258.675781 214.023438 259.5 213.203125 259.746094 212.546875 C 261.632812 207.710938 258.757812 201.398438 262.207031 197.464844 C 262.863281 196.726562 263.683594 196.152344 264.011719 195.253906 C 264.421875 194.1875 263.929688 192.957031 263.4375 191.890625 C 260.648438 185.085938 259.582031 177.464844 260.566406 170.167969 C 261.058594 166.398438 262.042969 162.382812 260.484375 158.855469 C 258.921875 155.25 255.066406 153.28125 251.375 152.054688 C 243.5 149.429688 235.132812 148.855469 226.84375 148.363281 C 206.417969 147.132812 186.070312 145.988281 165.640625 144.757812 C 166.132812 145.90625 167.445312 146.398438 168.597656 146.644531 C 169.746094 146.886719 171.140625 146.96875 172.125 147.625 C 173.109375 148.363281 173.601562 150.003906 172.617188 150.742188 C 172.125 151.152344 171.386719 151.152344 170.648438 151.070312 C 167.609375 150.90625 164.574219 150.824219 161.539062 150.660156 C 152.679688 150.25 143.738281 148.527344 135.121094 150.414062 C 129.789062 151.5625 124.867188 153.773438 119.863281 155.988281 C 113.875 158.691406 108.296875 162.136719 102.878906 165.90625 C 100.171875 167.792969 97.464844 169.757812 94.757812 171.644531 C 94.429688 172.21875 93.9375 172.546875 93.445312 172.875 Z M 93.445312 172.875 " fill-opacity="1" fill-rule="nonzero"/><path stroke-linecap="butt" transform="matrix(0.820418, 0, 0, 0.819719, -21.823108, 1.962122)" fill-opacity="1" fill="#c5815c" fill-rule="nonzero" stroke-linejoin="miter" d="M 333.198783 47.599651 C 334.398629 49.100737 335.898437 50.50175 336.098411 52.298288 C 336.298386 53.899446 335.498488 55.500604 335.09854 57.101762 C 334.798578 58.297865 334.798578 59.798951 335.598475 60.799675 C 336.598347 62.100616 338.898052 62.000543 340.39786 61.700326 C 340.797809 61.600254 341.297745 61.500181 341.697693 61.700326 C 342.402365 62.000543 342.402365 62.901195 342.402365 63.701774 C 342.402365 64.502353 342.297617 65.298166 342.902301 65.698456 C 343.30225 65.898601 343.702198 65.898601 344.102147 65.898601 C 344.502096 65.898601 345.002032 65.998673 345.202006 66.398963 C 345.501968 66.899325 345.002032 67.599831 345.301993 68.200266 C 345.601955 68.8007 346.401852 68.700627 347.101762 68.8007 C 348.201621 69.000845 349.001519 69.801424 349.401468 70.802147 C 349.601442 71.397816 349.801416 71.998251 349.801416 72.598685 C 349.901404 73.099047 349.801416 73.599409 350.101378 73.999698 C 350.701301 74.700205 352.301096 74.700205 353.100993 74.700205 C 366.199314 75.000422 379.397622 70.101641 389.201127 61.400109 C 386.501473 54.399808 382.00205 48.100013 376.298019 43.101159 C 370.298788 37.902161 362.599775 34.199483 354.600801 34.4997 C 350.001391 34.699845 345.501968 36.20093 340.797809 36.401075 C 337.298257 36.501147 333.398757 35.800641 330.699104 33.398904 C 329.999193 32.798469 329.499257 31.797746 328.799347 31.202077 C 328.099437 33.198759 328.399398 36.000786 328.799347 38.002233 C 329.199296 40.19906 329.899206 42.400653 330.999065 44.4021 C 331.598988 45.498131 332.298898 46.598927 333.198783 47.599651 Z M 333.198783 47.599651 " stroke="#ffffff" stroke-width="0.75" stroke-opacity="1" stroke-miterlimit="10"/><path fill="#221b1b" d="M 254 40.488281 C 253.261719 40.078125 252.441406 39.75 251.621094 39.421875 C 251.375 39.339844 251.210938 39.257812 250.964844 39.257812 C 250.71875 39.257812 250.472656 39.339844 250.390625 39.503906 C 250.226562 39.75 250.226562 40.078125 250.308594 40.40625 C 250.390625 40.570312 250.390625 40.816406 250.554688 40.898438 C 250.882812 41.308594 251.621094 40.898438 252.03125 40.816406 C 252.359375 40.734375 252.6875 40.652344 253.015625 40.652344 C 253.261719 40.652344 253.835938 40.40625 254 40.488281 Z M 254 40.488281 " fill-opacity="1" fill-rule="nonzero"/><path fill="#221b1b" d="M 267.375 37.128906 C 267.046875 38.277344 265.734375 39.011719 264.585938 39.011719 C 263.355469 39.09375 262.207031 38.605469 261.058594 38.113281 C 258.429688 37.046875 255.886719 35.980469 253.261719 34.914062 C 250.390625 33.765625 247.355469 32.375 246.042969 29.585938 C 245.304688 27.945312 245.304688 26.144531 245.46875 24.339844 C 246.617188 13.929688 254.902344 4.667969 265.078125 2.371094 C 275.25 0.078125 286.734375 4.75 292.316406 13.683594 C 294.449219 17.125 296.007812 21.226562 299.371094 23.355469 C 302.160156 25.078125 305.605469 25.160156 308.886719 25.652344 C 314.382812 26.554688 319.632812 29.011719 323.410156 33.113281 C 327.183594 37.210938 329.316406 42.867188 328.578125 48.359375 C 328.167969 51.308594 326.773438 54.425781 324.066406 55.652344 C 321.195312 56.964844 317.746094 55.816406 314.792969 54.671875 C 312.742188 53.851562 310.609375 53.03125 308.804688 51.71875 C 307 50.40625 305.605469 48.441406 305.359375 46.144531 C 305.113281 46.636719 304.785156 47.210938 304.539062 47.703125 C 305.769531 42.375 304.621094 36.472656 301.503906 31.964844 C 300.273438 32.703125 298.386719 32.703125 296.992188 32.210938 C 296.253906 35.078125 298.304688 38.113281 297.730469 40.980469 C 297.484375 42.128906 296.910156 43.195312 296.171875 44.175781 C 294.695312 46.144531 292.316406 47.867188 289.855469 47.539062 C 288.375 47.375 287.0625 46.554688 285.996094 45.488281 C 284.929688 44.421875 284.109375 43.195312 283.289062 41.964844 C 280.828125 38.523438 277.957031 35.324219 274.347656 33.113281 C 273.363281 32.539062 272.296875 32.046875 271.148438 32.128906 C 270.082031 32.210938 269.097656 32.867188 268.441406 33.765625 C 267.867188 34.996094 267.621094 36.144531 267.375 37.128906 Z M 267.375 37.128906 " fill-opacity="1" fill-rule="nonzero"/><path fill="#e6ceb8" d="M 299.371094 33.03125 C 300.191406 32.949219 300.929688 32.621094 301.421875 32.046875 C 301.914062 31.472656 301.996094 30.652344 302.160156 29.914062 C 302.324219 29.011719 302.40625 28.191406 302.570312 27.292969 C 302.734375 26.390625 302.816406 25.40625 302.242188 24.667969 C 301.914062 24.257812 301.339844 24.09375 300.847656 23.847656 C 300.355469 23.683594 299.699219 23.4375 299.207031 23.683594 C 298.796875 23.929688 298.550781 24.339844 298.386719 24.832031 C 297.730469 26.472656 297.238281 28.273438 296.992188 30.078125 C 296.910156 30.652344 296.582031 31.882812 296.910156 32.375 C 297.484375 32.949219 298.796875 33.03125 299.371094 33.03125 Z M 299.371094 33.03125 " fill-opacity="1" fill-rule="nonzero"/><path fill="#c5815c" d="M 334.074219 384.277344 C 333.910156 385.671875 333.582031 387.148438 334.074219 388.460938 C 334.566406 389.933594 335.878906 391 337.273438 391.820312 C 338.585938 392.558594 340.144531 393.132812 341.703125 393.132812 C 343.507812 393.050781 345.230469 392.148438 346.542969 390.917969 C 347.9375 389.6875 349.414062 388.050781 350.398438 386.492188 C 351.304688 384.933594 352.863281 383.871094 353.601562 382.3125 C 354.421875 380.589844 354.09375 378.378906 352.863281 376.902344 C 352.125 376 351.222656 375.425781 350.730469 374.277344 C 350.234375 372.96875 350.316406 371.65625 350.234375 370.261719 C 350.234375 369.933594 350.152344 369.523438 349.90625 369.277344 C 349.660156 369.03125 349.25 369.03125 348.921875 369.113281 C 344.820312 369.359375 340.882812 371 337.109375 372.640625 C 336.371094 372.96875 335.632812 373.292969 334.976562 373.785156 C 334.320312 374.277344 334.238281 374.605469 334.320312 375.34375 C 334.484375 377.230469 334.566406 379.195312 334.402344 381.082031 C 334.402344 382.066406 334.238281 383.214844 334.074219 384.277344 Z M 334.074219 384.277344 " fill-opacity="1" fill-rule="nonzero"/><path fill="#cd9b8b" d="M 270.082031 187.136719 C 267.210938 194.679688 264.75 202.382812 262.78125 210.171875 C 258.183594 228.285156 255.96875 246.8125 253.753906 265.417969 C 252.933594 272.386719 252.113281 279.355469 252.359375 286.40625 C 252.523438 291.816406 253.34375 297.226562 254 302.636719 C 254.328125 305.339844 254.65625 308.046875 254.738281 310.75 C 254.902344 313.375 254.65625 315.996094 254.574219 318.621094 C 254.410156 326.570312 254.492188 334.605469 255.722656 342.472656 C 257.117188 351.082031 256.789062 359.6875 257.199219 368.375 C 257.363281 371.492188 257.445312 374.605469 256.789062 377.722656 C 256.460938 379.359375 255.886719 381 256.132812 382.722656 C 256.460938 384.605469 257.855469 386.164062 259.335938 387.394531 C 263.355469 390.589844 268.769531 391.984375 273.855469 391.082031 C 274.675781 390.917969 275.496094 390.753906 276.152344 390.179688 C 277.21875 389.199219 277.136719 387.558594 277.054688 386.164062 C 276.398438 375.753906 277.792969 365.261719 280.992188 355.34375 C 282.386719 351 282.796875 346.082031 283.125 341.570312 C 283.535156 336.652344 283.535156 331.816406 283.207031 326.898438 C 282.960938 323.539062 282.550781 320.257812 282.140625 316.898438 C 281.894531 314.847656 281.648438 312.882812 281.402344 310.832031 C 281.238281 309.4375 281.074219 308.046875 280.828125 306.734375 C 280.746094 306.078125 281.320312 305.585938 281.730469 305.011719 C 282.140625 304.4375 282.386719 303.699219 281.976562 303.046875 C 281.8125 302.800781 281.566406 302.554688 281.484375 302.308594 C 281.402344 301.980469 281.648438 301.570312 281.8125 301.324219 C 282.304688 300.503906 282.550781 299.519531 282.386719 298.617188 C 283.125 298.78125 283.453125 299.601562 283.78125 300.257812 C 284.847656 302.472656 286.488281 304.4375 288.539062 305.914062 C 290.757812 307.472656 291.90625 310.09375 293.382812 312.390625 C 294.449219 314.191406 295.84375 315.75 297.484375 317.0625 C 298.140625 317.636719 298.878906 318.210938 299.042969 319.113281 C 299.125 319.4375 299.042969 319.847656 299.125 320.175781 C 299.289062 321.078125 300.109375 321.734375 300.847656 322.308594 C 302.324219 323.621094 303.554688 325.175781 304.703125 326.734375 C 305.523438 327.882812 306.425781 329.113281 307.246094 330.339844 C 309.953125 334.195312 312.578125 338.046875 315.285156 341.816406 C 322.425781 352.0625 328.003906 363.292969 332.1875 375.015625 C 332.597656 376.164062 333.253906 377.558594 334.484375 377.722656 C 335.46875 377.804688 336.289062 377.148438 337.027344 376.574219 C 340.390625 373.867188 344.574219 372.148438 348.921875 371.738281 C 349.742188 371.65625 350.730469 371.574219 351.222656 370.835938 C 351.714844 370.097656 351.46875 369.113281 351.140625 368.292969 C 346.460938 354.933594 341.375 341.734375 335.960938 328.703125 C 333.910156 323.867188 332.1875 318.703125 329.234375 314.355469 C 328.167969 312.800781 327.019531 311.40625 325.789062 310.011719 C 322.507812 306.078125 319.222656 302.144531 315.941406 298.207031 C 315.613281 298.371094 315.121094 298.042969 315.121094 297.71875 C 315.121094 297.308594 315.285156 296.980469 315.203125 296.570312 C 315.039062 295.832031 314.21875 295.585938 313.644531 295.09375 C 313.070312 294.601562 312.824219 293.78125 312.660156 293.042969 C 312.085938 290.667969 311.511719 288.125 312.25 285.832031 C 315.53125 276.566406 317.5 266.894531 321.113281 257.714844 C 323.738281 250.992188 326.363281 244.269531 328.988281 237.550781 C 330.546875 233.53125 332.023438 229.433594 333.746094 225.417969 C 334.648438 223.367188 335.550781 221.238281 335.878906 219.023438 C 336.125 217.382812 336.125 215.746094 336.125 214.105469 C 335.960938 208.449219 335.304688 202.710938 334.074219 197.136719 C 333.335938 193.613281 331.941406 190.25 330.464844 187.054688 C 313.5625 190.085938 296.007812 189.921875 279.105469 187.300781 C 275.988281 186.644531 273.117188 185.988281 270.082031 187.136719 Z M 270.082031 187.136719 " fill-opacity="1" fill-rule="nonzero"/><path fill="#c5815c" d="M 209.371094 168.039062 C 209.207031 168.855469 209.042969 169.675781 209.125 170.578125 C 209.207031 171.398438 209.535156 172.300781 210.109375 172.875 C 210.765625 173.53125 211.914062 173.773438 212.488281 173.121094 C 212.898438 172.710938 212.898438 172.054688 212.980469 171.398438 C 213.0625 170.414062 213.390625 169.429688 213.800781 168.527344 C 213.964844 168.203125 214.210938 167.875 214.539062 167.957031 C 214.785156 167.957031 214.949219 168.203125 215.113281 168.445312 C 215.769531 169.59375 216.179688 170.824219 216.835938 171.972656 C 217.492188 173.121094 218.476562 174.101562 219.789062 174.429688 C 221.675781 174.839844 223.480469 173.53125 225.367188 173.691406 C 225.859375 173.691406 226.433594 173.855469 226.925781 173.855469 C 227.417969 173.855469 227.992188 173.691406 228.238281 173.203125 C 228.570312 172.710938 228.40625 172.054688 228.238281 171.480469 C 228.15625 170.90625 228.074219 170.332031 227.992188 169.757812 C 227.746094 167.300781 227.5 164.839844 227.171875 162.382812 C 227.171875 162.300781 226.105469 161.890625 225.941406 161.808594 C 225.53125 161.5625 225.121094 161.398438 224.710938 161.152344 C 223.890625 160.660156 223.070312 160.167969 222.25 159.675781 C 220.691406 158.609375 219.132812 157.460938 217.738281 156.152344 C 217.328125 155.742188 217.246094 155.742188 216.753906 156.070312 C 216.425781 156.316406 216.097656 156.5625 215.769531 156.890625 C 215.113281 157.460938 214.539062 158.035156 213.964844 158.691406 C 212.898438 159.921875 211.914062 161.398438 211.175781 162.871094 C 210.355469 164.347656 209.78125 166.152344 209.371094 168.039062 Z M 209.371094 168.039062 " fill-opacity="1" fill-rule="nonzero"/><path fill="#e6ceb8" d="M 301.421875 49.015625 C 301.421875 49.015625 301.339844 49.015625 301.339844 49.015625 C 300.519531 48.769531 300.027344 48.277344 299.289062 48.03125 C 298.550781 47.703125 297.730469 47.539062 296.992188 47.457031 C 295.269531 47.210938 293.382812 47.457031 291.742188 47.949219 C 288.539062 49.015625 285.75 51.226562 283.207031 53.441406 C 277.136719 58.6875 271.3125 64.425781 267.457031 71.472656 C 266.472656 73.277344 265.570312 75.328125 265.980469 77.292969 C 266.308594 78.6875 267.210938 79.917969 267.539062 81.3125 C 268.277344 83.851562 267.292969 86.640625 266.226562 89.097656 C 262.945312 97.132812 262.042969 106.230469 258.429688 114.101562 C 256.953125 117.378906 255.148438 120.738281 255.804688 124.265625 C 256.050781 125.65625 256.707031 126.96875 256.789062 128.28125 C 256.953125 130.574219 255.558594 132.789062 253.671875 134.101562 C 251.785156 135.414062 249.570312 136.148438 247.355469 136.640625 C 242.679688 137.707031 237.921875 138.199219 233.164062 138.117188 C 229.964844 139.019531 226.761719 140.085938 223.5625 140.988281 C 222.824219 141.230469 222.003906 141.476562 221.757812 142.214844 C 221.347656 143.527344 223.398438 144.59375 223.152344 145.90625 C 222.988281 146.722656 222.003906 147.050781 221.265625 147.378906 C 217.082031 149.183594 214.785156 154.183594 215.441406 158.773438 C 216.097656 163.28125 219.214844 167.21875 223.070312 169.59375 C 224.21875 170.332031 225.613281 170.988281 227.007812 170.988281 C 228.402344 170.988281 229.882812 170.167969 230.292969 168.855469 C 230.703125 167.628906 230.292969 165.988281 231.441406 165.414062 C 232.671875 164.839844 234.230469 166.316406 235.296875 165.414062 C 235.707031 165.085938 235.789062 164.511719 236.199219 164.183594 C 236.609375 163.773438 237.347656 163.773438 237.921875 163.9375 C 238.496094 164.101562 238.988281 164.511719 239.5625 164.839844 C 241.367188 165.824219 243.5 165.824219 245.46875 165.578125 C 249.570312 165.167969 253.671875 164.183594 257.445312 162.628906 C 258.511719 162.136719 259.992188 161.726562 260.8125 162.628906 C 261.304688 163.199219 261.222656 164.183594 260.8125 164.839844 C 260.402344 165.496094 259.828125 166.070312 259.335938 166.726562 C 257.527344 169.019531 257.527344 172.628906 259.335938 175.003906 C 262.125 178.53125 260.894531 183.695312 261.632812 188.121094 C 262.125 190.90625 262.535156 193.777344 262.371094 196.644531 C 262.289062 197.464844 262.207031 198.367188 262.453125 199.1875 C 262.699219 200.007812 263.355469 200.742188 264.257812 200.742188 C 264.996094 200.742188 265.652344 200.089844 266.226562 199.679688 C 267.785156 198.449219 269.835938 198.039062 271.804688 197.957031 C 273.773438 197.875 275.742188 198.203125 277.710938 198.285156 C 284.109375 198.777344 290.511719 197.628906 296.828125 196.480469 C 308.148438 194.433594 319.386719 192.300781 330.792969 190.578125 C 331.859375 190.414062 333.089844 190.167969 333.582031 189.269531 C 334.320312 188.039062 333.417969 186.5625 332.679688 185.332031 C 331.695312 183.613281 331.121094 181.726562 330.957031 179.757812 C 330.792969 177.628906 330.957031 175.25 329.480469 173.773438 C 329.070312 173.367188 328.496094 173.039062 328.085938 172.546875 C 327.675781 172.136719 327.347656 171.398438 327.59375 170.824219 C 327.757812 170.414062 328.167969 170.085938 328.496094 169.839844 C 330.054688 168.527344 330.875 166.480469 331.203125 164.429688 C 331.53125 162.382812 331.285156 160.332031 331.039062 158.28125 C 330.21875 150.578125 331.53125 142.871094 332.351562 135.167969 C 333.007812 129.429688 333.253906 123.691406 333.253906 117.871094 C 333.171875 101.96875 332.515625 85.902344 327.59375 70.738281 C 326.199219 66.554688 323.902344 62.539062 323.738281 58.113281 C 323.738281 57.210938 323.738281 56.144531 323.164062 55.40625 C 322.34375 54.261719 320.785156 54.097656 319.386719 53.769531 C 316.269531 53.195312 313.480469 51.71875 310.527344 50.570312 C 308.230469 49.667969 306.097656 49.015625 303.636719 48.933594 C 302.816406 49.179688 302.078125 49.179688 301.421875 49.015625 Z M 301.421875 49.015625 " fill-opacity="1" fill-rule="nonzero"/></svg>