<svg xmlns="http://www.w3.org/2000/svg" width="500" height="500" viewBox="0 0 375 375"><path fill="#c5815c" stroke="#fff" stroke-miterlimit="10" stroke-width=".615" d="M16.902 138.117c.656 1.477 1.313 2.871 2.297 4.18s2.297 2.297 3.855 2.625c1.23.246 2.625.082 3.855-.246 4.102-.984 7.793-2.871 11.566-4.836 7.961-4.18 16-8.281 23.465-13.363-.082-3.031-.574-5.984-1.887-8.687s-3.527-5.082-6.398-5.984c-2.789-.984-5.906-.492-8.781.41s-5.578 2.129-8.449 2.785c-3.527.82-7.465.82-10.254 3.117-1.887 1.555-2.789 3.852-3.773 6.148zm0 0"/><path fill="#221b1b" d="M18.215 142.461c1.477-.82 3.035-1.637 3.938-3.031.738-1.148 1.066-2.543 2.051-3.527 1.723-1.801 5.086-1.637 6.07-3.852.574-1.148.246-2.457-.246-3.687-.492-1.148-1.148-2.297-1.395-3.523-.492-2.871 2.051-5.738 4.922-5.738 1.395 0 2.707.652 4.102.898 2.543.492 5.168-.328 7.383-1.637 2.219-1.23 4.27-2.953 6.402-4.426 3.609-2.379 7.629-4.102 11.895-5.004.656-.16 1.395-.324 1.969-.816.492-.492.656-1.477 0-1.887-.246-.164-.574-.164-.82-.246l-6.809-.574c-2.133-.164-4.594-.492-5.906-2.211-.984-1.312-3.199-.328-4.84-.246-1.891.082-3.777-.656-5.582-1.148-9.598-2.543-20.344.328-27.402 7.211-1.805 1.805-3.445 3.855-4.512 6.23s-1.477 5-1.066 7.543c.41 2.051.246 4.098.492 6.148.41 2.785 1.066 5.656 2.379 8.113 1.641 2.543 4.188 4.836 6.977 5.41zm0 0"/><path fill="#5f3629" d="M61.531 109.918c-1.969.164-4.102.41-5.66 1.723-.82.656-1.395 1.641-2.051 2.461-1.395 1.883-2.953 3.523-4.594 5.164l-22.07 22.621c-4.02 4.184-9.844 6.395-14.934 9.184-3.035 1.637-6.234 3.277-8.531 5.82S0 163.199 1.23 166.398c.902 2.293 2.953 3.934 5.168 5 4.512 2.051 9.848 1.805 14.605.492 4.758-1.395 9.188-3.77 13.617-6.066s8.941-4.508 13.867-5.328c2.297-.41 4.348-1.559 6.645-1.887s4.84 0 6.727 1.313c1.313.902 2.297 2.215 3.035 3.688 1.148 2.297 1.723 5 3.281 7.051 2.379 3.031 6.398 4.016 10.012 5.328 2.953 1.066 5.824 2.543 8.859 3.359s6.48.82 9.188-.734c10.09-5.902 23.137-2.789 34.785-3.117 8.699-.246 16.574-4.836 25.105-6.395 5.742-1.062 11.652-1.883 16.492-5.082 1.805-1.148 3.691-2.211 5.168-3.77s2.461-3.687 2.051-5.82c-.164-.984-.656-1.887-1.23-2.703-2.133-2.871-5.66-4.266-9.023-5.492l-24.121-8.773c-8.863-3.277-16.82-8.605-24.531-14.016-6.234-4.344-10.992-10.41-17.477-14.512-3.117-1.965-6.398-4.016-10.09-3.852-2.625.082-5.004 1.313-7.629 1.395-2.297.082-4.512-.738-6.727-1.395-2.215-.574-4.68-.902-6.73.082-2.625 1.313-5.496 2.051-8.203 3.117-.82.246-1.723.816-2.543 1.637m0 0"/><path fill="#c5815c" d="M172.699 366c-.328.656-.738 1.395-.656 2.211 0 .738.492 1.395.984 2.051 1.395 1.887 2.789 3.852 4.512 5.41 1.723 1.641 3.773 2.953 6.07 3.441 3.938.82 8.039-.816 11.238-3.113.656-.492 1.395-1.066 1.477-1.969 0-.492-.164-.98-.41-1.473-2.133-4.512-3.281-9.512-3.527-14.512 0 .246-13.863-.082-15.176-.164-.738-.082-1.395-.082-2.133-.164-.492 0-1.23-.246-1.723-.082.164.328.574.574.656.984.164.738.082 1.723 0 2.543-.164 1.555-.574 3.277-1.312 4.836zm0 0"/><path fill="#5f3629" d="M198.051 383.625c-.168.898-.414 1.883-1.234 2.129-.41.164-.82.082-1.23.082l-29.781-2.539c-1.641-.164-3.527-.328-4.758-1.477-1.312-1.23-1.641-3.359-1.066-5.082a6.76 6.76 0 0 1 1.641-2.625c1.066-1.145 2.461-2.047 3.691-2.949a79.74 79.74 0 0 1 4.352-2.871c.82-.41 1.723-.816 2.543-.652.656.164 1.23.57 1.641 1.063.328.41.492.82.738 1.23.164.41.492.656.738 1.066l1.723 2.293c2.953 3.445 8.121 4.84 12.305 3.199 2.133-.82 4.02-2.379 6.234-2.953.574-.164.82-.246 1.066.328.246.492.41 1.148.656 1.723.41 1.23.656 2.461.738 3.688.332 1.559.25 2.953.004 4.348zm0 0"/><path fill="#e6ceb8" d="M137.832 180.414c.41 6.805-.328 13.691-2.219 20.246-4.676 16.313-7.301 33.199-8.285 50.086-.41 7.871-3.281 15.41-3.937 23.199-.574 6.723.82 13.441 2.543 20 4.184 16.313 8.531 32.543 13.703 48.609 2.215 6.887 3.609 13.938 5.086 20.984 1.148 5.656 1.805 11.477 4.02 16.805 1.641-.246 3.199-.246 4.84-.492l13.207-1.965c.82-.164 1.809-.328 2.219-1.066.328-.574.164-1.312 0-1.969a246.168 246.168 0 0 1-5.828-40.246c-.656-10.492-3.691-20.66-7.055-30.578-.574-1.637-1.23-3.277-1.723-5-.41-1.391.246-2.703-.902-4.016-.246-.328-.656-.656-.492-1.066.082-.328.41-.41.656-.574.328-.246.492-.738.41-1.145s-.41-.738-.738-.902c.738-1.066 1.148-2.379 1.066-3.609.738 2.133.984 4.43 1.723 6.559.164.41.328.902.492 1.313.246.656.41 1.23.656 1.887l5.988 17.539c3.035 8.855 5.5 17.871 7.797 26.969.574 2.379 1.148 4.754.984 7.133-.082 1.148-.328 2.297 0 3.359.246.902.82 1.641 1.066 2.461.41 1.641-.328 3.605.738 5 .738.902 2.051 1.066 3.281 1.148 3.938.164 7.957 0 11.895-.574 1.313-.164 2.707-.492 3.527-1.559.902-1.23.574-2.949.246-4.426-1.723-7.379-3.199-14.754-3.527-22.297-.246-5.902.164-11.969-1.395-17.707-2.461-8.852-4.348-17.785-8.039-26.148-1.148-2.539-2.379-5.164-2.133-7.949.41-4.754.328-9.512 1.313-14.184 1.641-8.031 4.348-15.82 7.383-23.523 3.527-9.02 5.25-18.773 7.957-28.035l3.199-10.738c2.875-9.754 2.793-20.41.164-30.25-10.008 1.066-19.77 3.773-29.613 5.656s-20.512 3.527-30.273 1.066zm0 0"/><path fill="#c5815c" d="M206.254 174.84c-.082.82-.082 1.723.492 2.379.656.738 2.051.574 2.625-.246.082-.164.164-.41.328-.574s.41-.328.574-.246c.328.082.41.574.574.902.328.738 1.395.902 2.133.574s1.23-1.066 1.723-1.805c.41-.656.902-1.395 1.641-1.805.984-.488 2.215-.246 3.363-.41.82-.078 1.723-.242 2.215.328.41.41.41 1.066.164 1.559-.164.492-.574.984-.82 1.477-.41.738-.574 1.559-.574 2.375a3.29 3.29 0 0 0 .246 1.23c.164.328.574.656.984.656.738.082 1.23-.574 1.559-1.23.738-1.062 1.395-2.129 1.887-3.359s.82-2.461.574-3.77c-5.004-1.723-10.336-2.543-15.668-2.461-.574 0-1.066 0-1.641.164-.41.082-.82.328-1.148.656-.246.246-.328.656-.492.984-.328.738-.574 1.637-.738 2.621zm12.223-31.477c-2.051.492-3.855 1.477-5.578 2.625a36.127 36.127 0 0 0-4.594 4.098c-.246.246-.41.492-.574.738-.164.328-.164.656.082.902.164.164.328.246.574.324.738.246 1.559.328 2.379.41s1.559.164 2.379-.082c.738-.246 1.477-.734 2.133-1.062 2.215-1.312 4.758-1.723 7.301-2.379.82-.164 1.723-.492 2.215-1.148.41-.574.41-1.309.41-1.965 0-.82.082-1.723-.164-2.543-.164-.574-1.148-.41-1.641-.41-1.723.082-3.281.164-4.922.492m0 0"/><path fill="#cd9b8b" d="M93.445 172.875c-.574.41-.984.898-1.395 1.555-.738 1.23-1.066 2.707-1.066 4.184 0 2.211.574 4.344 1.313 6.473 2.707 8.199 7.055 16.23 14.109 21.148 4.352 3.035 9.438 4.594 14.523 6.066 2.543.738 5.086 1.395 7.547 2.215.902.328 2.707 1.313 3.609 1.23 1.066-.082 1.559-1.559 1.723-2.461.246-.984.246-2.129.82-3.031.738-1.148 2.297-1.641 3.613-2.051a36.596 36.596 0 0 0 13.535-7.703c12.879-11.477 32.078-13.199 45.941-23.527 0 .738 0 1.477.246 2.129s.906 1.23 1.645 1.23c1.148-.082 1.641-1.391 2.133-2.375 1.313-2.707 4.184-4.344 7.055-5 2.789-.656 5.988-.738 8.695-.246 2.871.574 5.988-.246 9.023.246 2.957.492 5.91 1.801 7.715 4.18 2.543 3.277 2.625 7.703 2.543 11.805l-.164 12.047c0 1.641-.082 3.281.492 4.758.492 1.555 1.641 2.949 3.281 3.277 2.789.656 5.086-2.133 6.316-4.672s2.379-5.656 5.004-6.559c-.328 3.195-2.789 6.148-5.988 7.051 1.148.574 2.543-.082 3.445-.902.984-.82 1.805-1.887 2.953-2.379 1.23-.41 2.871.328 2.789 1.559-.082.574-.492 1.066-.902 1.559l-6.727 7.375c1.559 2.379 5.414 2.215 7.629.328s3.199-4.754 4.02-7.539l-1.066 7.375c-.082.492-.082.984.246 1.313.574.492 1.398-.328 1.645-.984 1.887-4.836-.988-11.148 2.461-15.082.656-.738 1.477-1.312 1.805-2.211.41-1.066-.082-2.297-.574-3.363-2.789-6.805-3.855-14.426-2.871-21.723.492-3.77 1.477-7.785-.082-11.312-1.562-3.605-5.418-5.574-9.109-6.801-7.875-2.625-16.242-3.199-24.531-3.691l-61.203-3.605c.492 1.148 1.805 1.641 2.957 1.887s2.543.324 3.527.98c.984.738 1.477 2.379.492 3.117-.492.41-1.23.41-1.969.328l-9.109-.41c-8.859-.41-17.801-2.133-26.418-.246-5.332 1.148-10.254 3.359-15.258 5.574-5.988 2.703-11.566 6.148-16.984 9.918l-8.121 5.738c-.328.574-.82.902-1.312 1.23zm0 0"/><path fill="#c5815c" stroke="#fff" stroke-miterlimit="10" stroke-width=".615" d="M251.539 40.98c.984 1.23 2.215 2.379 2.379 3.852.164 1.312-.492 2.625-.82 3.937-.246.98-.246 2.211.41 3.031.82 1.066 2.707.984 3.938.738.328-.082.738-.164 1.066 0 .578.246.578.984.578 1.641s-.086 1.309.41 1.637c.328.164.656.164.984.164s.738.082.902.41c.246.41-.164.984.082 1.477s.902.41 1.477.492c.902.164 1.559.82 1.887 1.641.164.488.328.98.328 1.473.082.41 0 .82.246 1.148.492.574 1.805.574 2.461.574 10.746.246 21.574-3.77 29.617-10.902-2.215-5.738-5.906-10.902-10.586-15-4.922-4.262-11.238-7.297-17.801-7.051-3.773.164-7.465 1.395-11.324 1.559-2.871.082-6.07-.492-8.285-2.461-.574-.492-.984-1.312-1.559-1.801-.574 1.637-.328 3.934 0 5.574.328 1.801.902 3.605 1.805 5.246.492.898 1.066 1.801 1.805 2.621zm0 0"/><path fill="#221b1b" d="M254 40.488c-.738-.41-1.559-.738-2.379-1.066-.246-.082-.41-.164-.656-.164s-.492.082-.574.246c-.164.246-.164.574-.082.902.082.164.082.41.246.492.328.41 1.066 0 1.477-.082.328-.082.656-.164.984-.164.246 0 .82-.246.984-.164m13.375-3.359c-.328 1.148-1.641 1.883-2.789 1.883-1.23.082-2.379-.406-3.527-.898l-7.797-3.199c-2.871-1.148-5.906-2.539-7.219-5.328-.738-1.641-.738-3.441-.574-5.246 1.148-10.41 9.434-19.672 19.609-21.969s21.656 2.379 27.238 11.313c2.133 3.441 3.691 7.543 7.055 9.672 2.789 1.723 6.234 1.805 9.516 2.297 5.496.902 10.746 3.359 14.523 7.461s5.906 9.754 5.168 15.246c-.41 2.949-1.805 6.066-4.512 7.293-2.871 1.313-6.32.164-9.273-.98-2.051-.82-4.184-1.641-5.988-2.953s-3.199-3.277-3.445-5.574c-.246.492-.574 1.066-.82 1.559 1.23-5.328.082-11.23-3.035-15.738-1.23.738-3.117.738-4.512.246-.738 2.867 1.313 5.902.738 8.77-.246 1.148-.82 2.215-1.559 3.195-1.477 1.969-3.855 3.691-6.316 3.363-1.48-.164-2.793-.984-3.859-2.051s-1.887-2.293-2.707-3.523c-2.461-3.441-5.332-6.641-8.941-8.852-.984-.574-2.051-1.066-3.199-.984-1.066.082-2.051.738-2.707 1.637-.574 1.23-.82 2.379-1.066 3.363zm0 0"/><path fill="#e6ceb8" d="M299.371 33.031c.82-.082 1.559-.41 2.051-.984s.574-1.395.738-2.133l.41-2.621c.164-.902.246-1.887-.328-2.625-.328-.41-.902-.574-1.395-.82-.492-.164-1.148-.41-1.641-.164-.41.246-.656.656-.82 1.148a22.48 22.48 0 0 0-1.395 5.246c-.082.574-.41 1.805-.082 2.297.574.574 1.887.656 2.461.656zm0 0"/><path fill="#c5815c" d="M334.074 384.277c-.164 1.395-.492 2.871 0 4.184.492 1.473 1.805 2.539 3.199 3.359 1.313.738 2.871 1.313 4.43 1.313 1.805-.082 3.527-.984 4.84-2.215 1.395-1.23 2.871-2.867 3.855-4.426.906-1.559 2.465-2.621 3.203-4.18.82-1.723.492-3.934-.738-5.41-.738-.902-1.641-1.477-2.133-2.625-.496-1.309-.414-2.621-.496-4.016 0-.328-.082-.738-.328-.984s-.656-.246-.984-.164c-4.102.246-8.039 1.887-11.812 3.527-.738.328-1.477.652-2.133 1.145s-.738.82-.656 1.559c.164 1.887.246 3.852.082 5.738 0 .984-.164 2.133-.328 3.195zm0 0"/><path fill="#cd9b8b" d="M270.082 187.137c-2.871 7.543-5.332 15.246-7.301 23.035-4.598 18.113-6.812 36.641-9.027 55.246-.82 6.969-1.641 13.938-1.395 20.988.164 5.41.984 10.82 1.641 16.23.328 2.703.656 5.41.738 8.113.164 2.625-.082 5.246-.164 7.871-.164 7.949-.082 15.984 1.148 23.852 1.395 8.609 1.066 17.215 1.477 25.902.164 3.117.246 6.23-.41 9.348-.328 1.637-.902 3.277-.656 5 .328 1.883 1.723 3.441 3.203 4.672 4.02 3.195 9.434 4.59 14.52 3.688.82-.164 1.641-.328 2.297-.902 1.066-.98.984-2.621.902-4.016-.656-10.41.738-20.902 3.938-30.82 1.395-4.344 1.805-9.262 2.133-13.773.41-4.918.41-9.754.082-14.672-.246-3.359-.656-6.641-1.066-10l-.738-6.066c-.164-1.395-.328-2.785-.574-4.098-.082-.656.492-1.148.902-1.723s.656-1.312.246-1.965c-.164-.246-.41-.492-.492-.738-.082-.328.164-.738.328-.984.492-.82.738-1.805.574-2.707.738.164 1.066.984 1.395 1.641a15.04 15.04 0 0 0 4.758 5.656c2.219 1.559 3.367 4.18 4.844 6.477 1.066 1.801 2.461 3.359 4.102 4.672.656.574 1.395 1.148 1.559 2.051.082.324 0 .734.082 1.063.164.902.984 1.559 1.723 2.133 1.477 1.313 2.707 2.867 3.855 4.426l2.543 3.605 8.039 11.477c7.141 10.246 12.719 21.477 16.902 33.199.41 1.148 1.066 2.543 2.297 2.707.984.082 1.805-.574 2.543-1.148a22.462 22.462 0 0 1 11.895-4.836c.82-.082 1.809-.164 2.301-.902s.246-1.723-.082-2.543c-4.68-13.359-9.766-26.559-15.18-39.59-2.051-4.836-3.773-10-6.727-14.348-1.066-1.555-2.215-2.949-3.445-4.344l-9.848-11.805c-.328.164-.82-.164-.82-.488 0-.41.164-.738.082-1.148-.164-.738-.984-.984-1.559-1.477s-.82-1.312-.984-2.051c-.574-2.375-1.148-4.918-.41-7.211 3.281-9.266 5.25-18.937 8.863-28.117l7.875-20.164c1.559-4.02 3.035-8.117 4.758-12.133.902-2.051 1.805-4.18 2.133-6.395.246-1.641.246-3.277.246-4.918-.164-5.656-.82-11.395-2.051-16.969-.738-3.523-2.133-6.887-3.609-10.082-16.902 3.031-34.457 2.867-51.359.246-3.117-.656-5.988-1.312-9.023-.164zm0 0"/><path fill="#c5815c" d="M209.371 168.039c-.164.816-.328 1.637-.246 2.539.082.82.41 1.723.984 2.297.656.656 1.805.898 2.379.246.41-.41.41-1.066.492-1.723.082-.984.41-1.969.82-2.871.164-.324.41-.652.738-.57.246 0 .41.246.574.488.656 1.148 1.066 2.379 1.723 3.527s1.641 2.129 2.953 2.457c1.887.41 3.691-.898 5.578-.738.492 0 1.066.164 1.559.164s1.066-.164 1.313-.652c.332-.492.168-1.148 0-1.723l-.246-1.723-.82-7.375c0-.082-1.066-.492-1.23-.574-.41-.246-.82-.41-1.23-.656l-2.461-1.477c-1.559-1.066-3.117-2.215-4.512-3.523-.41-.41-.492-.41-.984-.082-.328.246-.656.492-.984.82-.656.57-1.23 1.145-1.805 1.801a20.72 20.72 0 0 0-2.789 4.18c-.82 1.477-1.395 3.281-1.805 5.168zm0 0"/><path fill="#e6ceb8" d="M301.422 49.016h-.082c-.82-.246-1.312-.738-2.051-.984-.738-.328-1.559-.492-2.297-.574-1.723-.246-3.609 0-5.25.492-3.203 1.066-5.992 3.277-8.535 5.492-6.07 5.246-11.895 10.984-15.75 18.031-.984 1.805-1.887 3.855-1.477 5.82.328 1.395 1.23 2.625 1.559 4.02.738 2.539-.246 5.328-1.312 7.785-3.281 8.035-4.184 17.133-7.797 25.004-1.477 3.277-3.281 6.637-2.625 10.164.246 1.391.902 2.703.984 4.016.164 2.293-1.23 4.508-3.117 5.82s-4.102 2.047-6.316 2.539a59.209 59.209 0 0 1-14.191 1.477c-3.199.902-6.402 1.969-9.602 2.871-.738.242-1.559.488-1.805 1.227-.41 1.313 1.641 2.379 1.395 3.691-.164.816-1.148 1.145-1.887 1.473-4.184 1.805-6.48 6.805-5.824 11.395.656 4.508 3.773 8.445 7.629 10.82 1.148.738 2.543 1.395 3.938 1.395s2.875-.82 3.285-2.133c.41-1.227 0-2.867 1.148-3.441 1.23-.574 2.789.902 3.855 0 .41-.328.492-.902.902-1.23.41-.41 1.148-.41 1.723-.246s1.066.574 1.641.902c1.805.984 3.938.984 5.906.738 4.102-.41 8.203-1.395 11.977-2.949 1.066-.492 2.547-.902 3.367 0 .492.57.41 1.555 0 2.211s-.984 1.23-1.477 1.887c-1.809 2.293-1.809 5.902 0 8.277 2.789 3.527 1.559 8.691 2.297 13.117.492 2.785.902 5.656.738 8.523-.082.82-.164 1.723.082 2.543s.902 1.555 1.805 1.555c.738 0 1.395-.652 1.969-1.062 1.559-1.23 3.609-1.641 5.578-1.723s3.938.246 5.906.328c6.398.492 12.801-.656 19.117-1.805l33.965-5.902c1.066-.164 2.297-.41 2.789-1.309.738-1.23-.164-2.707-.902-3.937a13.396 13.396 0 0 1-1.723-5.574c-.164-2.129 0-4.508-1.477-5.984-.41-.406-.984-.734-1.395-1.227-.41-.41-.738-1.148-.492-1.723.164-.41.574-.738.902-.984 1.559-1.312 2.379-3.359 2.707-5.41s.082-4.098-.164-6.148c-.82-7.703.492-15.41 1.313-23.113.656-5.738.902-11.477.902-17.297-.082-15.902-.738-31.969-5.66-47.133-1.395-4.184-3.691-8.199-3.855-12.625 0-.902 0-1.969-.574-2.707-.82-1.145-2.379-1.309-3.777-1.637-3.117-.574-5.906-2.051-8.859-3.199-2.297-.902-4.43-1.555-6.891-1.637-.82.246-1.559.246-2.215.082zm0 0"/></svg>