<svg xmlns="http://www.w3.org/2000/svg" width="271" height="196" version="1.0" viewBox="0 0 203.25 147"><defs><clipPath id="a"><path d="M61 40h22v13.61H61Zm0 0"/></clipPath><clipPath id="b"><path d="M58 37h28v16.61H58Zm0 0"/></clipPath><clipPath id="c"><path d="M56.207 35.328h31.992V53.61H56.207Zm0 0"/></clipPath><clipPath id="d"><path d="M63 43h17v10.61H63Zm0 0"/></clipPath><clipPath id="e"><path d="M61 52.871h22V66H61Zm0 0"/></clipPath><clipPath id="f"><path d="M58 52.871h28V69H58Zm0 0"/></clipPath><clipPath id="g"><path d="M55.91 52.871h31.992V71H55.91Zm0 0"/></clipPath><clipPath id="h"><path d="M64 52.871h17V64H64Zm0 0"/></clipPath><clipPath id="i"><path d="M97 47h28v17H97Zm0 0"/></clipPath><clipPath id="j"><path d="m130.883 71.152-41.125-.859.476-22.844 41.125.856Zm0 0"/></clipPath><clipPath id="k"><path d="m130.883 71.152-41.125-.859.476-22.844 41.125.856Zm0 0"/></clipPath><clipPath id="l"><path d="M93 47h36v21H93Zm0 0"/></clipPath><clipPath id="m"><path d="m130.883 71.152-41.125-.859.476-22.844 41.125.856Zm0 0"/></clipPath><clipPath id="n"><path d="m130.883 71.152-41.125-.859.476-22.844 41.125.856Zm0 0"/></clipPath><clipPath id="o"><path d="M90 47h42v24H90Zm0 0"/></clipPath><clipPath id="p"><path d="m130.883 71.152-41.125-.859.476-22.844 41.125.856Zm0 0"/></clipPath><clipPath id="q"><path d="m130.883 71.152-41.125-.859.476-22.844 41.125.856Zm0 0"/></clipPath><clipPath id="r"><path d="M101 47h21v14h-21Zm0 0"/></clipPath><clipPath id="s"><path d="m130.883 71.152-41.125-.859.476-22.844 41.125.856Zm0 0"/></clipPath><clipPath id="t"><path d="m130.883 71.152-41.125-.859.476-22.844 41.125.856Zm0 0"/></clipPath></defs><path fill="#634e4e" d="m68.66 99.852-.61.688a50.839 50.839 0 0 0-.077 3.14c0 .782.015 1.453.046 2.016.02.324.157.59.407.797.207.219.437.37.687.453.258.086.848.152 1.766.203v.64c-1.024-.081-2.418-.124-4.188-.124-1.906 0-3.508.043-4.797.125v-.64c1.957-.114 2.938-.395 2.938-.845.082-2.5.133-6.57.156-12.218 0-4.582-.055-8.18-.156-10.797-.324-.477-1.305-.758-2.938-.844v-.64h.204c1.445 0 3.46-.305 6.046-.923l-.125 18.61 4.063-4.64c.375-.446.562-.876.562-1.282 0-.457-.308-.738-.921-.844 0-.082.003-.222.015-.422.02-.207.031-.347.031-.422h6.766v.766c-2.23.211-3.789.746-4.672 1.61l-3.234 3.937a71.162 71.162 0 0 1 2.734 3.016 78.387 78.387 0 0 0 2.985 3.234c1.082 1.074 1.937 1.82 2.562 2.234.633.418 1.234.625 1.797.625h.203v.563l-5.562.078c-.325-.613-.907-1.438-1.75-2.469a63.7 63.7 0 0 0-2.516-2.922c-.836-.914-1.64-1.816-2.422-2.703M105.473 104.446l.61.36c-.356 2.179-1.649 3.265-3.875 3.265-.918 0-1.606-.3-2.063-.906-.449-.602-.715-1.32-.797-2.157a23.595 23.595 0 0 1-1.234 1.329c-.281.273-.812.64-1.594 1.109-.773.469-1.547.703-2.328.703-1.344 0-2.5-.375-3.469-1.125-.968-.75-1.453-1.941-1.453-3.578 0-.727.157-1.36.47-1.89.312-.54.737-.977 1.28-1.313a9.361 9.361 0 0 1 1.672-.828c.57-.22 1.235-.375 1.985-.47.75-.093 1.375-.147 1.875-.17.5-.032 1.05-.052 1.656-.063.601-.02.93-.032.984-.032.07 0 .11-.988.11-2.968 0-2.551-1.168-3.829-3.5-3.829-.805 0-1.45.18-1.938.532-.48.343-.773.757-.875 1.234.77 0 1.156.594 1.156 1.781 0 .72-.242 1.235-.718 1.547-.48.305-.95.453-1.407.453-.511 0-.968-.234-1.375-.703-.406-.469-.609-.984-.609-1.547 0-.988.633-1.957 1.906-2.906 1.02-.77 2.426-1.156 4.219-1.156 1.695 0 3.203.527 4.516 1.578 1.312 1.043 1.968 2.46 1.968 4.25 0 .898-.027 2.137-.078 3.719a109.369 109.369 0 0 0-.078 3.422c0 1.804.414 2.687 1.25 2.656.477 0 .836-.172 1.078-.516.25-.351.469-.945.656-1.781m-6.28-.438v-4.765c-.95.086-1.821.172-2.61.265-.793.094-1.469.247-2.031.454-.563.199-1.008.543-1.329 1.03-.324.481-.484 1.15-.484 2 0 1.157.285 2.009.86 2.548.581.53 1.316.797 2.203.797 1.394 0 2.523-.774 3.39-2.329M119.082 96.024l-.36 4.188.032 4.875c1.07 1.21 2.523 1.812 4.36 1.812 1.124 0 1.976-.61 2.562-1.828.594-1.219.89-2.914.89-5.094 0-2.207-.28-3.945-.843-5.219-.563-1.27-1.356-1.906-2.375-1.906-1.805 0-3.227 1.059-4.266 3.172m-6.687-4.266c2.093 0 4.11-.253 6.047-.765l.562 3.703c.719-1.156 1.477-2.055 2.281-2.703.813-.645 1.82-.969 3.032-.969 1.75 0 3.273.828 4.578 2.484 1.3 1.657 1.953 3.57 1.953 5.735 0 2.367-.688 4.422-2.063 6.172-1.367 1.742-3.34 2.61-5.922 2.61-1.586 0-2.964-.614-4.14-1.845l.031 8.86c.188.289.672.53 1.453.718.781.196 1.492.297 2.14.297l-.077.563c-1.344-.086-3.055-.125-5.125-.125-2.063 0-3.621.039-4.672.125v-.563c1.883-.062 2.828-.402 2.828-1.015.101-3.2.164-7.493.187-12.89 0-3.759-.039-6.74-.109-8.938-1.105-.508-2.102-.79-2.984-.844ZM143.278 98.446l7.25-.047c.032-.457.047-.883.047-1.281 0-.832-.07-1.504-.203-2.016-.219-.863-.656-1.566-1.312-2.11-.657-.55-1.47-.827-2.438-.827-.992 0-1.766.562-2.328 1.687-.563 1.125-.902 2.656-1.016 4.594m-.03.61v.874c0 1.938.35 3.688 1.062 5.25.707 1.555 1.734 2.328 3.078 2.328 1.562 0 2.797-.453 3.703-1.359.914-.914 1.55-1.875 1.906-2.875l1.125.813c-.406 1.023-1.187 2.011-2.344 2.968-1.156.946-2.672 1.422-4.547 1.422-2.28 0-4.183-.707-5.703-2.125-1.523-1.426-2.28-3.5-2.28-6.219 0-1.582.257-2.968.78-4.156.532-1.195 1.235-2.113 2.11-2.75.875-.633 1.754-1.097 2.64-1.39a8.747 8.747 0 0 1 2.735-.438c1.445 0 2.797.39 4.047 1.172 1.25.773 2.062 2.031 2.437 3.781.102.531.156 1.07.156 1.61 0 .293-.011.64-.03 1.046ZM173.484 92.243h-4.266v10.953c0 1.156.18 2.086.547 2.781.363.7.852 1.047 1.469 1.047.695 0 1.281-.281 1.75-.844.468-.562.906-1.41 1.312-2.547l.89.454c-.25.648-.468 1.148-.655 1.5-.188.343-.461.746-.813 1.203-.344.449-.773.777-1.281.984-.512.195-1.125.297-1.844.297-1.617 0-2.824-.457-3.625-1.375-.375-.395-.648-.961-.812-1.703-.157-.738-.235-1.82-.235-3.25v-9.5h-3.39v-.531c.644 0 1.43-.176 2.359-.532.926-.363 1.562-.765 1.906-1.203.352-.445.703-1.094 1.047-1.937.352-.852.531-1.696.531-2.532h.922c-.105.868-.156 2.184-.156 3.954v1.812l4.594-.078ZM186.246 102.508c.695 0 1.332.227 1.906.672.582.438.875 1.102.875 1.985 0 .968-.262 1.68-.781 2.125-.524.437-1.188.656-2 .656-.668 0-1.278-.281-1.828-.844-.555-.562-.828-1.207-.828-1.937 0-.832.28-1.485.843-1.953.57-.47 1.176-.704 1.813-.704m0 0"/><g clip-path="url(#a)"><path fill="#e88b22" d="M82.625 53.25c-.312.004-.629.008-.941.016-.446-2.211-1.125-4.383-2.286-6.317-2.156-3.586-6.32-6.629-10.464-4.676-4.172 1.97-5.727 7.059-6.418 11.293l-.938.012c.445-2.816.988-5.683 2.477-8.14 1.152-1.895 2.843-3.512 4.976-4.184 2.172-.688 4.547-.274 6.551.754 4.215 2.16 6.16 6.765 7.043 11.242m0 0"/></g><g clip-path="url(#b)"><path fill="#c55428" d="M85.898 53.207c-.535.004-1.066.012-1.601.02-.25-3.055-1.133-6.07-2.863-8.61-3.04-4.465-8.907-7.101-14.036-4.691-5.148 2.422-6.48 8.476-7.304 13.668-.61.004-1.223.004-1.836.008.527-3.391 1.164-6.844 2.922-9.829 1.437-2.43 4.117-4.855 6.832-5.683 2.734-.836 6.8-.442 9.375.777 5.351 2.528 8.043 8.582 8.511 14.34m0 0"/></g><g clip-path="url(#c)"><path fill="#174441" d="M88.152 53.188c-.308.003-1.054.003-1.363.007-.027-3.457-1.09-6.84-2.984-9.742-3.946-6.039-11.043-8.125-17.313-5.656a13.44 13.44 0 0 0-7.078 6.426c-1.457 2.894-1.93 6.172-2.23 9.382-.309 0-.618.004-.93.004.363-3.89.98-7.902 3.14-11.222 1.864-2.864 4.79-4.942 8.032-5.903 3.308-.98 6.863-.699 10.031.641 6.371 2.703 10.648 9.215 10.695 16.063m0 0"/></g><g clip-path="url(#d)"><path fill="#fab7a4" d="m79.86 53.266-1.419.015c-.324-1.953-.812-3.898-1.816-5.578-.848-1.422-1.453-2.226-2.969-2.723-1.515-.496-3.011-.18-4.379.645-2.78 1.684-3.726 4.61-3.925 7.91-.32.004-1.196.008-1.512.012.105-2.004.531-4 1.453-5.754 1.723-3.293 5.496-5.523 8.93-4.04 3.586 1.548 5.004 5.688 5.636 9.513m0 0"/></g><g clip-path="url(#e)"><path fill="#e88b22" d="M61.488 53.23c.313-.007.63-.011.942-.015.445 2.207 1.12 4.383 2.285 6.316 2.152 3.582 6.316 6.63 10.465 4.672 4.172-1.965 5.726-7.058 6.418-11.293.312 0 .625-.004.937-.008-.445 2.813-.988 5.684-2.48 8.141-1.149 1.89-2.844 3.512-4.973 4.184-2.176.687-4.55.273-6.55-.754-4.216-2.16-6.165-6.77-7.044-11.243m0 0"/></g><g clip-path="url(#f)"><path fill="#c55428" d="M58.215 53.273c.531-.007 1.066-.011 1.597-.02.254 3.056 1.137 6.067 2.868 8.61 3.039 4.461 8.906 7.102 14.035 4.688 5.144-2.422 6.48-8.473 7.305-13.664.609-.004 1.222-.008 1.832-.008-.528 3.39-1.16 6.84-2.922 9.824-1.434 2.434-4.118 4.856-6.828 5.688-2.735.836-6.801.441-9.375-.778-5.356-2.531-8.043-8.586-8.512-14.34m0 0"/></g><g clip-path="url(#g)"><path fill="#174441" d="M55.957 53.293c.313-.004 1.059-.008 1.367-.012.028 3.457 1.086 6.84 2.985 9.742 3.945 6.043 11.043 8.125 17.312 5.66 3.047-1.203 5.59-3.48 7.074-6.425 1.461-2.895 1.934-6.176 2.23-9.387.313 0 .622 0 .93-.004-.363 3.895-.98 7.906-3.136 11.227-1.864 2.863-4.79 4.941-8.031 5.898-3.31.98-6.864.703-10.032-.64-6.375-2.7-10.648-9.215-10.699-16.059m0 0"/></g><g clip-path="url(#h)"><path fill="#fab7a4" d="M64.254 53.215c.316-.008 1.098-.012 1.418-.02.324 1.953.812 3.903 1.816 5.582.848 1.422 1.453 2.223 2.969 2.723 1.516.496 3.012.18 4.375-.645 2.785-1.683 3.727-4.613 3.93-7.91l1.511-.015c-.105 2.008-.53 4.004-1.453 5.758-1.726 3.292-5.496 5.523-8.933 4.039-3.582-1.547-5.004-5.688-5.633-9.512m0 0"/></g><g clip-path="url(#i)"><g clip-path="url(#j)"><g clip-path="url(#k)"><path fill="#e88b22" d="M97.473 47.707c.402.004.804.004 1.207.008.511 2.812 1.324 5.59 2.761 8.074 2.668 4.606 7.93 8.578 13.301 6.207 5.403-2.383 7.535-8.8 8.531-14.152l1.204.011c-.645 3.56-1.418 7.184-3.395 10.262-1.523 2.367-3.742 4.38-6.488 5.176-2.809.812-5.844.223-8.383-1.133-5.352-2.855-7.727-8.754-8.738-14.453m0 0"/></g></g></g><g clip-path="url(#l)"><g clip-path="url(#m)"><g clip-path="url(#n)"><path fill="#725b5b" d="M93.27 47.676c.683.008 1.37.015 2.054.02.242 3.882 1.293 7.726 3.446 10.995 3.78 5.743 11.238 9.246 17.878 6.325 6.668-2.934 8.54-10.575 9.735-17.141.781.012 1.566.027 2.351.04-.765 4.284-1.672 8.648-4.007 12.386-1.907 3.047-5.41 6.05-8.91 7.031-3.532.988-8.739.375-12.008-1.234-6.797-3.356-10.09-11.106-10.54-18.422m0 0"/></g></g></g><g clip-path="url(#o)"><g clip-path="url(#p)"><g clip-path="url(#q)"><path fill="#174441" d="M90.375 47.64c.398.005 1.355.02 1.754.024-.059 4.387 1.215 8.707 3.57 12.438 4.899 7.77 13.95 10.605 22.055 7.64 3.941-1.441 7.266-4.262 9.25-7.96 1.95-3.634 2.64-7.782 3.11-11.844.394.003.792.011 1.19.019-.57 4.926-1.464 10-4.324 14.152-2.464 3.586-6.273 6.141-10.457 7.274-4.27 1.152-8.82.707-12.851-1.082-8.102-3.598-13.41-11.977-13.297-20.66m0 0"/></g></g></g><g clip-path="url(#r)"><g clip-path="url(#s)"><g clip-path="url(#t)"><path fill="#fab7a4" d="M101.02 47.762c.41 0 1.406.015 1.816.015.367 2.489.941 4.973 2.184 7.13 1.05 1.823 1.808 2.863 3.738 3.53 1.93.672 3.86.313 5.629-.699 3.617-2.058 4.902-5.75 5.246-9.93.41.005 1.535.02 1.941.024-.187 2.54-.789 5.063-2.015 7.262-2.301 4.133-7.196 6.863-11.563 4.886-4.555-2.058-6.27-7.347-6.976-12.218m0 0"/></g></g></g><path fill="#634e4e" d="M52.37 53.386c0 2.062-.375 4.078-1.125 6.047-.742 1.96-1.835 3.789-3.28 5.484-1.45 1.7-3.4 3.055-5.845 4.062-2.437 1.012-5.218 1.516-8.343 1.516a269.3 269.3 0 0 1-2.328-.031 589.832 589.832 0 0 0-5.282-.063c-2.25-.011-4.695-.015-7.328-.015v-.922c3.094-.27 4.774-1.145 5.047-2.625V37.995a2.882 2.882 0 0 0-.406-1.281c-.23-.363-.621-.629-1.172-.797-.555-.176-.953-.29-1.203-.344-.25-.062-.758-.129-1.516-.203V34.34c2.25 0 5.188-.016 8.813-.047 3.625-.04 5.91-.063 6.86-.063 1.874 0 3.741.336 5.608 1 1.864.668 3.692 1.7 5.485 3.094 1.789 1.387 3.238 3.387 4.344 6 1.113 2.617 1.671 5.637 1.671 9.063m-6.234.343v-.343c0-3.008-.184-5.524-.547-7.547-.367-2.02-1.027-3.82-1.984-5.406-.95-1.582-2.293-2.743-4.031-3.485-1.73-.75-3.914-1.125-6.547-1.125a40.18 40.18 0 0 0-3.594.172v30.438c0 .73.289 1.39.875 1.984.594.586 1.348.875 2.266.875 2.78 0 5.054-.285 6.828-.86 1.781-.57 3.156-1.535 4.125-2.89.976-1.352 1.644-2.93 2-4.734.363-1.813.566-4.172.61-7.079M141.642 28.167c-.156 3.918-.258 8.32-.297 13.204 0 1.96.032 5.62.094 10.984.063 5.367.094 9.945.094 13.734.07.407.617.715 1.64.922 1.02.2 1.88.32 2.579.36v.984c-1.805-.207-3.946-.313-6.422-.313-2.899 0-5.262.106-7.094.313v-.984c2.687-.114 4.07-.54 4.156-1.282.113-3.875.172-9.238.172-16.093 0-7.29-.059-13.364-.172-18.22-1.023-.812-2.406-1.218-4.156-1.218v-1.047c2.156-.125 5.289-.57 9.406-1.344M181.843 63.277l.906.547c-.531 3.304-2.492 4.953-5.875 4.953-1.387 0-2.43-.457-3.125-1.375-.688-.914-1.094-2.004-1.219-3.266-.812.938-1.433 1.61-1.86 2.016-.429.406-1.234.969-2.421 1.687-1.18.707-2.36 1.063-3.547 1.063-2.031 0-3.781-.567-5.25-1.703-1.469-1.145-2.203-2.961-2.203-5.453 0-1.102.234-2.063.703-2.875a5.555 5.555 0 0 1 1.953-1.985 15.21 15.21 0 0 1 2.531-1.25c.864-.332 1.864-.566 3-.703a43.258 43.258 0 0 1 2.844-.281c.758-.04 1.598-.07 2.516-.094.914-.02 1.414-.031 1.5-.031.125 0 .187-1.508.187-4.531 0-3.864-1.777-5.797-5.328-5.797-1.23 0-2.21.265-2.937.797-.73.523-1.18 1.152-1.344 1.89 1.176 0 1.766.899 1.766 2.688 0 1.105-.371 1.89-1.11 2.36-.73.468-1.437.702-2.125.702-.773 0-1.465-.351-2.078-1.062-.617-.719-.922-1.504-.922-2.36 0-1.507.957-2.976 2.875-4.406 1.551-1.187 3.692-1.781 6.422-1.781 2.57 0 4.852.797 6.844 2.39 2 1.594 3 3.758 3 6.485 0 1.344-.043 3.219-.125 5.625-.074 2.406-.11 4.14-.11 5.203 0 2.73.63 4.074 1.891 4.031.738 0 1.29-.265 1.656-.797.364-.53.692-1.425.985-2.687m-9.547-.672v-7.219c-1.43.125-2.746.262-3.953.406-1.2.137-2.23.36-3.094.672a3.926 3.926 0 0 0-2.016 1.563c-.492.73-.734 1.746-.734 3.047 0 1.75.437 3.039 1.312 3.86.883.812 2 1.218 3.344 1.218 2.114 0 3.828-1.18 5.14-3.547M38.115 72.568c3.156 0 5.836 1.168 8.046 3.5 1.02-.125 1.836-.984 2.454-2.578h.843l-.172 11.89h-1.171a56.354 56.354 0 0 0-.5-4.062c-.2-1.29-.649-2.41-1.344-3.36-1.918-2.812-4.672-4.218-8.266-4.218-1.93 0-3.57.746-4.922 2.234-1.343 1.492-2.015 3.031-2.015 4.625 0 1.719.816 3.34 2.453 4.86 1.633 1.511 3.8 2.757 6.5 3.734 3.719 1.387 6.71 3.164 8.984 5.328 2.27 2.168 3.406 4.602 3.406 7.297 0 3.48-1.148 6.305-3.437 8.469-2.293 2.168-6.094 3.25-11.406 3.25a14.4 14.4 0 0 1-3.313-.375c-1.062-.242-1.933-.543-2.61-.907a61.232 61.232 0 0 1-1.952-1.14c-.637-.383-1.102-.703-1.39-.953-.813.367-1.571 1.203-2.267 2.515h-1.28l.124-11.156H26.1c.695 3.344 1.894 5.938 3.594 7.781 1.695 1.844 4.238 2.766 7.625 2.766 5.726 0 8.593-2.758 8.593-8.281 0-3.602-3.027-6.47-9.078-8.594-3.273-1.145-5.851-2.77-7.734-4.875-1.875-2.102-2.813-4.336-2.813-6.703-.043-7.363 3.899-11.047 11.829-11.047m0 0"/></svg>