<svg xmlns="http://www.w3.org/2000/svg" xmlns:xlink="http://www.w3.org/1999/xlink" width="271" zoomAndPan="magnify" viewBox="0 0 203.25 147.000002" height="196" preserveAspectRatio="xMidYMid meet" version="1.0"><defs><g/><clipPath id="2901fef510"><path d="M 61 40 L 83 40 L 83 53.609375 L 61 53.609375 Z M 61 40 " clip-rule="nonzero"/></clipPath><clipPath id="5695f639ab"><path d="M 58 37 L 86 37 L 86 53.609375 L 58 53.609375 Z M 58 37 " clip-rule="nonzero"/></clipPath><clipPath id="bfffd9afe2"><path d="M 56.207031 35.328125 L 88.199219 35.328125 L 88.199219 53.609375 L 56.207031 53.609375 Z M 56.207031 35.328125 " clip-rule="nonzero"/></clipPath><clipPath id="543bda5016"><path d="M 63 43 L 80 43 L 80 53.609375 L 63 53.609375 Z M 63 43 " clip-rule="nonzero"/></clipPath><clipPath id="77a2442f7f"><path d="M 61 52.871094 L 83 52.871094 L 83 66 L 61 66 Z M 61 52.871094 " clip-rule="nonzero"/></clipPath><clipPath id="eb1a60a157"><path d="M 58 52.871094 L 86 52.871094 L 86 69 L 58 69 Z M 58 52.871094 " clip-rule="nonzero"/></clipPath><clipPath id="f3796e37e5"><path d="M 55.910156 52.871094 L 87.902344 52.871094 L 87.902344 71 L 55.910156 71 Z M 55.910156 52.871094 " clip-rule="nonzero"/></clipPath><clipPath id="14897b2e9c"><path d="M 64 52.871094 L 81 52.871094 L 81 64 L 64 64 Z M 64 52.871094 " clip-rule="nonzero"/></clipPath><clipPath id="b8d340bd2f"><path d="M 97 47 L 125 47 L 125 64 L 97 64 Z M 97 47 " clip-rule="nonzero"/></clipPath><clipPath id="ac12e08ba5"><path d="M 130.882812 71.152344 L 89.757812 70.292969 L 90.234375 47.449219 L 131.359375 48.304688 Z M 130.882812 71.152344 " clip-rule="nonzero"/></clipPath><clipPath id="c8c49df529"><path d="M 130.882812 71.152344 L 89.757812 70.292969 L 90.234375 47.449219 L 131.359375 48.304688 Z M 130.882812 71.152344 " clip-rule="nonzero"/></clipPath><clipPath id="8abff4b3e5"><path d="M 93 47 L 129 47 L 129 68 L 93 68 Z M 93 47 " clip-rule="nonzero"/></clipPath><clipPath id="21a7277b31"><path d="M 130.882812 71.152344 L 89.757812 70.292969 L 90.234375 47.449219 L 131.359375 48.304688 Z M 130.882812 71.152344 " clip-rule="nonzero"/></clipPath><clipPath id="737bda4737"><path d="M 130.882812 71.152344 L 89.757812 70.292969 L 90.234375 47.449219 L 131.359375 48.304688 Z M 130.882812 71.152344 " clip-rule="nonzero"/></clipPath><clipPath id="857d02d87d"><path d="M 90 47 L 132 47 L 132 71 L 90 71 Z M 90 47 " clip-rule="nonzero"/></clipPath><clipPath id="0189cb9d8a"><path d="M 130.882812 71.152344 L 89.757812 70.292969 L 90.234375 47.449219 L 131.359375 48.304688 Z M 130.882812 71.152344 " clip-rule="nonzero"/></clipPath><clipPath id="11112d9ef7"><path d="M 130.882812 71.152344 L 89.757812 70.292969 L 90.234375 47.449219 L 131.359375 48.304688 Z M 130.882812 71.152344 " clip-rule="nonzero"/></clipPath><clipPath id="bd519512da"><path d="M 101 47 L 122 47 L 122 61 L 101 61 Z M 101 47 " clip-rule="nonzero"/></clipPath><clipPath id="86f8983e67"><path d="M 130.882812 71.152344 L 89.757812 70.292969 L 90.234375 47.449219 L 131.359375 48.304688 Z M 130.882812 71.152344 " clip-rule="nonzero"/></clipPath><clipPath id="6c5b434cbd"><path d="M 130.882812 71.152344 L 89.757812 70.292969 L 90.234375 47.449219 L 131.359375 48.304688 Z M 130.882812 71.152344 " clip-rule="nonzero"/></clipPath></defs><g fill="#634e4e" fill-opacity="1"><g transform="translate(60.644394, 107.789688)"><g><path d="M 8.015625 -7.9375 L 7.40625 -7.25 C 7.351562 -6.394531 7.328125 -5.347656 7.328125 -4.109375 C 7.328125 -3.328125 7.34375 -2.65625 7.375 -2.09375 C 7.394531 -1.769531 7.53125 -1.503906 7.78125 -1.296875 C 7.988281 -1.078125 8.21875 -0.925781 8.46875 -0.84375 C 8.726562 -0.757812 9.316406 -0.691406 10.234375 -0.640625 L 10.234375 0 C 9.210938 -0.0820312 7.816406 -0.125 6.046875 -0.125 C 4.140625 -0.125 2.539062 -0.0820312 1.25 0 L 1.25 -0.640625 C 3.207031 -0.753906 4.1875 -1.035156 4.1875 -1.484375 C 4.269531 -3.984375 4.320312 -8.054688 4.34375 -13.703125 C 4.34375 -18.285156 4.289062 -21.882812 4.1875 -24.5 C 3.863281 -24.976562 2.882812 -25.257812 1.25 -25.34375 L 1.25 -25.984375 C 1.300781 -25.984375 1.367188 -25.984375 1.453125 -25.984375 C 2.898438 -25.984375 4.914062 -26.289062 7.5 -26.90625 L 7.375 -8.296875 L 11.4375 -12.9375 C 11.8125 -13.382812 12 -13.8125 12 -14.21875 C 12 -14.675781 11.691406 -14.957031 11.078125 -15.0625 C 11.078125 -15.144531 11.082031 -15.285156 11.09375 -15.484375 C 11.113281 -15.691406 11.125 -15.832031 11.125 -15.90625 L 17.890625 -15.90625 L 17.890625 -15.140625 C 15.660156 -14.929688 14.101562 -14.394531 13.21875 -13.53125 L 9.984375 -9.59375 C 10.867188 -8.675781 11.78125 -7.671875 12.71875 -6.578125 C 13.664062 -5.492188 14.660156 -4.414062 15.703125 -3.34375 C 16.785156 -2.269531 17.640625 -1.523438 18.265625 -1.109375 C 18.898438 -0.691406 19.5 -0.484375 20.0625 -0.484375 C 20.113281 -0.484375 20.179688 -0.484375 20.265625 -0.484375 L 20.265625 0.078125 L 14.703125 0.15625 C 14.378906 -0.457031 13.796875 -1.28125 12.953125 -2.3125 C 12.109375 -3.351562 11.269531 -4.328125 10.4375 -5.234375 C 9.601562 -6.148438 8.796875 -7.050781 8.015625 -7.9375 Z M 8.015625 -7.9375 "/></g></g></g><g fill="#634e4e" fill-opacity="1"><g transform="translate(87.223453, 107.789688)"><g><path d="M 18.25 -3.34375 L 18.859375 -2.984375 C 18.503906 -0.804688 17.210938 0.28125 14.984375 0.28125 C 14.066406 0.28125 13.378906 -0.0195312 12.921875 -0.625 C 12.472656 -1.226562 12.207031 -1.945312 12.125 -2.78125 C 11.582031 -2.164062 11.171875 -1.722656 10.890625 -1.453125 C 10.609375 -1.179688 10.078125 -0.8125 9.296875 -0.34375 C 8.523438 0.125 7.75 0.359375 6.96875 0.359375 C 5.625 0.359375 4.46875 -0.015625 3.5 -0.765625 C 2.53125 -1.515625 2.046875 -2.707031 2.046875 -4.34375 C 2.046875 -5.070312 2.203125 -5.703125 2.515625 -6.234375 C 2.828125 -6.773438 3.253906 -7.210938 3.796875 -7.546875 C 4.347656 -7.890625 4.90625 -8.164062 5.46875 -8.375 C 6.039062 -8.59375 6.703125 -8.75 7.453125 -8.84375 C 8.203125 -8.9375 8.828125 -8.992188 9.328125 -9.015625 C 9.828125 -9.046875 10.378906 -9.066406 10.984375 -9.078125 C 11.585938 -9.097656 11.914062 -9.109375 11.96875 -9.109375 C 12.039062 -9.109375 12.078125 -10.097656 12.078125 -12.078125 C 12.078125 -14.628906 10.910156 -15.90625 8.578125 -15.90625 C 7.773438 -15.90625 7.128906 -15.726562 6.640625 -15.375 C 6.160156 -15.03125 5.867188 -14.617188 5.765625 -14.140625 C 6.535156 -14.140625 6.921875 -13.546875 6.921875 -12.359375 C 6.921875 -11.640625 6.679688 -11.125 6.203125 -10.8125 C 5.722656 -10.507812 5.253906 -10.359375 4.796875 -10.359375 C 4.285156 -10.359375 3.828125 -10.59375 3.421875 -11.0625 C 3.015625 -11.53125 2.8125 -12.046875 2.8125 -12.609375 C 2.8125 -13.597656 3.445312 -14.566406 4.71875 -15.515625 C 5.738281 -16.285156 7.144531 -16.671875 8.9375 -16.671875 C 10.632812 -16.671875 12.140625 -16.144531 13.453125 -15.09375 C 14.765625 -14.050781 15.421875 -12.632812 15.421875 -10.84375 C 15.421875 -9.945312 15.394531 -8.707031 15.34375 -7.125 C 15.289062 -5.539062 15.265625 -4.398438 15.265625 -3.703125 C 15.265625 -1.898438 15.679688 -1.015625 16.515625 -1.046875 C 16.992188 -1.046875 17.351562 -1.21875 17.59375 -1.5625 C 17.84375 -1.914062 18.0625 -2.507812 18.25 -3.34375 Z M 11.96875 -3.78125 L 11.96875 -8.546875 C 11.019531 -8.460938 10.148438 -8.375 9.359375 -8.28125 C 8.566406 -8.1875 7.890625 -8.035156 7.328125 -7.828125 C 6.765625 -7.628906 6.320312 -7.285156 6 -6.796875 C 5.675781 -6.316406 5.515625 -5.648438 5.515625 -4.796875 C 5.515625 -3.640625 5.800781 -2.789062 6.375 -2.25 C 6.957031 -1.71875 7.691406 -1.453125 8.578125 -1.453125 C 9.972656 -1.453125 11.101562 -2.226562 11.96875 -3.78125 Z M 11.96875 -3.78125 "/></g></g></g><g fill="#634e4e" fill-opacity="1"><g transform="translate(111.144677, 107.789688)"><g><path d="M 7.9375 -11.765625 L 7.578125 -7.578125 L 7.609375 -2.703125 C 8.679688 -1.492188 10.132812 -0.890625 11.96875 -0.890625 C 13.09375 -0.890625 13.945312 -1.5 14.53125 -2.71875 C 15.125 -3.9375 15.421875 -5.632812 15.421875 -7.8125 C 15.421875 -10.019531 15.140625 -11.757812 14.578125 -13.03125 C 14.015625 -14.300781 13.222656 -14.9375 12.203125 -14.9375 C 10.398438 -14.9375 8.976562 -13.878906 7.9375 -11.765625 Z M 1.25 -16.03125 C 3.34375 -16.03125 5.359375 -16.285156 7.296875 -16.796875 L 7.859375 -13.09375 C 8.578125 -14.25 9.335938 -15.148438 10.140625 -15.796875 C 10.953125 -16.441406 11.960938 -16.765625 13.171875 -16.765625 C 14.921875 -16.765625 16.445312 -15.9375 17.75 -14.28125 C 19.050781 -12.625 19.703125 -10.710938 19.703125 -8.546875 C 19.703125 -6.179688 19.015625 -4.125 17.640625 -2.375 C 16.273438 -0.632812 14.300781 0.234375 11.71875 0.234375 C 10.132812 0.234375 8.753906 -0.378906 7.578125 -1.609375 L 7.609375 7.25 C 7.796875 7.539062 8.28125 7.78125 9.0625 7.96875 C 9.84375 8.164062 10.554688 8.265625 11.203125 8.265625 L 11.125 8.828125 C 9.78125 8.742188 8.070312 8.703125 6 8.703125 C 3.9375 8.703125 2.378906 8.742188 1.328125 8.828125 L 1.328125 8.265625 C 3.210938 8.203125 4.15625 7.863281 4.15625 7.25 C 4.257812 4.050781 4.320312 -0.242188 4.34375 -5.640625 C 4.34375 -9.398438 4.304688 -12.378906 4.234375 -14.578125 C 3.128906 -15.085938 2.132812 -15.367188 1.25 -15.421875 Z M 1.25 -16.03125 "/></g></g></g><g fill="#634e4e" fill-opacity="1"><g transform="translate(137.200223, 107.789688)"><g><path d="M 6.078125 -9.34375 L 13.328125 -9.390625 C 13.359375 -9.847656 13.375 -10.273438 13.375 -10.671875 C 13.375 -11.503906 13.304688 -12.175781 13.171875 -12.6875 C 12.953125 -13.550781 12.515625 -14.253906 11.859375 -14.796875 C 11.203125 -15.347656 10.390625 -15.625 9.421875 -15.625 C 8.429688 -15.625 7.65625 -15.0625 7.09375 -13.9375 C 6.53125 -12.8125 6.191406 -11.28125 6.078125 -9.34375 Z M 6.046875 -8.734375 L 6.046875 -7.859375 C 6.046875 -5.921875 6.398438 -4.171875 7.109375 -2.609375 C 7.816406 -1.054688 8.84375 -0.28125 10.1875 -0.28125 C 11.75 -0.28125 12.984375 -0.734375 13.890625 -1.640625 C 14.804688 -2.554688 15.441406 -3.515625 15.796875 -4.515625 L 16.921875 -3.703125 C 16.515625 -2.679688 15.734375 -1.691406 14.578125 -0.734375 C 13.421875 0.210938 11.90625 0.6875 10.03125 0.6875 C 7.75 0.6875 5.847656 -0.0195312 4.328125 -1.4375 C 2.804688 -2.863281 2.046875 -4.9375 2.046875 -7.65625 C 2.046875 -9.238281 2.304688 -10.625 2.828125 -11.8125 C 3.359375 -13.007812 4.0625 -13.925781 4.9375 -14.5625 C 5.8125 -15.195312 6.691406 -15.660156 7.578125 -15.953125 C 8.460938 -16.242188 9.375 -16.390625 10.3125 -16.390625 C 11.757812 -16.390625 13.109375 -16 14.359375 -15.21875 C 15.609375 -14.445312 16.421875 -13.1875 16.796875 -11.4375 C 16.898438 -10.90625 16.953125 -10.367188 16.953125 -9.828125 C 16.953125 -9.535156 16.941406 -9.1875 16.921875 -8.78125 Z M 6.046875 -8.734375 "/></g></g></g><g fill="#634e4e" fill-opacity="1"><g transform="translate(160.436853, 107.789688)"><g><path d="M 13.046875 -15.546875 L 8.78125 -15.546875 C 8.78125 -15.546875 8.78125 -11.894531 8.78125 -4.59375 C 8.78125 -3.4375 8.960938 -2.507812 9.328125 -1.8125 C 9.691406 -1.113281 10.179688 -0.765625 10.796875 -0.765625 C 11.492188 -0.765625 12.078125 -1.046875 12.546875 -1.609375 C 13.015625 -2.171875 13.453125 -3.019531 13.859375 -4.15625 L 14.75 -3.703125 C 14.5 -3.054688 14.28125 -2.554688 14.09375 -2.203125 C 13.90625 -1.859375 13.632812 -1.457031 13.28125 -1 C 12.9375 -0.550781 12.507812 -0.222656 12 -0.015625 C 11.488281 0.179688 10.875 0.28125 10.15625 0.28125 C 8.539062 0.28125 7.332031 -0.175781 6.53125 -1.09375 C 6.15625 -1.488281 5.882812 -2.054688 5.71875 -2.796875 C 5.5625 -3.535156 5.484375 -4.617188 5.484375 -6.046875 L 5.484375 -15.546875 L 2.09375 -15.546875 L 2.09375 -16.078125 C 2.738281 -16.078125 3.523438 -16.253906 4.453125 -16.609375 C 5.378906 -16.972656 6.015625 -17.375 6.359375 -17.8125 C 6.710938 -18.257812 7.0625 -18.90625 7.40625 -19.75 C 7.757812 -20.601562 7.9375 -21.445312 7.9375 -22.28125 L 8.859375 -22.28125 C 8.753906 -21.414062 8.703125 -20.097656 8.703125 -18.328125 C 8.703125 -18.140625 8.703125 -17.84375 8.703125 -17.4375 C 8.703125 -17.039062 8.703125 -16.734375 8.703125 -16.515625 L 13.296875 -16.59375 Z M 13.046875 -15.546875 "/></g></g></g><g fill="#634e4e" fill-opacity="1"><g transform="translate(181.136457, 107.789688)"><g><path d="M 5.109375 -5.28125 C 5.804688 -5.28125 6.441406 -5.054688 7.015625 -4.609375 C 7.597656 -4.171875 7.890625 -3.507812 7.890625 -2.625 C 7.890625 -1.65625 7.628906 -0.945312 7.109375 -0.5 C 6.585938 -0.0625 5.921875 0.15625 5.109375 0.15625 C 4.441406 0.15625 3.832031 -0.125 3.28125 -0.6875 C 2.726562 -1.25 2.453125 -1.894531 2.453125 -2.625 C 2.453125 -3.457031 2.734375 -4.109375 3.296875 -4.578125 C 3.867188 -5.046875 4.472656 -5.28125 5.109375 -5.28125 Z M 5.109375 -5.28125 "/></g></g></g><g clip-path="url(#2901fef510)"><path fill="#e88b22" d="M 82.625 53.25 C 82.3125 53.253906 81.996094 53.257812 81.683594 53.265625 C 81.238281 51.054688 80.558594 48.882812 79.398438 46.949219 C 77.242188 43.363281 73.078125 40.320312 68.933594 42.273438 C 64.761719 44.242188 63.207031 49.332031 62.515625 53.566406 C 62.203125 53.570312 61.890625 53.574219 61.578125 53.578125 C 62.023438 50.761719 62.566406 47.894531 64.054688 45.4375 C 65.207031 43.542969 66.898438 41.925781 69.03125 41.253906 C 71.203125 40.566406 73.578125 40.980469 75.582031 42.007812 C 79.796875 44.167969 81.742188 48.773438 82.625 53.25 Z M 82.625 53.25 " fill-opacity="1" fill-rule="nonzero"/></g><g clip-path="url(#5695f639ab)"><path fill="#c55428" d="M 85.898438 53.207031 C 85.363281 53.210938 84.832031 53.21875 84.296875 53.226562 C 84.046875 50.171875 83.164062 47.15625 81.433594 44.617188 C 78.394531 40.152344 72.527344 37.515625 67.398438 39.925781 C 62.25 42.347656 60.917969 48.402344 60.09375 53.59375 C 59.484375 53.597656 58.871094 53.597656 58.257812 53.601562 C 58.785156 50.210938 59.421875 46.757812 61.179688 43.773438 C 62.617188 41.34375 65.296875 38.917969 68.011719 38.089844 C 70.746094 37.253906 74.8125 37.648438 77.386719 38.867188 C 82.738281 41.394531 85.429688 47.449219 85.898438 53.207031 Z M 85.898438 53.207031 " fill-opacity="1" fill-rule="nonzero"/></g><g clip-path="url(#bfffd9afe2)"><path fill="#174441" d="M 88.152344 53.1875 C 87.84375 53.191406 87.097656 53.191406 86.789062 53.195312 C 86.761719 49.738281 85.699219 46.355469 83.804688 43.453125 C 79.859375 37.414062 72.761719 35.328125 66.492188 37.796875 C 63.445312 38.996094 60.902344 41.273438 59.414062 44.222656 C 57.957031 47.117188 57.484375 50.394531 57.183594 53.605469 C 56.875 53.605469 56.566406 53.609375 56.253906 53.609375 C 56.617188 49.71875 57.234375 45.707031 59.394531 42.386719 C 61.257812 39.523438 64.183594 37.445312 67.425781 36.484375 C 70.734375 35.503906 74.289062 35.785156 77.457031 37.125 C 83.828125 39.828125 88.105469 46.339844 88.152344 53.1875 Z M 88.152344 53.1875 " fill-opacity="1" fill-rule="nonzero"/></g><g clip-path="url(#543bda5016)"><path fill="#fab7a4" d="M 79.859375 53.265625 C 79.539062 53.269531 78.761719 53.277344 78.441406 53.28125 C 78.117188 51.328125 77.628906 49.382812 76.625 47.703125 C 75.777344 46.28125 75.171875 45.476562 73.65625 44.980469 C 72.140625 44.484375 70.644531 44.800781 69.277344 45.625 C 66.496094 47.308594 65.550781 50.234375 65.351562 53.535156 C 65.03125 53.539062 64.15625 53.542969 63.839844 53.546875 C 63.945312 51.542969 64.371094 49.546875 65.292969 47.792969 C 67.015625 44.5 70.789062 42.269531 74.222656 43.753906 C 77.808594 45.300781 79.226562 49.441406 79.859375 53.265625 Z M 79.859375 53.265625 " fill-opacity="1" fill-rule="nonzero"/></g><g clip-path="url(#77a2442f7f)"><path fill="#e88b22" d="M 61.488281 53.230469 C 61.800781 53.222656 62.117188 53.21875 62.429688 53.214844 C 62.875 55.421875 63.550781 57.597656 64.714844 59.53125 C 66.867188 63.113281 71.03125 66.160156 75.179688 64.203125 C 79.351562 62.238281 80.90625 57.144531 81.597656 52.910156 C 81.910156 52.910156 82.222656 52.90625 82.535156 52.902344 C 82.089844 55.714844 81.546875 58.585938 80.054688 61.042969 C 78.90625 62.933594 77.210938 64.554688 75.082031 65.226562 C 72.90625 65.914062 70.53125 65.5 68.53125 64.472656 C 64.316406 62.3125 62.367188 57.703125 61.488281 53.230469 Z M 61.488281 53.230469 " fill-opacity="1" fill-rule="nonzero"/></g><g clip-path="url(#eb1a60a157)"><path fill="#c55428" d="M 58.214844 53.273438 C 58.746094 53.265625 59.28125 53.261719 59.8125 53.253906 C 60.066406 56.308594 60.949219 59.320312 62.679688 61.863281 C 65.71875 66.324219 71.585938 68.964844 76.714844 66.550781 C 81.859375 64.128906 83.195312 58.078125 84.019531 52.886719 C 84.628906 52.882812 85.242188 52.878906 85.851562 52.878906 C 85.324219 56.269531 84.691406 59.71875 82.929688 62.703125 C 81.496094 65.136719 78.8125 67.558594 76.101562 68.390625 C 73.367188 69.226562 69.300781 68.832031 66.726562 67.613281 C 61.371094 65.082031 58.683594 59.027344 58.214844 53.273438 Z M 58.214844 53.273438 " fill-opacity="1" fill-rule="nonzero"/></g><g clip-path="url(#f3796e37e5)"><path fill="#174441" d="M 55.957031 53.292969 C 56.269531 53.289062 57.015625 53.285156 57.324219 53.28125 C 57.351562 56.738281 58.410156 60.121094 60.308594 63.023438 C 64.253906 69.066406 71.351562 71.148438 77.621094 68.683594 C 80.667969 67.480469 83.210938 65.203125 84.695312 62.257812 C 86.15625 59.363281 86.628906 56.082031 86.925781 52.871094 C 87.238281 52.871094 87.546875 52.871094 87.855469 52.867188 C 87.492188 56.761719 86.875 60.773438 84.71875 64.09375 C 82.855469 66.957031 79.929688 69.035156 76.6875 69.992188 C 73.378906 70.972656 69.824219 70.695312 66.65625 69.351562 C 60.28125 66.652344 56.007812 60.136719 55.957031 53.292969 Z M 55.957031 53.292969 " fill-opacity="1" fill-rule="nonzero"/></g><g clip-path="url(#14897b2e9c)"><path fill="#fab7a4" d="M 64.253906 53.214844 C 64.570312 53.207031 65.351562 53.203125 65.671875 53.195312 C 65.996094 55.148438 66.484375 57.097656 67.488281 58.777344 C 68.335938 60.199219 68.941406 61 70.457031 61.5 C 71.972656 61.996094 73.46875 61.679688 74.832031 60.855469 C 77.617188 59.171875 78.558594 56.242188 78.761719 52.945312 C 79.078125 52.941406 79.953125 52.933594 80.273438 52.929688 C 80.167969 54.9375 79.742188 56.933594 78.820312 58.6875 C 77.09375 61.980469 73.324219 64.210938 69.886719 62.726562 C 66.304688 61.179688 64.882812 57.039062 64.253906 53.214844 Z M 64.253906 53.214844 " fill-opacity="1" fill-rule="nonzero"/></g><g clip-path="url(#b8d340bd2f)"><g clip-path="url(#ac12e08ba5)"><g clip-path="url(#c8c49df529)"><path fill="#e88b22" d="M 97.472656 47.707031 C 97.875 47.710938 98.277344 47.710938 98.679688 47.714844 C 99.191406 50.527344 100.003906 53.304688 101.441406 55.789062 C 104.109375 60.394531 109.371094 64.367188 114.742188 61.996094 C 120.144531 59.613281 122.277344 53.195312 123.273438 47.84375 C 123.675781 47.847656 124.074219 47.851562 124.476562 47.855469 C 123.832031 51.414062 123.058594 55.039062 121.082031 58.117188 C 119.558594 60.484375 117.339844 62.496094 114.59375 63.292969 C 111.785156 64.105469 108.75 63.515625 106.210938 62.160156 C 100.859375 59.304688 98.484375 53.40625 97.472656 47.707031 Z M 97.472656 47.707031 " fill-opacity="1" fill-rule="nonzero"/></g></g></g><g clip-path="url(#8abff4b3e5)"><g clip-path="url(#21a7277b31)"><g clip-path="url(#737bda4737)"><path fill="#725b5b" d="M 93.269531 47.675781 C 93.953125 47.683594 94.640625 47.691406 95.324219 47.695312 C 95.566406 51.578125 96.617188 55.421875 98.769531 58.691406 C 102.550781 64.433594 110.007812 67.9375 116.648438 65.015625 C 123.316406 62.082031 125.1875 54.441406 126.382812 47.875 C 127.164062 47.886719 127.949219 47.902344 128.734375 47.914062 C 127.96875 52.199219 127.0625 56.5625 124.726562 60.300781 C 122.820312 63.347656 119.316406 66.351562 115.816406 67.332031 C 112.285156 68.320312 107.078125 67.707031 103.808594 66.097656 C 97.011719 62.742188 93.71875 54.992188 93.269531 47.675781 Z M 93.269531 47.675781 " fill-opacity="1" fill-rule="nonzero"/></g></g></g><g clip-path="url(#857d02d87d)"><g clip-path="url(#0189cb9d8a)"><g clip-path="url(#11112d9ef7)"><path fill="#174441" d="M 90.375 47.640625 C 90.773438 47.644531 91.730469 47.660156 92.128906 47.664062 C 92.070312 52.050781 93.34375 56.371094 95.699219 60.101562 C 100.597656 67.871094 109.648438 70.707031 117.753906 67.742188 C 121.695312 66.300781 125.019531 63.480469 127.003906 59.78125 C 128.953125 56.148438 129.644531 52 130.113281 47.9375 C 130.507812 47.941406 130.90625 47.949219 131.304688 47.957031 C 130.734375 52.882812 129.839844 57.957031 126.980469 62.109375 C 124.515625 65.695312 120.707031 68.25 116.523438 69.382812 C 112.253906 70.535156 107.703125 70.089844 103.671875 68.300781 C 95.570312 64.703125 90.261719 56.324219 90.375 47.640625 Z M 90.375 47.640625 " fill-opacity="1" fill-rule="nonzero"/></g></g></g><g clip-path="url(#bd519512da)"><g clip-path="url(#86f8983e67)"><g clip-path="url(#6c5b434cbd)"><path fill="#fab7a4" d="M 101.019531 47.761719 C 101.429688 47.761719 102.425781 47.777344 102.835938 47.777344 C 103.203125 50.265625 103.777344 52.75 105.019531 54.90625 C 106.070312 56.730469 106.828125 57.769531 108.757812 58.4375 C 110.6875 59.109375 112.617188 58.75 114.386719 57.738281 C 118.003906 55.679688 119.289062 51.988281 119.632812 47.808594 C 120.042969 47.8125 121.167969 47.828125 121.574219 47.832031 C 121.386719 50.371094 120.785156 52.894531 119.558594 55.09375 C 117.257812 59.226562 112.363281 61.957031 107.996094 59.980469 C 103.441406 57.921875 101.726562 52.632812 101.019531 47.761719 Z M 101.019531 47.761719 " fill-opacity="1" fill-rule="nonzero"/></g></g></g><g fill="#634e4e" fill-opacity="1"><g transform="translate(16.042341, 70.323247)"><g><path d="M 36.328125 -16.9375 C 36.328125 -14.875 35.953125 -12.859375 35.203125 -10.890625 C 34.460938 -8.929688 33.367188 -7.101562 31.921875 -5.40625 C 30.472656 -3.707031 28.523438 -2.351562 26.078125 -1.34375 C 23.640625 -0.332031 20.859375 0.171875 17.734375 0.171875 C 17.460938 0.171875 16.6875 0.160156 15.40625 0.140625 C 14.132812 0.117188 12.375 0.0976562 10.125 0.078125 C 7.875 0.0664062 5.429688 0.0625 2.796875 0.0625 L 2.796875 -0.859375 C 5.890625 -1.128906 7.570312 -2.003906 7.84375 -3.484375 L 7.84375 -32.328125 C 7.800781 -32.816406 7.664062 -33.242188 7.4375 -33.609375 C 7.207031 -33.972656 6.816406 -34.238281 6.265625 -34.40625 C 5.710938 -34.582031 5.3125 -34.695312 5.0625 -34.75 C 4.8125 -34.8125 4.304688 -34.878906 3.546875 -34.953125 L 3.546875 -35.984375 C 5.796875 -35.984375 8.734375 -36 12.359375 -36.03125 C 15.984375 -36.070312 18.269531 -36.09375 19.21875 -36.09375 C 21.09375 -36.09375 22.960938 -35.757812 24.828125 -35.09375 C 26.691406 -34.425781 28.519531 -33.394531 30.3125 -32 C 32.101562 -30.613281 33.550781 -28.613281 34.65625 -26 C 35.769531 -23.382812 36.328125 -20.363281 36.328125 -16.9375 Z M 30.09375 -16.59375 C 30.09375 -16.707031 30.09375 -16.820312 30.09375 -16.9375 C 30.09375 -19.945312 29.910156 -22.460938 29.546875 -24.484375 C 29.179688 -26.503906 28.519531 -28.304688 27.5625 -29.890625 C 26.613281 -31.472656 25.269531 -32.632812 23.53125 -33.375 C 21.800781 -34.125 19.617188 -34.5 16.984375 -34.5 C 15.847656 -34.5 14.648438 -34.441406 13.390625 -34.328125 C 13.390625 -33.328125 13.390625 -31.609375 13.390625 -29.171875 C 13.390625 -27.078125 13.390625 -23.492188 13.390625 -18.421875 C 13.390625 -13.347656 13.390625 -9.914062 13.390625 -8.125 C 13.390625 -5.914062 13.390625 -4.503906 13.390625 -3.890625 C 13.390625 -3.160156 13.679688 -2.5 14.265625 -1.90625 C 14.859375 -1.320312 15.613281 -1.03125 16.53125 -1.03125 C 19.3125 -1.03125 21.585938 -1.316406 23.359375 -1.890625 C 25.140625 -2.460938 26.515625 -3.425781 27.484375 -4.78125 C 28.460938 -6.132812 29.128906 -7.710938 29.484375 -9.515625 C 29.847656 -11.328125 30.050781 -13.6875 30.09375 -16.59375 Z M 30.09375 -16.59375 "/></g></g></g><g fill="#634e4e" fill-opacity="1"><g transform="translate(129.720297, 68.354954)"><g><path d="M 11.921875 -40.1875 C 11.765625 -36.269531 11.664062 -31.867188 11.625 -26.984375 C 11.625 -25.023438 11.65625 -21.363281 11.71875 -16 C 11.78125 -10.632812 11.8125 -6.054688 11.8125 -2.265625 C 11.882812 -1.859375 12.429688 -1.550781 13.453125 -1.34375 C 14.472656 -1.144531 15.332031 -1.023438 16.03125 -0.984375 L 16.03125 0 C 14.226562 -0.207031 12.085938 -0.3125 9.609375 -0.3125 C 6.710938 -0.3125 4.347656 -0.207031 2.515625 0 L 2.515625 -0.984375 C 5.203125 -1.097656 6.585938 -1.523438 6.671875 -2.265625 C 6.785156 -6.140625 6.84375 -11.503906 6.84375 -18.359375 C 6.84375 -25.648438 6.785156 -31.722656 6.671875 -36.578125 C 5.648438 -37.390625 4.265625 -37.796875 2.515625 -37.796875 L 2.515625 -38.84375 C 4.671875 -38.96875 7.804688 -39.414062 11.921875 -40.1875 Z M 11.921875 -40.1875 "/></g></g></g><g fill="#634e4e" fill-opacity="1"><g transform="translate(154.123986, 68.354954)"><g><path d="M 27.71875 -5.078125 L 28.625 -4.53125 C 28.09375 -1.226562 26.132812 0.421875 22.75 0.421875 C 21.363281 0.421875 20.320312 -0.0351562 19.625 -0.953125 C 18.9375 -1.867188 18.53125 -2.957031 18.40625 -4.21875 C 17.59375 -3.28125 16.972656 -2.609375 16.546875 -2.203125 C 16.117188 -1.796875 15.3125 -1.234375 14.125 -0.515625 C 12.945312 0.191406 11.765625 0.546875 10.578125 0.546875 C 8.546875 0.546875 6.796875 -0.0195312 5.328125 -1.15625 C 3.859375 -2.300781 3.125 -4.117188 3.125 -6.609375 C 3.125 -7.710938 3.359375 -8.671875 3.828125 -9.484375 C 4.296875 -10.296875 4.945312 -10.957031 5.78125 -11.46875 C 6.613281 -11.976562 7.457031 -12.394531 8.3125 -12.71875 C 9.175781 -13.050781 10.175781 -13.285156 11.3125 -13.421875 C 12.457031 -13.566406 13.40625 -13.660156 14.15625 -13.703125 C 14.914062 -13.742188 15.753906 -13.773438 16.671875 -13.796875 C 17.585938 -13.816406 18.085938 -13.828125 18.171875 -13.828125 C 18.296875 -13.828125 18.359375 -15.335938 18.359375 -18.359375 C 18.359375 -22.222656 16.582031 -24.15625 13.03125 -24.15625 C 11.800781 -24.15625 10.820312 -23.890625 10.09375 -23.359375 C 9.363281 -22.835938 8.914062 -22.207031 8.75 -21.46875 C 9.925781 -21.46875 10.515625 -20.570312 10.515625 -18.78125 C 10.515625 -17.675781 10.144531 -16.890625 9.40625 -16.421875 C 8.675781 -15.953125 7.96875 -15.71875 7.28125 -15.71875 C 6.507812 -15.71875 5.816406 -16.070312 5.203125 -16.78125 C 4.585938 -17.5 4.28125 -18.285156 4.28125 -19.140625 C 4.28125 -20.648438 5.238281 -22.117188 7.15625 -23.546875 C 8.707031 -24.734375 10.847656 -25.328125 13.578125 -25.328125 C 16.148438 -25.328125 18.429688 -24.53125 20.421875 -22.9375 C 22.421875 -21.34375 23.421875 -19.179688 23.421875 -16.453125 C 23.421875 -15.109375 23.378906 -13.234375 23.296875 -10.828125 C 23.222656 -8.421875 23.1875 -6.6875 23.1875 -5.625 C 23.1875 -2.894531 23.816406 -1.550781 25.078125 -1.59375 C 25.816406 -1.59375 26.367188 -1.859375 26.734375 -2.390625 C 27.097656 -2.921875 27.425781 -3.816406 27.71875 -5.078125 Z M 18.171875 -5.75 L 18.171875 -12.96875 C 16.742188 -12.84375 15.425781 -12.707031 14.21875 -12.5625 C 13.019531 -12.425781 11.988281 -12.203125 11.125 -11.890625 C 10.269531 -11.585938 9.597656 -11.066406 9.109375 -10.328125 C 8.617188 -9.597656 8.375 -8.582031 8.375 -7.28125 C 8.375 -5.53125 8.8125 -4.242188 9.6875 -3.421875 C 10.570312 -2.609375 11.6875 -2.203125 13.03125 -2.203125 C 15.144531 -2.203125 16.859375 -3.382812 18.171875 -5.75 Z M 18.171875 -5.75 "/></g></g></g><g fill="#634e4e" fill-opacity="1"><g transform="translate(19.661443, 112.614815)"><g><path d="M 18.453125 -40.046875 C 21.609375 -40.046875 24.289062 -38.878906 26.5 -36.546875 C 27.519531 -36.671875 28.335938 -37.53125 28.953125 -39.125 L 29.796875 -39.125 L 29.625 -27.234375 C 29.625 -27.234375 29.234375 -27.234375 28.453125 -27.234375 C 28.328125 -28.660156 28.160156 -30.015625 27.953125 -31.296875 C 27.753906 -32.585938 27.304688 -33.707031 26.609375 -34.65625 C 24.691406 -37.46875 21.9375 -38.875 18.34375 -38.875 C 16.414062 -38.875 14.773438 -38.128906 13.421875 -36.640625 C 12.078125 -35.148438 11.40625 -33.609375 11.40625 -32.015625 C 11.40625 -30.296875 12.222656 -28.675781 13.859375 -27.15625 C 15.492188 -25.644531 17.660156 -24.398438 20.359375 -23.421875 C 24.078125 -22.035156 27.070312 -20.257812 29.34375 -18.09375 C 31.613281 -15.925781 32.75 -13.492188 32.75 -10.796875 C 32.75 -7.316406 31.601562 -4.492188 29.3125 -2.328125 C 27.019531 -0.160156 23.21875 0.921875 17.90625 0.921875 C 16.757812 0.921875 15.65625 0.796875 14.59375 0.546875 C 13.53125 0.304688 12.660156 0.00390625 11.984375 -0.359375 C 11.316406 -0.734375 10.664062 -1.113281 10.03125 -1.5 C 9.394531 -1.882812 8.929688 -2.203125 8.640625 -2.453125 C 7.828125 -2.085938 7.070312 -1.25 6.375 0.0625 L 5.09375 0.0625 L 5.21875 -11.09375 L 6.4375 -11.09375 C 7.132812 -7.75 8.332031 -5.15625 10.03125 -3.3125 C 11.726562 -1.46875 14.269531 -0.546875 17.65625 -0.546875 C 23.382812 -0.546875 26.25 -3.304688 26.25 -8.828125 C 26.25 -12.429688 23.222656 -15.296875 17.171875 -17.421875 C 13.898438 -18.566406 11.320312 -20.191406 9.4375 -22.296875 C 7.5625 -24.398438 6.625 -26.632812 6.625 -29 C 6.582031 -36.363281 10.523438 -40.046875 18.453125 -40.046875 Z M 18.453125 -40.046875 "/></g></g></g></svg>