<svg xmlns="http://www.w3.org/2000/svg" xmlns:xlink="http://www.w3.org/1999/xlink" width="500" zoomAndPan="magnify" viewBox="0 0 375 374.999991" height="500" preserveAspectRatio="xMidYMid meet" version="1.0"><defs><clipPath id="10c1b8f783"><path d="M 162 67 L 314.828125 67 L 314.828125 295 L 162 295 Z M 162 67 " clip-rule="nonzero"/></clipPath></defs><path fill="#c5815c" d="M 216.328125 77.625 C 211.476562 82.894531 208.597656 89.890625 208.433594 97.054688 C 208.269531 103.558594 210.324219 109.894531 213.203125 115.742188 C 215.589844 120.597656 218.878906 125.371094 223.894531 127.429688 C 227.101562 128.746094 230.71875 128.746094 234.171875 128.171875 C 244.53125 126.441406 253.25 119.527344 261.390625 112.859375 C 262.542969 111.871094 263.773438 110.882812 264.515625 109.566406 C 265.335938 108.167969 265.582031 106.601562 265.832031 105.039062 C 267.640625 94.667969 271.011719 84.542969 275.78125 75.15625 C 272.984375 74.332031 270.1875 73.511719 267.394531 72.6875 C 264.269531 71.78125 261.0625 70.792969 257.773438 70.546875 C 253.90625 70.300781 250.042969 71.042969 246.175781 71.207031 C 243.875 71.289062 241.574219 71.207031 239.433594 70.546875 C 238.367188 70.21875 237.378906 69.890625 236.390625 69.3125 C 235.652344 68.902344 235.160156 68.160156 234.253906 68.160156 C 232.28125 68.078125 229.8125 69.148438 227.921875 69.804688 C 225.867188 70.628906 223.894531 71.617188 222.085938 72.769531 C 219.945312 74.167969 218.054688 75.734375 216.328125 77.625 Z M 216.328125 77.625 " fill-opacity="1" fill-rule="nonzero"/><path fill="#c5815c" d="M 274.710938 320.304688 C 274.875 320.386719 275.121094 320.386719 275.285156 320.46875 C 276.4375 320.796875 277.671875 321.371094 278.90625 321.457031 C 281.042969 321.621094 283.34375 323.019531 284.90625 324.417969 C 286.550781 325.902344 287.785156 327.957031 288.113281 330.097656 C 288.28125 331.167969 288.195312 332.238281 288.195312 333.308594 C 288.113281 334.957031 288.03125 336.683594 288.03125 338.332031 C 287.949219 339.894531 287.867188 341.542969 286.800781 342.695312 C 285.976562 343.597656 284.660156 343.929688 283.429688 344.257812 C 282.441406 344.503906 281.289062 344.75 280.304688 344.175781 C 279.644531 343.765625 279.234375 343.023438 278.90625 342.28125 C 278.578125 341.542969 278.410156 340.71875 278 340.058594 C 277.589844 339.320312 276.847656 338.824219 276.191406 338.25 C 276.027344 338.164062 275.863281 337.917969 275.699219 337.835938 C 275.535156 337.753906 275.371094 337.835938 275.203125 337.753906 C 274.875 337.671875 274.546875 337.34375 274.300781 337.097656 C 272.246094 335.121094 269.941406 333.554688 267.558594 331.910156 C 265.335938 330.347656 263.117188 328.863281 260.898438 327.300781 C 261.0625 325.816406 261.226562 324.253906 261.71875 322.855469 C 262.210938 321.457031 263.199219 320.136719 264.515625 319.480469 C 265.75 318.902344 267.144531 318.902344 268.542969 318.984375 C 269.53125 319.066406 270.433594 319.234375 271.339844 319.398438 C 272.492188 319.726562 273.640625 320.054688 274.710938 320.304688 Z M 274.710938 320.304688 " fill-opacity="1" fill-rule="nonzero"/><path fill="#e6ceb8" d="M 274.792969 302.109375 C 277.917969 303.425781 280.304688 306.0625 282.359375 308.777344 C 284.414062 311.496094 286.304688 314.375 288.9375 316.597656 C 292.964844 320.054688 298.476562 321.457031 302.421875 325.078125 C 305.054688 327.464844 306.863281 330.757812 307.851562 334.132812 C 308.835938 337.589844 309.082031 341.128906 309 344.75 C 308.917969 347.386719 308.507812 350.347656 306.453125 351.996094 C 304.644531 353.476562 302.09375 353.476562 299.792969 353.394531 C 295.761719 353.3125 291.488281 353.148438 288.03125 350.925781 C 285.484375 349.277344 283.429688 346.5625 280.46875 346.316406 C 280.222656 346.316406 279.972656 346.316406 279.726562 346.152344 C 278.90625 345.410156 280.550781 344.667969 281.042969 344.421875 C 281.867188 344.011719 282.6875 343.433594 283.261719 342.777344 C 284.578125 341.375 285.402344 339.484375 285.648438 337.589844 C 286.140625 334.460938 285.402344 331.332031 284.496094 328.371094 C 284.003906 326.722656 283.261719 324.832031 281.617188 324.253906 C 279.890625 323.59375 277.917969 324.746094 276.109375 324.417969 C 274.464844 324.171875 273.066406 322.855469 271.339844 322.691406 C 269.285156 322.441406 267.476562 324.007812 265.417969 324.007812 C 263.199219 324.007812 261.308594 322.113281 260.484375 320.054688 C 259.582031 317.832031 259.664062 315.28125 260.238281 312.894531 C 260.816406 310.507812 261.882812 308.367188 262.871094 306.144531 C 263.363281 305.074219 263.9375 304.25 265.007812 303.757812 C 265.996094 303.34375 266.734375 302.523438 267.804688 302.109375 C 270.023438 301.039062 272.65625 301.203125 274.792969 302.109375 Z M 274.792969 302.109375 " fill-opacity="1" fill-rule="nonzero"/><path fill="#cd9b8b" d="M 263.773438 269.183594 C 247.988281 264.574219 231.621094 262.351562 215.175781 262.515625 C 213.367188 262.515625 211.230469 262.679688 210.078125 264.160156 C 209.503906 264.984375 209.257812 265.972656 209.089844 266.960938 C 208.515625 270.253906 207.941406 273.628906 207.363281 276.921875 C 206.296875 282.847656 205.308594 288.9375 205.882812 294.867188 C 206.542969 301.699219 209.339844 308.039062 212.132812 314.292969 C 219.125 330.261719 220.273438 348.042969 224.386719 365.003906 C 225.042969 367.636719 225.703125 370.433594 227.347656 372.574219 C 229.566406 375.539062 233.183594 377.101562 236.804688 377.761719 C 241.820312 378.667969 247.164062 378.089844 251.933594 376.113281 C 260.484375 372.492188 266.40625 364.753906 271.914062 357.265625 C 275.371094 352.652344 278.742188 348.042969 282.195312 343.515625 C 283.511719 341.789062 284.824219 339.976562 285.074219 337.835938 C 285.402344 335.449219 284.25 333.0625 282.933594 331.003906 C 280.796875 327.710938 277.835938 324.664062 274.054688 323.59375 C 270.269531 322.527344 265.582031 323.925781 263.855469 327.546875 C 264.433594 320.632812 266.160156 313.882812 268.957031 307.542969 C 271.339844 302.191406 272.738281 296.511719 273.476562 290.75 C 273.726562 288.691406 273.890625 286.632812 273.640625 284.578125 C 273.394531 282.765625 272.820312 281.035156 272.164062 279.308594 C 271.339844 277.25 270.519531 275.109375 269.203125 273.296875 C 267.886719 271.488281 265.914062 269.757812 263.773438 269.183594 Z M 263.773438 269.183594 " fill-opacity="1" fill-rule="nonzero"/><g clip-path="url(#10c1b8f783)"><path fill="#e6ceb8" d="M 222.742188 68.652344 C 219.78125 68.570312 217.066406 70.300781 214.191406 71.207031 C 211.394531 72.113281 208.433594 72.113281 205.554688 72.441406 C 199.71875 73.097656 194.042969 74.828125 188.453125 76.640625 C 185.902344 77.460938 183.355469 78.285156 181.050781 79.683594 C 179.242188 80.835938 177.761719 82.402344 176.28125 83.964844 C 172.335938 88 168.386719 92.113281 164.441406 96.148438 C 163.207031 97.464844 161.808594 99.03125 162.054688 100.757812 C 162.21875 102.074219 163.207031 103.144531 164.195312 104.132812 C 167.320312 107.179688 170.445312 110.308594 173.566406 113.351562 C 176.691406 116.480469 178.089844 120.925781 179.40625 125.042969 C 180.148438 127.265625 180.148438 129.898438 180.230469 132.203125 C 180.3125 134.839844 180.230469 137.554688 179.898438 140.1875 C 179.734375 141.671875 179.488281 143.152344 179.242188 144.632812 C 178.585938 148.089844 177.597656 151.464844 177.023438 154.925781 C 175.625 162.578125 176.117188 170.480469 178.335938 177.890625 C 180.230469 184.148438 182.121094 190.402344 186.230469 195.425781 C 189.109375 198.964844 192.976562 201.847656 195.277344 205.796875 C 201.28125 215.921875 211.722656 223.085938 216.574219 233.785156 C 220.851562 243.171875 222.25 253.789062 227.921875 262.351562 C 231.375 267.535156 233.515625 273.546875 234.664062 279.554688 C 235.242188 282.683594 235.488281 285.730469 236.308594 288.855469 C 236.722656 290.421875 237.296875 292.066406 238.53125 293.136719 C 239.761719 294.207031 241.492188 294.453125 243.136719 294.621094 C 252.921875 295.523438 262.789062 294.042969 272.164062 291.078125 C 273.558594 290.667969 274.957031 290.089844 275.863281 289.023438 C 277.425781 287.046875 276.683594 284.164062 277.261719 281.777344 C 277.671875 280.050781 278.742188 278.648438 279.5625 277.085938 C 281.699219 273.214844 282.6875 268.6875 282.933594 264.242188 C 283.179688 259.796875 282.769531 255.351562 282.359375 250.90625 C 281.699219 244.238281 281.617188 237.574219 282.851562 230.90625 C 284.085938 224.320312 285.648438 217.652344 285.238281 210.984375 C 285.15625 209.5 284.992188 207.9375 285.8125 206.703125 C 286.800781 205.304688 288.609375 204.972656 290.335938 204.644531 C 296.503906 203.492188 302.503906 201.351562 307.933594 198.386719 C 309.90625 197.316406 310.644531 194.683594 311.304688 192.460938 C 311.960938 190.238281 312.207031 187.933594 312.703125 185.710938 C 313.441406 182.417969 314.757812 179.207031 314.511719 175.832031 C 314.429688 174.433594 314.101562 173.035156 314.015625 171.636719 C 313.933594 170.152344 314.101562 168.753906 314.183594 167.273438 C 314.347656 162.578125 313.195312 157.96875 311.960938 153.523438 C 314.101562 148.914062 313.6875 143.480469 313.277344 138.378906 C 312.621094 129.074219 311.140625 119.773438 308.917969 110.71875 C 308.179688 107.507812 306.699219 104.628906 305.136719 101.746094 C 304.3125 100.183594 303.492188 98.617188 302.585938 97.054688 C 300.859375 94.089844 298.804688 91.042969 295.597656 89.5625 C 293.460938 88.574219 290.910156 88.410156 288.855469 87.175781 C 287.949219 86.597656 287.128906 85.859375 286.304688 85.199219 C 283.429688 82.976562 279.726562 82.152344 276.191406 81.332031 C 275.371094 81.660156 274.300781 81.25 273.726562 80.589844 C 273.066406 79.929688 272.738281 79.027344 272.328125 78.203125 C 271.09375 75.320312 269.53125 72.605469 267.722656 69.972656 C 267.230469 69.230469 266.652344 68.488281 265.914062 67.996094 C 265.171875 67.5 264.1875 67.253906 263.363281 67.5 C 262.707031 67.75 262.128906 68.324219 261.71875 68.902344 C 260.898438 69.804688 260.074219 70.957031 260.320312 72.195312 C 260.648438 73.59375 262.128906 74.167969 263.199219 74.992188 C 265.667969 76.804688 266.570312 80.34375 266.078125 83.390625 C 265.582031 86.433594 264.023438 89.234375 262.542969 91.949219 C 259.5 97.382812 256.375 102.816406 253.332031 108.332031 C 248.808594 116.398438 240.585938 121.585938 232.609375 126.195312 C 231.375 126.851562 230.058594 127.59375 228.746094 127.429688 C 227.429688 127.265625 226.359375 126.441406 225.457031 125.535156 C 220.191406 120.351562 217.726562 112.941406 215.835938 105.78125 C 215.09375 102.898438 214.355469 99.851562 214.683594 96.890625 C 215.09375 93.761719 216.65625 91.042969 217.808594 88.164062 C 218.382812 86.765625 218.878906 85.363281 219.042969 83.882812 C 219.289062 82.320312 220.191406 81 221.015625 79.683594 C 223.070312 76.226562 223.648438 72.027344 222.742188 68.160156 C 222.90625 68.324219 222.742188 68.40625 222.742188 68.652344 Z M 222.742188 68.652344 " fill-opacity="1" fill-rule="nonzero"/></g><path stroke-linecap="butt" transform="matrix(0.822302, 0, 0, 0.823189, -47.384184, 0.905508)" fill-opacity="1" fill="#c5815c" fill-rule="nonzero" stroke-linejoin="miter" d="M 351.701172 20.500448 C 347.501831 19.598848 342.998466 20.400798 339.198158 22.398555 C 335.39785 24.401057 332.300599 27.699016 330.200929 31.499974 C 327.298444 36.700785 326.300863 42.59915 325.298532 48.50226 C 324.699983 52.298472 324.001677 55.999779 323.398378 59.800737 C 322.899588 62.999046 322.301039 66.2021 322.101523 69.400409 C 322.001765 70.600961 321.802249 71.901164 321.802249 73.101716 C 321.802249 74.60122 322.600313 76.200374 322.999346 77.600228 C 324.8995 84.001591 326.699896 90.398209 328.60005 96.699921 C 328.699808 97.198174 328.899324 97.701172 328.999082 98.199425 C 329.901655 101.298083 330.899236 104.501138 333.098664 106.902242 C 334.799302 108.700698 337.298004 109.801599 339.801457 110.0009 C 343.098225 110.200201 346.200226 108.800348 349.097961 107.400495 C 359.301788 102.598286 369.700381 96.699921 375.400843 86.900948 C 376.59794 84.898446 377.500513 82.801039 379.201151 81.201884 C 380.80203 79.697635 382.901701 78.90043 384.702096 77.699878 C 390.397808 74.098222 393.400051 67.397907 395.100689 60.901639 C 395.399963 59.900388 395.200447 58.899137 394.801415 57.897886 C 394.502141 56.90138 393.699326 55.999779 392.801503 55.700828 C 392.098446 55.501526 391.400139 55.501526 390.801591 55.401876 C 388.901437 55.098179 387.599831 53.499024 386.60225 51.800219 C 385.599919 50.201065 384.901613 48.397864 383.600007 46.998011 C 380.901788 44.198304 380.80203 39.600142 379.500425 35.998485 C 379.201151 35.201281 378.901876 34.29968 378.298577 33.602126 C 377.700029 32.899827 376.901964 32.401574 376.099149 31.998227 C 371.700293 29.502217 367.201678 27.001462 362.798071 24.500707 C 360.498885 23.200504 358.09994 21.900302 355.50148 21.701001 C 354.798423 21.60135 354.000358 21.701001 353.302052 21.501699 C 352.499236 21.198002 352.000446 21.098352 351.701172 20.500448 Z M 351.701172 20.500448 " stroke="#ffffff" stroke-width="0.75" stroke-opacity="1" stroke-miterlimit="10"/><path fill="#221b1b" d="M 256.539062 58.117188 C 255.140625 56.71875 253.25 55.8125 251.277344 55.402344 C 249.300781 54.988281 247.328125 54.988281 245.355469 55.070312 C 243.382812 55.152344 241.410156 55.316406 239.433594 55.234375 C 239.597656 55.234375 239.597656 56.964844 239.597656 57.128906 C 239.597656 57.625 239.433594 58.199219 240.09375 58.117188 C 241.410156 58.035156 242.722656 57.953125 244.121094 57.953125 C 246.753906 57.871094 249.464844 57.871094 252.097656 57.871094 C 253.578125 57.953125 255.058594 58.035156 256.539062 58.117188 Z M 256.539062 58.117188 " fill-opacity="1" fill-rule="nonzero"/><path fill="#221b1b" d="M 219.863281 46.429688 C 219.125 45.6875 220.769531 45.441406 221.179688 45.441406 C 223.070312 45.359375 224.46875 46.839844 225.703125 48.074219 C 226.6875 48.980469 227.59375 49.886719 228.582031 50.789062 C 228.910156 51.039062 229.238281 51.203125 229.402344 51.53125 C 229.730469 52.273438 229.320312 53.261719 228.992188 53.917969 C 228.992188 54 228.910156 54.082031 228.828125 54.082031 C 228.664062 54.164062 228.25 53.589844 228.167969 53.507812 C 227.921875 53.261719 227.675781 52.929688 227.347656 52.683594 C 227.101562 52.519531 226.9375 52.273438 226.6875 52.109375 C 226.605469 52.027344 226.03125 51.613281 226.03125 51.53125 C 224.714844 50.460938 223.234375 49.472656 221.917969 48.402344 C 221.179688 47.746094 220.523438 47.085938 219.863281 46.429688 Z M 219.863281 46.429688 " fill-opacity="1" fill-rule="nonzero"/><path fill="#221b1b" d="M 231.128906 28.152344 C 232.28125 28.730469 233.101562 29.71875 234.089844 30.539062 C 236.96875 33.011719 240.75 33.832031 244.53125 34.492188 C 248.234375 35.066406 252.097656 35.480469 255.386719 37.207031 C 258.757812 38.9375 261.554688 42.394531 261.144531 46.097656 C 261.0625 47.332031 260.566406 48.566406 260.402344 49.804688 C 260.238281 51.039062 260.484375 52.4375 261.472656 53.179688 C 262.210938 53.753906 263.117188 53.835938 264.023438 54.164062 C 264.925781 54.496094 265.75 55.152344 265.75 56.058594 C 265.75 56.800781 265.089844 57.457031 265.417969 58.117188 C 265.667969 58.859375 266.816406 58.859375 267.394531 58.28125 C 267.96875 57.707031 268.132812 56.882812 268.378906 56.140625 C 269.039062 54.25 270.351562 52.683594 272.082031 51.613281 C 273.3125 50.875 275.039062 50.542969 275.945312 51.695312 C 276.683594 52.601562 276.4375 54 276.027344 55.152344 C 275.121094 57.539062 273.726562 59.761719 271.914062 61.574219 C 269.941406 63.550781 267.476562 64.785156 265.089844 66.265625 C 264.761719 66.429688 264.433594 66.679688 264.351562 67.089844 C 264.105469 67.914062 265.089844 68.40625 265.832031 68.820312 C 267.640625 69.890625 268.460938 72.113281 268.957031 74.167969 C 269.449219 76.226562 269.941406 78.449219 271.421875 79.929688 C 273.3125 81.742188 276.191406 81.90625 278.578125 82.976562 C 280.960938 84.046875 283.015625 86.1875 285.566406 86.1875 C 285.8125 86.1875 286.058594 86.1875 286.222656 86.023438 C 286.882812 85.695312 286.71875 84.789062 286.550781 84.046875 C 282.605469 69.066406 282.113281 53.34375 282.851562 37.867188 C 283.261719 29.222656 282.6875 20.332031 279.480469 12.347656 C 278.082031 8.890625 276.273438 5.515625 273.230469 3.292969 C 270.683594 1.398438 265.832031 0 263.035156 2.222656 C 259.910156 4.691406 255.714844 4.609375 251.851562 4.28125 C 247.988281 3.953125 243.957031 3.375 240.421875 4.855469 C 238.285156 5.761719 236.472656 7.328125 234.828125 8.972656 C 230.882812 12.757812 227.347656 16.875 224.714844 21.648438 C 222.085938 26.425781 220.523438 31.773438 220.769531 37.207031 C 220.769531 36.796875 221.507812 35.890625 221.671875 35.480469 C 222.003906 34.820312 222.414062 34.164062 222.742188 33.421875 C 223.316406 32.269531 223.894531 30.871094 224.714844 29.882812 C 226.277344 28.070312 229.15625 27.246094 231.128906 28.152344 Z M 231.128906 28.152344 " fill-opacity="1" fill-rule="nonzero"/><path fill="#c5815c" d="M 144.292969 163.484375 C 144.871094 168.34375 145.117188 173.28125 145.035156 178.21875 C 144.953125 180.359375 144.871094 182.582031 143.964844 184.476562 C 142.730469 187.027344 140.183594 188.757812 137.550781 189.746094 C 134.921875 190.816406 132.042969 191.226562 129.328125 192.050781 C 122.914062 194.027344 117.160156 197.894531 112.964844 203.164062 C 108.769531 208.429688 106.304688 214.933594 105.8125 221.601562 C 105.070312 231.808594 101.78125 241.441406 100.054688 251.484375 C 98.328125 261.527344 95.941406 271.570312 91.421875 280.707031 C 89.445312 284.742188 88.296875 289.1875 87.800781 293.632812 C 87.472656 296.757812 87.472656 300.132812 89.117188 302.933594 C 91.503906 307.132812 96.929688 308.859375 101.78125 308.613281 C 104.167969 308.53125 106.714844 307.871094 108.113281 306.0625 C 109.429688 304.25 109.429688 301.863281 110.25 299.722656 C 110.910156 297.910156 112.222656 296.429688 113.046875 294.785156 C 114.445312 291.984375 114.691406 288.773438 114.855469 285.730469 C 115.019531 283.011719 115.183594 280.214844 114.609375 277.496094 C 113.871094 274.449219 112.140625 271.816406 110.910156 268.9375 C 108.441406 263.171875 107.949219 256.503906 109.511719 250.414062 C 109.839844 249.015625 110.167969 247.367188 111.15625 246.378906 C 112.222656 245.394531 113.621094 244.488281 114.855469 243.828125 C 117.488281 242.347656 120.28125 241.195312 123.242188 240.617188 C 125.546875 240.125 127.929688 239.960938 130.234375 240.125 C 136.152344 240.453125 142.074219 242.757812 147.914062 241.6875 C 150.625 241.195312 153.175781 239.960938 155.640625 238.808594 C 162.796875 235.433594 169.949219 232.058594 177.105469 228.597656 C 182.039062 233.210938 186.808594 237.902344 191.660156 242.511719 C 193.304688 244.074219 195.03125 245.640625 197.085938 246.460938 C 200.046875 247.699219 203.5 247.285156 206.707031 246.875 C 208.679688 246.628906 210.652344 246.378906 212.546875 245.640625 C 214.4375 244.898438 216.164062 243.664062 217.066406 241.851562 C 217.972656 240.125 217.972656 237.984375 217.808594 236.007812 C 217.066406 225.390625 212.957031 214.851562 214.601562 204.316406 C 215.257812 199.953125 218.136719 196.164062 217.726562 191.804688 C 215.503906 189.332031 212.296875 188.097656 209.007812 187.523438 C 205.800781 186.945312 202.429688 186.945312 199.140625 186.617188 C 194.867188 186.207031 190.671875 185.21875 186.5625 183.734375 C 184.339844 182.914062 182.121094 181.925781 180.394531 180.195312 C 178.832031 178.632812 177.761719 176.65625 177.023438 174.597656 C 175.378906 170.234375 174.636719 165.542969 174.882812 160.851562 C 175.128906 157.476562 176.035156 154.347656 176.691406 150.972656 C 176.941406 149.65625 177.1875 148.421875 177.105469 147.105469 C 177.023438 145.785156 176.445312 144.46875 175.378906 143.730469 C 173.816406 142.578125 171.429688 142.988281 169.785156 144.140625 C 168.140625 145.292969 167.15625 147.105469 166.167969 148.832031 C 164.6875 151.464844 163.042969 154.101562 160.492188 155.664062 C 158.355469 156.980469 155.804688 157.3125 153.339844 158.050781 C 149.96875 159.121094 146.761719 160.851562 144.292969 163.484375 Z M 144.292969 163.484375 " fill-opacity="1" fill-rule="nonzero"/><path fill="#e6ceb8" d="M 124.96875 135.578125 C 123.984375 138.378906 123.160156 141.339844 121.105469 143.398438 C 120.035156 144.550781 118.554688 145.457031 118.226562 146.9375 C 117.816406 148.339844 118.554688 149.820312 118.554688 151.300781 C 118.554688 152.949219 117.734375 154.429688 117.652344 156.078125 C 117.488281 157.722656 118.0625 159.285156 118.144531 160.933594 C 118.308594 164.226562 116.664062 167.273438 115.84375 170.484375 C 115.429688 172.046875 115.183594 173.691406 115.429688 175.257812 C 115.679688 176.820312 116.5 178.386719 117.816406 179.289062 C 118.804688 180.03125 120.367188 180.195312 121.1875 179.289062 C 121.84375 178.46875 121.597656 177.234375 121.84375 176.246094 C 122.257812 174.1875 124.558594 173.035156 126.613281 172.621094 C 128.835938 172.128906 131.21875 172.046875 133.441406 172.789062 C 135.660156 173.445312 137.632812 174.925781 138.621094 176.984375 C 139.113281 177.972656 139.691406 179.289062 140.757812 179.207031 C 141.417969 179.125 141.910156 178.632812 142.238281 178.136719 C 144.210938 175.09375 144.210938 171.304688 144.292969 167.683594 C 144.542969 158.792969 145.691406 149.984375 147.832031 141.425781 C 148.078125 140.519531 148.242188 139.613281 147.832031 138.789062 C 147.5 138.214844 147.007812 137.882812 146.433594 137.554688 C 143.226562 135.496094 139.855469 133.6875 136.484375 131.957031 C 134.753906 131.050781 132.945312 130.226562 131.21875 129.40625 C 130.480469 129.074219 129.902344 128.582031 129.082031 129.074219 C 128.425781 129.488281 127.847656 130.144531 127.4375 130.722656 C 126.285156 132.121094 125.628906 133.851562 124.96875 135.578125 Z M 124.96875 135.578125 " fill-opacity="1" fill-rule="nonzero"/><path stroke-linecap="butt" transform="matrix(0.822302, 0, 0, 0.823189, -47.384184, 0.905508)" fill-opacity="1" fill="#c5815c" fill-rule="nonzero" stroke-linejoin="miter" d="M 237.29765 127.800391 C 231.801454 127.700741 226.300508 130.101845 222.699717 134.301405 C 219.801982 137.599364 218.201102 141.798924 217.298529 146.098135 C 216.300948 150.40209 215.901916 154.701301 215.198859 159.000512 C 214.201278 164.898876 212.700156 170.901637 213.498221 176.899653 C 214.201278 182.299765 216.799738 187.201624 219.298441 191.999088 C 220.699804 194.599493 222.400442 197.199898 224.400354 199.501352 C 226.300508 201.69841 228.898969 203.601262 231.801454 204.199165 C 234.699189 204.801814 237.601674 203.999864 240.399651 203.30231 C 245.601323 201.798061 250.698486 200.099256 255.301609 197.3992 C 259.899982 194.699144 264.099322 190.997837 266.598024 186.200373 C 267.500598 184.601219 268.198904 182.798018 269.700026 181.701861 C 270.901873 180.800261 272.498003 180.501309 273.999124 179.998311 C 279.799344 178.000554 283.898927 171.798492 283.400136 165.700826 C 283.20062 162.298471 281.499982 159.199813 280.098619 156.101154 C 278.702005 152.997751 276.801851 150.098393 274.098882 148.000986 C 273.001543 147.099386 271.799696 146.401832 270.597849 145.699532 C 265.899718 142.899826 261.201587 140.100119 255.999915 138.500965 C 248.997848 136.299162 244.69875 127.999692 237.29765 127.800391 Z M 237.29765 127.800391 " stroke="#ffffff" stroke-width="0.75" stroke-opacity="1" stroke-miterlimit="10"/><path fill="#221b1b" d="M 161.5625 127.757812 C 160.164062 126.359375 158.273438 125.535156 156.300781 125.207031 C 154.328125 124.878906 152.351562 124.960938 150.378906 125.207031 C 149.394531 125.289062 147.832031 125.535156 147.335938 126.523438 C 146.925781 127.429688 147.746094 128.253906 148.652344 128.171875 C 149.96875 128.089844 151.367188 127.511719 152.683594 127.347656 C 154.078125 127.183594 155.476562 127.101562 156.875 127.183594 C 158.4375 127.183594 160 127.429688 161.5625 127.757812 Z M 161.5625 127.757812 " fill-opacity="1" fill-rule="nonzero"/><path fill="#221b1b" d="M 130.070312 127.757812 C 130.070312 126.851562 130.808594 126.03125 131.714844 125.785156 C 132.617188 125.535156 133.523438 125.699219 134.425781 125.867188 C 135.332031 126.03125 136.152344 126.277344 137.058594 126.605469 C 137.386719 126.6875 137.796875 126.851562 138.042969 127.101562 C 138.457031 127.511719 138.867188 128.828125 138.457031 129.324219 C 138.128906 129.734375 136.484375 128.910156 135.90625 128.828125 C 135.414062 128.664062 130.070312 127.675781 130.070312 127.757812 Z M 130.070312 127.757812 " fill-opacity="1" fill-rule="nonzero"/><path fill="#221b1b" d="M 144.707031 111.460938 C 148.816406 111.210938 153.011719 111.625 156.792969 113.1875 C 160.574219 114.753906 163.949219 117.550781 165.757812 121.253906 C 166.414062 122.574219 166.824219 123.972656 167.730469 125.125 C 168.882812 126.605469 170.691406 127.511719 171.429688 129.160156 C 172.007812 130.476562 171.839844 132.039062 171.839844 133.4375 C 171.839844 134.839844 172.417969 136.566406 173.734375 137.0625 C 175.296875 137.636719 176.941406 136.484375 178.089844 135.332031 C 179.242188 134.179688 180.640625 132.863281 182.285156 133.027344 C 183.269531 133.191406 184.09375 133.851562 184.585938 134.757812 C 185.082031 135.578125 185.246094 136.648438 185.246094 137.554688 C 185.328125 139.367188 184.917969 141.257812 184.09375 142.90625 C 183.269531 144.714844 182.039062 145.703125 180.3125 146.527344 C 179.242188 147.023438 178.171875 147.515625 177.351562 148.257812 C 176.859375 148.75 176.527344 149.328125 176.363281 149.984375 C 176.199219 150.5625 176.199219 151.136719 176.117188 151.714844 C 176.035156 152.289062 175.871094 152.785156 175.707031 153.359375 C 175.296875 154.59375 175.046875 155.828125 174.882812 157.0625 C 174.308594 160.441406 174.0625 163.816406 174.226562 167.191406 C 174.308594 169.496094 174.554688 171.71875 175.210938 173.859375 C 175.953125 175.996094 177.105469 178.054688 178.914062 179.457031 C 179.40625 179.867188 179.980469 180.195312 180.640625 180.359375 C 181.296875 180.523438 181.957031 180.359375 182.449219 179.867188 C 182.859375 179.457031 182.941406 178.796875 183.023438 178.21875 C 183.601562 174.515625 184.175781 170.648438 182.613281 167.273438 C 182.203125 166.367188 181.625 165.460938 181.296875 164.472656 C 180.640625 162.332031 181.460938 160.109375 182.613281 158.21875 C 183.847656 156.324219 185.410156 154.675781 186.726562 152.867188 C 188.039062 151.054688 189.109375 148.914062 188.945312 146.609375 C 188.617188 141.917969 188.535156 137.308594 188.371094 132.699219 C 188.039062 125.371094 185.984375 118.210938 182.449219 111.789062 C 177.925781 103.558594 168.058594 98.78125 158.601562 98.371094 C 150.789062 98.042969 142.980469 100.921875 136.976562 106.027344 C 134.34375 108.25 132.042969 110.964844 130.480469 114.011719 C 128.917969 117.058594 128.175781 120.597656 128.589844 124.054688 C 128.917969 126.9375 129 129.816406 129.082031 132.699219 C 130.480469 129.898438 130.234375 126.605469 130.726562 123.476562 C 131.464844 119.03125 134.015625 114.917969 137.714844 112.199219 C 139.523438 110.882812 142.320312 111.460938 144.707031 111.460938 Z M 144.707031 111.460938 " fill-opacity="1" fill-rule="nonzero"/><path fill="#c5815c" d="M 131.136719 388.050781 C 135.578125 391.589844 139.523438 395.625 144.046875 399 C 148.570312 402.375 153.75 405.171875 159.425781 405.585938 C 160.742188 405.667969 162.21875 405.667969 163.289062 406.574219 C 164.441406 407.5625 164.605469 409.289062 165.425781 410.523438 C 166.414062 411.921875 168.222656 412.5 169.949219 412.5 C 171.675781 412.5 173.320312 411.839844 174.882812 411.265625 C 177.761719 410.195312 181.050781 408.632812 181.296875 405.585938 C 181.460938 403.855469 180.558594 402.292969 179.898438 400.726562 C 178.832031 398.175781 178.585938 395.296875 178.996094 392.578125 C 179.242188 390.851562 179.816406 388.957031 179.160156 387.308594 C 178.335938 385.417969 176.117188 384.59375 174.144531 384.019531 C 169.785156 382.863281 165.34375 382.125 160.824219 381.878906 C 156.136719 381.628906 151.367188 381.796875 147.007812 380.066406 C 143.472656 378.667969 140.59375 376.113281 137.714844 373.644531 C 131.546875 368.460938 125.132812 363.601562 118.554688 359.074219 C 116.253906 357.511719 113.539062 355.863281 110.746094 356.441406 C 107.539062 357.097656 105.644531 360.308594 104.167969 363.273438 C 102.851562 365.988281 101.371094 368.871094 101.371094 371.917969 C 101.371094 373.070312 101.371094 374.386719 102.519531 374.878906 C 103.753906 375.375 105.316406 375.457031 106.632812 375.867188 C 112.308594 377.351562 117.816406 379.65625 122.996094 382.535156 C 125.792969 384.183594 128.507812 385.992188 131.136719 388.050781 Z M 131.136719 388.050781 " fill-opacity="1" fill-rule="nonzero"/><path fill="#5f3629" d="M 121.105469 338.496094 C 125.710938 343.1875 130.398438 348.125 132.863281 354.21875 C 133.6875 356.195312 134.261719 358.417969 133.605469 360.472656 C 132.535156 363.933594 128.257812 365.578125 124.722656 364.917969 C 121.1875 364.34375 118.144531 362.039062 115.183594 359.898438 C 111.8125 366.730469 108.03125 373.976562 101.535156 377.925781 C 96.023438 381.21875 89.777344 381.628906 83.609375 381.546875 C 77.195312 381.464844 70.699219 380.808594 64.367188 379.488281 C 51.621094 376.9375 39.367188 372.164062 28.019531 365.988281 C 25.800781 364.753906 23.582031 363.519531 21.441406 362.203125 C 18.894531 360.640625 16.425781 359.074219 14.042969 357.265625 C 11.65625 355.535156 8.859375 353.558594 7.050781 351.171875 C 5.40625 349.03125 4.339844 345.738281 3.269531 343.1875 C 2.035156 340.222656 0.96875 337.097656 0.472656 333.886719 C -0.101562 330.015625 0.0625 325.984375 1.050781 322.195312 C 1.625 320.054688 2.363281 317.996094 3.761719 316.269531 C 6.558594 312.730469 11.082031 311.246094 15.441406 310.09375 C 27.199219 306.886719 39.78125 308.941406 51.785156 311 C 58.199219 312.070312 64.449219 313.882812 70.699219 315.609375 C 80.402344 318.410156 89.941406 321.371094 99.726562 324.007812 C 103.753906 325.078125 107.949219 326.230469 111.402344 328.535156 C 115.183594 331.25 117.816406 335.203125 121.105469 338.496094 Z M 121.105469 338.496094 " fill-opacity="1" fill-rule="nonzero"/><path fill="#e6ceb8" d="M 128.257812 192.789062 C 124.722656 200.035156 121.351562 207.359375 118.144531 214.6875 C 116.417969 218.558594 114.773438 222.425781 114.117188 226.542969 C 113.785156 228.765625 113.703125 230.988281 113.210938 233.128906 C 111.894531 238.476562 107.867188 242.675781 106.140625 247.863281 C 105.152344 250.742188 104.167969 253.707031 103.917969 256.753906 C 103.671875 259.796875 104.25 263.007812 105.8125 265.5625 C 107.207031 267.867188 109.429688 269.675781 110.664062 272.144531 C 111.8125 274.535156 111.8125 277.25 111.8125 279.882812 C 111.8125 284.660156 113.292969 289.515625 112.554688 294.207031 C 112.308594 295.605469 111.894531 297.007812 111.484375 298.40625 C 110.910156 300.382812 110.25 302.355469 109.59375 304.332031 C 108.6875 307.050781 107.703125 309.847656 106.960938 312.648438 C 105.070312 319.972656 104.988281 327.792969 106.632812 335.203125 C 107.703125 339.8125 110.25 344.339844 114.035156 347.222656 C 117.898438 350.183594 123.160156 351.089844 128.011719 350.679688 C 132.863281 350.265625 137.632812 348.621094 142.238281 346.972656 C 147.996094 344.917969 153.667969 342.941406 159.425781 340.882812 C 166.496094 338.414062 172.253906 332.898438 179.160156 329.933594 C 190.835938 324.914062 203.335938 322.277344 214.847656 316.929688 C 214.191406 314.871094 213.613281 312.566406 213.367188 310.507812 C 212.957031 307.789062 212.957031 304.910156 212.792969 302.109375 C 212.792969 301.203125 212.710938 300.132812 212.132812 299.394531 C 211.722656 298.816406 211.066406 298.488281 210.40625 298.160156 C 209.832031 297.746094 209.257812 297.171875 209.339844 296.429688 C 209.421875 295.773438 209.832031 295.359375 210.242188 294.867188 C 210.652344 294.371094 210.984375 293.796875 210.820312 293.136719 C 210.652344 292.644531 210.078125 292.398438 209.996094 291.820312 C 209.914062 291.078125 210.820312 290.585938 210.902344 289.84375 C 210.984375 289.351562 210.652344 288.855469 210.242188 288.527344 C 209.832031 288.199219 209.421875 287.953125 209.089844 287.539062 C 208.761719 287.128906 208.679688 286.46875 209.007812 286.140625 C 209.175781 285.976562 209.339844 285.894531 209.503906 285.8125 C 209.996094 285.480469 210.160156 284.824219 210.078125 284.328125 C 210.078125 283.753906 209.832031 283.257812 209.75 282.683594 C 209.339844 280.789062 209.585938 278.8125 210.160156 277.003906 C 210.738281 275.191406 211.722656 273.464844 212.628906 271.816406 C 213.449219 270.417969 214.4375 269.265625 214.765625 267.617188 C 215.09375 265.972656 215.011719 264.324219 214.929688 262.679688 C 214.847656 259.796875 214.683594 256.835938 214.109375 254.035156 C 213.53125 251.15625 212.464844 248.355469 210.570312 246.132812 C 207.941406 243.003906 203.910156 241.195312 201.691406 237.738281 C 195.03125 227.363281 192.808594 214.113281 196.757812 202.503906 C 197.578125 200.117188 198.484375 197.402344 197.085938 195.34375 C 195.441406 193.039062 191.660156 193.53125 189.601562 195.507812 C 187.546875 197.484375 186.726562 200.363281 185.738281 203 C 182.121094 212.546875 174.882812 220.613281 166.003906 225.71875 C 157.121094 230.820312 146.679688 232.960938 136.484375 232.304688 C 133.441406 232.140625 130.234375 231.5625 128.011719 229.503906 C 125.792969 227.445312 125.050781 224.15625 125.300781 221.191406 C 125.546875 218.144531 126.78125 215.347656 127.929688 212.546875 C 130.726562 205.796875 133.605469 198.964844 136.398438 192.214844 C 133.769531 191.804688 131.136719 192.050781 128.257812 192.789062 Z M 128.257812 192.789062 " fill-opacity="1" fill-rule="nonzero"/><path fill="#c5815c" d="M 101.617188 286.964844 C 103.507812 290.503906 106.878906 293.054688 110.332031 295.113281 C 118.308594 299.886719 127.191406 302.851562 136.152344 305.15625 C 136.894531 305.320312 137.550781 305.484375 138.292969 305.402344 C 139.03125 305.320312 139.773438 304.910156 139.9375 304.167969 C 140.183594 303.425781 139.773438 302.523438 139.113281 302.027344 C 138.457031 301.535156 137.632812 301.289062 136.894531 301.121094 C 133.6875 300.21875 130.5625 298.816406 127.683594 297.007812 C 127.4375 296.84375 127.191406 296.675781 127.191406 296.429688 C 127.191406 295.855469 128.011719 295.855469 128.507812 296.019531 C 134.671875 297.996094 140.921875 299.96875 147.089844 301.945312 C 147.832031 302.191406 148.570312 302.273438 149.308594 302.109375 C 150.050781 301.945312 150.789062 301.371094 150.953125 300.628906 C 151.121094 299.96875 150.789062 299.230469 150.214844 298.734375 C 149.722656 298.242188 149.0625 297.996094 148.40625 297.664062 C 146.351562 296.757812 144.375 295.855469 142.320312 294.949219 C 140.101562 293.960938 137.796875 292.972656 135.332031 292.5625 C 134.921875 292.480469 134.425781 292.398438 134.015625 292.230469 C 133.605469 291.984375 133.277344 291.574219 133.277344 291.160156 C 136.648438 291.078125 140.019531 291.984375 143.144531 293.136719 C 146.351562 294.289062 149.476562 295.605469 152.765625 296.429688 C 153.585938 296.59375 154.410156 296.757812 155.230469 296.675781 C 156.054688 296.511719 156.875 296.019531 157.039062 295.195312 C 157.285156 294.453125 156.957031 293.632812 156.382812 293.054688 C 155.804688 292.480469 155.066406 292.148438 154.410156 291.738281 C 153.175781 291.078125 151.859375 290.503906 150.542969 289.925781 C 146.925781 288.28125 143.144531 286.882812 139.359375 285.894531 C 142.238281 285.648438 145.035156 286.632812 147.664062 287.703125 C 150.296875 288.773438 153.09375 289.925781 155.972656 289.925781 C 156.957031 289.925781 158.027344 289.679688 158.4375 288.855469 C 158.683594 288.28125 158.601562 287.621094 158.355469 287.128906 C 158.109375 286.632812 157.617188 286.140625 157.203125 285.8125 C 153.914062 282.929688 149.722656 281.117188 145.363281 280.707031 C 145.609375 280.296875 145.855469 279.964844 146.351562 279.964844 C 146.515625 278.730469 145.527344 277.660156 144.542969 276.839844 C 143.226562 275.6875 141.746094 274.699219 140.265625 273.792969 C 136.152344 271.324219 131.300781 269.757812 126.695312 270.746094 C 123.160156 271.488281 120.035156 273.628906 116.417969 273.875 C 113.457031 274.039062 110.414062 272.886719 107.539062 273.628906 C 105.5625 274.121094 103.835938 275.519531 102.605469 277.167969 C 101.371094 278.8125 100.710938 280.871094 100.382812 282.847656 C 100.21875 283.671875 100.136719 284.492188 100.300781 285.316406 C 100.464844 286.140625 100.792969 286.632812 101.617188 286.964844 Z M 101.617188 286.964844 " fill-opacity="1" fill-rule="nonzero"/><path fill="#c5815c" d="M 199.140625 200.117188 C 197.828125 206.949219 197.578125 213.945312 197.660156 220.945312 C 197.660156 225.472656 197.828125 230.164062 199.71875 234.363281 C 200.867188 236.996094 202.679688 239.300781 204.324219 241.6875 C 205.882812 244.074219 207.363281 246.710938 207.695312 249.507812 C 209.585938 265.3125 215.917969 280.214844 217.480469 296.101562 C 217.644531 297.664062 217.972656 299.230469 217.148438 300.546875 C 216.328125 301.863281 215.011719 302.769531 213.777344 303.675781 C 199.554688 314.046875 185.082031 324.417969 168.714844 330.921875 C 165.675781 332.15625 163.453125 334.957031 160.574219 336.4375 C 157.699219 337.917969 154.328125 338.742188 151.121094 338.25 C 149.144531 337.917969 147.253906 337.179688 145.28125 336.683594 C 137.386719 334.542969 129 336.929688 121.1875 339.320312 C 119.789062 339.730469 118.0625 340.554688 117.980469 342.035156 C 117.898438 343.105469 118.804688 344.011719 119.871094 344.339844 C 120.859375 344.667969 122.011719 344.503906 123.078125 344.339844 C 124.886719 344.09375 126.695312 343.847656 128.507812 343.597656 C 129.492188 343.433594 130.726562 343.433594 131.300781 344.175781 C 131.960938 345 131.464844 346.398438 130.5625 346.972656 C 129.65625 347.550781 128.507812 347.632812 127.4375 347.632812 C 123.40625 347.714844 119.378906 347.796875 115.347656 347.878906 C 114.527344 347.878906 113.703125 347.878906 112.882812 348.292969 C 112.140625 348.621094 111.484375 349.363281 111.566406 350.183594 C 111.648438 351.417969 113.128906 351.996094 114.363281 352.160156 C 115.597656 352.242188 116.992188 352.324219 117.816406 353.230469 C 116.417969 353.640625 115.429688 355.289062 115.84375 356.6875 C 116.253906 358.085938 117.980469 358.992188 119.378906 358.5 C 121.84375 360.722656 125.050781 362.039062 128.339844 362.203125 C 134.839844 362.449219 140.59375 358.25 146.019531 354.546875 C 154.246094 348.867188 162.960938 343.929688 171.921875 339.730469 C 176.363281 337.671875 180.96875 335.367188 185.738281 334.378906 C 191.082031 333.390625 196.429688 332.320312 201.773438 331.332031 C 203.335938 331.003906 204.898438 330.757812 206.460938 330.429688 C 211.394531 329.523438 216.65625 328.78125 221.261719 326.640625 C 225.949219 324.5 230.472656 322.113281 234.828125 319.480469 C 236.554688 318.410156 238.285156 317.339844 240.011719 316.1875 C 241.324219 315.28125 242.722656 314.292969 243.464844 312.894531 C 244.203125 311.578125 244.285156 310.011719 244.285156 308.449219 C 244.53125 299.394531 244.039062 290.421875 243.546875 281.367188 C 243.300781 276.507812 241.492188 271.734375 240.421875 266.960938 C 239.269531 261.773438 238.035156 256.671875 237.050781 251.484375 C 236.554688 248.851562 236.144531 246.214844 235.898438 243.582031 C 235.652344 241.03125 235.652344 238.558594 234.996094 236.171875 C 232.363281 226.460938 228.910156 216.910156 224.714844 207.773438 C 222.25 202.339844 219.535156 197.070312 216.574219 191.886719 C 215.421875 189.910156 212.710938 189.167969 210.488281 188.429688 C 208.269531 187.6875 205.886719 187.605469 203.664062 188.429688 C 201.527344 189.25 199.71875 191.0625 199.140625 193.285156 C 198.8125 195.589844 199.636719 197.8125 199.140625 200.117188 Z M 199.140625 200.117188 " fill-opacity="1" fill-rule="nonzero"/><path fill="#5f3629" d="M 185.820312 322.609375 C 192.808594 319.890625 200.539062 318.820312 207.859375 320.21875 C 213.777344 321.371094 218.546875 324.335938 223.398438 327.710938 C 225.621094 329.191406 227.019531 332.734375 228.003906 335.121094 C 229.238281 338.082031 230.058594 341.128906 230.636719 344.257812 C 230.71875 344.75 230.800781 345.246094 230.882812 345.738281 C 231.871094 352.40625 231.621094 359.15625 231.375 365.90625 C 231.046875 373.976562 230.636719 382.453125 226.113281 389.121094 C 222.167969 394.964844 215.589844 398.589844 208.679688 400.070312 C 201.773438 401.550781 194.703125 401.058594 187.710938 400.070312 C 185.082031 399.660156 182.121094 399 180.722656 396.777344 C 179.652344 395.046875 179.734375 392.742188 178.585938 391.015625 C 176.609375 387.96875 172.171875 388.296875 168.632812 388.957031 C 154.902344 391.507812 141.085938 394.144531 127.355469 396.695312 C 119.378906 392.742188 114.445312 383.441406 116.089844 374.714844 C 116.582031 372.410156 117.40625 370.105469 119.050781 368.378906 C 120.941406 366.320312 123.738281 365.25 126.285156 364.015625 C 142.648438 356.441406 154.984375 342.445312 170.113281 332.652344 C 172.171875 331.332031 174.800781 330.921875 176.609375 329.277344 C 177.679688 328.207031 178.503906 326.886719 179.570312 325.816406 C 181.378906 323.925781 183.355469 323.511719 185.820312 322.609375 Z M 185.820312 322.609375 " fill-opacity="1" fill-rule="nonzero"/><path fill="#c5815c" d="M 122.257812 366.8125 C 102.519531 380.640625 76.371094 384.921875 53.265625 378.089844 C 49.648438 377.019531 46.027344 375.703125 42.246094 375.785156 C 38.875 375.867188 35.503906 377.101562 32.132812 377.265625 C 30.242188 377.351562 28.269531 377.101562 26.375 377.183594 C 24.484375 377.265625 22.429688 377.761719 21.03125 378.996094 C 19.632812 380.3125 18.976562 382.617188 20.042969 384.265625 C 21.277344 386.15625 24.074219 386.242188 26.292969 385.746094 C 28.515625 385.335938 30.898438 384.59375 33.035156 385.5 C 31.390625 387.96875 27.609375 387.226562 24.8125 388.132812 C 23.25 388.628906 21.855469 389.863281 21.441406 391.425781 C 21.113281 392.742188 21.769531 395.046875 23.332031 395.296875 C 24.238281 395.460938 25.636719 394.71875 26.457031 394.554688 C 27.609375 394.226562 28.84375 393.894531 29.996094 393.566406 C 30.324219 393.484375 30.816406 393.402344 30.980469 393.730469 C 31.0625 393.976562 30.980469 394.226562 30.734375 394.308594 C 30.570312 394.472656 30.324219 394.472656 30.078125 394.554688 C 28.351562 394.882812 26.457031 395.296875 24.894531 396.199219 C 22.429688 397.601562 26.292969 401.058594 28.433594 399.824219 C 28.925781 399.574219 29.253906 399.742188 29.746094 399.742188 C 29.582031 400.726562 30.488281 401.550781 31.472656 401.714844 C 32.460938 401.882812 33.367188 401.632812 34.351562 401.386719 C 51.128906 396.859375 68.972656 403.363281 86.320312 402.128906 C 92.902344 401.632812 99.3125 400.070312 105.644531 398.421875 C 113.210938 396.53125 120.859375 394.636719 128.425781 392.742188 C 129.902344 392.414062 131.464844 391.921875 132.371094 390.683594 C 133.109375 389.617188 133.191406 388.296875 133.191406 386.980469 C 133.191406 382.78125 133.027344 378.503906 131.382812 374.632812 C 129.820312 370.847656 126.449219 367.308594 122.257812 366.8125 Z M 122.257812 366.8125 " fill-opacity="1" fill-rule="nonzero"/><path fill="#c5815c" d="M 257.277344 205.46875 C 251.851562 205.796875 246.34375 205.304688 241.078125 203.984375 C 238.367188 203.328125 235.898438 202.917969 233.101562 202.832031 C 231.210938 202.75 229.238281 202.75 227.347656 202.832031 C 225.621094 202.917969 224.46875 203.082031 223.070312 201.929688 C 221.015625 200.199219 220.355469 197.320312 218.546875 195.34375 C 215.671875 192.132812 210.488281 192.132812 206.378906 193.449219 C 202.265625 194.765625 198.402344 197.152344 194.125 197.730469 C 192.644531 197.976562 191.164062 197.976562 189.851562 198.636719 C 188.863281 199.210938 188.039062 200.117188 187.054688 200.609375 C 186.066406 201.105469 184.503906 201.023438 184.09375 199.953125 C 183.1875 200.363281 182.285156 200.777344 181.296875 200.695312 C 180.3125 200.609375 179.324219 200.035156 179.078125 199.128906 C 178.832031 198.058594 179.734375 197.070312 180.558594 196.25 C 183.355469 193.695312 186.066406 191.144531 188.863281 188.59375 C 186.066406 189.664062 183.1875 190.402344 180.230469 190.980469 C 179.242188 191.144531 178.089844 191.308594 177.351562 190.566406 C 176.773438 189.992188 176.773438 189.003906 177.105469 188.34375 C 177.433594 187.605469 178.089844 187.027344 178.75 186.535156 C 183.929688 182.582031 190.671875 181.347656 197.167969 180.773438 C 200.457031 180.441406 203.746094 180.277344 206.871094 181.183594 C 210.324219 182.171875 213.203125 184.394531 216.410156 185.875 C 221.179688 188.097656 226.605469 188.675781 231.953125 188.34375 C 234.664062 188.179688 237.296875 187.769531 240.011719 187.277344 C 241.324219 187.027344 242.640625 186.78125 243.957031 186.453125 C 244.78125 186.289062 245.929688 185.792969 246.835938 186.039062 C 248.480469 186.535156 249.714844 189.582031 250.535156 190.898438 C 251.769531 193.039062 253.003906 195.261719 254.070312 197.484375 C 254.402344 198.472656 257.03125 205.46875 257.277344 205.46875 Z M 257.277344 205.46875 " fill-opacity="1" fill-rule="nonzero"/><path fill="#c5815c" d="M 127.355469 170.398438 C 129.574219 170.070312 131.878906 170.398438 134.015625 171.058594 C 135.578125 171.550781 137.140625 172.210938 138.375 173.363281 C 139.523438 174.515625 140.347656 176.246094 140.019531 177.808594 C 139.855469 179.042969 139.113281 180.277344 139.691406 181.347656 C 140.101562 182.171875 141.167969 182.5 141.828125 183.078125 C 143.0625 184.230469 142.894531 186.371094 142.15625 187.933594 C 141.417969 189.5 140.347656 190.898438 139.9375 192.542969 C 139.773438 193.367188 139.691406 194.109375 139.523438 194.929688 C 139.359375 195.753906 139.03125 196.496094 138.375 196.988281 C 137.714844 197.484375 136.730469 197.566406 136.152344 196.988281 C 135.824219 197.8125 135.90625 198.71875 135.90625 199.625 C 135.90625 200.527344 135.988281 201.433594 135.824219 202.339844 C 135.578125 203.246094 135.085938 204.070312 134.261719 204.398438 C 133.441406 204.726562 132.289062 204.398438 131.960938 203.574219 C 132.289062 204.398438 131.714844 205.386719 130.972656 205.714844 C 130.234375 206.042969 129.164062 205.796875 128.507812 205.304688 C 127.847656 204.726562 127.4375 203.902344 127.191406 203.082031 C 126.367188 203.902344 124.96875 203.738281 123.984375 203.082031 C 122.996094 202.421875 122.503906 201.351562 121.929688 200.363281 C 120.613281 197.8125 119.296875 195.179688 118.96875 192.296875 C 118.804688 190.898438 118.96875 189.332031 120.035156 188.429688 C 120.777344 187.851562 121.761719 187.605469 122.257812 186.78125 C 122.585938 186.207031 122.585938 185.464844 122.503906 184.804688 C 122.175781 181.347656 121.929688 177.890625 121.597656 174.515625 C 121.433594 172.871094 121.679688 172.539062 123.160156 171.636719 C 124.476562 171.058594 125.875 170.566406 127.355469 170.398438 Z M 127.355469 170.398438 " fill-opacity="1" fill-rule="nonzero"/></svg>