<svg xmlns="http://www.w3.org/2000/svg" width="500" height="500" viewBox="0 0 375 375"><defs><clipPath id="a"><path d="M162 67h152.828v228H162zm0 0"/></clipPath></defs><path fill="#c5815c" d="M216.328 77.625c-4.852 5.27-7.73 12.266-7.895 19.43-.164 6.504 1.891 12.84 4.77 18.688 2.387 4.855 5.676 9.629 10.691 11.688 3.207 1.316 6.824 1.316 10.277.742 10.359-1.73 19.078-8.645 27.219-15.312 1.152-.988 2.383-1.977 3.125-3.293.82-1.398 1.066-2.965 1.316-4.527a106.59 106.59 0 0 1 9.949-29.883l-8.387-2.469c-3.125-.906-6.332-1.895-9.621-2.141-3.867-.246-7.73.496-11.598.66-2.301.082-4.602 0-6.742-.66-1.066-.328-2.055-.656-3.043-1.234-.738-.41-1.23-1.152-2.137-1.152-1.973-.082-4.441.988-6.332 1.645-2.055.824-4.027 1.813-5.836 2.965-2.141 1.398-4.031 2.965-5.758 4.855zm58.383 242.68c.164.082.41.082.574.164 1.152.328 2.387.902 3.621.988 2.137.164 4.438 1.563 6 2.961 1.645 1.484 2.879 3.539 3.207 5.68.168 1.07.082 2.141.082 3.211l-.164 5.023c-.082 1.563-.164 3.211-1.23 4.363-.824.902-2.141 1.234-3.371 1.563-.988.246-2.141.492-3.125-.082-.66-.41-1.07-1.152-1.398-1.895s-.496-1.562-.906-2.223c-.41-.738-1.152-1.234-1.809-1.809-.164-.086-.328-.332-.492-.414s-.328 0-.496-.082c-.328-.082-.656-.41-.902-.656-2.055-1.977-4.359-3.543-6.742-5.187l-6.66-4.609c.164-1.484.328-3.047.82-4.445s1.48-2.719 2.797-3.375c1.234-.578 2.629-.578 4.027-.496.988.082 1.891.25 2.797.414zm0 0"/><path fill="#e6ceb8" d="M274.793 302.109c3.125 1.316 5.512 3.953 7.566 6.668s3.945 5.598 6.578 7.82c4.027 3.457 9.539 4.859 13.484 8.48 2.633 2.387 4.441 5.68 5.43 9.055.984 3.457 1.23 6.996 1.148 10.617-.082 2.637-.492 5.598-2.547 7.246-1.809 1.48-4.359 1.48-6.66 1.398-4.031-.082-8.305-.246-11.762-2.469-2.547-1.648-4.602-4.363-7.562-4.609-.246 0-.496 0-.742-.164-.82-.742.824-1.484 1.316-1.73.824-.41 1.645-.988 2.219-1.645 1.316-1.402 2.141-3.293 2.387-5.187.492-3.129-.246-6.258-1.152-9.219-.492-1.648-1.234-3.539-2.879-4.117-1.727-.66-3.699.492-5.508.164-1.645-.246-3.043-1.562-4.77-1.727-2.055-.25-3.863 1.316-5.922 1.316-2.219 0-4.109-1.895-4.934-3.953-.902-2.223-.82-4.773-.246-7.16s1.645-4.527 2.633-6.75c.492-1.07 1.066-1.895 2.137-2.387.988-.414 1.727-1.234 2.797-1.648 2.219-1.07 4.852-.906 6.988 0zm0 0"/><path fill="#cd9b8b" d="M263.773 269.184c-15.785-4.609-32.152-6.832-48.598-6.668-1.809 0-3.945.164-5.098 1.645-.574.824-.82 1.813-.988 2.801l-1.727 9.961c-1.066 5.926-2.055 12.016-1.48 17.945.66 6.832 3.457 13.172 6.25 19.426 6.992 15.969 8.141 33.75 12.254 50.711.656 2.633 1.316 5.43 2.961 7.57 2.219 2.965 5.836 4.527 9.457 5.188 5.016.906 10.359.328 15.129-1.648 8.551-3.621 14.473-11.359 19.98-18.848l10.281-13.75c1.316-1.727 2.629-3.539 2.879-5.68.328-2.387-.824-4.773-2.141-6.832-2.137-3.293-5.098-6.34-8.879-7.41s-8.473.332-10.199 3.953a62.411 62.411 0 0 1 5.102-20.004c2.383-5.352 3.781-11.031 4.52-16.793.25-2.059.414-4.117.164-6.172-.246-1.812-.82-3.543-1.477-5.27-.824-2.059-1.645-4.199-2.961-6.012s-3.289-3.539-5.43-4.113zm0 0"/><g clip-path="url(#a)"><path fill="#e6ceb8" d="M222.742 68.652c-2.961-.082-5.676 1.648-8.551 2.555-2.797.906-5.758.906-8.637 1.234-5.836.656-11.512 2.387-17.102 4.199-2.551.82-5.098 1.645-7.402 3.043-1.809 1.152-3.289 2.719-4.77 4.281l-11.84 12.184c-1.234 1.316-2.633 2.883-2.387 4.609.164 1.316 1.152 2.387 2.141 3.375l9.371 9.219c3.125 3.129 4.523 7.574 5.84 11.691.742 2.223.742 4.855.824 7.16.082 2.637 0 5.352-.332 7.984-.164 1.484-.41 2.965-.656 4.445-.656 3.457-1.645 6.832-2.219 10.293-1.398 7.652-.906 15.555 1.313 22.965 1.895 6.258 3.785 12.512 7.895 17.535 2.879 3.539 6.746 6.422 9.047 10.371 6.004 10.125 16.445 17.289 21.297 27.988 4.277 9.387 5.676 20.004 11.348 28.566 3.453 5.184 5.594 11.195 6.742 17.203.578 3.129.824 6.176 1.645 9.301.414 1.566.988 3.211 2.223 4.281s2.961 1.316 4.605 1.484c9.785.902 19.652-.578 29.027-3.543 1.395-.41 2.793-.988 3.699-2.055 1.563-1.977.82-4.859 1.398-7.246.41-1.727 1.48-3.129 2.301-4.691 2.137-3.871 3.125-8.398 3.371-12.844s-.164-8.891-.574-13.336c-.66-6.668-.742-13.332.492-20 1.234-6.586 2.797-13.254 2.387-19.922-.082-1.484-.246-3.047.574-4.281.988-1.398 2.797-1.73 4.523-2.059a59.84 59.84 0 0 0 17.598-6.258c1.973-1.07 2.711-3.703 3.371-5.926s.902-4.527 1.398-6.75c.738-3.293 2.055-6.504 1.809-9.879-.082-1.398-.41-2.797-.496-4.195-.082-1.484.086-2.883.168-4.363.164-4.695-.988-9.305-2.223-13.75 2.141-4.609 1.727-10.043 1.316-15.145a165.107 165.107 0 0 0-4.359-27.66c-.738-3.211-2.219-6.09-3.781-8.973l-2.551-4.691c-1.727-2.965-3.781-6.012-6.988-7.492-2.137-.988-4.687-1.152-6.742-2.387-.906-.578-1.727-1.316-2.551-1.977-2.875-2.223-6.578-3.047-10.113-3.867-.82.328-1.891-.082-2.465-.742-.66-.66-.988-1.562-1.398-2.387-1.234-2.883-2.797-5.598-4.605-8.23-.492-.742-1.07-1.484-1.809-1.977s-1.727-.742-2.551-.496c-.656.25-1.234.824-1.645 1.402-.82.902-1.645 2.055-1.398 3.293.328 1.398 1.809 1.973 2.879 2.797 2.469 1.813 3.371 5.352 2.879 8.398s-2.055 5.844-3.535 8.559l-9.211 16.383c-4.523 8.066-12.746 13.254-20.723 17.863-1.234.656-2.551 1.398-3.863 1.234s-2.387-.988-3.289-1.895c-5.266-5.184-7.73-12.594-9.621-19.754-.742-2.883-1.48-5.93-1.152-8.891.41-3.129 1.973-5.848 3.125-8.727.574-1.398 1.07-2.801 1.234-4.281.246-1.562 1.148-2.883 1.973-4.199 2.055-3.457 2.633-7.656 1.727-11.523.164.164 0 .246 0 .492zm0 0"/></g><path fill="#c5815c" stroke="#fff" stroke-miterlimit="10" stroke-width=".617" d="M241.82 17.781c-3.453-.742-7.156-.082-10.281 1.563s-5.672 4.363-7.398 7.492c-2.387 4.281-3.207 9.137-4.031 13.996l-1.563 9.301c-.41 2.633-.902 5.27-1.066 7.902-.082.988-.246 2.059-.246 3.047 0 1.234.656 2.551.984 3.703l4.605 15.723c.082.41.246.824.328 1.234.742 2.551 1.563 5.188 3.371 7.164 1.398 1.48 3.453 2.387 5.512 2.551 2.711.164 5.262-.988 7.645-2.141 8.391-3.953 16.941-8.809 21.629-16.875.984-1.648 1.727-3.375 3.125-4.691 1.316-1.238 3.043-1.895 4.523-2.883 4.684-2.965 7.152-8.48 8.551-13.828.246-.824.082-1.648-.246-2.473-.246-.82-.906-1.563-1.645-1.809-.578-.164-1.152-.164-1.645-.246-1.563-.25-2.633-1.566-3.453-2.965-.824-1.316-1.398-2.801-2.469-3.953-2.219-2.305-2.301-6.09-3.371-9.055-.246-.656-.492-1.398-.988-1.973s-1.148-.988-1.809-1.32l-10.938-6.172c-1.891-1.07-3.863-2.141-6-2.305-.578-.082-1.234 0-1.809-.164-.66-.25-1.07-.332-1.316-.824zm0 0"/><path fill="#221b1b" d="M256.539 58.117c-1.398-1.398-3.289-2.305-5.262-2.715s-3.949-.414-5.922-.332l-5.922.164c.164 0 .164 1.73.164 1.895 0 .496-.164 1.07.496.988l4.027-.164 7.977-.082 4.441.246zM219.863 46.43c-.738-.742.906-.988 1.316-.988 1.891-.082 3.289 1.398 4.523 2.633l2.879 2.715c.328.25.656.414.82.742.328.742-.082 1.73-.41 2.387a.176.176 0 0 1-.164.164c-.164.082-.578-.492-.66-.574-.246-.246-.492-.578-.82-.824-.246-.164-.41-.41-.66-.574-.082-.082-.656-.496-.656-.578l-4.113-3.129-2.055-1.973zm11.266-18.278c1.152.578 1.973 1.566 2.961 2.387 2.879 2.473 6.66 3.293 10.441 3.953 3.703.574 7.566.988 10.855 2.715 3.371 1.73 6.168 5.188 5.758 8.891-.082 1.234-.578 2.469-.742 3.707s.082 2.633 1.07 3.375c.738.574 1.645.656 2.551.984s1.727.988 1.727 1.895c0 .742-.66 1.398-.332 2.059.25.742 1.398.742 1.977.164s.738-1.398.984-2.141c.66-1.891 1.973-3.457 3.703-4.527 1.23-.738 2.957-1.07 3.863.082.738.906.492 2.305.082 3.457-.906 2.387-2.301 4.609-4.113 6.422-1.973 1.977-4.437 3.211-6.824 4.691-.328.164-.656.414-.738.824-.246.824.738 1.316 1.48 1.73 1.809 1.07 2.629 3.293 3.125 5.348s.984 4.281 2.465 5.762c1.891 1.813 4.77 1.977 7.156 3.047s4.438 3.211 6.988 3.211c.246 0 .492 0 .656-.164.66-.328.496-1.234.328-1.977-3.945-14.98-4.437-30.703-3.699-46.18.41-8.645-.164-17.535-3.371-25.52-1.398-3.457-3.207-6.832-6.25-9.055-2.547-1.895-7.398-3.293-10.195-1.07-3.125 2.469-7.32 2.387-11.184 2.059s-7.895-.906-11.43.574c-2.137.906-3.949 2.473-5.594 4.117-3.945 3.785-7.48 7.902-10.113 12.676s-4.191 10.125-3.945 15.559c0-.41.738-1.316.902-1.727.332-.66.742-1.316 1.07-2.059.574-1.152 1.152-2.551 1.973-3.539 1.563-1.812 4.441-2.637 6.414-1.73zm0 0"/><path fill="#c5815c" d="M144.293 163.484a109.51 109.51 0 0 1 .742 14.734c-.082 2.141-.164 4.363-1.07 6.258-1.234 2.551-3.781 4.281-6.414 5.27-2.629 1.07-5.508 1.48-8.223 2.305-6.414 1.977-12.168 5.844-16.363 11.113s-6.66 11.77-7.152 18.438c-.742 10.207-4.031 19.84-5.758 29.883s-4.113 20.086-8.633 29.223c-1.977 4.035-3.125 8.48-3.621 12.926-.328 3.125-.328 6.5 1.316 9.301 2.387 4.199 7.813 5.926 12.664 5.68 2.387-.082 4.934-.742 6.332-2.551 1.316-1.812 1.316-4.199 2.137-6.34.66-1.812 1.973-3.293 2.797-4.937 1.398-2.801 1.645-6.012 1.809-9.055.164-2.719.328-5.516-.246-8.234-.738-3.047-2.469-5.68-3.699-8.559-2.469-5.766-2.961-12.434-1.398-18.523.328-1.398.656-3.047 1.645-4.035 1.066-.984 2.465-1.891 3.699-2.551 2.633-1.48 5.426-2.633 8.387-3.211a25.14 25.14 0 0 1 6.992-.492c5.918.328 11.84 2.633 17.68 1.563 2.711-.492 5.262-1.727 7.727-2.879l21.465-10.211 14.555 13.914c1.645 1.563 3.371 3.129 5.426 3.949 2.961 1.238 6.414.824 9.621.414 1.973-.246 3.945-.496 5.84-1.234s3.617-1.977 4.52-3.789c.906-1.727.906-3.867.742-5.844-.742-10.617-4.852-21.156-3.207-31.691.656-4.363 3.535-8.152 3.125-12.512-2.223-2.473-5.43-3.707-8.719-4.281-3.207-.578-6.578-.578-9.867-.906-4.273-.41-8.469-1.398-12.578-2.883-2.223-.82-4.441-1.809-6.168-3.539-1.562-1.562-2.633-3.539-3.371-5.598a33.978 33.978 0 0 1-2.141-13.746c.246-3.375 1.152-6.504 1.809-9.879.25-1.316.496-2.551.414-3.867s-.66-2.637-1.727-3.375c-1.562-1.152-3.949-.742-5.594.41s-2.629 2.965-3.617 4.691c-1.48 2.633-3.125 5.27-5.676 6.832-2.137 1.316-4.687 1.648-7.152 2.387-3.371 1.07-6.578 2.801-9.047 5.434zm0 0"/><path fill="#e6ceb8" d="M124.969 135.578c-.984 2.801-1.809 5.762-3.863 7.82-1.07 1.152-2.551 2.059-2.879 3.539-.41 1.402.328 2.883.328 4.363 0 1.648-.82 3.129-.902 4.777-.164 1.645.41 3.207.492 4.855.164 3.293-1.48 6.34-2.301 9.551-.414 1.563-.66 3.207-.414 4.773s1.07 3.129 2.387 4.031c.988.742 2.551.906 3.371 0 .656-.82.41-2.055.656-3.043.414-2.059 2.715-3.211 4.77-3.625 2.223-.492 4.605-.574 6.828.168 2.219.656 4.191 2.137 5.18 4.195.492.988 1.07 2.305 2.137 2.223.66-.082 1.152-.574 1.48-1.07 1.973-3.043 1.973-6.832 2.055-10.453.25-8.891 1.398-17.699 3.539-26.258.246-.906.41-1.812 0-2.637-.332-.574-.824-.906-1.398-1.234-3.207-2.059-6.578-3.867-9.949-5.598-1.73-.906-3.539-1.73-5.266-2.551-.738-.332-1.316-.824-2.137-.332-.656.414-1.234 1.07-1.645 1.648-1.152 1.398-1.809 3.129-2.469 4.855zm0 0"/><path fill="#c5815c" stroke="#fff" stroke-miterlimit="10" stroke-width=".617" d="M147.746 106.109c-4.52-.082-9.043 1.895-12.004 5.352-2.383 2.715-3.699 6.172-4.441 9.711-.82 3.543-1.148 7.082-1.727 10.621-.82 4.855-2.055 9.797-1.398 14.734.578 4.445 2.715 8.48 4.77 12.43 1.152 2.141 2.551 4.281 4.195 6.176 1.563 1.809 3.699 3.375 6.086 3.867s4.77-.164 7.07-.738c4.277-1.238 8.469-2.637 12.254-4.859s7.234-5.27 9.289-9.219c.742-1.316 1.316-2.801 2.551-3.703.988-.742 2.301-.988 3.535-1.402 4.77-1.645 8.141-6.75 7.73-11.77-.164-2.801-1.563-5.352-2.715-7.902s-2.711-4.941-4.934-6.668c-.902-.742-1.891-1.316-2.879-1.895-3.863-2.305-7.727-4.609-12.004-5.926-5.758-1.813-9.293-8.645-15.379-8.809zm0 0"/><g fill="#221b1b"><path d="M161.563 127.758c-1.398-1.398-3.289-2.223-5.262-2.551s-3.949-.246-5.922 0c-.984.082-2.547.328-3.043 1.316-.41.906.41 1.73 1.316 1.648 1.316-.082 2.715-.66 4.031-.824 1.395-.164 2.793-.246 4.191-.164 1.563 0 3.125.246 4.688.574zm-31.493 0c0-.906.738-1.727 1.645-1.973s1.809-.086 2.711.082 1.727.41 2.633.738c.328.082.738.246.984.496.414.41.824 1.727.414 2.223-.328.41-1.973-.414-2.551-.496-.492-.164-5.836-1.152-5.836-1.07m0 0"/><path d="M144.707 111.461c4.109-.25 8.305.164 12.086 1.727s7.156 4.363 8.965 8.066c.656 1.32 1.066 2.719 1.973 3.871 1.152 1.48 2.961 2.387 3.699 4.035.578 1.316.41 2.879.41 4.277s.578 3.129 1.895 3.625c1.563.574 3.207-.578 4.355-1.73s2.551-2.469 4.195-2.305c.984.164 1.809.824 2.301 1.73.496.82.66 1.891.66 2.797a11.029 11.029 0 0 1-1.152 5.352c-.824 1.809-2.055 2.797-3.781 3.621-1.07.496-2.141.988-2.961 1.73a3.67 3.67 0 0 0-.988 1.727c-.164.578-.164 1.152-.246 1.73s-.246 1.07-.41 1.645c-.41 1.234-.66 2.469-.824 3.703-.574 3.379-.82 6.754-.656 10.129.082 2.305.328 4.527.984 6.668.742 2.137 1.895 4.195 3.703 5.598a4.33 4.33 0 0 0 1.727.902 1.86 1.86 0 0 0 1.809-.492c.41-.41.492-1.07.574-1.648.578-3.703 1.152-7.57-.41-10.945-.41-.906-.988-1.812-1.316-2.801-.656-2.141.164-4.363 1.316-6.254 1.234-1.895 2.797-3.543 4.113-5.352s2.383-3.953 2.219-6.258c-.328-4.691-.41-9.301-.574-13.91-.332-7.328-2.387-14.488-5.922-20.91-4.523-8.23-14.391-13.008-23.848-13.418-7.812-.328-15.621 2.551-21.625 7.656-2.633 2.223-4.934 4.938-6.496 7.984s-2.305 6.586-1.891 10.043c.328 2.883.41 5.762.492 8.645 1.398-2.801 1.152-6.094 1.645-9.223.738-4.445 3.289-8.559 6.988-11.277 1.809-1.316 4.605-.738 6.992-.738zm0 0"/></g><path fill="#c5815c" d="M131.137 388.051c4.441 3.539 8.387 7.574 12.91 10.949s9.703 6.172 15.379 6.586c1.316.082 2.793.082 3.863.988 1.152.988 1.316 2.715 2.137 3.949.988 1.398 2.797 1.977 4.523 1.977s3.371-.66 4.934-1.234c2.879-1.07 6.168-2.633 6.414-5.68.164-1.73-.738-3.293-1.398-4.859-1.066-2.551-1.312-5.43-.902-8.148.246-1.727.82-3.621.164-5.27-.824-1.891-3.043-2.715-5.016-3.289-4.359-1.156-8.801-1.895-13.32-2.141-4.687-.25-9.457-.082-13.816-1.812-3.535-1.398-6.414-3.953-9.293-6.422a250.76 250.76 0 0 0-19.16-14.57c-2.301-1.562-5.016-3.211-7.809-2.633-3.207.656-5.102 3.867-6.578 6.832-1.316 2.715-2.797 5.598-2.797 8.645 0 1.152 0 2.469 1.148 2.961 1.234.496 2.797.578 4.113.988 5.676 1.484 11.184 3.789 16.363 6.668 2.797 1.648 5.512 3.457 8.141 5.516zm0 0"/><path fill="#5f3629" d="M121.105 338.496c4.605 4.691 9.293 9.629 11.758 15.723.824 1.977 1.398 4.199.742 6.254-1.07 3.461-5.348 5.105-8.883 4.445-3.535-.574-6.578-2.879-9.539-5.02-3.371 6.832-7.152 14.078-13.648 18.027-5.512 3.293-11.758 3.703-17.926 3.621-6.414-.082-12.91-.738-19.242-2.059-12.746-2.551-25-7.324-36.348-13.5l-6.578-3.785c-2.547-1.562-5.016-3.129-7.398-4.937-2.387-1.73-5.184-3.707-6.992-6.094-1.645-2.141-2.711-5.434-3.781-7.984-1.234-2.965-2.301-6.09-2.797-9.301-.574-3.871-.41-7.902.578-11.691.574-2.141 1.313-4.199 2.711-5.926 2.797-3.539 7.32-5.023 11.68-6.176 11.758-3.207 24.34-1.152 36.344.906 6.414 1.07 12.664 2.883 18.914 4.609l29.027 8.398c4.027 1.07 8.223 2.223 11.676 4.527 3.781 2.715 6.414 6.668 9.703 9.961zm0 0"/><path fill="#e6ceb8" d="M128.258 192.789a583.913 583.913 0 0 0-10.113 21.898c-1.727 3.871-3.371 7.738-4.027 11.855-.332 2.223-.414 4.445-.906 6.586-1.316 5.348-5.344 9.547-7.07 14.734-.988 2.879-1.973 5.844-2.223 8.891s.332 6.254 1.895 8.809c1.395 2.305 3.617 4.113 4.852 6.582 1.148 2.391 1.148 5.105 1.148 7.738 0 4.777 1.48 9.633.742 14.324-.246 1.398-.66 2.801-1.07 4.199-.574 1.977-1.234 3.949-1.891 5.926-.906 2.719-1.891 5.516-2.633 8.316-1.891 7.324-1.973 15.145-.328 22.555 1.07 4.609 3.617 9.137 7.402 12.02 3.863 2.961 9.125 3.867 13.977 3.457s9.621-2.059 14.227-3.707l17.188-6.09c7.07-2.469 12.828-7.984 19.734-10.949 11.676-5.02 24.176-7.656 35.688-13.004-.656-2.059-1.234-4.363-1.48-6.422-.41-2.719-.41-5.598-.574-8.398 0-.906-.082-1.977-.66-2.715-.41-.578-1.066-.906-1.727-1.234-.574-.414-1.148-.988-1.066-1.73.082-.656.492-1.07.902-1.562s.742-1.07.578-1.73c-.168-.492-.742-.738-.824-1.316-.082-.742.824-1.234.906-1.977.082-.492-.25-.988-.66-1.316s-.82-.574-1.152-.988-.41-1.07-.082-1.398c.168-.164.332-.246.496-.328.492-.332.656-.988.574-1.484 0-.574-.246-1.07-.328-1.645-.41-1.895-.164-3.871.41-5.68s1.563-3.539 2.469-5.187c.82-1.398 1.809-2.551 2.137-4.199s.246-3.293.164-4.937c-.082-2.883-.246-5.844-.82-8.645-.578-2.879-1.645-5.68-3.539-7.902-2.629-3.129-6.66-4.937-8.879-8.395-6.66-10.375-8.883-23.625-4.934-35.234.82-2.387 1.727-5.102.328-7.16-1.645-2.305-5.426-1.812-7.484.164s-2.875 4.855-3.863 7.492c-3.617 9.547-10.855 17.613-19.734 22.719s-19.324 7.242-29.52 6.586c-3.043-.164-6.25-.742-8.473-2.801s-2.961-5.348-2.711-8.312c.246-3.047 1.48-5.844 2.629-8.645l8.469-20.332c-2.629-.41-5.262-.164-8.141.574zm0 0"/><path fill="#c5815c" d="M101.617 286.965c1.891 3.539 5.262 6.09 8.715 8.148 7.977 4.773 16.859 7.738 25.82 10.043.742.164 1.398.328 2.141.246s1.48-.492 1.645-1.234c.246-.742-.164-1.645-.824-2.141s-1.48-.738-2.219-.906c-3.207-.902-6.332-2.305-9.211-4.113-.246-.164-.492-.332-.492-.578 0-.574.82-.574 1.316-.41l18.582 5.926c.742.246 1.48.328 2.219.164s1.48-.738 1.645-1.48c.168-.66-.164-1.398-.738-1.895-.492-.492-1.152-.738-1.809-1.07l-6.086-2.715c-2.219-.988-4.523-1.977-6.988-2.387-.41-.082-.906-.164-1.316-.332-.41-.246-.738-.656-.738-1.07 3.371-.082 6.742.824 9.867 1.977 3.207 1.152 6.332 2.469 9.621 3.293.82.164 1.645.328 2.465.246.824-.164 1.645-.656 1.809-1.48.246-.742-.082-1.562-.656-2.141s-1.316-.906-1.973-1.316c-1.234-.66-2.551-1.234-3.867-1.812-3.617-1.645-7.398-3.043-11.184-4.031 2.879-.246 5.676.738 8.305 1.809s5.43 2.223 8.309 2.223c.984 0 2.055-.246 2.465-1.07.246-.574.164-1.234-.082-1.727s-.738-.988-1.152-1.316a21.07 21.07 0 0 0-11.84-5.105c.246-.41.492-.742.988-.742.164-1.234-.824-2.305-1.809-3.125-1.316-1.152-2.797-2.141-4.277-3.047-4.113-2.469-8.965-4.035-13.57-3.047-3.535.742-6.66 2.883-10.277 3.129-2.961.164-6.004-.988-8.879-.246-1.977.492-3.703 1.891-4.934 3.539s-1.895 3.703-2.223 5.68c-.164.824-.246 1.645-.082 2.469s.492 1.316 1.316 1.648zm97.524-86.848c-1.312 6.832-1.562 13.828-1.48 20.828 0 4.527.168 9.219 2.059 13.418 1.148 2.633 2.961 4.938 4.605 7.324 1.559 2.387 3.039 5.023 3.371 7.82 1.891 15.805 8.223 30.707 9.785 46.594.164 1.563.492 3.129-.332 4.445s-2.137 2.223-3.371 3.129c-14.223 10.371-28.695 20.742-45.062 27.246-3.039 1.234-5.262 4.035-8.141 5.516s-6.246 2.305-9.453 1.813c-1.977-.332-3.867-1.07-5.84-1.566-7.895-2.141-16.281.246-24.094 2.637-1.398.41-3.125 1.234-3.207 2.715-.082 1.07.824 1.977 1.891 2.305.988.328 2.141.164 3.207 0l5.43-.742c.984-.164 2.219-.164 2.793.578.66.824.164 2.223-.738 2.797s-2.055.66-3.125.66l-12.09.246c-.82 0-1.645 0-2.465.414-.742.328-1.398 1.07-1.316 1.891.082 1.234 1.563 1.813 2.797 1.977 1.234.082 2.629.164 3.453 1.07-1.398.41-2.387 2.059-1.973 3.457s2.137 2.305 3.535 1.813a14.55 14.55 0 0 0 8.961 3.703c6.5.246 12.254-3.953 17.68-7.656 8.227-5.68 16.941-10.617 25.902-14.816 4.441-2.059 9.047-4.363 13.816-5.352l16.035-3.047c1.563-.328 3.125-.574 4.688-.902 4.934-.906 10.195-1.648 14.801-3.789a132.925 132.925 0 0 0 13.566-7.16l5.184-3.293c1.313-.906 2.711-1.895 3.453-3.293.738-1.316.82-2.883.82-4.445.246-9.055-.246-18.027-.738-27.082-.246-4.859-2.055-9.633-3.125-14.406l-3.371-15.477c-.496-2.633-.906-5.27-1.152-7.902-.246-2.551-.246-5.023-.902-7.41a182.97 182.97 0 0 0-10.281-28.398 191.351 191.351 0 0 0-8.141-15.887c-1.152-1.977-3.863-2.719-6.086-3.457s-4.602-.824-6.824 0c-2.137.82-3.945 2.633-4.523 4.855-.328 2.305.496 4.527 0 6.832zm0 0"/><path fill="#5f3629" d="M185.82 322.609c6.988-2.719 14.719-3.789 22.039-2.391 5.918 1.152 10.688 4.117 15.539 7.492 2.223 1.48 3.621 5.023 4.605 7.41 1.234 2.961 2.055 6.008 2.633 9.137l.246 1.48c.988 6.668.738 13.418.492 20.168-.328 8.07-.738 16.547-5.262 23.215-3.945 5.844-10.523 9.469-17.434 10.949s-13.977.988-20.969 0c-2.629-.41-5.59-1.07-6.988-3.293-1.07-1.73-.988-4.035-2.137-5.762-1.977-3.047-6.414-2.719-9.953-2.059l-41.277 7.738c-7.977-3.953-12.91-13.254-11.266-21.98.492-2.305 1.316-4.609 2.961-6.336 1.891-2.059 4.688-3.129 7.234-4.363 16.363-7.574 28.699-21.57 43.828-31.363 2.059-1.32 4.688-1.73 6.496-3.375 1.07-1.07 1.895-2.391 2.961-3.461 1.809-1.891 3.785-2.305 6.25-3.207zm0 0"/><path fill="#c5815c" d="M122.258 366.813c-19.738 13.828-45.887 18.109-68.992 11.277-3.617-1.07-7.238-2.387-11.02-2.305-3.371.082-6.742 1.316-10.113 1.48-1.891.086-3.863-.164-5.758-.082s-3.945.578-5.344 1.813c-1.398 1.316-2.055 3.621-.988 5.27 1.234 1.891 4.031 1.977 6.25 1.48 2.223-.41 4.605-1.152 6.742-.246-1.645 2.469-5.426 1.727-8.223 2.633-1.562.496-2.957 1.73-3.371 3.293-.328 1.316.328 3.621 1.891 3.871.906.164 2.305-.578 3.125-.742l3.539-.988c.328-.082.82-.164.984.164.082.246 0 .496-.246.578-.164.164-.41.164-.656.246-1.727.328-3.621.742-5.184 1.645-2.465 1.402 1.398 4.859 3.539 3.625.492-.25.82-.082 1.313-.082-.164.984.742 1.809 1.727 1.973s1.895-.082 2.879-.328c16.777-4.527 34.621 1.977 51.969.742 6.582-.496 12.992-2.059 19.324-3.707l22.781-5.68c1.477-.328 3.039-.82 3.945-2.059.738-1.066.82-2.387.82-3.703 0-4.199-.164-8.477-1.809-12.348-1.562-3.785-4.934-7.324-9.125-7.82zm135.019-161.344a53.57 53.57 0 0 1-16.199-1.484c-2.711-.656-5.18-1.066-7.977-1.152a67.324 67.324 0 0 0-5.754 0c-1.727.086-2.879.25-4.277-.902-2.055-1.73-2.715-4.609-4.523-6.586-2.875-3.211-8.059-3.211-12.168-1.895s-7.977 3.703-12.254 4.281c-1.48.246-2.961.246-4.273.906-.988.574-1.812 1.48-2.797 1.973s-2.551.414-2.961-.656c-.906.41-1.809.824-2.797.742s-1.973-.66-2.219-1.566c-.246-1.07.656-2.059 1.48-2.879l8.305-7.656c-2.797 1.07-5.676 1.809-8.633 2.387-.988.164-2.141.328-2.879-.414-.578-.574-.578-1.562-.246-2.223.328-.738.984-1.316 1.645-1.809 5.18-3.953 11.922-5.187 18.418-5.762 3.289-.332 6.578-.496 9.703.41 3.453.988 6.332 3.211 9.539 4.691 4.77 2.223 10.195 2.801 15.543 2.469 2.711-.164 5.344-.574 8.059-1.066 1.313-.25 2.629-.496 3.945-.824.824-.164 1.973-.66 2.879-.414 1.645.496 2.879 3.543 3.699 4.859 1.234 2.141 2.469 4.363 3.535 6.586.332.988 2.961 7.984 3.207 7.984m-129.922-35.071c2.219-.328 4.523 0 6.66.66 1.563.492 3.125 1.152 4.359 2.305 1.148 1.152 1.973 2.883 1.645 4.445-.164 1.234-.906 2.469-.328 3.539.41.824 1.477 1.152 2.137 1.73 1.234 1.152 1.066 3.293.328 4.855s-1.809 2.965-2.219 4.609l-.414 2.387c-.164.824-.492 1.566-1.148 2.059s-1.645.578-2.223 0c-.328.824-.246 1.73-.246 2.637s.082 1.809-.082 2.715c-.246.906-.738 1.73-1.562 2.059s-1.973 0-2.301-.824c.328.824-.246 1.813-.988 2.141s-1.809.082-2.465-.41c-.66-.578-1.07-1.402-1.316-2.223-.824.82-2.223.656-3.207 0s-1.48-1.73-2.055-2.719c-1.316-2.551-2.633-5.184-2.961-8.066-.164-1.398 0-2.965 1.066-3.867.742-.578 1.727-.824 2.223-1.648.328-.574.328-1.316.246-1.977l-.906-10.289c-.164-1.645.082-1.977 1.563-2.879 1.316-.578 2.715-1.07 4.195-1.238zm0 0"/></svg>